<svg width="1112" height="4989" viewBox="0 0 1112 4989" fill="none" xmlns="http://www.w3.org/2000/svg">
<path opacity="0.03" d="M1 0V-0.5H0.5V0H1ZM66 0H66.5V-0.5H66V0ZM1 5205H0.5V5205.5H1V5205ZM66 5205V5205.5H66.5V5205H66ZM96 0V-0.5H95.5V0H96ZM161 0H161.5V-0.5H161V0ZM96 5205H95.5V5205.5H96V5205ZM161 5205V5205.5H161.5V5205H161ZM256 0H256.5V-0.5H256V0ZM191 0V-0.5H190.5V0H191ZM256 5205V5205.5H256.5V5205H256ZM191 5205H190.5V5205.5H191V5205ZM286 0V-0.5H285.5V0H286ZM351 0H351.5V-0.5H351V0ZM286 5205H285.5V5205.5H286V5205ZM351 5205V5205.5H351.5V5205H351ZM446 0H446.5V-0.5H446V0ZM381 0V-0.5H380.5V0H381ZM446 5205V5205.5H446.5V5205H446ZM381 5205H380.5V5205.5H381V5205ZM476 0V-0.5H475.5V0H476ZM541 0H541.5V-0.5H541V0ZM476 5205H475.5V5205.5H476V5205ZM541 5205V5205.5H541.5V5205H541ZM636 0H636.5V-0.5H636V0ZM571 0V-0.5H570.5V0H571ZM636 5205V5205.5H636.5V5205H636ZM571 5205H570.5V5205.5H571V5205ZM666 0V-0.5H665.5V0H666ZM731 0H731.5V-0.5H731V0ZM666 5205H665.5V5205.5H666V5205ZM731 5205V5205.5H731.5V5205H731ZM826 0H826.5V-0.5H826V0ZM761 0V-0.5H760.5V0H761ZM826 5205V5205.5H826.5V5205H826ZM761 5205H760.5V5205.5H761V5205ZM856 0V-0.5H855.5V0H856ZM921 0H921.5V-0.5H921V0ZM856 5205H855.5V5205.5H856V5205ZM921 5205V5205.5H921.5V5205H921ZM1016 0H1016.5V-0.5H1016V0ZM951 0V-0.5H950.5V0H951ZM1016 5205V5205.5H1016.5V5205H1016ZM951 5205H950.5V5205.5H951V5205ZM1046 0V-0.5H1045.5V0H1046ZM1111 0H1111.5V-0.5H1111V0ZM1046 5205H1045.5V5205.5H1046V5205ZM1111 5205V5205.5H1111.5V5205H1111ZM1 0.5H66V-0.5H1V0.5ZM1.5 5205V0H0.5V5205H1.5ZM66 5204.5H1V5205.5H66V5204.5ZM65.5 0V5205H66.5V0H65.5ZM96 0.5H161V-0.5H96V0.5ZM96.5 5205V0H95.5V5205H96.5ZM161 5204.5H96V5205.5H161V5204.5ZM160.5 0V5205H161.5V0H160.5ZM256 -0.5H191V0.5H256V-0.5ZM256.5 5205V0H255.5V5205H256.5ZM191 5205.5H256V5204.5H191V5205.5ZM190.5 0V5205H191.5V0H190.5ZM286 0.5H351V-0.5H286V0.5ZM286.5 5205V0H285.5V5205H286.5ZM351 5204.5H286V5205.5H351V5204.5ZM350.5 0V5205H351.5V0H350.5ZM446 -0.5H381V0.5H446V-0.5ZM446.5 5205V0H445.5V5205H446.5ZM381 5205.5H446V5204.5H381V5205.5ZM380.5 0V5205H381.5V0H380.5ZM476 0.5H541V-0.5H476V0.5ZM476.5 5205V0H475.5V5205H476.5ZM541 5204.5H476V5205.5H541V5204.5ZM540.5 0V5205H541.5V0H540.5ZM636 -0.5H571V0.5H636V-0.5ZM636.5 5205V0H635.5V5205H636.5ZM571 5205.5H636V5204.5H571V5205.5ZM570.5 0V5205H571.5V0H570.5ZM666 0.5H731V-0.5H666V0.5ZM666.5 5205V0H665.5V5205H666.5ZM731 5204.5H666V5205.5H731V5204.5ZM730.5 0V5205H731.5V0H730.5ZM826 -0.5H761V0.5H826V-0.5ZM826.5 5205V0H825.5V5205H826.5ZM761 5205.5H826V5204.5H761V5205.5ZM760.5 0V5205H761.5V0H760.5ZM856 0.5H921V-0.5H856V0.5ZM856.5 5205V0H855.5V5205H856.5ZM921 5204.5H856V5205.5H921V5204.5ZM920.5 0V5205H921.5V0H920.5ZM1016 -0.5H951V0.5H1016V-0.5ZM1016.5 5205V0H1015.5V5205H1016.5ZM951 5205.5H1016V5204.5H951V5205.5ZM950.5 0V5205H951.5V0H950.5ZM1046 0.5H1111V-0.5H1046V0.5ZM1046.5 5205V0H1045.5V5205H1046.5ZM1111 5204.5H1046V5205.5H1111V5204.5ZM1110.5 0V5205H1111.5V0H1110.5Z" fill="black"/>
</svg>
