<svg width="319" height="268" viewBox="0 0 319 268" fill="none" xmlns="http://www.w3.org/2000/svg">
<path d="M312.887 141.808C312.887 141.808 313.885 132.13 317.448 136.021" stroke="#2E353A" stroke-linecap="round" stroke-linejoin="round"/>
<path d="M281.696 84.9841C283.314 68.2662 287.183 52.439 280.342 36.3624C267.786 6.86007 229.911 -8.80321 200.479 5.17118C185.429 12.2973 172.559 22.7229 155.984 26.5496C111.246 36.8754 42.1933 -18.1385 17.8432 45.9114C9.48422 67.8885 12.8549 96.8492 27.9695 115.22C32.8224 121.114 38.7513 126.245 42.3429 132.986C52.1699 151.436 38.2596 171.709 31.9886 188.919C17.095 229.588 73.2491 252.092 103.728 256.24C154.11 263.138 195.669 205.416 245.773 228.932C280.691 245.323 311.334 205.416 304.92 165.51C300.723 139.385 279.473 114.38 281.461 87.7562C281.532 86.8369 281.611 85.9176 281.696 84.9841Z" fill="#2AB9F6"/>
<path opacity="0.7" d="M281.696 84.9841C283.314 68.2662 287.183 52.439 280.342 36.3624C267.786 6.86007 229.911 -8.80321 200.479 5.17118C185.429 12.2973 172.559 22.7229 155.984 26.5496C111.246 36.8754 42.1933 -18.1385 17.8432 45.9114C9.48422 67.8885 12.8549 96.8492 27.9695 115.22C32.8224 121.114 38.7513 126.245 42.3429 132.986C52.1699 151.436 38.2596 171.709 31.9886 188.919C17.095 229.588 73.2491 252.092 103.728 256.24C154.11 263.138 195.669 205.416 245.773 228.932C280.691 245.323 311.334 205.416 304.92 165.51C300.723 139.385 279.473 114.38 281.461 87.7562C281.532 86.8369 281.611 85.9176 281.696 84.9841Z" fill="white"/>
<path d="M41.8016 95.8585C55.3914 95.8585 66.4082 84.8417 66.4082 71.2519C66.4082 57.662 55.3914 46.6453 41.8016 46.6453C28.2117 46.6453 17.1949 57.662 17.1949 71.2519C17.1949 84.8417 28.2117 95.8585 41.8016 95.8585Z" fill="white" stroke="#2E353A" stroke-linecap="round" stroke-linejoin="round"/>
<path d="M39.9701 93.4147C53.56 93.4147 64.5768 82.3979 64.5768 68.808C64.5768 55.2182 53.56 44.2014 39.9701 44.2014C26.3803 44.2014 15.3635 55.2182 15.3635 68.808C15.3635 82.3979 26.3803 93.4147 39.9701 93.4147Z" fill="white" stroke="#2E353A" stroke-linecap="round" stroke-linejoin="round"/>
<path d="M39.9703 90.9699C52.2103 90.9699 62.1327 81.0475 62.1327 68.8076C62.1327 56.5677 52.2103 46.6453 39.9703 46.6453C27.7304 46.6453 17.808 56.5677 17.808 68.8076C17.808 81.0475 27.7304 90.9699 39.9703 90.9699Z" fill="#2E353A" stroke="#2E353A" stroke-linecap="round" stroke-linejoin="round"/>
<path d="M37.3692 52.1466C37.3692 52.1466 34.9249 46.0323 30.6492 41.7566C26.3735 37.4809 8.94293 34.7231 8.94293 34.7231C11.7576 37.4379 14.3171 40.4053 16.5893 43.588C20.5586 49.0894 33.6921 61.6243 33.6921 61.6243C33.6921 61.6243 27.2785 56.1229 21.4636 55.5101C15.6486 54.8972 0.983011 57.9544 0.0851157 57.9544C-0.81278 57.9544 5.58651 60.3986 10.1758 62.5365C14.765 64.6743 32.4877 66.5129 32.4877 66.5129C32.4877 66.5129 24.8485 68.6507 19.6607 70.4893C14.4728 72.3278 9.55578 85.7678 9.55578 85.7678C9.55578 85.7678 16.2829 79.6535 22.0907 78.1285C27.8985 76.6035 36.1506 73.8528 36.1506 73.8528C36.1506 73.8528 30.9556 79.6606 29.737 83.637C28.5185 87.6134 29.4306 96.7777 29.4306 96.7777C29.4306 96.7777 32.1813 88.2263 35.5449 84.8556C38.9084 81.4849 42.5641 75.7199 42.5641 75.7199C44.2572 78.4796 45.7895 81.3348 47.1534 84.2713C49.5976 89.4662 51.1226 97.0984 51.1226 97.0984C51.1226 97.0984 55.099 88.547 54.7926 84.2713C54.4862 79.9956 49.9041 72.3492 49.9041 72.3492C49.9041 72.3492 52.9612 70.2114 57.5433 72.0428C62.1254 73.8742 70.0782 81.5206 70.0782 81.5206C70.0782 81.5206 68.2397 71.4299 65.1826 67.4607C62.1254 63.4914 48.9848 62.2586 48.9848 62.2586C48.9848 62.2586 56.3247 57.9829 60.9069 57.0636C65.489 56.1443 71.5961 58.2893 71.5961 58.2893C71.5961 58.2893 64.5697 48.5051 59.0683 47.8922C53.5669 47.2794 45.3148 55.8165 45.3148 55.8165L47.7662 43.588C48.3719 40.5309 47.1534 32.8988 47.1534 32.8988C47.1534 32.8988 43.7898 34.7302 39.8134 40.538C38.6497 42.2109 37.8337 44.1003 37.4139 46.0944C36.994 48.0884 36.9788 50.1465 37.3692 52.1466Z" fill="#2AB9F6"/>
<path opacity="0.5" d="M37.3692 52.1466C37.3692 52.1466 34.9249 46.0323 30.6492 41.7566C26.3735 37.4809 8.94293 34.7231 8.94293 34.7231C11.7576 37.4379 14.3171 40.4053 16.5893 43.588C20.5586 49.0894 33.6921 61.6243 33.6921 61.6243C33.6921 61.6243 27.2785 56.1229 21.4636 55.5101C15.6486 54.8972 0.983011 57.9544 0.0851157 57.9544C-0.81278 57.9544 5.58651 60.3986 10.1758 62.5365C14.765 64.6743 32.4877 66.5129 32.4877 66.5129C32.4877 66.5129 24.8485 68.6507 19.6607 70.4893C14.4728 72.3278 9.55578 85.7678 9.55578 85.7678C9.55578 85.7678 16.2829 79.6535 22.0907 78.1285C27.8985 76.6035 36.1506 73.8528 36.1506 73.8528C36.1506 73.8528 30.9556 79.6606 29.737 83.637C28.5185 87.6134 29.4306 96.7777 29.4306 96.7777C29.4306 96.7777 32.1813 88.2263 35.5449 84.8556C38.9084 81.4849 42.5641 75.7199 42.5641 75.7199C44.2572 78.4796 45.7895 81.3348 47.1534 84.2713C49.5976 89.4662 51.1226 97.0984 51.1226 97.0984C51.1226 97.0984 55.099 88.547 54.7926 84.2713C54.4862 79.9956 49.9041 72.3492 49.9041 72.3492C49.9041 72.3492 52.9612 70.2114 57.5433 72.0428C62.1254 73.8742 70.0782 81.5206 70.0782 81.5206C70.0782 81.5206 68.2397 71.4299 65.1826 67.4607C62.1254 63.4914 48.9848 62.2586 48.9848 62.2586C48.9848 62.2586 56.3247 57.9829 60.9069 57.0636C65.489 56.1443 71.5961 58.2893 71.5961 58.2893C71.5961 58.2893 64.5697 48.5051 59.0683 47.8922C53.5669 47.2794 45.3148 55.8165 45.3148 55.8165L47.7662 43.588C48.3719 40.5309 47.1534 32.8988 47.1534 32.8988C47.1534 32.8988 43.7898 34.7302 39.8134 40.538C38.6497 42.2109 37.8337 44.1003 37.4139 46.0944C36.994 48.0884 36.9788 50.1465 37.3692 52.1466Z" fill="black"/>
<path d="M43.391 42.8398C43.6048 41.9633 43.8399 41.0868 44.1036 40.2245" stroke="#2E353A" stroke-width="0.5" stroke-linecap="round" stroke-linejoin="round"/>
<path d="M22.9736 42.8401C25.8241 44.9281 29.3872 47.8284 31.2542 50.3154C34.6178 54.8976 41.3449 64.6818 41.3449 64.6818C41.1522 58.1101 41.6731 51.537 42.8984 45.0777" stroke="#2E353A" stroke-width="0.5" stroke-linecap="round" stroke-linejoin="round"/>
<path d="M18.7275 39.918C18.7275 39.918 19.6182 40.4881 20.9508 41.4073" stroke="#2E353A" stroke-width="0.5" stroke-linecap="round" stroke-linejoin="round"/>
<path d="M41.3458 64.6815C41.3458 64.6815 52.9614 53.0658 57.8499 52.1466C62.7385 51.2273 67.0213 54.8973 67.0213 54.8973" stroke="#2E353A" stroke-width="0.5" stroke-linecap="round" stroke-linejoin="round"/>
<path d="M20.5871 74.3945C17.7366 76.1903 17.5015 77.245 17.5015 77.245" stroke="#2E353A" stroke-width="0.5" stroke-linecap="round" stroke-linejoin="round"/>
<path d="M66.7148 75.378C66.7148 75.378 64.8834 70.7888 58.4627 68.6509C52.0421 66.5131 41.9657 66.2067 41.9657 66.2067C41.9657 66.2067 27.8203 70.8387 22.6467 73.2544" stroke="#2E353A" stroke-width="0.5" stroke-linecap="round" stroke-linejoin="round"/>
<path d="M35.7795 64.4603C39.2001 65.458 41.9579 66.2063 41.9579 66.2063" stroke="#2E353A" stroke-width="0.5" stroke-linecap="round" stroke-linejoin="round"/>
<path d="M14.2521 59.0305C17.5729 59.23 21.8486 59.6861 24.2287 60.7052C26.167 61.5389 29.9866 62.7432 33.5925 63.8193" stroke="#2E353A" stroke-width="0.5" stroke-linecap="round" stroke-linejoin="round"/>
<path d="M9.55627 58.8734C9.55627 58.8734 10.6751 58.8734 12.3212 58.9376" stroke="#2E353A" stroke-width="0.5" stroke-linecap="round" stroke-linejoin="round"/>
<path d="M41.3457 68.0381C41.3457 68.0381 32.7943 80.8652 32.1744 83.9365C31.8071 85.7485 31.602 87.5896 31.5615 89.4379" stroke="#2E353A" stroke-width="0.5" stroke-linecap="round" stroke-linejoin="round"/>
<path d="M45.1504 72.0784C46.7965 74.2162 48.7705 77.0667 49.5971 79.347C50.5593 82.1292 51.2747 84.9908 51.735 87.8984" stroke="#2E353A" stroke-width="0.5" stroke-linecap="round" stroke-linejoin="round"/>
<path d="M42.5641 68.9576C42.5641 68.9576 43.2768 69.713 44.196 70.8746" stroke="#2E353A" stroke-width="0.5" stroke-linecap="round" stroke-linejoin="round"/>
<path d="M33.4854 54.7834C33.4854 54.7834 31.9105 48.3699 32.8868 42.4196C33.8631 36.4692 46.4265 24.0483 46.4265 24.0483C45.7282 27.895 45.3824 31.7973 45.3932 35.7067C45.3932 42.4908 42.0083 60.3347 42.0083 60.3347C42.0083 60.3347 44.0107 52.1254 48.3719 48.2203C52.7331 44.3151 66.4367 38.2436 67.1779 37.7234C67.919 37.2032 64.135 42.9184 61.6622 47.3366C59.1894 51.7548 45.8422 63.6056 45.8422 63.6056C45.8422 63.6056 53.2961 60.8834 58.5837 59.3299C63.8713 57.7764 75.6865 65.8575 75.6865 65.8575C75.6865 65.8575 66.6577 64.8171 61.0494 66.9621C55.4411 69.107 47.132 71.6867 47.132 71.6867C47.132 71.6867 54.7427 73.3756 58.0493 75.8911C61.3558 78.4067 65.9735 86.4093 65.9735 86.4093C65.9735 86.4093 58.7476 81.0576 54.0515 80.288C49.3553 79.5183 42.9917 76.9458 42.9917 76.9458C43.2331 80.1739 43.6565 83.3858 44.2601 86.5661C45.3077 92.2171 48.5358 99.3148 48.5358 99.3148C48.5358 99.3148 40.3194 94.6828 38.0675 91.0271C35.8157 87.3714 35.0888 78.4922 35.0888 78.4922C35.0888 78.4922 31.3547 78.5349 28.6752 82.6966C25.9958 86.8583 24.0219 97.7043 24.0219 97.7043C24.0219 97.7043 19.6322 88.4403 19.7961 83.452C19.96 78.4637 29.9223 69.784 29.9223 69.784C29.9223 69.784 21.4707 70.5893 17.2093 72.5133C12.9478 74.4374 9.22797 79.7464 9.22797 79.7464C9.22797 79.7464 9.22797 67.7032 13.3469 63.9976C17.4658 60.292 29.1598 62.4298 29.1598 62.4298L20.0383 53.9283C17.758 51.7905 14.2947 44.8781 14.2947 44.8781C14.2947 44.8781 18.1 44.4078 24.7131 46.8093C26.6353 47.4823 28.4025 48.5351 29.9095 49.905C31.4166 51.2749 32.6326 52.934 33.4854 54.7834Z" fill="#2AB9F6"/>
<path d="M23.1667 50.7357C22.4541 50.1442 21.7842 49.5741 21.0716 49.0183" stroke="#2E353A" stroke-width="0.5" stroke-linecap="round" stroke-linejoin="round"/>
<path d="M39.7496 38.8278C38.6451 42.1913 37.4123 46.6166 37.3838 49.7237C37.3267 55.4246 37.569 67.2754 37.569 67.2754C33.8908 61.8266 29.6304 56.7944 24.8631 52.2677" stroke="#2E353A" stroke-width="0.5" stroke-linecap="round" stroke-linejoin="round"/>
<path d="M41.5022 33.9749C41.5022 33.9749 41.1031 34.9583 40.5615 36.4761" stroke="#2E353A" stroke-width="0.5" stroke-linecap="round" stroke-linejoin="round"/>
<path d="M37.5683 67.2757C37.5683 67.2757 21.3563 64.6177 16.8526 66.727C12.3489 68.8364 11.0092 74.295 11.0092 74.295" stroke="#2E353A" stroke-width="0.5" stroke-linecap="round" stroke-linejoin="round"/>
<path d="M60.1016 63.057C63.4438 62.8717 64.2419 63.5487 64.2419 63.5487" stroke="#2E353A" stroke-width="0.5" stroke-linecap="round" stroke-linejoin="round"/>
<path d="M23.2025 90.7633C23.2025 90.7633 22.0196 85.9674 25.9817 80.4874C29.9439 75.0074 37.9679 68.8789 37.9679 68.8789C37.9679 68.8789 52.1561 64.3823 57.7644 63.3347" stroke="#2E353A" stroke-width="0.5" stroke-linecap="round" stroke-linejoin="round"/>
<path d="M41.9659 63.855C39.7711 66.6556 37.9753 68.8789 37.9753 68.8789" stroke="#2E353A" stroke-width="0.5" stroke-linecap="round" stroke-linejoin="round"/>
<path d="M56.2823 46.8879C53.7027 49.0258 50.4959 51.8763 49.1562 54.064C48.0659 55.874 45.6644 59.0523 43.3626 62.0524" stroke="#2E353A" stroke-width="0.5" stroke-linecap="round" stroke-linejoin="round"/>
<path d="M60.0016 44.016C60.0016 44.016 59.0966 44.6716 57.7925 45.6835" stroke="#2E353A" stroke-width="0.5" stroke-linecap="round" stroke-linejoin="round"/>
<path d="M39.5286 70.0189C39.5286 70.0189 53.9733 75.449 56.2465 77.5798C57.6021 78.8369 58.8423 80.213 59.9521 81.6916" stroke="#2E353A" stroke-width="0.5" stroke-linecap="round" stroke-linejoin="round"/>
<path d="M38.7946 75.5061C38.6948 78.1998 38.7447 81.656 39.4217 84.0076C40.2618 86.8329 41.3516 89.5778 42.6783 92.2098" stroke="#2E353A" stroke-width="0.5" stroke-linecap="round" stroke-linejoin="round"/>
<path d="M39.0725 71.4446C39.0725 71.4446 38.9585 72.4565 38.873 73.953" stroke="#2E353A" stroke-width="0.5" stroke-linecap="round" stroke-linejoin="round"/>
<path d="M81.0388 87.4277H242.567C244.584 87.4277 246.518 88.2288 247.944 89.6548C249.37 91.0807 250.171 93.0148 250.171 95.0314V199.786C250.171 200.878 249.956 201.959 249.538 202.968C249.12 203.977 248.507 204.894 247.735 205.666C246.963 206.439 246.046 207.051 245.037 207.469C244.028 207.887 242.947 208.102 241.855 208.102H81.7515C80.6594 208.102 79.578 207.887 78.569 207.469C77.56 207.051 76.6432 206.439 75.871 205.666C75.0988 204.894 74.4862 203.977 74.0683 202.968C73.6503 201.959 73.4352 200.878 73.4352 199.786V95.0314C73.4352 93.0148 74.2363 91.0807 75.6623 89.6548C77.0882 88.2288 79.0222 87.4277 81.0388 87.4277Z" fill="white" stroke="#2E353A" stroke-linecap="round" stroke-linejoin="round"/>
<path d="M140.157 99.3074H130.209V105.842H140.157V99.3074Z" fill="#2E353A"/>
<path d="M107.925 139.62H98.6899V148.784H107.925V139.62Z" fill="#2E353A"/>
<path d="M148.729 107.41H139.423V116.574H148.729V107.41Z" fill="#2E353A"/>
<path d="M128.634 99.3074H118.686V105.842H128.634V99.3074Z" fill="#2E353A"/>
<path d="M159.605 107.41H150.298V116.574H159.605V107.41Z" fill="#2E353A"/>
<path d="M151.673 99.3074H141.725V105.842H151.673V99.3074Z" fill="#2E353A"/>
<path d="M102.345 128.881H84.8436V138.045H102.345V128.881Z" fill="#2E353A"/>
<path d="M126.974 107.41H117.667V116.574H126.974V107.41Z" fill="#2E353A"/>
<path d="M97.122 139.62H84.8436V148.784H97.122V139.62Z" fill="#2E353A"/>
<path d="M163.196 99.3074H153.248V105.842H163.196V99.3074Z" fill="#2E353A"/>
<path d="M105.217 107.41H95.9106V116.574H105.217V107.41Z" fill="#2E353A"/>
<path d="M105.595 99.3074H95.6467V105.842H105.595V99.3074Z" fill="#2E353A"/>
<path d="M117.118 99.3074H107.17V105.842H117.118V99.3074Z" fill="#2E353A"/>
<path d="M116.092 107.41H106.786V116.574H116.092V107.41Z" fill="#2E353A"/>
<path d="M137.848 107.41H128.541V116.574H137.848V107.41Z" fill="#2E353A"/>
<path d="M209.281 99.3074H199.332V105.842H209.281V99.3074Z" fill="#2E353A"/>
<path d="M220.797 99.3074H210.849V105.842H220.797V99.3074Z" fill="#2E353A"/>
<path d="M213.998 107.41H204.691V116.574H213.998V107.41Z" fill="#2E353A"/>
<path d="M224.88 107.41H215.573V116.574H224.88V107.41Z" fill="#2E353A"/>
<path d="M242.09 139.62H228.386V148.784H242.09V139.62Z" fill="#2E353A"/>
<path d="M232.32 99.3074H222.372V105.842H232.32V99.3074Z" fill="#2E353A"/>
<path d="M94.3428 107.41H84.8436V116.574H94.3428V107.41Z" fill="#2E353A"/>
<path d="M174.719 99.3074H164.771V105.842H174.719V99.3074Z" fill="#2E353A"/>
<path d="M186.235 99.3074H176.286V105.842H186.235V99.3074Z" fill="#2E353A"/>
<path d="M181.368 107.41H172.061V116.574H181.368V107.41Z" fill="#2E353A"/>
<path d="M203.124 107.41H193.817V116.574H203.124V107.41Z" fill="#2E353A"/>
<path d="M170.486 107.41H161.179V116.574H170.486V107.41Z" fill="#2E353A"/>
<path d="M192.243 107.41H182.936V116.574H192.243V107.41Z" fill="#2E353A"/>
<path d="M197.758 99.3074H187.809V105.842H197.758V99.3074Z" fill="#2E353A"/>
<path d="M183.584 139.62H174.348V148.784H183.584V139.62Z" fill="#2E353A"/>
<path d="M232.041 128.881H222.806V138.045H232.041V128.881Z" fill="#2E353A"/>
<path d="M221.232 128.881H211.996V138.045H221.232V128.881Z" fill="#2E353A"/>
<path d="M226.811 139.62H217.576V148.784H226.811V139.62Z" fill="#2E353A"/>
<path d="M216.008 139.62H206.773V148.784H216.008V139.62Z" fill="#2E353A"/>
<path d="M194.387 139.62H185.151V148.784H194.387V139.62Z" fill="#2E353A"/>
<path d="M205.197 139.62H195.962V148.784H205.197V139.62Z" fill="#2E353A"/>
<path d="M210.421 128.881H201.186V138.045H210.421V128.881Z" fill="#2E353A"/>
<path d="M199.618 128.881H190.383V138.045H199.618V128.881Z" fill="#2E353A"/>
<path d="M242.097 99.3074H233.895V105.842H242.097V99.3074Z" fill="#2E353A"/>
<path d="M94.0791 99.3074H84.8436V105.842H94.0791V99.3074Z" fill="#2E353A"/>
<path d="M242.097 150.352H84.8436V159.88H242.097V150.352Z" fill="#2E353A"/>
<path d="M242.09 107.41H226.448V116.574H242.09V107.41Z" fill="#2E353A"/>
<path d="M242.09 128.881H233.61V138.045H242.09V128.881Z" fill="#2E353A"/>
<path d="M231.001 127.242H229.426V118.149H220.191V127.242H218.623V118.149H209.387V127.242H207.813V118.149H198.577V127.242H197.002V118.149H187.767V127.242H186.199V118.149H176.963V127.242H175.389V118.149H166.153V127.242H164.578V118.149H155.343V127.242H153.775V118.149H144.539V127.242H142.965V118.149H133.729V127.242H132.154V118.149H122.919V127.242H121.351V118.149H112.115V127.242H110.541V118.149H101.305V127.242H99.7302V118.149H84.8436V127.313H242.089V118.149H231.001V127.242Z" fill="#2E353A"/>
<path d="M156.383 128.881H147.148V138.045H156.383V128.881Z" fill="#2E353A"/>
<path d="M188.807 128.881H179.572V138.045H188.807V128.881Z" fill="#2E353A"/>
<path d="M134.769 128.881H125.534V138.045H134.769V128.881Z" fill="#2E353A"/>
<path d="M140.35 139.62H131.114V148.784H140.35V139.62Z" fill="#2E353A"/>
<path d="M145.572 128.881H136.337V138.045H145.572V128.881Z" fill="#2E353A"/>
<path d="M123.96 128.881H114.724V138.045H123.96V128.881Z" fill="#2E353A"/>
<path d="M118.736 139.62H109.501V148.784H118.736V139.62Z" fill="#2E353A"/>
<path d="M129.539 139.62H120.304V148.784H129.539V139.62Z" fill="#2E353A"/>
<path d="M167.194 128.881H157.958V138.045H167.194V128.881Z" fill="#2E353A"/>
<path d="M172.773 139.62H163.538V148.784H172.773V139.62Z" fill="#2E353A"/>
<path d="M177.997 128.881H168.761V138.045H177.997V128.881Z" fill="#2E353A"/>
<path d="M151.159 139.62H141.924V148.784H151.159V139.62Z" fill="#2E353A"/>
<path d="M161.964 139.62H152.728V148.784H161.964V139.62Z" fill="#2E353A"/>
<path d="M113.149 128.881H103.914V138.045H113.149V128.881Z" fill="#2E353A"/>
<path d="M260.261 21.8673H62.3965C61.4262 21.8681 60.469 22.092 59.599 22.5217C58.729 22.9514 57.9695 23.5754 57.3792 24.3455C56.7889 25.1156 56.3836 26.0112 56.1946 26.9629C56.0056 27.9147 56.038 28.8971 56.2894 29.8344L70.7555 83.6938C71.116 85.0383 71.9097 86.2264 73.0138 87.0741C74.1179 87.9217 75.4706 88.3818 76.8626 88.3829H97.0581V92.1098H226.533V88.4042H245.774C247.166 88.4031 248.519 87.9431 249.623 87.0954C250.727 86.2477 251.52 85.0597 251.881 83.7152L266.347 29.8557C266.602 28.9189 266.638 27.9359 266.452 26.983C266.266 26.0301 265.863 25.1328 265.274 24.3605C264.686 23.5882 263.928 22.9616 263.059 22.5293C262.189 22.097 261.232 21.8705 260.261 21.8673Z" fill="#2E353A" stroke="#2E353A" stroke-linecap="round" stroke-linejoin="round"/>
<path d="M237.885 83.6298H84.7724L69.4583 28.5232H253.192L237.885 83.6298Z" fill="#2AB9F6" stroke="#2E353A" stroke-linecap="round" stroke-linejoin="round"/>
<path d="M94.9345 59.4434V60.156H92.2336V59.4434H94.9345Z" fill="#2E353A"/>
<path d="M98.2979 59.4434V60.156H95.59V59.4434H98.2979Z" fill="#2E353A"/>
<path d="M101.661 59.4434V60.156H98.9746V59.4434H101.661Z" fill="#2E353A"/>
<path d="M105.018 59.4434V60.156H102.317V59.4434H105.018Z" fill="#2E353A"/>
<path d="M108.381 59.4434V60.156H105.673V59.4434H108.381Z" fill="#2E353A"/>
<path d="M111.745 59.4434V60.156H109.037V59.4434H111.745Z" fill="#2E353A"/>
<path d="M115.102 59.4434V60.156H112.401V59.4434H115.102Z" fill="#2E353A"/>
<path d="M118.43 63.1993L115.451 55.2607H116.163L119.142 63.1993H118.43Z" fill="#2E353A"/>
<path d="M92.2119 47.885V48.5976H89.5111V47.885H92.2119Z" fill="#2E353A"/>
<path d="M95.5758 47.885V48.5976H92.875V47.885H95.5758Z" fill="#2E353A"/>
<path d="M98.9755 47.885V48.5976H96.2676V47.885H98.9755Z" fill="#2E353A"/>
<path d="M102.303 47.885V48.5976H99.5953V47.885H102.303Z" fill="#2E353A"/>
<path d="M105.659 47.885V48.5976H102.958V47.885H105.659Z" fill="#2E353A"/>
<path d="M111.346 47.885V48.5976H108.638V47.885H111.346Z" fill="#2E353A"/>
<path d="M114.703 47.885V48.5976H112.002V47.885H114.703Z" fill="#2E353A"/>
<path d="M118.067 47.885V48.5976H115.366V47.885H118.067Z" fill="#2E353A"/>
<path d="M121.43 47.885V48.5976H118.722V47.885H121.43Z" fill="#2E353A"/>
<path d="M124.786 47.885V48.5976H122.085V47.885H124.786Z" fill="#2E353A"/>
<path d="M128.15 47.885V48.5976H125.449V47.885H128.15Z" fill="#2E353A"/>
<path d="M131.513 47.885V48.5976H128.805V47.885H131.513Z" fill="#2E353A"/>
<path d="M137.192 47.885V48.5976H134.491V47.885H137.192Z" fill="#2E353A"/>
<path d="M140.557 47.885V48.5976H137.849V47.885H140.557Z" fill="#2E353A"/>
<path d="M143.919 47.885V48.5976H141.212V47.885H143.919Z" fill="#2E353A"/>
<path d="M149.57 47.885V48.5976H146.869V47.885H149.57Z" fill="#2E353A"/>
<path d="M152.963 47.885V48.5976H150.284V47.885H152.963Z" fill="#2E353A"/>
<path d="M156.326 47.885V48.5976H153.618V47.885H156.326Z" fill="#2E353A"/>
<path d="M168.969 47.885V48.5976H166.268V47.885H168.969Z" fill="#2E353A"/>
<path d="M172.332 47.885V48.5976H169.624V47.885H172.332Z" fill="#2E353A"/>
<path d="M175.695 47.885V48.5976H172.987V47.885H175.695Z" fill="#2E353A"/>
<path d="M179.052 47.885V48.5976H176.351V47.885H179.052Z" fill="#2E353A"/>
<path d="M182.415 47.885V48.5976H179.707V47.885H182.415Z" fill="#2E353A"/>
<path d="M188.094 47.885V48.5976H185.393V47.885H188.094Z" fill="#2E353A"/>
<path d="M191.459 47.885V48.5976H188.765V47.885H191.459Z" fill="#2E353A"/>
<path d="M194.822 47.885V48.5976H192.114V47.885H194.822Z" fill="#2E353A"/>
<path d="M200.502 47.885V48.5976H197.801V47.885H200.502Z" fill="#2E353A"/>
<path d="M206.189 47.885V48.5976H203.481V47.885H206.189Z" fill="#2E353A"/>
<path d="M251.254 165.003L243.629 194.42L250.84 196.537L251.254 165.003Z" fill="white" stroke="#2E353A" stroke-linecap="round" stroke-linejoin="round"/>
<path d="M254.674 133.912C253.814 132.59 253.499 130.986 253.798 129.437C254.19 126.536 257.688 125.874 257.688 125.874C257.688 125.874 258.451 125.296 261.252 126.358C264.052 127.42 285.708 130.356 299.547 132.23C313.386 134.104 317.869 132.893 317.676 137.646C317.484 142.399 305.341 185.056 305.156 186.396C304.97 187.736 254.674 133.912 254.674 133.912Z" fill="white" stroke="#2E353A" stroke-miterlimit="10"/>
<path d="M312.884 141.805L254.668 133.913L245.261 203.307L303.477 211.199L312.884 141.805Z" fill="white" stroke="#2E353A" stroke-linecap="round" stroke-linejoin="round"/>
<path d="M302.064 155.647L305.449 156.11" stroke="#2E353A" stroke-width="0.5" stroke-linecap="round" stroke-linejoin="round"/>
<path d="M280.863 152.775L299.384 155.29" stroke="#2E353A" stroke-width="0.5" stroke-linecap="round" stroke-linejoin="round"/>
<path d="M258.415 149.732L278.183 152.412" stroke="#2E353A" stroke-width="0.5" stroke-linecap="round" stroke-linejoin="round"/>
<path d="M296.761 161.213L304.614 162.282" stroke="#2E353A" stroke-width="0.5" stroke-linecap="round" stroke-linejoin="round"/>
<path d="M257.582 155.903L288.73 160.122" stroke="#2E353A" stroke-width="0.5" stroke-linecap="round" stroke-linejoin="round"/>
<path d="M273.387 164.326L303.78 168.445" stroke="#2E353A" stroke-width="0.5" stroke-linecap="round" stroke-linejoin="round"/>
<path d="M256.741 162.067L270.259 163.906" stroke="#2E353A" stroke-width="0.5" stroke-linecap="round" stroke-linejoin="round"/>
<path d="M283.486 171.98L302.94 174.617" stroke="#2E353A" stroke-width="0.5" stroke-linecap="round" stroke-linejoin="round"/>
<path d="M266.973 169.735L281.254 171.674" stroke="#2E353A" stroke-width="0.5" stroke-linecap="round" stroke-linejoin="round"/>
<path d="M255.907 168.239L264.516 169.407" stroke="#2E353A" stroke-width="0.5" stroke-linecap="round" stroke-linejoin="round"/>
<path d="M295.144 179.84L302.106 180.781" stroke="#2E353A" stroke-width="0.5" stroke-linecap="round" stroke-linejoin="round"/>
<path d="M255.073 174.41L290.462 179.206" stroke="#2E353A" stroke-width="0.5" stroke-linecap="round" stroke-linejoin="round"/>
<path d="M281.59 184.28L301.272 186.952" stroke="#2E353A" stroke-width="0.5" stroke-linecap="round" stroke-linejoin="round"/>
<path d="M254.232 180.574L278.24 183.831" stroke="#2E353A" stroke-width="0.5" stroke-linecap="round" stroke-linejoin="round"/>
<path d="M287.669 191.392L300.432 193.116" stroke="#2E353A" stroke-width="0.5" stroke-linecap="round" stroke-linejoin="round"/>
<path d="M261.786 187.878L284.547 190.964" stroke="#2E353A" stroke-width="0.5" stroke-linecap="round" stroke-linejoin="round"/>
<path d="M253.399 186.745L259.107 187.515" stroke="#2E353A" stroke-width="0.5" stroke-linecap="round" stroke-linejoin="round"/>
<path d="M293.148 216.354L293.084 222.504L289.499 217.445L275.112 169.051L278.76 167.961L293.148 216.354Z" fill="white" stroke="#2E353A" stroke-linecap="round" stroke-linejoin="round"/>
<path d="M277.333 170.029L275.342 170.61L289.479 219.079L291.469 218.498L277.333 170.029Z" fill="#2AB9F6" stroke="#2E353A" stroke-width="0.5" stroke-linecap="round" stroke-linejoin="round"/>
<path d="M293.148 216.369L289.507 217.452L293.084 222.504L293.148 216.369Z" stroke="#2E353A" stroke-linecap="round" stroke-linejoin="round"/>
<path d="M291.296 219.975L293.084 222.504L293.12 219.433L291.296 219.975Z" fill="#2E353A" stroke="#2E353A" stroke-linecap="round" stroke-linejoin="round"/>
<path d="M275.326 163.087C274.843 163.232 274.437 163.562 274.197 164.005C273.957 164.448 273.902 164.969 274.043 165.452L275.112 169.051L278.761 167.968L277.692 164.369C277.547 163.886 277.217 163.481 276.773 163.24C276.33 163 275.81 162.945 275.326 163.087Z" fill="white" stroke="#2E353A" stroke-linecap="round" stroke-linejoin="round"/>
<path d="M275.326 163.087C274.843 163.232 274.437 163.562 274.197 164.005C273.957 164.448 273.902 164.969 274.043 165.452L274.556 167.17L278.198 166.087L277.692 164.369C277.547 163.886 277.217 163.481 276.773 163.24C276.33 163 275.81 162.945 275.326 163.087Z" fill="#2E353A" stroke="#2E353A" stroke-linecap="round" stroke-linejoin="round"/>
<path d="M95.875 134.503C95.4189 135.145 94.9699 135.815 94.521 136.52" stroke="white" stroke-linecap="round" stroke-linejoin="round"/>
<path d="M103.329 125.923C101.343 127.764 99.5064 129.758 97.8348 131.888" stroke="white" stroke-linecap="round" stroke-linejoin="round"/>
<path d="M95.2409 129.708C93.294 132.439 91.53 135.295 89.9604 138.259" stroke="white" stroke-linecap="round" stroke-linejoin="round"/>
<path d="M145.502 145.378C145.053 146.02 144.597 146.69 144.148 147.388" stroke="white" stroke-linecap="round" stroke-linejoin="round"/>
<path d="M152.955 136.798C150.973 138.64 149.139 140.635 147.468 142.763" stroke="white" stroke-linecap="round" stroke-linejoin="round"/>
<path d="M144.874 140.568C142.929 143.315 141.165 146.185 139.594 149.162" stroke="white" stroke-linecap="round" stroke-linejoin="round"/>
<path d="M216.635 127.741C215.986 127.299 215.302 126.857 214.597 126.415" stroke="white" stroke-linecap="round" stroke-linejoin="round"/>
<path d="M225.328 135.067C223.454 133.115 221.432 131.311 219.278 129.672" stroke="white" stroke-linecap="round" stroke-linejoin="round"/>
<path d="M221.424 127.028C218.651 125.124 215.756 123.403 212.759 121.876" stroke="white" stroke-linecap="round" stroke-linejoin="round"/>
<path d="M143.335 171.923C142.965 174.602 142.409 178.336 141.853 180.553" stroke="#2E353A" stroke-linecap="round" stroke-linejoin="round"/>
<path d="M143.749 168.666C143.749 168.666 143.692 169.172 143.585 169.992" stroke="#2E353A" stroke-linecap="round" stroke-linejoin="round"/>
<path d="M145.651 176.27C144.873 178.866 143.921 181.406 142.801 183.874" stroke="#2E353A" stroke-linecap="round" stroke-linejoin="round"/>
<path d="M181.282 180.068C181.282 180.068 181.76 186.246 185.08 189.574" stroke="#2E353A" stroke-linecap="round" stroke-linejoin="round"/>
<path d="M180.804 186.246C180.804 186.246 182.23 190.522 185.08 192.425" stroke="#2E353A" stroke-linecap="round" stroke-linejoin="round"/>
<g style="mix-blend-mode:multiply">
<path d="M84.0103 219.269C84.0103 219.269 87.1743 216.725 87.1743 194.855C87.1743 172.985 90.8158 157.008 95.3053 150.003C99.7948 142.998 103.992 140.19 105.959 140.19C107.926 140.19 106.515 142.713 103.714 146.354C100.914 149.996 98.3909 151.962 97.265 156.452C96.139 160.941 96.1462 166.542 97.55 165.98C98.9539 165.417 101.191 154.207 103.151 150.003C105.111 145.798 109.885 140.468 112.686 137.945C115.487 135.423 121.658 127.855 124.458 129.814C127.259 131.774 125.584 134.582 123.903 135.7C122.221 136.819 115.487 143.539 112.408 147.758C109.33 151.977 107.363 162.616 109.045 162.894C110.726 163.172 115.772 147.48 118.572 144.116C121.373 140.753 132.589 131.496 135.112 131.218C137.635 130.94 137.92 134.86 135.675 136.826C133.43 138.793 125.862 147.195 123.34 152.24C120.817 157.286 119.691 166.542 121.914 164.298C124.138 162.053 127.801 152.803 130.886 149.718C133.972 146.632 143.222 136.826 145.466 137.945C147.711 139.064 147.148 141.872 145.188 143.831C143.229 145.791 135.654 156.452 133.694 162.053C131.734 167.654 129.482 183.36 130.608 181.123C131.734 178.885 135.376 167.383 137.335 162.595C139.295 157.806 143.222 155.59 143.785 157.827C144.347 160.065 143.222 161.191 141.818 166.243C140.414 171.296 140.392 184.771 136.217 192.311C132.041 199.85 115.28 215.984 113.042 221.585C111.421 225.443 109.486 229.161 107.256 232.702" fill="#2AB9F6"/>
</g>
<g style="mix-blend-mode:multiply">
<path d="M239.752 221.164C239.752 221.164 236.51 216.725 236.51 194.855C236.51 172.985 232.861 157.008 228.379 150.003C223.896 142.998 219.685 140.19 217.725 140.19C215.765 140.19 217.162 142.713 219.97 146.354C222.777 149.996 225.293 151.962 226.383 156.452C227.474 160.941 227.509 166.543 226.105 165.98C224.701 165.417 222.464 154.207 220.497 150.003C218.53 145.798 213.77 140.468 210.969 137.945C208.169 135.423 201.998 127.855 199.19 129.814C196.382 131.774 198.071 134.582 199.753 135.7C201.435 136.819 208.162 143.539 211.247 147.758C214.333 151.977 216.293 162.616 214.611 162.894C212.929 163.172 207.905 147.48 205.105 144.131C202.304 140.781 191.08 131.51 188.558 131.232C186.035 130.954 185.757 134.874 188.002 136.841C190.247 138.807 197.815 147.209 200.337 152.255C202.86 157.3 203.979 166.557 201.762 164.312C199.546 162.067 195.876 152.818 192.798 149.732C189.719 146.646 180.462 136.841 178.218 137.959C175.973 139.078 176.536 141.886 178.495 143.846C180.455 145.805 188.03 156.466 189.99 162.067C191.95 167.668 194.194 183.374 193.076 181.137C191.957 178.899 188.308 167.398 186.349 162.609C184.389 157.82 180.462 155.604 179.899 157.841C179.336 160.079 180.462 161.205 181.859 166.257C183.256 171.31 183.284 184.785 187.467 192.325C191.65 199.864 207.934 214.58 210.178 220.188C212.423 225.797 216.485 234.633 216.485 234.633" fill="#2AB9F6"/>
</g>
<path d="M82.9413 224.656C82.9413 224.656 87.1458 210.924 87.1458 189.026C87.1458 167.127 90.7872 151.179 95.2767 144.174C99.7662 137.169 103.964 134.361 105.93 134.361C107.897 134.361 106.486 136.884 103.686 140.525C100.885 144.166 98.3623 146.133 97.2364 150.616C96.1105 155.098 96.1176 160.713 97.5215 160.15C98.9253 159.587 101.163 148.378 103.123 144.174C105.082 139.969 109.857 134.639 112.657 132.116C115.458 129.593 121.629 122.025 124.43 123.985C127.23 125.945 125.556 128.753 123.874 129.871C122.192 130.99 115.458 137.71 112.379 141.929C109.301 146.148 107.334 156.787 109.016 157.065C110.698 157.343 115.743 141.651 118.544 138.28C121.344 134.91 132.561 125.667 135.083 125.389C137.606 125.111 137.891 129.031 135.646 130.997C133.402 132.964 125.834 141.366 123.311 146.411C120.788 151.457 119.662 160.713 121.886 158.469C124.109 156.224 127.772 146.974 130.858 143.889C133.943 140.803 143.193 130.997 145.438 132.116C147.682 133.235 147.12 136.043 145.16 138.002C143.2 139.962 135.625 150.616 133.665 156.224C131.706 161.832 129.454 177.531 130.58 175.286C131.706 173.042 135.347 161.554 137.307 156.758C139.266 151.962 143.193 149.746 143.756 151.991C144.319 154.236 143.193 155.355 141.789 160.4C140.385 165.445 140.364 178.928 136.188 186.474C132.012 194.021 115.722 214.509 113.477 220.117C111.232 225.725 106.187 238.061 106.187 238.061" fill="white"/>
<path d="M82.9413 224.656C82.9413 224.656 87.1458 210.924 87.1458 189.026C87.1458 167.127 90.7872 151.179 95.2767 144.174C99.7662 137.169 103.964 134.361 105.93 134.361C107.897 134.361 106.486 136.884 103.686 140.525C100.885 144.166 98.3623 146.133 97.2364 150.616C96.1105 155.098 96.1176 160.713 97.5215 160.15C98.9253 159.587 101.163 148.378 103.123 144.174C105.082 139.969 109.857 134.639 112.657 132.116C115.458 129.593 121.629 122.025 124.43 123.985C127.23 125.945 125.556 128.753 123.874 129.871C122.192 130.99 115.458 137.71 112.379 141.929C109.301 146.148 107.334 156.787 109.016 157.065C110.698 157.343 115.743 141.651 118.544 138.28C121.344 134.91 132.561 125.667 135.083 125.389C137.606 125.111 137.891 129.031 135.646 130.997C133.402 132.964 125.834 141.366 123.311 146.411C120.788 151.457 119.662 160.713 121.886 158.469C124.109 156.224 127.772 146.974 130.858 143.889C133.943 140.803 143.193 130.997 145.438 132.116C147.682 133.235 147.12 136.043 145.16 138.002C143.2 139.962 135.625 150.616 133.665 156.224C131.706 161.832 129.454 177.531 130.58 175.286C131.706 173.042 135.347 161.554 137.307 156.758C139.266 151.962 143.193 149.746 143.756 151.991C144.319 154.236 143.193 155.355 141.789 160.4C140.385 165.445 140.364 178.928 136.188 186.474C132.012 194.021 115.722 214.509 113.477 220.117C111.232 225.725 106.187 238.061 106.187 238.061" stroke="#2E353A" stroke-linecap="round" stroke-linejoin="round"/>
<path d="M240.707 224.656C240.707 224.656 236.502 210.924 236.502 189.026C236.502 167.127 232.854 151.179 228.372 144.174C223.889 137.169 219.678 134.361 217.718 134.361C215.758 134.361 217.155 136.884 219.963 140.525C222.77 144.166 225.286 146.133 226.376 150.616C227.467 155.098 227.502 160.713 226.098 160.15C224.694 159.587 222.457 148.378 220.49 144.174C218.523 139.969 213.763 134.639 210.962 132.116C208.162 129.593 201.99 122.025 199.183 123.985C196.375 125.945 198.064 128.753 199.746 129.871C201.428 130.99 208.155 137.71 211.24 141.929C214.326 146.148 216.286 156.787 214.604 157.065C212.922 157.343 207.877 141.651 205.076 138.28C202.276 134.91 191.052 125.667 188.529 125.389C186.007 125.111 185.729 129.031 187.973 130.997C190.218 132.964 197.786 141.366 200.309 146.411C202.831 151.457 203.95 160.713 201.734 158.469C199.518 156.224 195.848 146.974 192.769 143.889C189.691 140.803 180.434 130.997 178.189 132.116C175.944 133.235 176.507 136.043 178.467 138.002C180.427 139.962 188.002 150.616 189.962 156.224C191.921 161.832 194.166 177.531 193.047 175.286C191.928 173.042 188.28 161.554 186.32 156.758C184.36 151.962 180.434 149.746 179.871 151.991C179.308 154.236 180.434 155.355 181.831 160.4C183.227 165.445 183.256 178.928 187.439 186.474C191.622 194.021 207.905 214.509 210.15 220.117C212.395 225.725 217.44 238.061 217.44 238.061" fill="white"/>
<path d="M240.707 224.656C240.707 224.656 236.502 210.924 236.502 189.026C236.502 167.127 232.854 151.179 228.372 144.174C223.889 137.169 219.678 134.361 217.718 134.361C215.758 134.361 217.155 136.884 219.963 140.525C222.77 144.166 225.286 146.133 226.376 150.616C227.467 155.098 227.502 160.713 226.098 160.15C224.694 159.587 222.457 148.378 220.49 144.174C218.523 139.969 213.763 134.639 210.962 132.116C208.162 129.593 201.99 122.025 199.183 123.985C196.375 125.945 198.064 128.753 199.746 129.871C201.428 130.99 208.155 137.71 211.24 141.929C214.326 146.148 216.286 156.787 214.604 157.065C212.922 157.343 207.877 141.651 205.076 138.28C202.276 134.91 191.052 125.667 188.529 125.389C186.007 125.111 185.729 129.031 187.973 130.997C190.218 132.964 197.786 141.366 200.309 146.411C202.831 151.457 203.95 160.713 201.734 158.469C199.518 156.224 195.848 146.974 192.769 143.889C189.691 140.803 180.434 130.997 178.189 132.116C175.944 133.235 176.507 136.043 178.467 138.002C180.427 139.962 188.002 150.616 189.962 156.224C191.921 161.832 194.166 177.531 193.047 175.286C191.928 173.042 188.28 161.554 186.32 156.758C184.36 151.962 180.434 149.746 179.871 151.991C179.308 154.236 180.434 155.355 181.831 160.4C183.227 165.445 183.256 178.928 187.439 186.474C191.622 194.021 207.905 214.509 210.15 220.117C212.395 225.725 217.44 238.061 217.44 238.061" stroke="#2E353A" stroke-linecap="round" stroke-linejoin="round"/>
<path d="M65.1967 267.413H107.954C108.509 265.276 109.208 262.881 110.091 260.287C113.455 250.211 124.344 237.612 124.344 237.612C116.54 230.739 107.369 225.595 97.4354 222.519C81.0452 217.473 69.0448 218.955 69.0448 218.955C71.2539 228.064 71.4968 237.538 69.7574 246.747C67.6195 257.123 66.1943 263.686 65.1967 267.413Z" fill="#2E353A" stroke="#2E353A" stroke-linecap="round" stroke-linejoin="round"/>
<path d="M215.416 267.414H259.84C258.415 263.722 255.337 255.706 252.258 247.689C248.054 236.771 249.736 222.077 248.054 222.077C246.372 222.077 227.481 220.816 218.245 223.752C209.01 226.688 198.506 235.09 198.506 235.09C203.261 240.615 207.348 246.68 210.684 253.162C212.829 257.705 214.417 262.49 215.416 267.414Z" fill="#2E353A" stroke="#2E353A" stroke-linecap="round" stroke-linejoin="round"/>
<path d="M91.9053 227.649C91.5989 226.438 87.0382 228.262 87.0382 228.262C87.0382 228.262 88.5632 222.49 86.1331 222.49C83.7031 222.49 83.3967 226.766 83.3967 226.766C83.3967 226.766 78.836 224.949 78.836 227.678C78.836 230.407 81.8717 230.357 81.8717 230.357C81.8717 230.357 78.2231 234.918 80.9596 235.823C83.696 236.728 85.5132 233.393 85.5132 233.393C85.5132 233.393 87.3375 236.436 89.7889 235.217C92.2403 233.999 90.3946 231.269 90.3946 231.269C90.3946 231.269 92.2046 228.868 91.9053 227.649ZM85.8267 232.21C85.5973 232.159 85.387 232.044 85.2201 231.879C85.0531 231.714 84.9362 231.504 84.8829 231.276C84.8296 231.047 84.8421 230.807 84.9188 230.585C84.9956 230.363 85.1336 230.167 85.3168 230.02C85.5 229.873 85.7211 229.781 85.9546 229.754C86.188 229.727 86.4243 229.767 86.6362 229.868C86.8481 229.97 87.0271 230.129 87.1524 230.328C87.2777 230.526 87.3443 230.757 87.3446 230.992C87.2932 231.349 87.1079 231.674 86.8261 231.9C86.5443 232.126 86.1871 232.237 85.8267 232.21ZM104.96 242.572H108.303C110.733 242.572 112.251 245.308 112.251 245.308C107.091 246.79 104.968 242.536 104.968 242.536L104.96 242.572ZM72.458 261.712H75.8002C78.2302 261.712 79.7481 264.449 79.7481 264.449C74.5816 265.931 72.458 261.712 72.458 261.712ZM88.6131 240.27L90.5656 242.985C91.9908 244.966 90.644 247.788 90.644 247.788C86.3968 244.446 88.6131 240.234 88.6131 240.234V240.27ZM71.8951 249.348L73.4201 246.377C74.5389 244.239 77.6601 244.111 77.6601 244.111C76.6126 249.398 71.8951 249.348 71.8951 249.348Z" fill="white"/>
</svg>
