<svg width="212" height="56" viewBox="0 0 212 56" fill="none" xmlns="http://www.w3.org/2000/svg">
<path d="M169.46 39.5001C172.73 42.8801 177.33 45.0201 182.04 45.3501C177.66 45.5701 173.26 44.2801 169.62 41.8001C168.4 40.9701 167.29 40.0101 166.28 38.9501C166.61 39.5401 166.96 40.1201 167.36 40.6801C173.5 49.5201 185.65 51.7001 194.49 45.5601C198.84 42.5301 201.58 38.0501 202.51 33.2301C201.23 34.6801 199.77 35.9901 198.11 37.1401C187.49 44.5201 173.06 42.3301 165.08 32.3901C166.07 35.0201 167.51 37.4701 169.46 39.5001Z" fill="url(#paint0_linear_193_1839)"/>
<path opacity="0.35" d="M169.62 41.8002C168.4 40.9802 167.29 40.0102 166.29 38.9502C166.61 39.5402 166.97 40.1202 167.36 40.6802C173.5 49.5202 185.65 51.7002 194.49 45.5602C196.75 43.9902 198.57 42.0302 199.93 39.8302C199.41 40.2602 198.88 40.6602 198.32 41.0502C193.37 44.4902 187.6 45.8602 182.04 45.3402C177.66 45.5602 173.26 44.2802 169.62 41.8002Z" fill="url(#paint1_linear_193_1839)"/>
<path opacity="0.35" d="M181.74 45.3203C180.66 45.2103 179.6 45.0203 178.54 44.7703C179.59 45.0403 180.66 45.2303 181.74 45.3203Z" fill="url(#paint2_linear_193_1839)"/>
<path d="M80.53 26.57L78.16 19.97H69.07L66.74 26.57H62.64L71.54 2.69995H75.77L84.67 26.57H80.53ZM77.13 16.62L74.9 10.15C74.74 9.71995 74.51 9.02995 74.23 8.09995C73.94 7.16995 73.74 6.48995 73.64 6.04995C73.35 7.37995 72.92 8.83995 72.36 10.43L70.21 16.6299H77.13V16.62Z" fill="black"/>
<path d="M96.52 8.26001C97.29 8.26001 97.92 8.31001 98.42 8.42001L98.05 11.98C97.51 11.85 96.94 11.78 96.36 11.78C94.83 11.78 93.59 12.28 92.64 13.28C91.69 14.28 91.22 15.57 91.22 17.17V26.57H87.4V8.58001H90.39L90.89 11.75H91.09C91.69 10.68 92.46 9.83001 93.42 9.20001C94.38 8.57001 95.41 8.26001 96.52 8.26001Z" fill="black"/>
<path d="M110.94 8.26002C113.18 8.26002 114.93 9.07002 116.18 10.7C117.43 12.33 118.06 14.61 118.06 17.55C118.06 20.5 117.43 22.79 116.16 24.44C114.89 26.08 113.13 26.9 110.88 26.9C108.6 26.9 106.84 26.08 105.58 24.44H105.32L104.62 26.57H101.76V1.27002H105.58V7.29002C105.58 7.73002 105.56 8.40002 105.51 9.27002C105.46 10.14 105.43 10.71 105.41 10.94H105.57C106.79 9.15002 108.58 8.26002 110.94 8.26002ZM109.95 11.38C108.41 11.38 107.3 11.83 106.62 12.74C105.94 13.65 105.59 15.16 105.57 17.29V17.55C105.57 19.74 105.92 21.33 106.61 22.31C107.3 23.29 108.44 23.78 110.01 23.78C111.36 23.78 112.39 23.24 113.09 22.17C113.79 21.1 114.14 19.55 114.14 17.52C114.15 13.43 112.75 11.38 109.95 11.38Z" fill="black"/>
<path d="M122.28 3.81994C122.28 3.13994 122.47 2.60994 122.84 2.23994C123.21 1.86994 123.75 1.68994 124.44 1.68994C125.11 1.68994 125.64 1.86994 126.01 2.23994C126.38 2.60994 126.57 3.12994 126.57 3.81994C126.57 4.46994 126.38 4.97994 126.01 5.35994C125.64 5.73994 125.11 5.91994 124.44 5.91994C123.75 5.91994 123.21 5.72994 122.84 5.35994C122.47 4.98994 122.28 4.46994 122.28 3.81994ZM126.33 26.5699H122.51V8.57994H126.33V26.5699Z" fill="black"/>
<path d="M138.49 23.8101C139.42 23.8101 140.35 23.6601 141.29 23.3701V26.2501C140.87 26.4301 140.32 26.5901 139.66 26.7101C138.99 26.8301 138.3 26.9001 137.59 26.9001C133.97 26.9001 132.16 24.9901 132.16 21.1801V11.4901H129.7V9.80009L132.33 8.40009L133.63 4.59009H135.99V8.59009H141.11V11.4801H135.99V21.1101C135.99 22.0301 136.22 22.7101 136.68 23.1501C137.14 23.5901 137.74 23.8101 138.49 23.8101Z" fill="black"/>
<path d="M154 8.26001C154.77 8.26001 155.4 8.31001 155.9 8.42001L155.53 11.98C154.99 11.85 154.42 11.78 153.84 11.78C152.31 11.78 151.07 12.28 150.12 13.28C149.17 14.28 148.7 15.57 148.7 17.17V26.57H144.88V8.58001H147.87L148.37 11.75H148.57C149.17 10.68 149.94 9.83001 150.9 9.20001C151.87 8.57001 152.9 8.26001 154 8.26001Z" fill="black"/>
<path d="M170.49 26.57L169.73 24.07H169.6C168.73 25.16 167.86 25.91 166.98 26.31C166.1 26.71 164.97 26.9 163.6 26.9C161.83 26.9 160.45 26.42 159.46 25.47C158.47 24.52 157.97 23.17 157.97 21.42C157.97 19.57 158.66 18.17 160.04 17.22C161.42 16.28 163.51 15.76 166.33 15.68L169.44 15.58V14.62C169.44 13.47 169.17 12.61 168.63 12.04C168.09 11.47 167.26 11.19 166.13 11.19C165.21 11.19 164.33 11.33 163.48 11.6C162.63 11.87 161.82 12.19 161.04 12.56L159.8 9.83002C160.78 9.32002 161.84 8.93002 163 8.67002C164.16 8.41002 165.25 8.27002 166.29 8.27002C168.58 8.27002 170.3 8.77002 171.47 9.77002C172.64 10.77 173.22 12.33 173.22 14.47V26.59H170.49V26.57ZM164.8 23.97C166.19 23.97 167.3 23.58 168.14 22.81C168.98 22.03 169.4 20.95 169.4 19.55V17.99L167.09 18.09C165.29 18.15 163.98 18.46 163.16 18.99C162.34 19.53 161.93 20.35 161.93 21.45C161.93 22.25 162.17 22.87 162.65 23.31C163.13 23.75 163.85 23.97 164.8 23.97Z" fill="black"/>
<path d="M193.75 8.58002V10.68L190.68 11.25C190.96 11.63 191.19 12.1 191.38 12.65C191.57 13.2 191.66 13.79 191.66 14.41C191.66 16.26 191.02 17.72 189.74 18.79C188.46 19.86 186.7 20.38 184.46 20.38C183.88 20.38 183.36 20.34 182.9 20.25C182.08 20.76 181.66 21.36 181.66 22.04C181.66 22.45 181.85 22.76 182.24 22.97C182.62 23.18 183.33 23.28 184.36 23.28H187.5C189.48 23.28 190.99 23.7 192.02 24.55C193.05 25.4 193.56 26.62 193.56 28.21C193.56 30.25 192.72 31.82 191.04 32.93C189.36 34.04 186.93 34.59 183.75 34.59C181.3 34.59 179.43 34.16 178.14 33.29C176.85 32.42 176.2 31.19 176.2 29.58C176.2 28.47 176.55 27.54 177.25 26.79C177.95 26.04 178.93 25.51 180.19 25.22C179.68 25 179.26 24.65 178.93 24.17C178.6 23.69 178.43 23.18 178.43 22.65C178.43 21.98 178.62 21.41 179 20.94C179.38 20.47 179.94 20.01 180.69 19.56C179.76 19.16 179 18.51 178.42 17.6C177.84 16.69 177.55 15.64 177.55 14.42C177.55 12.47 178.17 10.96 179.4 9.88002C180.63 8.80002 182.38 8.27002 184.66 8.27002C185.17 8.27002 185.7 8.31002 186.26 8.38002C186.82 8.45002 187.24 8.52002 187.52 8.60002H193.75V8.58002ZM179.62 29.37C179.62 30.19 179.99 30.83 180.73 31.27C181.47 31.72 182.52 31.94 183.86 31.94C185.94 31.94 187.49 31.64 188.51 31.05C189.53 30.45 190.04 29.66 190.04 28.68C190.04 27.9 189.76 27.34 189.2 27.01C188.64 26.68 187.6 26.51 186.09 26.51H183.2C182.11 26.51 181.24 26.77 180.59 27.28C179.94 27.79 179.62 28.49 179.62 29.37ZM181.26 14.41C181.26 15.54 181.55 16.41 182.13 17.01C182.71 17.62 183.54 17.92 184.63 17.92C186.84 17.92 187.95 16.74 187.95 14.38C187.95 13.21 187.68 12.31 187.13 11.67C186.58 11.04 185.75 10.72 184.63 10.72C183.52 10.72 182.69 11.03 182.12 11.66C181.55 12.29 181.26 13.2 181.26 14.41Z" fill="black"/>
<path d="M204.94 26.9C202.14 26.9 199.96 26.08 198.38 24.45C196.8 22.82 196.01 20.57 196.01 17.71C196.01 14.77 196.74 12.46 198.21 10.78C199.67 9.10001 201.68 8.26001 204.24 8.26001C206.62 8.26001 208.49 8.98001 209.87 10.42C211.25 11.86 211.94 13.85 211.94 16.37V18.44H199.95C200 20.19 200.48 21.53 201.37 22.46C202.26 23.4 203.51 23.87 205.13 23.87C206.19 23.87 207.18 23.77 208.1 23.57C209.02 23.37 210 23.04 211.05 22.57V25.68C210.12 26.12 209.17 26.44 208.22 26.62C207.25 26.8 206.16 26.9 204.94 26.9ZM204.24 11.15C203.03 11.15 202.05 11.53 201.32 12.3C200.59 13.07 200.15 14.19 200.01 15.67H208.17C208.15 14.18 207.79 13.06 207.1 12.3C206.41 11.54 205.45 11.15 204.24 11.15Z" fill="black"/>
<path d="M80.53 26.57L78.16 19.97H69.07L66.74 26.57H62.64L71.54 2.69995H75.77L84.67 26.57H80.53ZM77.13 16.62L74.9 10.15C74.74 9.71995 74.51 9.02995 74.23 8.09995C73.94 7.16995 73.74 6.48995 73.64 6.04995C73.35 7.37995 72.92 8.83995 72.36 10.43L70.21 16.6299H77.13V16.62Z" fill="white"/>
<path d="M96.52 8.26001C97.29 8.26001 97.92 8.31001 98.42 8.42001L98.05 11.98C97.51 11.85 96.94 11.78 96.36 11.78C94.83 11.78 93.59 12.28 92.64 13.28C91.69 14.28 91.22 15.57 91.22 17.17V26.57H87.4V8.58001H90.39L90.89 11.75H91.09C91.69 10.68 92.46 9.83001 93.42 9.20001C94.38 8.57001 95.41 8.26001 96.52 8.26001Z" fill="white"/>
<path d="M110.94 8.26002C113.18 8.26002 114.93 9.07002 116.18 10.7C117.43 12.33 118.06 14.61 118.06 17.55C118.06 20.5 117.43 22.79 116.16 24.44C114.89 26.08 113.13 26.9 110.88 26.9C108.6 26.9 106.84 26.08 105.58 24.44H105.32L104.62 26.57H101.76V1.27002H105.58V7.29002C105.58 7.73002 105.56 8.40002 105.51 9.27002C105.46 10.14 105.43 10.71 105.41 10.94H105.57C106.79 9.15002 108.58 8.26002 110.94 8.26002ZM109.95 11.38C108.41 11.38 107.3 11.83 106.62 12.74C105.94 13.65 105.59 15.16 105.57 17.29V17.55C105.57 19.74 105.92 21.33 106.61 22.31C107.3 23.29 108.44 23.78 110.01 23.78C111.36 23.78 112.39 23.24 113.09 22.17C113.79 21.1 114.14 19.55 114.14 17.52C114.15 13.43 112.75 11.38 109.95 11.38Z" fill="white"/>
<path d="M122.28 3.81994C122.28 3.13994 122.47 2.60994 122.84 2.23994C123.21 1.86994 123.75 1.68994 124.44 1.68994C125.11 1.68994 125.64 1.86994 126.01 2.23994C126.38 2.60994 126.57 3.12994 126.57 3.81994C126.57 4.46994 126.38 4.97994 126.01 5.35994C125.64 5.73994 125.11 5.91994 124.44 5.91994C123.75 5.91994 123.21 5.72994 122.84 5.35994C122.47 4.98994 122.28 4.46994 122.28 3.81994ZM126.33 26.5699H122.51V8.57994H126.33V26.5699Z" fill="white"/>
<path d="M138.49 23.8101C139.42 23.8101 140.35 23.6601 141.29 23.3701V26.2501C140.87 26.4301 140.32 26.5901 139.66 26.7101C138.99 26.8301 138.3 26.9001 137.59 26.9001C133.97 26.9001 132.16 24.9901 132.16 21.1801V11.4901H129.7V9.80009L132.33 8.40009L133.63 4.59009H135.99V8.59009H141.11V11.4801H135.99V21.1101C135.99 22.0301 136.22 22.7101 136.68 23.1501C137.14 23.5901 137.74 23.8101 138.49 23.8101Z" fill="white"/>
<path d="M154 8.26001C154.77 8.26001 155.4 8.31001 155.9 8.42001L155.53 11.98C154.99 11.85 154.42 11.78 153.84 11.78C152.31 11.78 151.07 12.28 150.12 13.28C149.17 14.28 148.7 15.57 148.7 17.17V26.57H144.88V8.58001H147.87L148.37 11.75H148.57C149.17 10.68 149.94 9.83001 150.9 9.20001C151.87 8.57001 152.9 8.26001 154 8.26001Z" fill="white"/>
<path d="M170.49 26.57L169.73 24.07H169.6C168.73 25.16 167.86 25.91 166.98 26.31C166.1 26.71 164.97 26.9 163.6 26.9C161.83 26.9 160.45 26.42 159.46 25.47C158.47 24.52 157.97 23.17 157.97 21.42C157.97 19.57 158.66 18.17 160.04 17.22C161.42 16.28 163.51 15.76 166.33 15.68L169.44 15.58V14.62C169.44 13.47 169.17 12.61 168.63 12.04C168.09 11.47 167.26 11.19 166.13 11.19C165.21 11.19 164.33 11.33 163.48 11.6C162.63 11.87 161.82 12.19 161.04 12.56L159.8 9.83002C160.78 9.32002 161.84 8.93002 163 8.67002C164.16 8.41002 165.25 8.27002 166.29 8.27002C168.58 8.27002 170.3 8.77002 171.47 9.77002C172.64 10.77 173.22 12.33 173.22 14.47V26.59H170.49V26.57ZM164.8 23.97C166.19 23.97 167.3 23.58 168.14 22.81C168.98 22.03 169.4 20.95 169.4 19.55V17.99L167.09 18.09C165.29 18.15 163.98 18.46 163.16 18.99C162.34 19.53 161.93 20.35 161.93 21.45C161.93 22.25 162.17 22.87 162.65 23.31C163.13 23.75 163.85 23.97 164.8 23.97Z" fill="white"/>
<path d="M193.75 8.58002V10.68L190.68 11.25C190.96 11.63 191.19 12.1 191.38 12.65C191.57 13.2 191.66 13.79 191.66 14.41C191.66 16.26 191.02 17.72 189.74 18.79C188.46 19.86 186.7 20.38 184.46 20.38C183.88 20.38 183.36 20.34 182.9 20.25C182.08 20.76 181.66 21.36 181.66 22.04C181.66 22.45 181.85 22.76 182.24 22.97C182.62 23.18 183.33 23.28 184.36 23.28H187.5C189.48 23.28 190.99 23.7 192.02 24.55C193.05 25.4 193.56 26.62 193.56 28.21C193.56 30.25 192.72 31.82 191.04 32.93C189.36 34.04 186.93 34.59 183.75 34.59C181.3 34.59 179.43 34.16 178.14 33.29C176.85 32.42 176.2 31.19 176.2 29.58C176.2 28.47 176.55 27.54 177.25 26.79C177.95 26.04 178.93 25.51 180.19 25.22C179.68 25 179.26 24.65 178.93 24.17C178.6 23.69 178.43 23.18 178.43 22.65C178.43 21.98 178.62 21.41 179 20.94C179.38 20.47 179.94 20.01 180.69 19.56C179.76 19.16 179 18.51 178.42 17.6C177.84 16.69 177.55 15.64 177.55 14.42C177.55 12.47 178.17 10.96 179.4 9.88002C180.63 8.80002 182.38 8.27002 184.66 8.27002C185.17 8.27002 185.7 8.31002 186.26 8.38002C186.82 8.45002 187.24 8.52002 187.52 8.60002H193.75V8.58002ZM179.62 29.37C179.62 30.19 179.99 30.83 180.73 31.27C181.47 31.72 182.52 31.94 183.86 31.94C185.94 31.94 187.49 31.64 188.51 31.05C189.53 30.45 190.04 29.66 190.04 28.68C190.04 27.9 189.76 27.34 189.2 27.01C188.64 26.68 187.6 26.51 186.09 26.51H183.2C182.11 26.51 181.24 26.77 180.59 27.28C179.94 27.79 179.62 28.49 179.62 29.37ZM181.26 14.41C181.26 15.54 181.55 16.41 182.13 17.01C182.71 17.62 183.54 17.92 184.63 17.92C186.84 17.92 187.95 16.74 187.95 14.38C187.95 13.21 187.68 12.31 187.13 11.67C186.58 11.04 185.75 10.72 184.63 10.72C183.52 10.72 182.69 11.03 182.12 11.66C181.55 12.29 181.26 13.2 181.26 14.41Z" fill="white"/>
<path d="M204.94 26.9C202.14 26.9 199.96 26.08 198.38 24.45C196.8 22.82 196.01 20.57 196.01 17.71C196.01 14.77 196.74 12.46 198.21 10.78C199.67 9.10001 201.68 8.26001 204.24 8.26001C206.62 8.26001 208.49 8.98001 209.87 10.42C211.25 11.86 211.94 13.85 211.94 16.37V18.44H199.95C200 20.19 200.48 21.53 201.37 22.46C202.26 23.4 203.51 23.87 205.13 23.87C206.19 23.87 207.18 23.77 208.1 23.57C209.02 23.37 210 23.04 211.05 22.57V25.68C210.12 26.12 209.17 26.44 208.22 26.62C207.25 26.8 206.16 26.9 204.94 26.9ZM204.24 11.15C203.03 11.15 202.05 11.53 201.32 12.3C200.59 13.07 200.15 14.19 200.01 15.67H208.17C208.15 14.18 207.79 13.06 207.1 12.3C206.41 11.54 205.45 11.15 204.24 11.15Z" fill="white"/>
<path d="M78.9201 38.98C78.9201 41.46 78.1101 43.37 76.4801 44.69C74.8501 46.01 72.5401 46.67 69.5401 46.67H67.0701V55.57H63.1801V31.8H70.0301C73.0001 31.8 75.2301 32.41 76.7101 33.62C78.1901 34.83 78.9201 36.62 78.9201 38.98ZM67.0601 43.41H69.1301C71.1201 43.41 72.59 43.06 73.5201 42.37C74.4501 41.68 74.9201 40.59 74.9201 39.12C74.9201 37.75 74.5001 36.74 73.6701 36.06C72.8401 35.39 71.5301 35.05 69.7701 35.05H67.0701V43.41H67.0601Z" fill="black"/>
<path d="M87.08 55.57H83.2601V30.27H87.08V55.57Z" fill="black"/>
<path d="M105.23 55.5701L104.69 53.2101H104.5C103.97 54.0401 103.21 54.7001 102.23 55.1801C101.25 55.6601 100.13 55.9001 98.8701 55.9001C96.6901 55.9001 95.0601 55.3601 93.9901 54.2701C92.9201 53.1801 92.3801 51.5401 92.3801 49.3401V37.5801H96.2301V48.6701C96.2301 50.0501 96.51 51.0801 97.08 51.7701C97.64 52.4601 98.5301 52.8001 99.7301 52.8001C101.33 52.8001 102.51 52.3201 103.27 51.3601C104.02 50.4001 104.4 48.7901 104.4 46.5401V37.5801H108.24V55.5701H105.23Z" fill="black"/>
<path d="M125.77 50.45C125.77 52.21 125.13 53.55 123.85 54.49C122.57 55.43 120.74 55.9 118.35 55.9C115.95 55.9 114.03 55.54 112.58 54.81V51.51C114.69 52.49 116.66 52.97 118.48 52.97C120.83 52.97 122.01 52.26 122.01 50.84C122.01 50.38 121.88 50.01 121.62 49.7C121.36 49.39 120.93 49.08 120.33 48.76C119.73 48.43 118.91 48.07 117.84 47.65C115.77 46.85 114.37 46.05 113.64 45.24C112.91 44.44 112.54 43.4 112.54 42.12C112.54 40.58 113.16 39.39 114.4 38.53C115.64 37.68 117.33 37.25 119.47 37.25C121.58 37.25 123.58 37.68 125.47 38.53L124.23 41.41C122.29 40.61 120.66 40.21 119.34 40.21C117.32 40.21 116.31 40.79 116.31 41.93C116.31 42.49 116.57 42.97 117.1 43.36C117.63 43.75 118.77 44.29 120.54 44.97C122.03 45.54 123.1 46.07 123.78 46.55C124.45 47.03 124.95 47.58 125.28 48.2C125.61 48.82 125.77 49.58 125.77 50.45Z" fill="black"/>
<path d="M78.9201 38.98C78.9201 41.46 78.1101 43.37 76.4801 44.69C74.8501 46.01 72.5401 46.67 69.5401 46.67H67.0701V55.57H63.1801V31.8H70.0301C73.0001 31.8 75.2301 32.41 76.7101 33.62C78.1901 34.83 78.9201 36.62 78.9201 38.98ZM67.0601 43.41H69.1301C71.1201 43.41 72.59 43.06 73.5201 42.37C74.4501 41.68 74.9201 40.59 74.9201 39.12C74.9201 37.75 74.5001 36.74 73.6701 36.06C72.8401 35.39 71.5301 35.05 69.7701 35.05H67.0701V43.41H67.0601Z" fill="white"/>
<path d="M87.08 55.57H83.2601V30.27H87.08V55.57Z" fill="white"/>
<path d="M105.23 55.5701L104.69 53.2101H104.5C103.97 54.0401 103.21 54.7001 102.23 55.1801C101.25 55.6601 100.13 55.9001 98.8701 55.9001C96.6901 55.9001 95.0601 55.3601 93.9901 54.2701C92.9201 53.1801 92.3801 51.5401 92.3801 49.3401V37.5801H96.2301V48.6701C96.2301 50.0501 96.51 51.0801 97.08 51.7701C97.64 52.4601 98.5301 52.8001 99.7301 52.8001C101.33 52.8001 102.51 52.3201 103.27 51.3601C104.02 50.4001 104.4 48.7901 104.4 46.5401V37.5801H108.24V55.5701H105.23Z" fill="white"/>
<path d="M125.77 50.45C125.77 52.21 125.13 53.55 123.85 54.49C122.57 55.43 120.74 55.9 118.35 55.9C115.95 55.9 114.03 55.54 112.58 54.81V51.51C114.69 52.49 116.66 52.97 118.48 52.97C120.83 52.97 122.01 52.26 122.01 50.84C122.01 50.38 121.88 50.01 121.62 49.7C121.36 49.39 120.93 49.08 120.33 48.76C119.73 48.43 118.91 48.07 117.84 47.65C115.77 46.85 114.37 46.05 113.64 45.24C112.91 44.44 112.54 43.4 112.54 42.12C112.54 40.58 113.16 39.39 114.4 38.53C115.64 37.68 117.33 37.25 119.47 37.25C121.58 37.25 123.58 37.68 125.47 38.53L124.23 41.41C122.29 40.61 120.66 40.21 119.34 40.21C117.32 40.21 116.31 40.79 116.31 41.93C116.31 42.49 116.57 42.97 117.1 43.36C117.63 43.75 118.77 44.29 120.54 44.97C122.03 45.54 123.1 46.07 123.78 46.55C124.45 47.03 124.95 47.58 125.28 48.2C125.61 48.82 125.77 49.58 125.77 50.45Z" fill="white"/>
<path d="M41.0501 40.7402V48.5302C41.0501 51.6902 38.4701 54.2702 35.3101 54.2702H29.5701V45.6702C32.0601 42.2002 35.8801 40.5602 41.0501 40.7402Z" fill="url(#paint3_linear_193_1839)"/>
<mask id="mask0_193_1839" style="mask-type:luminance" maskUnits="userSpaceOnUse" x="29" y="40" width="13" height="15">
<path d="M41.0501 40.7402V48.5302C41.0501 51.6902 38.4701 54.2702 35.3101 54.2702H29.5701V45.6702C32.0601 42.2002 35.8801 40.5602 41.0501 40.7402Z" fill="white"/>
</mask>
<g mask="url(#mask0_193_1839)">
<path d="M41.0401 40.5601H29.5701V54.2601H41.0401V40.5601Z" fill="url(#paint4_linear_193_1839)"/>
</g>
<path d="M40.7 41.07V48.52C40.7 51.48 38.27 53.91 35.31 53.91H29.92V48.49H31.59C33.64 48.49 35.31 46.82 35.31 44.77V41.81C37.02 41.24 38.87 41.04 40.7 41.07Z" fill="url(#paint5_linear_193_1839)"/>
<mask id="mask1_193_1839" style="mask-type:luminance" maskUnits="userSpaceOnUse" x="29" y="41" width="12" height="13">
<path d="M40.7 41.07V48.52C40.7 51.48 38.27 53.91 35.31 53.91H29.92V48.49H31.59C33.64 48.49 35.31 46.82 35.31 44.77V41.81C37.02 41.24 38.87 41.04 40.7 41.07Z" fill="white"/>
</mask>
<g mask="url(#mask1_193_1839)">
<path d="M40.7 41.04H29.92V53.92H40.7V41.04Z" fill="url(#paint6_linear_193_1839)"/>
</g>
<path d="M41.6 40.7402H41.05V42.3302C36.96 42.1502 32.93 43.3202 29.58 45.6602V35.0002C29.58 34.9502 29.58 34.9102 29.58 34.8602V34.8502C29.58 34.8002 29.58 34.7602 29.59 34.7102C29.59 34.6602 29.6 34.6202 29.6 34.5702V34.5602C29.6 34.5102 29.61 34.4702 29.61 34.4202C29.61 34.3802 29.62 34.3302 29.63 34.2902V34.2702C29.64 34.2302 29.64 34.1902 29.65 34.1402V34.1302C29.66 34.0902 29.66 34.0502 29.67 34.0102V33.9902C29.68 33.9502 29.68 33.9102 29.69 33.8702V33.8502C29.7 33.8102 29.71 33.7702 29.72 33.7402L29.73 33.7102C29.74 33.6702 29.75 33.6402 29.76 33.6002L29.77 33.5702C29.78 33.5402 29.79 33.5002 29.8 33.4702L29.81 33.4402C29.82 33.4102 29.83 33.3802 29.84 33.3402C29.84 33.3302 29.85 33.3102 29.85 33.3002C29.86 33.2702 29.87 33.2402 29.88 33.2102C29.88 33.2002 29.89 33.1802 29.89 33.1702C29.9 33.1402 29.91 33.1102 29.92 33.0902C29.93 33.0702 29.93 33.0502 29.94 33.0402C29.95 33.0102 29.96 32.9902 29.97 32.9602C29.98 32.9402 29.98 32.9302 29.99 32.9102C30 32.8902 30.01 32.8602 30.02 32.8402C30.03 32.8202 30.04 32.8002 30.05 32.7702C30.06 32.7502 30.07 32.7302 30.08 32.7002C30.09 32.6802 30.1 32.6602 30.11 32.6402C30.12 32.6202 30.13 32.6002 30.14 32.5802C30.15 32.5502 30.16 32.5302 30.18 32.5102C30.19 32.4902 30.2 32.4802 30.2 32.4602C30.21 32.4302 30.23 32.4002 30.25 32.3702C30.26 32.3602 30.26 32.3502 30.27 32.3402C30.28 32.3102 30.3 32.2802 30.32 32.2602L30.33 32.2302C30.35 32.1902 30.37 32.1502 30.4 32.1202L30.41 32.1002C30.43 32.0702 30.45 32.0402 30.46 32.0102V32.0002C30.49 31.9602 30.52 31.9102 30.54 31.8702C30.59 31.7902 30.64 31.7202 30.7 31.6402C32.83 30.7202 35.34 30.7402 37.55 31.8902C40.81 33.5902 42.41 37.2702 41.6 40.7402Z" fill="url(#paint7_linear_193_1839)"/>
<mask id="mask2_193_1839" style="mask-type:luminance" maskUnits="userSpaceOnUse" x="29" y="30" width="13" height="16">
<path d="M41.6 40.7402H41.05V42.3302C36.96 42.1502 32.93 43.3202 29.58 45.6602V35.0002C29.58 34.9502 29.58 34.9102 29.58 34.8602V34.8502C29.58 34.8002 29.58 34.7602 29.59 34.7102C29.59 34.6602 29.6 34.6202 29.6 34.5702V34.5602C29.6 34.5102 29.61 34.4702 29.61 34.4202C29.61 34.3802 29.62 34.3302 29.63 34.2902V34.2702C29.64 34.2302 29.64 34.1902 29.65 34.1402V34.1302C29.66 34.0902 29.66 34.0502 29.67 34.0102V33.9902C29.68 33.9502 29.68 33.9102 29.69 33.8702V33.8502C29.7 33.8102 29.71 33.7702 29.72 33.7402L29.73 33.7102C29.74 33.6702 29.75 33.6402 29.76 33.6002L29.77 33.5702C29.78 33.5402 29.79 33.5002 29.8 33.4702L29.81 33.4402C29.82 33.4102 29.83 33.3802 29.84 33.3402C29.84 33.3302 29.85 33.3102 29.85 33.3002C29.86 33.2702 29.87 33.2402 29.88 33.2102C29.88 33.2002 29.89 33.1802 29.89 33.1702C29.9 33.1402 29.91 33.1102 29.92 33.0902C29.93 33.0702 29.93 33.0502 29.94 33.0402C29.95 33.0102 29.96 32.9902 29.97 32.9602C29.98 32.9402 29.98 32.9302 29.99 32.9102C30 32.8902 30.01 32.8602 30.02 32.8402C30.03 32.8202 30.04 32.8002 30.05 32.7702C30.06 32.7502 30.07 32.7302 30.08 32.7002C30.09 32.6802 30.1 32.6602 30.11 32.6402C30.12 32.6202 30.13 32.6002 30.14 32.5802C30.15 32.5502 30.16 32.5302 30.18 32.5102C30.19 32.4902 30.2 32.4802 30.2 32.4602C30.21 32.4302 30.23 32.4002 30.25 32.3702C30.26 32.3602 30.26 32.3502 30.27 32.3402C30.28 32.3102 30.3 32.2802 30.32 32.2602L30.33 32.2302C30.35 32.1902 30.37 32.1502 30.4 32.1202L30.41 32.1002C30.43 32.0702 30.45 32.0402 30.46 32.0102V32.0002C30.49 31.9602 30.52 31.9102 30.54 31.8702C30.59 31.7902 30.64 31.7202 30.7 31.6402C32.83 30.7202 35.34 30.7402 37.55 31.8902C40.81 33.5902 42.41 37.2702 41.6 40.7402Z" fill="white"/>
</mask>
<g mask="url(#mask2_193_1839)">
<path d="M42.4 30.7002H29.57V45.6602H42.4V30.7002Z" fill="url(#paint8_linear_193_1839)"/>
</g>
<path d="M29.5701 45.66V35C29.5701 31.84 32.1501 29.26 35.3101 29.26H37.6901H41.0501H54.5701V35C54.5701 38.16 51.9901 40.74 48.8301 40.74H41.0401C35.8801 40.56 32.0601 42.2 29.5701 45.66Z" fill="url(#paint9_linear_193_1839)"/>
<mask id="mask3_193_1839" style="mask-type:luminance" maskUnits="userSpaceOnUse" x="29" y="29" width="26" height="17">
<path d="M29.5701 45.66V35C29.5701 31.84 32.1501 29.26 35.3101 29.26H37.6901H41.0501H54.5701V35C54.5701 38.16 51.9901 40.74 48.8301 40.74H41.0401C35.8801 40.56 32.0601 42.2 29.5701 45.66Z" fill="white"/>
</mask>
<g mask="url(#mask3_193_1839)">
<path d="M54.5601 29.27H29.5701V45.66H54.5601V29.27Z" fill="url(#paint10_linear_193_1839)"/>
</g>
<path d="M29.92 44.6401V35.0001H45.93C47.51 35.0001 48.8 33.7101 48.8 32.1301V29.6101H54.2101V35.0001C54.2101 37.9601 51.7901 40.3901 48.8201 40.3901H41.04C37.79 40.2801 34.5201 40.8701 31.8501 42.8301C31.1401 43.3601 30.5 43.9701 29.92 44.6401Z" fill="url(#paint11_linear_193_1839)"/>
<mask id="mask4_193_1839" style="mask-type:luminance" maskUnits="userSpaceOnUse" x="29" y="29" width="26" height="16">
<path d="M29.92 44.6401V35.0001H45.93C47.51 35.0001 48.8 33.7101 48.8 32.1301V29.6101H54.2101V35.0001C54.2101 37.9601 51.7901 40.3901 48.8201 40.3901H41.04C37.79 40.2801 34.5201 40.8701 31.8501 42.8301C31.1401 43.3601 30.5 43.9701 29.92 44.6401Z" fill="white"/>
</mask>
<g mask="url(#mask4_193_1839)">
<path d="M54.22 29.6101H29.92V44.6401H54.22V29.6101Z" fill="url(#paint12_linear_193_1839)"/>
</g>
<path d="M45.96 25.3401H54.56V19.6001C54.56 16.4401 51.98 13.8601 48.82 13.8601H41.03C41.06 18.2001 42.83 22.3501 45.96 25.3401Z" fill="url(#paint13_linear_193_1839)"/>
<mask id="mask5_193_1839" style="mask-type:luminance" maskUnits="userSpaceOnUse" x="41" y="13" width="14" height="13">
<path d="M45.96 25.3401H54.56V19.6001C54.56 16.4401 51.98 13.8601 48.82 13.8601H41.03C41.06 18.2001 42.83 22.3501 45.96 25.3401Z" fill="white"/>
</mask>
<g mask="url(#mask5_193_1839)">
<path d="M54.5701 13.8701H41.05V25.3401H54.5701V13.8701Z" fill="url(#paint14_linear_193_1839)"/>
</g>
<path d="M35.31 25.3401H37.69H41.05H45.97C43.63 21.9901 42.45 17.9501 42.64 13.8701H41.05V13.3201C37.58 12.5101 33.9 14.1101 32.19 17.3901C31.04 19.6001 31.02 22.1101 31.94 24.2401C32.88 24.9301 34.05 25.3401 35.31 25.3401Z" fill="url(#paint15_linear_193_1839)"/>
<mask id="mask6_193_1839" style="mask-type:luminance" maskUnits="userSpaceOnUse" x="31" y="13" width="15" height="13">
<path d="M35.31 25.3401H37.69H41.05H45.97C43.63 21.9901 42.45 17.9501 42.64 13.8701H41.05V13.3201C37.58 12.5101 33.9 14.1101 32.19 17.3901C31.04 19.6001 31.02 22.1101 31.94 24.2401C32.88 24.9301 34.05 25.3401 35.31 25.3401Z" fill="white"/>
</mask>
<g mask="url(#mask6_193_1839)">
<path d="M45.97 12.51H31.01V25.34H45.97V12.51Z" fill="url(#paint16_linear_193_1839)"/>
</g>
<path d="M41.0501 13.8701C41.0601 18.2001 42.8401 22.3501 45.9701 25.3401H41.0501H37.6901H35.3101C32.1501 25.3401 29.5701 22.7601 29.5701 19.6001V0.350098H35.3101C38.4701 0.350098 41.0501 2.9301 41.0501 6.0901V13.8701Z" fill="url(#paint17_linear_193_1839)"/>
<mask id="mask7_193_1839" style="mask-type:luminance" maskUnits="userSpaceOnUse" x="29" y="0" width="17" height="26">
<path d="M41.0501 13.8701C41.0601 18.2001 42.8401 22.3501 45.9701 25.3401H41.0501H37.6901H35.3101C32.1501 25.3401 29.5701 22.7601 29.5701 19.6001V0.350098H35.3101C38.4701 0.350098 41.0501 2.9301 41.0501 6.0901V13.8701Z" fill="white"/>
</mask>
<g mask="url(#mask7_193_1839)">
<path d="M45.9601 0.350098H29.5701V25.3401H45.9601V0.350098Z" fill="url(#paint18_linear_193_1839)"/>
</g>
<path d="M45.1301 24.9902H35.31V9.2902C35.31 7.5402 33.8801 6.1102 32.1301 6.1102H29.92V0.700195H35.31C38.27 0.700195 40.7 3.12019 40.7 6.09019V13.8802C40.7 18.0202 42.3001 21.9902 45.1301 24.9902Z" fill="url(#paint19_linear_193_1839)"/>
<mask id="mask8_193_1839" style="mask-type:luminance" maskUnits="userSpaceOnUse" x="29" y="0" width="17" height="25">
<path d="M45.1301 24.9902H35.31V9.2902C35.31 7.5402 33.8801 6.1102 32.1301 6.1102H29.92V0.700195H35.31C38.27 0.700195 40.7 3.12019 40.7 6.09019V13.8802C40.7 18.0202 42.3001 21.9902 45.1301 24.9902Z" fill="white"/>
</mask>
<g mask="url(#mask8_193_1839)">
<path d="M45.12 0.700195H29.92V25.0002H45.12V0.700195Z" fill="url(#paint20_linear_193_1839)"/>
</g>
<path d="M25.65 45.66V54.26H19.91C16.75 54.26 14.17 51.68 14.17 48.52V40.73C18.51 40.75 22.65 42.53 25.65 45.66Z" fill="url(#paint21_linear_193_1839)"/>
<mask id="mask9_193_1839" style="mask-type:luminance" maskUnits="userSpaceOnUse" x="14" y="40" width="12" height="15">
<path d="M25.65 45.66V54.26H19.91C16.75 54.26 14.17 51.68 14.17 48.52V40.73C18.51 40.75 22.65 42.53 25.65 45.66Z" fill="white"/>
</mask>
<g mask="url(#mask9_193_1839)">
<path d="M25.6501 40.74H14.1801V54.26H25.6501V40.74Z" fill="url(#paint22_linear_193_1839)"/>
</g>
<path d="M25.65 35.0001V37.3801V40.7401V45.6602C22.3 43.3202 18.26 42.1401 14.18 42.3301V40.7401H13.63C12.82 37.2701 14.42 33.5901 17.7 31.8801C19.91 30.7301 22.42 30.7101 24.55 31.6301C25.24 32.5701 25.65 33.7401 25.65 35.0001Z" fill="url(#paint23_linear_193_1839)"/>
<mask id="mask10_193_1839" style="mask-type:luminance" maskUnits="userSpaceOnUse" x="13" y="30" width="13" height="16">
<path d="M25.65 35.0001V37.3801V40.7401V45.6602C22.3 43.3202 18.26 42.1401 14.18 42.3301V40.7401H13.63C12.82 37.2701 14.42 33.5901 17.7 31.8801C19.91 30.7301 22.42 30.7101 24.55 31.6301C25.24 32.5701 25.65 33.7401 25.65 35.0001Z" fill="white"/>
</mask>
<g mask="url(#mask10_193_1839)">
<path d="M25.64 30.7002H12.81V45.6602H25.64V30.7002Z" fill="url(#paint24_linear_193_1839)"/>
</g>
<path d="M14.18 40.74C18.51 40.75 22.66 42.53 25.65 45.66V40.74V37.38V35C25.65 31.84 23.07 29.26 19.91 29.26H0.650024V35C0.650024 38.16 3.23003 40.74 6.39003 40.74H14.18Z" fill="url(#paint25_linear_193_1839)"/>
<mask id="mask11_193_1839" style="mask-type:luminance" maskUnits="userSpaceOnUse" x="0" y="29" width="26" height="17">
<path d="M14.18 40.74C18.51 40.75 22.66 42.53 25.65 45.66V40.74V37.38V35C25.65 31.84 23.07 29.26 19.91 29.26H0.650024V35C0.650024 38.16 3.23003 40.74 6.39003 40.74H14.18Z" fill="white"/>
</mask>
<g mask="url(#mask11_193_1839)">
<path d="M25.64 29.27H0.650024V45.66H25.64V29.27Z" fill="url(#paint26_linear_193_1839)"/>
</g>
<path d="M25.3 44.8201V35.0001H9.60001C7.85001 35.0001 6.42 33.5701 6.42 31.8201V29.6101H1V35.0001C1 37.9601 3.42 40.3901 6.39 40.3901H14.18C18.32 40.3901 22.3 41.9901 25.3 44.8201Z" fill="url(#paint27_linear_193_1839)"/>
<mask id="mask12_193_1839" style="mask-type:luminance" maskUnits="userSpaceOnUse" x="1" y="29" width="25" height="16">
<path d="M25.3 44.8201V35.0001H9.60001C7.85001 35.0001 6.42 33.5701 6.42 31.8201V29.6101H1V35.0001C1 37.9601 3.42 40.3901 6.39 40.3901H14.18C18.32 40.3901 22.3 41.9901 25.3 44.8201Z" fill="white"/>
</mask>
<g mask="url(#mask12_193_1839)">
<path d="M25.3 29.6101H1V44.8101H25.3V29.6101Z" fill="url(#paint28_linear_193_1839)"/>
</g>
<path d="M14.18 13.8701H6.39003C3.23003 13.8701 0.650024 16.4501 0.650024 19.6101V25.3501H9.25003C12.72 22.8601 14.36 19.0301 14.18 13.8701Z" fill="url(#paint29_linear_193_1839)"/>
<mask id="mask13_193_1839" style="mask-type:luminance" maskUnits="userSpaceOnUse" x="0" y="13" width="15" height="13">
<path d="M14.18 13.8701H6.39003C3.23003 13.8701 0.650024 16.4501 0.650024 19.6101V25.3501H9.25003C12.72 22.8601 14.36 19.0301 14.18 13.8701Z" fill="white"/>
</mask>
<g mask="url(#mask13_193_1839)">
<path d="M14.35 13.8701H0.650024V25.3401H14.35V13.8701Z" fill="url(#paint30_linear_193_1839)"/>
</g>
<path d="M13.84 14.2102H6.39C3.43 14.2102 1 16.6402 1 19.6002V25.0002H6.42V23.3302C6.42 21.2802 8.09 19.6102 10.14 19.6102H13.1C13.67 17.8902 13.88 16.0502 13.84 14.2102Z" fill="url(#paint31_linear_193_1839)"/>
<mask id="mask14_193_1839" style="mask-type:luminance" maskUnits="userSpaceOnUse" x="1" y="14" width="13" height="12">
<path d="M13.84 14.2102H6.39C3.43 14.2102 1 16.6402 1 19.6002V25.0002H6.42V23.3302C6.42 21.2802 8.09 19.6102 10.14 19.6102H13.1C13.67 17.8902 13.88 16.0502 13.84 14.2102Z" fill="white"/>
</mask>
<g mask="url(#mask14_193_1839)">
<path d="M13.88 14.2102H1V24.9902H13.88V14.2102Z" fill="url(#paint32_linear_193_1839)"/>
</g>
<path d="M14.18 13.3201V13.8701H12.59C12.77 17.9601 11.6 21.9901 9.26001 25.3401H19.92C19.97 25.3401 20.01 25.3401 20.06 25.3401H20.07C20.12 25.3401 20.16 25.3401 20.21 25.3301C20.26 25.3301 20.3 25.3201 20.35 25.3201H20.36C20.41 25.3201 20.45 25.3101 20.5 25.3101C20.54 25.3101 20.59 25.3001 20.63 25.2901H20.65C20.69 25.2801 20.73 25.2801 20.78 25.2701H20.79C20.83 25.2601 20.87 25.2601 20.91 25.2501H20.93C20.97 25.2401 21.01 25.2401 21.05 25.2301H21.07C21.11 25.2201 21.15 25.2101 21.18 25.2001L21.21 25.1901C21.25 25.1801 21.28 25.1701 21.32 25.1601L21.35 25.1501C21.38 25.1401 21.42 25.1301 21.45 25.1201L21.48 25.1101C21.51 25.1001 21.54 25.0901 21.58 25.0801C21.59 25.0801 21.61 25.0701 21.62 25.0701C21.65 25.0601 21.68 25.0501 21.71 25.0401C21.72 25.0401 21.74 25.0301 21.75 25.0301C21.78 25.0201 21.81 25.0101 21.83 25.0001C21.85 24.9901 21.87 24.9901 21.88 24.9801C21.91 24.9701 21.93 24.9601 21.96 24.9501C21.98 24.9401 21.99 24.9401 22.01 24.9301C22.03 24.9201 22.06 24.9101 22.08 24.9001C22.1 24.8901 22.12 24.8801 22.15 24.8701C22.17 24.8601 22.19 24.8501 22.22 24.8401C22.24 24.8301 22.26 24.8201 22.28 24.8101C22.3 24.8001 22.32 24.7901 22.34 24.7801C22.36 24.7701 22.39 24.7601 22.41 24.7401C22.43 24.7301 22.44 24.7201 22.46 24.7201C22.49 24.7101 22.52 24.6901 22.55 24.6701C22.56 24.6601 22.57 24.6601 22.58 24.6501C22.61 24.6401 22.64 24.6201 22.66 24.6001L22.69 24.5901C22.73 24.5701 22.77 24.5501 22.8 24.5301L22.82 24.5201C22.85 24.5001 22.88 24.4801 22.91 24.4701H22.92C22.96 24.4401 23.01 24.4101 23.05 24.3901C23.13 24.3401 23.2 24.2901 23.28 24.2301C24.2 22.1001 24.18 19.5901 23.03 17.3801C21.33 14.1101 17.64 12.5101 14.18 13.3201Z" fill="url(#paint33_linear_193_1839)"/>
<mask id="mask15_193_1839" style="mask-type:luminance" maskUnits="userSpaceOnUse" x="9" y="13" width="15" height="13">
<path d="M14.18 13.3201V13.8701H12.59C12.77 17.9601 11.6 21.9901 9.26001 25.3401H19.92C19.97 25.3401 20.01 25.3401 20.06 25.3401H20.07C20.12 25.3401 20.16 25.3401 20.21 25.3301C20.26 25.3301 20.3 25.3201 20.35 25.3201H20.36C20.41 25.3201 20.45 25.3101 20.5 25.3101C20.54 25.3101 20.59 25.3001 20.63 25.2901H20.65C20.69 25.2801 20.73 25.2801 20.78 25.2701H20.79C20.83 25.2601 20.87 25.2601 20.91 25.2501H20.93C20.97 25.2401 21.01 25.2401 21.05 25.2301H21.07C21.11 25.2201 21.15 25.2101 21.18 25.2001L21.21 25.1901C21.25 25.1801 21.28 25.1701 21.32 25.1601L21.35 25.1501C21.38 25.1401 21.42 25.1301 21.45 25.1201L21.48 25.1101C21.51 25.1001 21.54 25.0901 21.58 25.0801C21.59 25.0801 21.61 25.0701 21.62 25.0701C21.65 25.0601 21.68 25.0501 21.71 25.0401C21.72 25.0401 21.74 25.0301 21.75 25.0301C21.78 25.0201 21.81 25.0101 21.83 25.0001C21.85 24.9901 21.87 24.9901 21.88 24.9801C21.91 24.9701 21.93 24.9601 21.96 24.9501C21.98 24.9401 21.99 24.9401 22.01 24.9301C22.03 24.9201 22.06 24.9101 22.08 24.9001C22.1 24.8901 22.12 24.8801 22.15 24.8701C22.17 24.8601 22.19 24.8501 22.22 24.8401C22.24 24.8301 22.26 24.8201 22.28 24.8101C22.3 24.8001 22.32 24.7901 22.34 24.7801C22.36 24.7701 22.39 24.7601 22.41 24.7401C22.43 24.7301 22.44 24.7201 22.46 24.7201C22.49 24.7101 22.52 24.6901 22.55 24.6701C22.56 24.6601 22.57 24.6601 22.58 24.6501C22.61 24.6401 22.64 24.6201 22.66 24.6001L22.69 24.5901C22.73 24.5701 22.77 24.5501 22.8 24.5301L22.82 24.5201C22.85 24.5001 22.88 24.4801 22.91 24.4701H22.92C22.96 24.4401 23.01 24.4101 23.05 24.3901C23.13 24.3401 23.2 24.2901 23.28 24.2301C24.2 22.1001 24.18 19.5901 23.03 17.3801C21.33 14.1101 17.64 12.5101 14.18 13.3201Z" fill="white"/>
</mask>
<g mask="url(#mask15_193_1839)">
<path d="M24.22 12.5103H9.26001V25.3402H24.22V12.5103Z" fill="url(#paint34_linear_193_1839)"/>
</g>
<path d="M9.26001 25.3401H19.92C23.08 25.3401 25.66 22.7601 25.66 19.6001V17.2201V13.8601V0.350098H19.92C16.76 0.350098 14.18 2.9301 14.18 6.0901V13.8801C14.36 19.0301 12.72 22.8601 9.26001 25.3401Z" fill="url(#paint35_linear_193_1839)"/>
<mask id="mask16_193_1839" style="mask-type:luminance" maskUnits="userSpaceOnUse" x="9" y="0" width="17" height="26">
<path d="M9.26001 25.3401H19.92C23.08 25.3401 25.66 22.7601 25.66 19.6001V17.2201V13.8601V0.350098H19.92C16.76 0.350098 14.18 2.9301 14.18 6.0901V13.8801C14.36 19.0301 12.72 22.8601 9.26001 25.3401Z" fill="white"/>
</mask>
<g mask="url(#mask16_193_1839)">
<path d="M25.65 0.350098H9.26001V25.3401H25.65V0.350098Z" fill="url(#paint36_linear_193_1839)"/>
</g>
<path d="M10.27 24.9902H19.91V8.98019C19.91 7.40019 21.2 6.1102 22.78 6.1102H25.3V0.700195H19.91C16.95 0.700195 14.52 3.12019 14.52 6.09019V13.8702C14.63 17.1202 14.04 20.3902 12.08 23.0602C11.56 23.7702 10.95 24.4202 10.27 24.9902Z" fill="url(#paint37_linear_193_1839)"/>
<mask id="mask17_193_1839" style="mask-type:luminance" maskUnits="userSpaceOnUse" x="10" y="0" width="16" height="25">
<path d="M10.27 24.9902H19.91V8.98019C19.91 7.40019 21.2 6.1102 22.78 6.1102H25.3V0.700195H19.91C16.95 0.700195 14.52 3.12019 14.52 6.09019V13.8702C14.63 17.1202 14.04 20.3902 12.08 23.0602C11.56 23.7702 10.95 24.4202 10.27 24.9902Z" fill="white"/>
</mask>
<g mask="url(#mask17_193_1839)">
<path d="M25.3 0.700195H10.27V25.0002H25.3V0.700195Z" fill="url(#paint38_linear_193_1839)"/>
</g>
<defs>
<linearGradient id="paint0_linear_193_1839" x1="212.557" y1="44.85" x2="176.33" y2="38.3324" gradientUnits="userSpaceOnUse">
<stop stop-color="#00B0B1"/>
<stop offset="1" stop-color="#0079BE"/>
</linearGradient>
<linearGradient id="paint1_linear_193_1839" x1="212.618" y1="48.3926" x2="176.737" y2="41.9373" gradientUnits="userSpaceOnUse">
<stop stop-color="#B86EAD"/>
<stop offset="1" stop-color="#8E4098"/>
</linearGradient>
<linearGradient id="paint2_linear_193_1839" x1="183.083" y1="45.6262" x2="179.585" y2="44.9969" gradientUnits="userSpaceOnUse">
<stop stop-color="#B86EAD"/>
<stop offset="1" stop-color="#8E4098"/>
</linearGradient>
<linearGradient id="paint3_linear_193_1839" x1="29.5721" y1="47.4926" x2="41.0451" y2="47.4926" gradientUnits="userSpaceOnUse">
<stop stop-color="#B86EAD"/>
<stop offset="1" stop-color="#8E4098"/>
</linearGradient>
<linearGradient id="paint4_linear_193_1839" x1="29.5721" y1="47.4097" x2="41.0451" y2="47.4097" gradientUnits="userSpaceOnUse">
<stop stop-color="#B86EAD"/>
<stop offset="1" stop-color="#8E4098"/>
</linearGradient>
<linearGradient id="paint5_linear_193_1839" x1="29.9169" y1="47.4925" x2="40.7002" y2="47.4925" gradientUnits="userSpaceOnUse">
<stop stop-color="#B86EAD"/>
<stop offset="1" stop-color="#8E4098"/>
</linearGradient>
<linearGradient id="paint6_linear_193_1839" x1="29.9169" y1="47.4768" x2="40.7002" y2="47.4768" gradientUnits="userSpaceOnUse">
<stop stop-color="#B86EAD"/>
<stop offset="1" stop-color="#8E4098"/>
</linearGradient>
<linearGradient id="paint7_linear_193_1839" x1="29.572" y1="38.3121" x2="41.8048" y2="38.3121" gradientUnits="userSpaceOnUse">
<stop stop-color="#B86EAD"/>
<stop offset="1" stop-color="#8E4098"/>
</linearGradient>
<linearGradient id="paint8_linear_193_1839" x1="29.572" y1="38.1796" x2="42.4069" y2="38.1796" gradientUnits="userSpaceOnUse">
<stop stop-color="#B86EAD"/>
<stop offset="1" stop-color="#8E4098"/>
</linearGradient>
<linearGradient id="paint9_linear_193_1839" x1="29.5721" y1="37.4613" x2="54.567" y2="37.4613" gradientUnits="userSpaceOnUse">
<stop stop-color="#B86EAD"/>
<stop offset="1" stop-color="#8E4098"/>
</linearGradient>
<linearGradient id="paint10_linear_193_1839" x1="29.5721" y1="37.4613" x2="54.567" y2="37.4613" gradientUnits="userSpaceOnUse">
<stop stop-color="#B86EAD"/>
<stop offset="1" stop-color="#8E4098"/>
</linearGradient>
<linearGradient id="paint11_linear_193_1839" x1="29.9216" y1="37.1291" x2="54.2173" y2="37.1291" gradientUnits="userSpaceOnUse">
<stop stop-color="#B86EAD"/>
<stop offset="1" stop-color="#8E4098"/>
</linearGradient>
<linearGradient id="paint12_linear_193_1839" x1="29.9216" y1="37.1291" x2="54.2172" y2="37.1291" gradientUnits="userSpaceOnUse">
<stop stop-color="#B86EAD"/>
<stop offset="1" stop-color="#8E4098"/>
</linearGradient>
<linearGradient id="paint13_linear_193_1839" x1="41.045" y1="19.6059" x2="54.5669" y2="19.6059" gradientUnits="userSpaceOnUse">
<stop stop-color="#00B0B1"/>
<stop offset="1" stop-color="#0079BE"/>
</linearGradient>
<linearGradient id="paint14_linear_193_1839" x1="41.045" y1="19.6059" x2="54.567" y2="19.6059" gradientUnits="userSpaceOnUse">
<stop stop-color="#00B0B1"/>
<stop offset="1" stop-color="#0079BE"/>
</linearGradient>
<linearGradient id="paint15_linear_193_1839" x1="31.2733" y1="19.2261" x2="45.9645" y2="19.2261" gradientUnits="userSpaceOnUse">
<stop stop-color="#00B0B1"/>
<stop offset="1" stop-color="#0079BE"/>
</linearGradient>
<linearGradient id="paint16_linear_193_1839" x1="31.0082" y1="18.9249" x2="45.9645" y2="18.9249" gradientUnits="userSpaceOnUse">
<stop stop-color="#00B0B1"/>
<stop offset="1" stop-color="#0079BE"/>
</linearGradient>
<linearGradient id="paint17_linear_193_1839" x1="29.5721" y1="12.845" x2="45.9646" y2="12.845" gradientUnits="userSpaceOnUse">
<stop stop-color="#00B0B1"/>
<stop offset="1" stop-color="#0079BE"/>
</linearGradient>
<linearGradient id="paint18_linear_193_1839" x1="29.5721" y1="12.845" x2="45.9646" y2="12.845" gradientUnits="userSpaceOnUse">
<stop stop-color="#00B0B1"/>
<stop offset="1" stop-color="#0079BE"/>
</linearGradient>
<linearGradient id="paint19_linear_193_1839" x1="29.9216" y1="12.8451" x2="45.1255" y2="12.8451" gradientUnits="userSpaceOnUse">
<stop stop-color="#00B0B1"/>
<stop offset="1" stop-color="#0079BE"/>
</linearGradient>
<linearGradient id="paint20_linear_193_1839" x1="29.9216" y1="12.8451" x2="45.1255" y2="12.8451" gradientUnits="userSpaceOnUse">
<stop stop-color="#00B0B1"/>
<stop offset="1" stop-color="#0079BE"/>
</linearGradient>
<linearGradient id="paint21_linear_193_1839" x1="14.1765" y1="47.499" x2="25.6495" y2="47.499" gradientUnits="userSpaceOnUse">
<stop stop-color="#00B0B1"/>
<stop offset="1" stop-color="#0079BE"/>
</linearGradient>
<linearGradient id="paint22_linear_193_1839" x1="14.1766" y1="47.499" x2="25.6496" y2="47.499" gradientUnits="userSpaceOnUse">
<stop stop-color="#00B0B1"/>
<stop offset="1" stop-color="#0079BE"/>
</linearGradient>
<linearGradient id="paint23_linear_193_1839" x1="13.4167" y1="38.312" x2="25.6495" y2="38.312" gradientUnits="userSpaceOnUse">
<stop stop-color="#00B0B1"/>
<stop offset="1" stop-color="#0079BE"/>
</linearGradient>
<linearGradient id="paint24_linear_193_1839" x1="12.8146" y1="38.1796" x2="25.6495" y2="38.1796" gradientUnits="userSpaceOnUse">
<stop stop-color="#00B0B1"/>
<stop offset="1" stop-color="#0079BE"/>
</linearGradient>
<linearGradient id="paint25_linear_193_1839" x1="0.654624" y1="37.4613" x2="25.6495" y2="37.4613" gradientUnits="userSpaceOnUse">
<stop stop-color="#00B0B1"/>
<stop offset="1" stop-color="#0079BE"/>
</linearGradient>
<linearGradient id="paint26_linear_193_1839" x1="0.654624" y1="37.4613" x2="25.6495" y2="37.4613" gradientUnits="userSpaceOnUse">
<stop stop-color="#00B0B1"/>
<stop offset="1" stop-color="#0079BE"/>
</linearGradient>
<linearGradient id="paint27_linear_193_1839" x1="1.0043" y1="37.2167" x2="25.2999" y2="37.2167" gradientUnits="userSpaceOnUse">
<stop stop-color="#00B0B1"/>
<stop offset="1" stop-color="#0079BE"/>
</linearGradient>
<linearGradient id="paint28_linear_193_1839" x1="1.0043" y1="37.2167" x2="25.2999" y2="37.2167" gradientUnits="userSpaceOnUse">
<stop stop-color="#00B0B1"/>
<stop offset="1" stop-color="#0079BE"/>
</linearGradient>
<linearGradient id="paint29_linear_193_1839" x1="0.654624" y1="19.6059" x2="14.1897" y2="19.6059" gradientUnits="userSpaceOnUse">
<stop stop-color="#B86EAD"/>
<stop offset="1" stop-color="#8E4098"/>
</linearGradient>
<linearGradient id="paint30_linear_193_1839" x1="0.654624" y1="19.6059" x2="14.3552" y2="19.6059" gradientUnits="userSpaceOnUse">
<stop stop-color="#B86EAD"/>
<stop offset="1" stop-color="#8E4098"/>
</linearGradient>
<linearGradient id="paint31_linear_193_1839" x1="0.9995" y1="19.606" x2="13.8447" y2="19.606" gradientUnits="userSpaceOnUse">
<stop stop-color="#B86EAD"/>
<stop offset="1" stop-color="#8E4098"/>
</linearGradient>
<linearGradient id="paint32_linear_193_1839" x1="0.9995" y1="19.606" x2="13.876" y2="19.606" gradientUnits="userSpaceOnUse">
<stop stop-color="#B86EAD"/>
<stop offset="1" stop-color="#8E4098"/>
</linearGradient>
<linearGradient id="paint33_linear_193_1839" x1="9.25701" y1="19.2261" x2="23.9483" y2="19.2261" gradientUnits="userSpaceOnUse">
<stop stop-color="#B86EAD"/>
<stop offset="1" stop-color="#8E4098"/>
</linearGradient>
<linearGradient id="paint34_linear_193_1839" x1="9.25701" y1="18.9252" x2="24.2133" y2="18.9252" gradientUnits="userSpaceOnUse">
<stop stop-color="#B86EAD"/>
<stop offset="1" stop-color="#8E4098"/>
</linearGradient>
<linearGradient id="paint35_linear_193_1839" x1="9.25701" y1="12.845" x2="25.6495" y2="12.845" gradientUnits="userSpaceOnUse">
<stop stop-color="#B86EAD"/>
<stop offset="1" stop-color="#8E4098"/>
</linearGradient>
<linearGradient id="paint36_linear_193_1839" x1="9.25701" y1="12.845" x2="25.6495" y2="12.845" gradientUnits="userSpaceOnUse">
<stop stop-color="#B86EAD"/>
<stop offset="1" stop-color="#8E4098"/>
</linearGradient>
<linearGradient id="paint37_linear_193_1839" x1="10.2713" y1="12.8451" x2="25.2999" y2="12.8451" gradientUnits="userSpaceOnUse">
<stop stop-color="#B86EAD"/>
<stop offset="1" stop-color="#8E4098"/>
</linearGradient>
<linearGradient id="paint38_linear_193_1839" x1="10.2713" y1="12.8451" x2="25.2999" y2="12.8451" gradientUnits="userSpaceOnUse">
<stop stop-color="#B86EAD"/>
<stop offset="1" stop-color="#8E4098"/>
</linearGradient>
</defs>
</svg>
