<svg width="212" height="56" viewBox="0 0 212 56" fill="none" xmlns="http://www.w3.org/2000/svg">
<path d="M168.81 39.15C172.08 42.53 176.68 44.67 181.39 45C177.01 45.22 172.61 43.93 168.97 41.45C167.75 40.62 166.64 39.66 165.63 38.6C165.96 39.19 166.31 39.77 166.71 40.33C172.85 49.17 185 51.35 193.84 45.21C198.19 42.18 200.93 37.7 201.86 32.88C200.58 34.33 199.12 35.64 197.46 36.79C186.84 44.17 172.41 41.98 164.43 32.04C165.42 34.67 166.86 37.12 168.81 39.15Z" fill="url(#paint0_linear_196_2152)"/>
<path opacity="0.35" d="M168.97 41.4501C167.75 40.6301 166.64 39.6601 165.64 38.6001C165.96 39.1901 166.32 39.7701 166.71 40.3301C172.85 49.1701 185 51.3501 193.84 45.2101C196.1 43.6401 197.92 41.6801 199.28 39.4801C198.76 39.9101 198.23 40.3101 197.67 40.7001C192.72 44.1401 186.95 45.5101 181.39 44.9901C177.01 45.2101 172.61 43.9301 168.97 41.4501Z" fill="url(#paint1_linear_196_2152)"/>
<path opacity="0.35" d="M181.09 44.9702C180.01 44.8602 178.95 44.6702 177.89 44.4202C178.94 44.6902 180.01 44.8802 181.09 44.9702Z" fill="url(#paint2_linear_196_2152)"/>
<path d="M79.88 26.2199L77.51 19.6199H68.42L66.09 26.2199H61.99L70.89 2.34985H75.12L84.02 26.2199H79.88ZM76.48 16.2699L74.25 9.79986C74.09 9.36986 73.86 8.67985 73.58 7.74986C73.29 6.81986 73.09 6.13986 72.99 5.69986C72.7 7.02986 72.27 8.48986 71.71 10.0799L69.56 16.2799H76.48V16.2699Z" fill="black"/>
<path d="M95.87 7.90991C96.64 7.90991 97.27 7.95991 97.77 8.06991L97.4 11.6299C96.86 11.4999 96.29 11.4299 95.71 11.4299C94.18 11.4299 92.94 11.9299 91.99 12.9299C91.04 13.9299 90.57 15.2199 90.57 16.8199V26.2199H86.75V8.22991H89.74L90.24 11.3999H90.44C91.04 10.3299 91.81 9.47991 92.77 8.84991C93.73 8.21991 94.76 7.90991 95.87 7.90991Z" fill="black"/>
<path d="M110.29 7.90993C112.53 7.90993 114.28 8.71992 115.53 10.3499C116.78 11.9799 117.41 14.2599 117.41 17.1999C117.41 20.1499 116.78 22.4399 115.51 24.0899C114.24 25.7299 112.48 26.5499 110.23 26.5499C107.95 26.5499 106.19 25.7299 104.93 24.0899H104.67L103.97 26.2199H101.11V0.919922H104.93V6.93993C104.93 7.37993 104.91 8.04992 104.86 8.91992C104.81 9.78992 104.78 10.3599 104.76 10.5899H104.92C106.14 8.79993 107.93 7.90993 110.29 7.90993ZM109.3 11.0299C107.76 11.0299 106.65 11.4799 105.97 12.3899C105.29 13.2999 104.94 14.8099 104.92 16.9399V17.1999C104.92 19.3899 105.27 20.9799 105.96 21.9599C106.65 22.9399 107.79 23.4299 109.36 23.4299C110.71 23.4299 111.74 22.8899 112.44 21.8199C113.14 20.7499 113.49 19.1999 113.49 17.1699C113.5 13.0799 112.1 11.0299 109.3 11.0299Z" fill="black"/>
<path d="M121.63 3.46984C121.63 2.78984 121.82 2.25984 122.19 1.88984C122.56 1.51984 123.1 1.33984 123.79 1.33984C124.46 1.33984 124.99 1.51984 125.36 1.88984C125.73 2.25984 125.92 2.77984 125.92 3.46984C125.92 4.11984 125.73 4.62984 125.36 5.00984C124.99 5.38984 124.46 5.56984 123.79 5.56984C123.1 5.56984 122.56 5.37984 122.19 5.00984C121.82 4.63984 121.63 4.11984 121.63 3.46984ZM125.68 26.2198H121.86V8.22984H125.68V26.2198Z" fill="black"/>
<path d="M137.84 23.46C138.77 23.46 139.7 23.31 140.64 23.02V25.9C140.22 26.08 139.67 26.24 139.01 26.36C138.34 26.48 137.65 26.55 136.94 26.55C133.32 26.55 131.51 24.64 131.51 20.83V11.14H129.05V9.45L131.68 8.05L132.98 4.23999H135.34V8.23999H140.46V11.13H135.34V20.76C135.34 21.68 135.57 22.36 136.03 22.8C136.49 23.24 137.09 23.46 137.84 23.46Z" fill="black"/>
<path d="M153.35 7.90991C154.12 7.90991 154.75 7.95991 155.25 8.06991L154.88 11.6299C154.34 11.4999 153.77 11.4299 153.19 11.4299C151.66 11.4299 150.42 11.9299 149.47 12.9299C148.52 13.9299 148.05 15.2199 148.05 16.8199V26.2199H144.23V8.22991H147.22L147.72 11.3999H147.92C148.52 10.3299 149.29 9.47991 150.25 8.84991C151.22 8.21991 152.25 7.90991 153.35 7.90991Z" fill="black"/>
<path d="M169.84 26.2199L169.08 23.7199H168.95C168.08 24.8099 167.21 25.5599 166.33 25.9599C165.45 26.3599 164.32 26.5499 162.95 26.5499C161.18 26.5499 159.8 26.0699 158.81 25.1199C157.82 24.1699 157.32 22.8199 157.32 21.0699C157.32 19.2199 158.01 17.8199 159.39 16.8699C160.77 15.9299 162.86 15.4099 165.68 15.3299L168.79 15.2299V14.2699C168.79 13.1199 168.52 12.2599 167.98 11.6899C167.44 11.1199 166.61 10.8399 165.48 10.8399C164.56 10.8399 163.68 10.9799 162.83 11.2499C161.98 11.5199 161.17 11.8399 160.39 12.2099L159.15 9.47993C160.13 8.96993 161.19 8.57992 162.35 8.31992C163.51 8.05992 164.6 7.91992 165.64 7.91992C167.93 7.91992 169.65 8.41992 170.82 9.41992C171.99 10.4199 172.57 11.9799 172.57 14.1199V26.2399H169.84V26.2199ZM164.15 23.6199C165.54 23.6199 166.65 23.2299 167.49 22.4599C168.33 21.6799 168.75 20.5999 168.75 19.1999V17.6399L166.44 17.7399C164.64 17.7999 163.33 18.1099 162.51 18.6399C161.69 19.1799 161.28 19.9999 161.28 21.0999C161.28 21.8999 161.52 22.5199 162 22.9599C162.48 23.3999 163.2 23.6199 164.15 23.6199Z" fill="black"/>
<path d="M193.1 8.22993V10.3299L190.03 10.8999C190.31 11.2799 190.54 11.7499 190.73 12.2999C190.92 12.8499 191.01 13.4399 191.01 14.0599C191.01 15.9099 190.37 17.3699 189.09 18.4399C187.81 19.5099 186.05 20.0299 183.81 20.0299C183.23 20.0299 182.71 19.9899 182.25 19.8999C181.43 20.4099 181.01 21.0099 181.01 21.6899C181.01 22.0999 181.2 22.4099 181.59 22.6199C181.97 22.8299 182.68 22.9299 183.71 22.9299H186.85C188.83 22.9299 190.34 23.3499 191.37 24.1999C192.4 25.0499 192.91 26.2699 192.91 27.8599C192.91 29.8999 192.07 31.4699 190.39 32.5799C188.71 33.6899 186.28 34.2399 183.1 34.2399C180.65 34.2399 178.78 33.8099 177.49 32.9399C176.2 32.0699 175.55 30.8399 175.55 29.2299C175.55 28.1199 175.9 27.1899 176.6 26.4399C177.3 25.6899 178.28 25.1599 179.54 24.8699C179.03 24.6499 178.61 24.2999 178.28 23.8199C177.95 23.3399 177.78 22.8299 177.78 22.2999C177.78 21.6299 177.97 21.0599 178.35 20.5899C178.73 20.1199 179.29 19.6599 180.04 19.2099C179.11 18.8099 178.35 18.1599 177.77 17.2499C177.19 16.3399 176.9 15.2899 176.9 14.0699C176.9 12.1199 177.52 10.6099 178.75 9.52992C179.98 8.44992 181.73 7.91992 184.01 7.91992C184.52 7.91992 185.05 7.95992 185.61 8.02992C186.17 8.09992 186.59 8.16992 186.87 8.24992H193.1V8.22993ZM178.97 29.0199C178.97 29.8399 179.34 30.4799 180.08 30.9199C180.82 31.3699 181.87 31.5899 183.21 31.5899C185.29 31.5899 186.84 31.2899 187.86 30.6999C188.88 30.0999 189.39 29.3099 189.39 28.3299C189.39 27.5499 189.11 26.9899 188.55 26.6599C187.99 26.3299 186.95 26.1599 185.44 26.1599H182.55C181.46 26.1599 180.59 26.4199 179.94 26.9299C179.29 27.4399 178.97 28.1399 178.97 29.0199ZM180.61 14.0599C180.61 15.1899 180.9 16.0599 181.48 16.6599C182.06 17.2699 182.89 17.5699 183.98 17.5699C186.19 17.5699 187.3 16.3899 187.3 14.0299C187.3 12.8599 187.03 11.9599 186.48 11.3199C185.93 10.6899 185.1 10.3699 183.98 10.3699C182.87 10.3699 182.04 10.6799 181.47 11.3099C180.9 11.9399 180.61 12.8499 180.61 14.0599Z" fill="black"/>
<path d="M204.29 26.5499C201.49 26.5499 199.31 25.7299 197.73 24.0999C196.15 22.4699 195.36 20.2199 195.36 17.3599C195.36 14.4199 196.09 12.1099 197.56 10.4299C199.02 8.74991 201.03 7.90991 203.59 7.90991C205.97 7.90991 207.84 8.62991 209.22 10.0699C210.6 11.5099 211.29 13.4999 211.29 16.0199V18.0899H199.3C199.35 19.8399 199.83 21.1799 200.72 22.1099C201.61 23.0499 202.86 23.5199 204.48 23.5199C205.54 23.5199 206.53 23.4199 207.45 23.2199C208.37 23.0199 209.35 22.6899 210.4 22.2199V25.3299C209.47 25.7699 208.52 26.0899 207.57 26.2699C206.6 26.4499 205.51 26.5499 204.29 26.5499ZM203.59 10.7999C202.38 10.7999 201.4 11.1799 200.67 11.9499C199.94 12.7199 199.5 13.8399 199.36 15.3199H207.52C207.5 13.8299 207.14 12.7099 206.45 11.9499C205.76 11.1899 204.8 10.7999 203.59 10.7999Z" fill="black"/>
<path d="M79.88 26.2199L77.51 19.6199H68.42L66.09 26.2199H61.99L70.89 2.34985H75.12L84.02 26.2199H79.88ZM76.48 16.2699L74.25 9.79986C74.09 9.36986 73.86 8.67985 73.58 7.74986C73.29 6.81986 73.09 6.13986 72.99 5.69986C72.7 7.02986 72.27 8.48986 71.71 10.0799L69.56 16.2799H76.48V16.2699Z" fill="white"/>
<path d="M95.87 7.90991C96.64 7.90991 97.27 7.95991 97.77 8.06991L97.4 11.6299C96.86 11.4999 96.29 11.4299 95.71 11.4299C94.18 11.4299 92.94 11.9299 91.99 12.9299C91.04 13.9299 90.57 15.2199 90.57 16.8199V26.2199H86.75V8.22991H89.74L90.24 11.3999H90.44C91.04 10.3299 91.81 9.47991 92.77 8.84991C93.73 8.21991 94.76 7.90991 95.87 7.90991Z" fill="white"/>
<path d="M110.29 7.90993C112.53 7.90993 114.28 8.71992 115.53 10.3499C116.78 11.9799 117.41 14.2599 117.41 17.1999C117.41 20.1499 116.78 22.4399 115.51 24.0899C114.24 25.7299 112.48 26.5499 110.23 26.5499C107.95 26.5499 106.19 25.7299 104.93 24.0899H104.67L103.97 26.2199H101.11V0.919922H104.93V6.93993C104.93 7.37993 104.91 8.04992 104.86 8.91992C104.81 9.78992 104.78 10.3599 104.76 10.5899H104.92C106.14 8.79993 107.93 7.90993 110.29 7.90993ZM109.3 11.0299C107.76 11.0299 106.65 11.4799 105.97 12.3899C105.29 13.2999 104.94 14.8099 104.92 16.9399V17.1999C104.92 19.3899 105.27 20.9799 105.96 21.9599C106.65 22.9399 107.79 23.4299 109.36 23.4299C110.71 23.4299 111.74 22.8899 112.44 21.8199C113.14 20.7499 113.49 19.1999 113.49 17.1699C113.5 13.0799 112.1 11.0299 109.3 11.0299Z" fill="white"/>
<path d="M121.63 3.46984C121.63 2.78984 121.82 2.25984 122.19 1.88984C122.56 1.51984 123.1 1.33984 123.79 1.33984C124.46 1.33984 124.99 1.51984 125.36 1.88984C125.73 2.25984 125.92 2.77984 125.92 3.46984C125.92 4.11984 125.73 4.62984 125.36 5.00984C124.99 5.38984 124.46 5.56984 123.79 5.56984C123.1 5.56984 122.56 5.37984 122.19 5.00984C121.82 4.63984 121.63 4.11984 121.63 3.46984ZM125.68 26.2198H121.86V8.22984H125.68V26.2198Z" fill="white"/>
<path d="M137.84 23.46C138.77 23.46 139.7 23.31 140.64 23.02V25.9C140.22 26.08 139.67 26.24 139.01 26.36C138.34 26.48 137.65 26.55 136.94 26.55C133.32 26.55 131.51 24.64 131.51 20.83V11.14H129.05V9.45L131.68 8.05L132.98 4.23999H135.34V8.23999H140.46V11.13H135.34V20.76C135.34 21.68 135.57 22.36 136.03 22.8C136.49 23.24 137.09 23.46 137.84 23.46Z" fill="white"/>
<path d="M153.35 7.90991C154.12 7.90991 154.75 7.95991 155.25 8.06991L154.88 11.6299C154.34 11.4999 153.77 11.4299 153.19 11.4299C151.66 11.4299 150.42 11.9299 149.47 12.9299C148.52 13.9299 148.05 15.2199 148.05 16.8199V26.2199H144.23V8.22991H147.22L147.72 11.3999H147.92C148.52 10.3299 149.29 9.47991 150.25 8.84991C151.22 8.21991 152.25 7.90991 153.35 7.90991Z" fill="white"/>
<path d="M169.84 26.2199L169.08 23.7199H168.95C168.08 24.8099 167.21 25.5599 166.33 25.9599C165.45 26.3599 164.32 26.5499 162.95 26.5499C161.18 26.5499 159.8 26.0699 158.81 25.1199C157.82 24.1699 157.32 22.8199 157.32 21.0699C157.32 19.2199 158.01 17.8199 159.39 16.8699C160.77 15.9299 162.86 15.4099 165.68 15.3299L168.79 15.2299V14.2699C168.79 13.1199 168.52 12.2599 167.98 11.6899C167.44 11.1199 166.61 10.8399 165.48 10.8399C164.56 10.8399 163.68 10.9799 162.83 11.2499C161.98 11.5199 161.17 11.8399 160.39 12.2099L159.15 9.47993C160.13 8.96993 161.19 8.57992 162.35 8.31992C163.51 8.05992 164.6 7.91992 165.64 7.91992C167.93 7.91992 169.65 8.41992 170.82 9.41992C171.99 10.4199 172.57 11.9799 172.57 14.1199V26.2399H169.84V26.2199ZM164.15 23.6199C165.54 23.6199 166.65 23.2299 167.49 22.4599C168.33 21.6799 168.75 20.5999 168.75 19.1999V17.6399L166.44 17.7399C164.64 17.7999 163.33 18.1099 162.51 18.6399C161.69 19.1799 161.28 19.9999 161.28 21.0999C161.28 21.8999 161.52 22.5199 162 22.9599C162.48 23.3999 163.2 23.6199 164.15 23.6199Z" fill="white"/>
<path d="M193.1 8.22993V10.3299L190.03 10.8999C190.31 11.2799 190.54 11.7499 190.73 12.2999C190.92 12.8499 191.01 13.4399 191.01 14.0599C191.01 15.9099 190.37 17.3699 189.09 18.4399C187.81 19.5099 186.05 20.0299 183.81 20.0299C183.23 20.0299 182.71 19.9899 182.25 19.8999C181.43 20.4099 181.01 21.0099 181.01 21.6899C181.01 22.0999 181.2 22.4099 181.59 22.6199C181.97 22.8299 182.68 22.9299 183.71 22.9299H186.85C188.83 22.9299 190.34 23.3499 191.37 24.1999C192.4 25.0499 192.91 26.2699 192.91 27.8599C192.91 29.8999 192.07 31.4699 190.39 32.5799C188.71 33.6899 186.28 34.2399 183.1 34.2399C180.65 34.2399 178.78 33.8099 177.49 32.9399C176.2 32.0699 175.55 30.8399 175.55 29.2299C175.55 28.1199 175.9 27.1899 176.6 26.4399C177.3 25.6899 178.28 25.1599 179.54 24.8699C179.03 24.6499 178.61 24.2999 178.28 23.8199C177.95 23.3399 177.78 22.8299 177.78 22.2999C177.78 21.6299 177.97 21.0599 178.35 20.5899C178.73 20.1199 179.29 19.6599 180.04 19.2099C179.11 18.8099 178.35 18.1599 177.77 17.2499C177.19 16.3399 176.9 15.2899 176.9 14.0699C176.9 12.1199 177.52 10.6099 178.75 9.52992C179.98 8.44992 181.73 7.91992 184.01 7.91992C184.52 7.91992 185.05 7.95992 185.61 8.02992C186.17 8.09992 186.59 8.16992 186.87 8.24992H193.1V8.22993ZM178.97 29.0199C178.97 29.8399 179.34 30.4799 180.08 30.9199C180.82 31.3699 181.87 31.5899 183.21 31.5899C185.29 31.5899 186.84 31.2899 187.86 30.6999C188.88 30.0999 189.39 29.3099 189.39 28.3299C189.39 27.5499 189.11 26.9899 188.55 26.6599C187.99 26.3299 186.95 26.1599 185.44 26.1599H182.55C181.46 26.1599 180.59 26.4199 179.94 26.9299C179.29 27.4399 178.97 28.1399 178.97 29.0199ZM180.61 14.0599C180.61 15.1899 180.9 16.0599 181.48 16.6599C182.06 17.2699 182.89 17.5699 183.98 17.5699C186.19 17.5699 187.3 16.3899 187.3 14.0299C187.3 12.8599 187.03 11.9599 186.48 11.3199C185.93 10.6899 185.1 10.3699 183.98 10.3699C182.87 10.3699 182.04 10.6799 181.47 11.3099C180.9 11.9399 180.61 12.8499 180.61 14.0599Z" fill="white"/>
<path d="M204.29 26.5499C201.49 26.5499 199.31 25.7299 197.73 24.0999C196.15 22.4699 195.36 20.2199 195.36 17.3599C195.36 14.4199 196.09 12.1099 197.56 10.4299C199.02 8.74991 201.03 7.90991 203.59 7.90991C205.97 7.90991 207.84 8.62991 209.22 10.0699C210.6 11.5099 211.29 13.4999 211.29 16.0199V18.0899H199.3C199.35 19.8399 199.83 21.1799 200.72 22.1099C201.61 23.0499 202.86 23.5199 204.48 23.5199C205.54 23.5199 206.53 23.4199 207.45 23.2199C208.37 23.0199 209.35 22.6899 210.4 22.2199V25.3299C209.47 25.7699 208.52 26.0899 207.57 26.2699C206.6 26.4499 205.51 26.5499 204.29 26.5499ZM203.59 10.7999C202.38 10.7999 201.4 11.1799 200.67 11.9499C199.94 12.7199 199.5 13.8399 199.36 15.3199H207.52C207.5 13.8299 207.14 12.7099 206.45 11.9499C205.76 11.1899 204.8 10.7999 203.59 10.7999Z" fill="white"/>
<path d="M78.27 38.6299C78.27 41.1099 77.46 43.02 75.83 44.34C74.2 45.66 71.89 46.3199 68.89 46.3199H66.42V55.2199H62.53V31.45H69.38C72.35 31.45 74.58 32.06 76.06 33.27C77.54 34.48 78.27 36.2699 78.27 38.6299ZM66.41 43.0599H68.48C70.47 43.0599 71.94 42.71 72.87 42.02C73.8 41.33 74.27 40.24 74.27 38.77C74.27 37.4 73.85 36.3899 73.02 35.7099C72.19 35.0399 70.88 34.7 69.12 34.7H66.42V43.0599H66.41Z" fill="black"/>
<path d="M86.4301 55.2199H82.6101V29.9199H86.4301V55.2199Z" fill="black"/>
<path d="M104.58 55.22L104.04 52.86H103.85C103.32 53.69 102.56 54.35 101.58 54.83C100.6 55.31 99.48 55.55 98.22 55.55C96.04 55.55 94.41 55.01 93.34 53.92C92.27 52.83 91.73 51.19 91.73 48.99V37.23H95.58V48.32C95.58 49.7 95.86 50.73 96.43 51.42C96.99 52.11 97.88 52.45 99.08 52.45C100.68 52.45 101.86 51.97 102.62 51.01C103.37 50.05 103.75 48.44 103.75 46.19V37.23H107.59V55.22H104.58Z" fill="black"/>
<path d="M125.12 50.0999C125.12 51.8599 124.48 53.1999 123.2 54.1399C121.92 55.0799 120.09 55.5499 117.7 55.5499C115.3 55.5499 113.38 55.1899 111.93 54.4599V51.1599C114.04 52.1399 116.01 52.6199 117.83 52.6199C120.18 52.6199 121.36 51.9099 121.36 50.4899C121.36 50.0299 121.23 49.6599 120.97 49.3499C120.71 49.0399 120.28 48.7299 119.68 48.4099C119.08 48.0799 118.26 47.7199 117.19 47.2999C115.12 46.4999 113.72 45.6999 112.99 44.8899C112.26 44.0899 111.89 43.0499 111.89 41.7699C111.89 40.2299 112.51 39.0399 113.75 38.1799C114.99 37.3299 116.68 36.8999 118.82 36.8999C120.93 36.8999 122.93 37.3299 124.82 38.1799L123.58 41.0599C121.64 40.2599 120.01 39.8599 118.69 39.8599C116.67 39.8599 115.66 40.4399 115.66 41.5799C115.66 42.1399 115.92 42.6199 116.45 43.0099C116.98 43.3999 118.12 43.9399 119.89 44.6199C121.38 45.1899 122.45 45.7199 123.13 46.1999C123.8 46.6799 124.3 47.2299 124.63 47.8499C124.96 48.4699 125.12 49.2299 125.12 50.0999Z" fill="black"/>
<path d="M78.27 38.6299C78.27 41.1099 77.46 43.02 75.83 44.34C74.2 45.66 71.89 46.3199 68.89 46.3199H66.42V55.2199H62.53V31.45H69.38C72.35 31.45 74.58 32.06 76.06 33.27C77.54 34.48 78.27 36.2699 78.27 38.6299ZM66.41 43.0599H68.48C70.47 43.0599 71.94 42.71 72.87 42.02C73.8 41.33 74.27 40.24 74.27 38.77C74.27 37.4 73.85 36.3899 73.02 35.7099C72.19 35.0399 70.88 34.7 69.12 34.7H66.42V43.0599H66.41Z" fill="white"/>
<path d="M86.4301 55.2199H82.6101V29.9199H86.4301V55.2199Z" fill="white"/>
<path d="M104.58 55.22L104.04 52.86H103.85C103.32 53.69 102.56 54.35 101.58 54.83C100.6 55.31 99.48 55.55 98.22 55.55C96.04 55.55 94.41 55.01 93.34 53.92C92.27 52.83 91.73 51.19 91.73 48.99V37.23H95.58V48.32C95.58 49.7 95.86 50.73 96.43 51.42C96.99 52.11 97.88 52.45 99.08 52.45C100.68 52.45 101.86 51.97 102.62 51.01C103.37 50.05 103.75 48.44 103.75 46.19V37.23H107.59V55.22H104.58Z" fill="white"/>
<path d="M125.12 50.0999C125.12 51.8599 124.48 53.1999 123.2 54.1399C121.92 55.0799 120.09 55.5499 117.7 55.5499C115.3 55.5499 113.38 55.1899 111.93 54.4599V51.1599C114.04 52.1399 116.01 52.6199 117.83 52.6199C120.18 52.6199 121.36 51.9099 121.36 50.4899C121.36 50.0299 121.23 49.6599 120.97 49.3499C120.71 49.0399 120.28 48.7299 119.68 48.4099C119.08 48.0799 118.26 47.7199 117.19 47.2999C115.12 46.4999 113.72 45.6999 112.99 44.8899C112.26 44.0899 111.89 43.0499 111.89 41.7699C111.89 40.2299 112.51 39.0399 113.75 38.1799C114.99 37.3299 116.68 36.8999 118.82 36.8999C120.93 36.8999 122.93 37.3299 124.82 38.1799L123.58 41.0599C121.64 40.2599 120.01 39.8599 118.69 39.8599C116.67 39.8599 115.66 40.4399 115.66 41.5799C115.66 42.1399 115.92 42.6199 116.45 43.0099C116.98 43.3999 118.12 43.9399 119.89 44.6199C121.38 45.1899 122.45 45.7199 123.13 46.1999C123.8 46.6799 124.3 47.2299 124.63 47.8499C124.96 48.4699 125.12 49.2299 125.12 50.0999Z" fill="white"/>
<path fill-rule="evenodd" clip-rule="evenodd" d="M40.3999 40.3901V48.1801C40.3999 51.3401 37.8199 53.9201 34.6599 53.9201H28.9199V45.3201C31.4099 41.8501 35.2299 40.2101 40.3999 40.3901Z" fill="url(#paint3_linear_196_2152)"/>
<path d="M40.3999 40.3901V48.1801C40.3999 51.3401 37.8199 53.9201 34.6599 53.9201H28.9199V45.3201C31.4099 41.8501 35.2299 40.2101 40.3999 40.3901Z" fill="url(#paint4_linear_196_2152)"/>
<mask id="mask0_196_2152" style="mask-type:luminance" maskUnits="userSpaceOnUse" x="28" y="40" width="13" height="14">
<path d="M40.3999 40.3901V48.1801C40.3999 51.3401 37.8199 53.9201 34.6599 53.9201H28.9199V45.3201C31.4099 41.8501 35.2299 40.2101 40.3999 40.3901Z" fill="white"/>
</mask>
<g mask="url(#mask0_196_2152)">
<path d="M40.3899 40.21H28.9199V53.91H40.3899V40.21Z" fill="url(#paint5_linear_196_2152)"/>
</g>
<path fill-rule="evenodd" clip-rule="evenodd" d="M28.9199 45.3102V34.6502C28.9199 31.4902 31.4999 28.9102 34.6599 28.9102H37.0399H40.3999H53.9199V34.6502C53.9199 37.8102 51.3399 40.3902 48.1799 40.3902H40.3899C35.2299 40.2102 31.4099 41.8502 28.9199 45.3102Z" fill="url(#paint6_linear_196_2152)"/>
<path d="M28.9199 45.3102V34.6502C28.9199 31.4902 31.4999 28.9102 34.6599 28.9102H37.0399H40.3999H53.9199V34.6502C53.9199 37.8102 51.3399 40.3902 48.1799 40.3902H40.3899C35.2299 40.2102 31.4099 41.8502 28.9199 45.3102Z" fill="url(#paint7_linear_196_2152)"/>
<mask id="mask1_196_2152" style="mask-type:luminance" maskUnits="userSpaceOnUse" x="28" y="28" width="26" height="18">
<path d="M28.9199 45.3102V34.6502C28.9199 31.4902 31.4999 28.9102 34.6599 28.9102H37.0399H40.3999H53.9199V34.6502C53.9199 37.8102 51.3399 40.3902 48.1799 40.3902H40.3899C35.2299 40.2102 31.4099 41.8502 28.9199 45.3102Z" fill="white"/>
</mask>
<g mask="url(#mask1_196_2152)">
<path d="M53.9099 28.9202H28.9199V45.3102H53.9099V28.9202Z" fill="url(#paint8_linear_196_2152)"/>
</g>
<path fill-rule="evenodd" clip-rule="evenodd" d="M45.3099 24.99H53.9099V19.25C53.9099 16.09 51.3299 13.51 48.1699 13.51H40.3799C40.4099 17.85 42.1799 22 45.3099 24.99Z" fill="url(#paint9_linear_196_2152)"/>
<mask id="mask2_196_2152" style="mask-type:luminance" maskUnits="userSpaceOnUse" x="40" y="13" width="14" height="12">
<path d="M45.3099 24.99H53.9099V19.25C53.9099 16.09 51.3299 13.51 48.1699 13.51H40.3799C40.4099 17.85 42.1799 22 45.3099 24.99Z" fill="white"/>
</mask>
<g mask="url(#mask2_196_2152)">
<path d="M53.9199 13.52H40.3999V24.99H53.9199V13.52Z" fill="url(#paint10_linear_196_2152)"/>
</g>
<path fill-rule="evenodd" clip-rule="evenodd" d="M34.6601 24.99H37.0401H40.4001H45.3201C42.9801 21.64 41.8001 17.6 41.9901 13.52H40.4001V12.97C36.9301 12.16 33.2501 13.76 31.5401 17.04C30.3901 19.25 30.3701 21.76 31.2901 23.89C32.2301 24.58 33.4001 24.99 34.6601 24.99Z" fill="url(#paint11_linear_196_2152)"/>
<mask id="mask3_196_2152" style="mask-type:luminance" maskUnits="userSpaceOnUse" x="30" y="12" width="16" height="13">
<path d="M34.6601 24.99H37.0401H40.4001H45.3201C42.9801 21.64 41.8001 17.6 41.9901 13.52H40.4001V12.97C36.9301 12.16 33.2501 13.76 31.5401 17.04C30.3901 19.25 30.3701 21.76 31.2901 23.89C32.2301 24.58 33.4001 24.99 34.6601 24.99Z" fill="white"/>
</mask>
<g mask="url(#mask3_196_2152)">
<path d="M45.3201 12.1599H30.3601V24.9899H45.3201V12.1599Z" fill="url(#paint12_linear_196_2152)"/>
</g>
<path fill-rule="evenodd" clip-rule="evenodd" d="M40.3999 13.52C40.4099 17.85 42.1899 22 45.3199 24.99H40.3999H37.0399H34.6599C31.4999 24.99 28.9199 22.41 28.9199 19.25V0H34.6599C37.8199 0 40.3999 2.58 40.3999 5.74V13.52Z" fill="url(#paint13_linear_196_2152)"/>
<mask id="mask4_196_2152" style="mask-type:luminance" maskUnits="userSpaceOnUse" x="28" y="0" width="18" height="25">
<path d="M40.3999 13.52C40.4099 17.85 42.1899 22 45.3199 24.99H40.3999H37.0399H34.6599C31.4999 24.99 28.9199 22.41 28.9199 19.25V0H34.6599C37.8199 0 40.3999 2.58 40.3999 5.74V13.52Z" fill="white"/>
</mask>
<g mask="url(#mask4_196_2152)">
<path d="M45.3099 0H28.9199V24.99H45.3099V0Z" fill="url(#paint14_linear_196_2152)"/>
</g>
<path fill-rule="evenodd" clip-rule="evenodd" d="M44.48 24.6401H34.66V8.9401C34.66 7.1901 33.23 5.7601 31.48 5.7601H29.27V0.350098H34.66C37.62 0.350098 40.05 2.7701 40.05 5.7401V13.5301C40.05 17.6701 41.65 21.6401 44.48 24.6401Z" fill="url(#paint15_linear_196_2152)"/>
<mask id="mask5_196_2152" style="mask-type:luminance" maskUnits="userSpaceOnUse" x="29" y="0" width="16" height="25">
<path d="M44.48 24.6401H34.66V8.9401C34.66 7.1901 33.23 5.7601 31.48 5.7601H29.27V0.350098H34.66C37.62 0.350098 40.05 2.7701 40.05 5.7401V13.5301C40.05 17.6701 41.65 21.6401 44.48 24.6401Z" fill="white"/>
</mask>
<g mask="url(#mask5_196_2152)">
<path d="M44.47 0.350098H29.27V24.6501H44.47V0.350098Z" fill="url(#paint16_linear_196_2152)"/>
</g>
<path fill-rule="evenodd" clip-rule="evenodd" d="M25 45.3101V53.9101H19.26C16.1 53.9101 13.52 51.3301 13.52 48.1701V40.3801C17.86 40.4001 22 42.1801 25 45.3101Z" fill="url(#paint17_linear_196_2152)"/>
<mask id="mask6_196_2152" style="mask-type:luminance" maskUnits="userSpaceOnUse" x="13" y="40" width="12" height="14">
<path d="M25 45.3101V53.9101H19.26C16.1 53.9101 13.52 51.3301 13.52 48.1701V40.3801C17.86 40.4001 22 42.1801 25 45.3101Z" fill="white"/>
</mask>
<g mask="url(#mask6_196_2152)">
<path d="M25 40.3901H13.53V53.9101H25V40.3901Z" fill="url(#paint18_linear_196_2152)"/>
</g>
<path fill-rule="evenodd" clip-rule="evenodd" d="M25 34.65V37.03V40.39V45.31C21.65 42.97 17.61 41.7901 13.53 41.9801V40.39H12.98C12.17 36.92 13.77 33.24 17.05 31.53C19.26 30.38 21.77 30.36 23.9 31.28C24.59 32.22 25 33.39 25 34.65Z" fill="url(#paint19_linear_196_2152)"/>
<mask id="mask7_196_2152" style="mask-type:luminance" maskUnits="userSpaceOnUse" x="12" y="30" width="13" height="16">
<path d="M25 34.65V37.03V40.39V45.31C21.65 42.97 17.61 41.7901 13.53 41.9801V40.39H12.98C12.17 36.92 13.77 33.24 17.05 31.53C19.26 30.38 21.77 30.36 23.9 31.28C24.59 32.22 25 33.39 25 34.65Z" fill="white"/>
</mask>
<g mask="url(#mask7_196_2152)">
<path d="M24.9899 30.3501H12.1599V45.3101H24.9899V30.3501Z" fill="url(#paint20_linear_196_2152)"/>
</g>
<path fill-rule="evenodd" clip-rule="evenodd" d="M13.53 40.3902C17.86 40.4002 22.01 42.1802 25 45.3102V40.3902V37.0302V34.6502C25 31.4902 22.42 28.9102 19.26 28.9102H0V34.6502C0 37.8102 2.58001 40.3902 5.74001 40.3902H13.53Z" fill="url(#paint21_linear_196_2152)"/>
<mask id="mask8_196_2152" style="mask-type:luminance" maskUnits="userSpaceOnUse" x="0" y="28" width="25" height="18">
<path d="M13.53 40.3902C17.86 40.4002 22.01 42.1802 25 45.3102V40.3902V37.0302V34.6502C25 31.4902 22.42 28.9102 19.26 28.9102H0V34.6502C0 37.8102 2.58001 40.3902 5.74001 40.3902H13.53Z" fill="white"/>
</mask>
<g mask="url(#mask8_196_2152)">
<path d="M24.99 28.9202H0V45.3102H24.99V28.9202Z" fill="url(#paint22_linear_196_2152)"/>
</g>
<path fill-rule="evenodd" clip-rule="evenodd" d="M24.6501 44.47V34.65H8.9501C7.2001 34.65 5.7701 33.22 5.7701 31.47V29.26H0.350098V34.65C0.350098 37.61 2.7701 40.04 5.7401 40.04H13.5301C17.6701 40.04 21.6501 41.64 24.6501 44.47Z" fill="url(#paint23_linear_196_2152)"/>
<mask id="mask9_196_2152" style="mask-type:luminance" maskUnits="userSpaceOnUse" x="0" y="29" width="25" height="16">
<path d="M24.6501 44.47V34.65H8.9501C7.2001 34.65 5.7701 33.22 5.7701 31.47V29.26H0.350098V34.65C0.350098 37.61 2.7701 40.04 5.7401 40.04H13.5301C17.6701 40.04 21.6501 41.64 24.6501 44.47Z" fill="white"/>
</mask>
<g mask="url(#mask9_196_2152)">
<path d="M24.6501 29.26H0.350098V44.46H24.6501V29.26Z" fill="url(#paint24_linear_196_2152)"/>
</g>
<path fill-rule="evenodd" clip-rule="evenodd" d="M13.53 13.52H5.74001C2.58001 13.52 0 16.1 0 19.26V25H8.60001C12.07 22.51 13.71 18.68 13.53 13.52Z" fill="url(#paint25_linear_196_2152)"/>
<path d="M13.53 13.52H5.74001C2.58001 13.52 0 16.1 0 19.26V25H8.60001C12.07 22.51 13.71 18.68 13.53 13.52Z" fill="url(#paint26_linear_196_2152)"/>
<mask id="mask10_196_2152" style="mask-type:luminance" maskUnits="userSpaceOnUse" x="0" y="13" width="14" height="12">
<path d="M13.53 13.52H5.74001C2.58001 13.52 0 16.1 0 19.26V25H8.60001C12.07 22.51 13.71 18.68 13.53 13.52Z" fill="white"/>
</mask>
<g mask="url(#mask10_196_2152)">
<path d="M13.7 13.52H0V24.99H13.7V13.52Z" fill="url(#paint27_linear_196_2152)"/>
</g>
<path fill-rule="evenodd" clip-rule="evenodd" d="M8.60986 24.99H19.2699C22.4299 24.99 25.0099 22.41 25.0099 19.25V16.87V13.51V0H19.2699C16.1099 0 13.5299 2.58 13.5299 5.74V13.53C13.7099 18.68 12.0699 22.51 8.60986 24.99Z" fill="url(#paint28_linear_196_2152)"/>
<path d="M8.60986 24.99H19.2699C22.4299 24.99 25.0099 22.41 25.0099 19.25V16.87V13.51V0H19.2699C16.1099 0 13.5299 2.58 13.5299 5.74V13.53C13.7099 18.68 12.0699 22.51 8.60986 24.99Z" fill="url(#paint29_linear_196_2152)"/>
<mask id="mask11_196_2152" style="mask-type:luminance" maskUnits="userSpaceOnUse" x="8" y="0" width="18" height="25">
<path d="M8.60986 24.99H19.2699C22.4299 24.99 25.0099 22.41 25.0099 19.25V16.87V13.51V0H19.2699C16.1099 0 13.5299 2.58 13.5299 5.74V13.53C13.7099 18.68 12.0699 22.51 8.60986 24.99Z" fill="white"/>
</mask>
<g mask="url(#mask11_196_2152)">
<path d="M24.9999 0H8.60986V24.99H24.9999V0Z" fill="url(#paint30_linear_196_2152)"/>
</g>
<path fill-rule="evenodd" clip-rule="evenodd" d="M9.62012 24.6401H19.2601V8.6301C19.2601 7.0501 20.5501 5.7601 22.1301 5.7601H24.6501V0.350098H19.2601C16.3001 0.350098 13.8701 2.7701 13.8701 5.7401V13.5201C13.9801 16.7701 13.3901 20.0401 11.4301 22.7101C10.9101 23.4201 10.3001 24.0701 9.62012 24.6401Z" fill="url(#paint31_linear_196_2152)"/>
<path d="M9.62012 24.6401H19.2601V8.6301C19.2601 7.0501 20.5501 5.7601 22.1301 5.7601H24.6501V0.350098H19.2601C16.3001 0.350098 13.8701 2.7701 13.8701 5.7401V13.5201C13.9801 16.7701 13.3901 20.0401 11.4301 22.7101C10.9101 23.4201 10.3001 24.0701 9.62012 24.6401Z" fill="url(#paint32_linear_196_2152)"/>
<mask id="mask12_196_2152" style="mask-type:luminance" maskUnits="userSpaceOnUse" x="9" y="0" width="16" height="25">
<path d="M9.62012 24.6401H19.2601V8.6301C19.2601 7.0501 20.5501 5.7601 22.1301 5.7601H24.6501V0.350098H19.2601C16.3001 0.350098 13.8701 2.7701 13.8701 5.7401V13.5201C13.9801 16.7701 13.3901 20.0401 11.4301 22.7101C10.9101 23.4201 10.3001 24.0701 9.62012 24.6401Z" fill="white"/>
</mask>
<g mask="url(#mask12_196_2152)">
<path d="M24.6501 0.350098H9.62012V24.6501H24.6501V0.350098Z" fill="url(#paint33_linear_196_2152)"/>
</g>
<defs>
<linearGradient id="paint0_linear_196_2152" x1="211.912" y1="44.4775" x2="175.685" y2="37.96" gradientUnits="userSpaceOnUse">
<stop stop-color="#00B0B1"/>
<stop offset="1" stop-color="#0079BE"/>
</linearGradient>
<linearGradient id="paint1_linear_196_2152" x1="211.972" y1="48.0206" x2="176.091" y2="41.5653" gradientUnits="userSpaceOnUse">
<stop stop-color="#B86EAD"/>
<stop offset="1" stop-color="#8E4098"/>
</linearGradient>
<linearGradient id="paint2_linear_196_2152" x1="182.437" y1="45.2565" x2="178.939" y2="44.6272" gradientUnits="userSpaceOnUse">
<stop stop-color="#B86EAD"/>
<stop offset="1" stop-color="#8E4098"/>
</linearGradient>
<linearGradient id="paint3_linear_196_2152" x1="28.9198" y1="47.151" x2="40.3999" y2="47.151" gradientUnits="userSpaceOnUse">
<stop offset="0.0363" stop-color="#BED730"/>
<stop offset="1" stop-color="#1471B9"/>
</linearGradient>
<linearGradient id="paint4_linear_196_2152" x1="28.9198" y1="47.151" x2="40.3999" y2="47.151" gradientUnits="userSpaceOnUse">
<stop offset="0.0363" stop-color="#BED730"/>
<stop offset="1" stop-color="#1471B9"/>
</linearGradient>
<linearGradient id="paint5_linear_196_2152" x1="28.9199" y1="47.0626" x2="40.3899" y2="47.0626" gradientUnits="userSpaceOnUse">
<stop offset="0.0363" stop-color="#BED730"/>
<stop offset="1" stop-color="#1471B9"/>
</linearGradient>
<linearGradient id="paint6_linear_196_2152" x1="28.9199" y1="37.1128" x2="53.9199" y2="37.1128" gradientUnits="userSpaceOnUse">
<stop offset="0.0363" stop-color="#BED730"/>
<stop offset="1" stop-color="#1471B9"/>
</linearGradient>
<linearGradient id="paint7_linear_196_2152" x1="28.9199" y1="37.1128" x2="53.9199" y2="37.1128" gradientUnits="userSpaceOnUse">
<stop offset="0.0363" stop-color="#BED730"/>
<stop offset="1" stop-color="#1471B9"/>
</linearGradient>
<linearGradient id="paint8_linear_196_2152" x1="28.9199" y1="37.1178" x2="53.9099" y2="37.1178" gradientUnits="userSpaceOnUse">
<stop offset="0.0363" stop-color="#BED730"/>
<stop offset="1" stop-color="#1471B9"/>
</linearGradient>
<linearGradient id="paint9_linear_196_2152" x1="40.3949" y1="19.2526" x2="53.9248" y2="19.2526" gradientUnits="userSpaceOnUse">
<stop stop-color="#00B0B1"/>
<stop offset="1" stop-color="#0079BE"/>
</linearGradient>
<linearGradient id="paint10_linear_196_2152" x1="40.3999" y1="19.2576" x2="53.9199" y2="19.2576" gradientUnits="userSpaceOnUse">
<stop stop-color="#00B0B1"/>
<stop offset="1" stop-color="#0079BE"/>
</linearGradient>
<linearGradient id="paint11_linear_196_2152" x1="30.6355" y1="18.8787" x2="45.3201" y2="18.8787" gradientUnits="userSpaceOnUse">
<stop stop-color="#00B0B1"/>
<stop offset="1" stop-color="#0079BE"/>
</linearGradient>
<linearGradient id="paint12_linear_196_2152" x1="30.36" y1="18.5775" x2="45.3201" y2="18.5775" gradientUnits="userSpaceOnUse">
<stop stop-color="#00B0B1"/>
<stop offset="1" stop-color="#0079BE"/>
</linearGradient>
<linearGradient id="paint13_linear_196_2152" x1="28.9198" y1="12.4976" x2="45.3199" y2="12.4976" gradientUnits="userSpaceOnUse">
<stop stop-color="#00B0B1"/>
<stop offset="1" stop-color="#0079BE"/>
</linearGradient>
<linearGradient id="paint14_linear_196_2152" x1="28.9199" y1="12.4976" x2="45.3099" y2="12.4976" gradientUnits="userSpaceOnUse">
<stop stop-color="#00B0B1"/>
<stop offset="1" stop-color="#0079BE"/>
</linearGradient>
<linearGradient id="paint15_linear_196_2152" x1="29.27" y1="12.4977" x2="44.48" y2="12.4977" gradientUnits="userSpaceOnUse">
<stop stop-color="#00B0B1"/>
<stop offset="1" stop-color="#0079BE"/>
</linearGradient>
<linearGradient id="paint16_linear_196_2152" x1="29.27" y1="12.5027" x2="44.4699" y2="12.5027" gradientUnits="userSpaceOnUse">
<stop stop-color="#00B0B1"/>
<stop offset="1" stop-color="#0079BE"/>
</linearGradient>
<linearGradient id="paint17_linear_196_2152" x1="13.5199" y1="47.1477" x2="24.9999" y2="47.1477" gradientUnits="userSpaceOnUse">
<stop stop-color="#00B0B1"/>
<stop offset="1" stop-color="#0079BE"/>
</linearGradient>
<linearGradient id="paint18_linear_196_2152" x1="13.5299" y1="47.1527" x2="24.9999" y2="47.1527" gradientUnits="userSpaceOnUse">
<stop stop-color="#00B0B1"/>
<stop offset="1" stop-color="#0079BE"/>
</linearGradient>
<linearGradient id="paint19_linear_196_2152" x1="12.7722" y1="37.9703" x2="24.9999" y2="37.9703" gradientUnits="userSpaceOnUse">
<stop stop-color="#00B0B1"/>
<stop offset="1" stop-color="#0079BE"/>
</linearGradient>
<linearGradient id="paint20_linear_196_2152" x1="12.1599" y1="37.8327" x2="24.9899" y2="37.8327" gradientUnits="userSpaceOnUse">
<stop stop-color="#00B0B1"/>
<stop offset="1" stop-color="#0079BE"/>
</linearGradient>
<linearGradient id="paint21_linear_196_2152" x1="-0.0001" y1="37.1128" x2="24.9999" y2="37.1128" gradientUnits="userSpaceOnUse">
<stop stop-color="#00B0B1"/>
<stop offset="1" stop-color="#0079BE"/>
</linearGradient>
<linearGradient id="paint22_linear_196_2152" x1="-0.0001" y1="37.1178" x2="24.99" y2="37.1178" gradientUnits="userSpaceOnUse">
<stop stop-color="#00B0B1"/>
<stop offset="1" stop-color="#0079BE"/>
</linearGradient>
<linearGradient id="paint23_linear_196_2152" x1="0.350098" y1="36.8676" x2="24.6501" y2="36.8676" gradientUnits="userSpaceOnUse">
<stop stop-color="#00B0B1"/>
<stop offset="1" stop-color="#0079BE"/>
</linearGradient>
<linearGradient id="paint24_linear_196_2152" x1="0.350098" y1="36.8626" x2="24.6501" y2="36.8626" gradientUnits="userSpaceOnUse">
<stop stop-color="#00B0B1"/>
<stop offset="1" stop-color="#0079BE"/>
</linearGradient>
<linearGradient id="paint25_linear_196_2152" x1="-0.0001" y1="19.2626" x2="13.5433" y2="19.2626" gradientUnits="userSpaceOnUse">
<stop stop-color="#B66CAC"/>
<stop offset="0.0363" stop-color="#BED730"/>
<stop offset="1" stop-color="#1471B9"/>
</linearGradient>
<linearGradient id="paint26_linear_196_2152" x1="-0.0001" y1="19.2626" x2="13.5433" y2="19.2626" gradientUnits="userSpaceOnUse">
<stop offset="0.0363" stop-color="#BED730"/>
<stop offset="1" stop-color="#1471B9"/>
</linearGradient>
<linearGradient id="paint27_linear_196_2152" x1="-0.0001" y1="19.2576" x2="13.6999" y2="19.2576" gradientUnits="userSpaceOnUse">
<stop offset="0.0363" stop-color="#BED730"/>
<stop offset="1" stop-color="#1471B9"/>
</linearGradient>
<linearGradient id="paint28_linear_196_2152" x1="8.60976" y1="12.4976" x2="25.0099" y2="12.4976" gradientUnits="userSpaceOnUse">
<stop stop-color="#B66CAC"/>
<stop offset="0.0363" stop-color="#BED730"/>
<stop offset="1" stop-color="#1471B9"/>
</linearGradient>
<linearGradient id="paint29_linear_196_2152" x1="8.60976" y1="12.4976" x2="25.0099" y2="12.4976" gradientUnits="userSpaceOnUse">
<stop stop-color="#B66CAC"/>
<stop offset="0.0363" stop-color="#BED730"/>
<stop offset="1" stop-color="#1471B9"/>
</linearGradient>
<linearGradient id="paint30_linear_196_2152" x1="8.60976" y1="12.4976" x2="24.9998" y2="12.4976" gradientUnits="userSpaceOnUse">
<stop stop-color="#B66CAC"/>
<stop offset="0.0363" stop-color="#BED730"/>
<stop offset="1" stop-color="#1471B9"/>
</linearGradient>
<linearGradient id="paint31_linear_196_2152" x1="9.62012" y1="12.4977" x2="24.6501" y2="12.4977" gradientUnits="userSpaceOnUse">
<stop stop-color="#B66CAC"/>
<stop offset="0.0363" stop-color="#BED730"/>
<stop offset="1" stop-color="#1471B9"/>
</linearGradient>
<linearGradient id="paint32_linear_196_2152" x1="9.62012" y1="12.4977" x2="24.6501" y2="12.4977" gradientUnits="userSpaceOnUse">
<stop stop-color="#B66CAC"/>
<stop offset="0.0363" stop-color="#BED730"/>
<stop offset="1" stop-color="#1471B9"/>
</linearGradient>
<linearGradient id="paint33_linear_196_2152" x1="9.62012" y1="12.5027" x2="24.6501" y2="12.5027" gradientUnits="userSpaceOnUse">
<stop stop-color="#B66CAC"/>
<stop offset="0.0363" stop-color="#BED730"/>
<stop offset="1" stop-color="#1471B9"/>
</linearGradient>
</defs>
</svg>
