<svg width="55" height="55" viewBox="0 0 55 55" fill="none" xmlns="http://www.w3.org/2000/svg">
<path d="M41.0501 40.7402V48.5302C41.0501 51.6902 38.4701 54.2702 35.3101 54.2702H29.5701V45.6702C32.0601 42.2002 35.8801 40.5602 41.0501 40.7402Z" fill="url(#paint0_linear_193_1877)"/>
<mask id="mask0_193_1877" style="mask-type:luminance" maskUnits="userSpaceOnUse" x="29" y="40" width="13" height="15">
<path d="M41.0501 40.7402V48.5302C41.0501 51.6902 38.4701 54.2702 35.3101 54.2702H29.5701V45.6702C32.0601 42.2002 35.8801 40.5602 41.0501 40.7402Z" fill="white"/>
</mask>
<g mask="url(#mask0_193_1877)">
<path d="M41.0401 40.5601H29.5701V54.2601H41.0401V40.5601Z" fill="url(#paint1_linear_193_1877)"/>
</g>
<path d="M40.7 41.07V48.52C40.7 51.48 38.27 53.91 35.31 53.91H29.92V48.49H31.59C33.64 48.49 35.31 46.82 35.31 44.77V41.81C37.02 41.24 38.87 41.04 40.7 41.07Z" fill="url(#paint2_linear_193_1877)"/>
<mask id="mask1_193_1877" style="mask-type:luminance" maskUnits="userSpaceOnUse" x="29" y="41" width="12" height="13">
<path d="M40.7 41.07V48.52C40.7 51.48 38.27 53.91 35.31 53.91H29.92V48.49H31.59C33.64 48.49 35.31 46.82 35.31 44.77V41.81C37.02 41.24 38.87 41.04 40.7 41.07Z" fill="white"/>
</mask>
<g mask="url(#mask1_193_1877)">
<path d="M40.7 41.04H29.92V53.92H40.7V41.04Z" fill="url(#paint3_linear_193_1877)"/>
</g>
<path d="M41.6 40.7402H41.05V42.3302C36.96 42.1502 32.93 43.3202 29.58 45.6602V35.0002C29.58 34.9502 29.58 34.9102 29.58 34.8602V34.8502C29.58 34.8002 29.58 34.7602 29.59 34.7102C29.59 34.6602 29.6 34.6202 29.6 34.5702V34.5602C29.6 34.5102 29.61 34.4702 29.61 34.4202C29.61 34.3802 29.62 34.3302 29.63 34.2902V34.2702C29.64 34.2302 29.64 34.1902 29.65 34.1402V34.1302C29.66 34.0902 29.66 34.0502 29.67 34.0102V33.9902C29.68 33.9502 29.68 33.9102 29.69 33.8702V33.8502C29.7 33.8102 29.71 33.7702 29.72 33.7402L29.73 33.7102C29.74 33.6702 29.75 33.6402 29.76 33.6002L29.77 33.5702C29.78 33.5402 29.79 33.5002 29.8 33.4702L29.81 33.4402C29.82 33.4102 29.83 33.3802 29.84 33.3402C29.84 33.3302 29.85 33.3102 29.85 33.3002C29.86 33.2702 29.87 33.2402 29.88 33.2102C29.88 33.2002 29.89 33.1802 29.89 33.1702C29.9 33.1402 29.91 33.1102 29.92 33.0902C29.93 33.0702 29.93 33.0502 29.94 33.0402C29.95 33.0102 29.96 32.9902 29.97 32.9602C29.98 32.9402 29.98 32.9302 29.99 32.9102C30 32.8902 30.01 32.8602 30.02 32.8402C30.03 32.8202 30.04 32.8002 30.05 32.7702C30.06 32.7502 30.07 32.7302 30.08 32.7002C30.09 32.6802 30.1 32.6602 30.11 32.6402C30.12 32.6202 30.13 32.6002 30.14 32.5802C30.15 32.5502 30.16 32.5302 30.18 32.5102C30.19 32.4902 30.2 32.4802 30.2 32.4602C30.21 32.4302 30.23 32.4002 30.25 32.3702C30.26 32.3602 30.26 32.3502 30.27 32.3402C30.28 32.3102 30.3 32.2802 30.32 32.2602L30.33 32.2302C30.35 32.1902 30.37 32.1502 30.4 32.1202L30.41 32.1002C30.43 32.0702 30.45 32.0402 30.46 32.0102V32.0002C30.49 31.9602 30.52 31.9102 30.54 31.8702C30.59 31.7902 30.64 31.7202 30.7 31.6402C32.83 30.7202 35.34 30.7402 37.55 31.8902C40.81 33.5902 42.41 37.2702 41.6 40.7402Z" fill="url(#paint4_linear_193_1877)"/>
<mask id="mask2_193_1877" style="mask-type:luminance" maskUnits="userSpaceOnUse" x="29" y="30" width="13" height="16">
<path d="M41.6 40.7402H41.05V42.3302C36.96 42.1502 32.93 43.3202 29.58 45.6602V35.0002C29.58 34.9502 29.58 34.9102 29.58 34.8602V34.8502C29.58 34.8002 29.58 34.7602 29.59 34.7102C29.59 34.6602 29.6 34.6202 29.6 34.5702V34.5602C29.6 34.5102 29.61 34.4702 29.61 34.4202C29.61 34.3802 29.62 34.3302 29.63 34.2902V34.2702C29.64 34.2302 29.64 34.1902 29.65 34.1402V34.1302C29.66 34.0902 29.66 34.0502 29.67 34.0102V33.9902C29.68 33.9502 29.68 33.9102 29.69 33.8702V33.8502C29.7 33.8102 29.71 33.7702 29.72 33.7402L29.73 33.7102C29.74 33.6702 29.75 33.6402 29.76 33.6002L29.77 33.5702C29.78 33.5402 29.79 33.5002 29.8 33.4702L29.81 33.4402C29.82 33.4102 29.83 33.3802 29.84 33.3402C29.84 33.3302 29.85 33.3102 29.85 33.3002C29.86 33.2702 29.87 33.2402 29.88 33.2102C29.88 33.2002 29.89 33.1802 29.89 33.1702C29.9 33.1402 29.91 33.1102 29.92 33.0902C29.93 33.0702 29.93 33.0502 29.94 33.0402C29.95 33.0102 29.96 32.9902 29.97 32.9602C29.98 32.9402 29.98 32.9302 29.99 32.9102C30 32.8902 30.01 32.8602 30.02 32.8402C30.03 32.8202 30.04 32.8002 30.05 32.7702C30.06 32.7502 30.07 32.7302 30.08 32.7002C30.09 32.6802 30.1 32.6602 30.11 32.6402C30.12 32.6202 30.13 32.6002 30.14 32.5802C30.15 32.5502 30.16 32.5302 30.18 32.5102C30.19 32.4902 30.2 32.4802 30.2 32.4602C30.21 32.4302 30.23 32.4002 30.25 32.3702C30.26 32.3602 30.26 32.3502 30.27 32.3402C30.28 32.3102 30.3 32.2802 30.32 32.2602L30.33 32.2302C30.35 32.1902 30.37 32.1502 30.4 32.1202L30.41 32.1002C30.43 32.0702 30.45 32.0402 30.46 32.0102V32.0002C30.49 31.9602 30.52 31.9102 30.54 31.8702C30.59 31.7902 30.64 31.7202 30.7 31.6402C32.83 30.7202 35.34 30.7402 37.55 31.8902C40.81 33.5902 42.41 37.2702 41.6 40.7402Z" fill="white"/>
</mask>
<g mask="url(#mask2_193_1877)">
<path d="M42.4 30.7002H29.57V45.6602H42.4V30.7002Z" fill="url(#paint5_linear_193_1877)"/>
</g>
<path d="M29.5701 45.66V35C29.5701 31.84 32.1501 29.26 35.3101 29.26H37.6901H41.0501H54.5701V35C54.5701 38.16 51.9901 40.74 48.8301 40.74H41.0401C35.8801 40.56 32.0601 42.2 29.5701 45.66Z" fill="url(#paint6_linear_193_1877)"/>
<mask id="mask3_193_1877" style="mask-type:luminance" maskUnits="userSpaceOnUse" x="29" y="29" width="26" height="17">
<path d="M29.5701 45.66V35C29.5701 31.84 32.1501 29.26 35.3101 29.26H37.6901H41.0501H54.5701V35C54.5701 38.16 51.9901 40.74 48.8301 40.74H41.0401C35.8801 40.56 32.0601 42.2 29.5701 45.66Z" fill="white"/>
</mask>
<g mask="url(#mask3_193_1877)">
<path d="M54.5601 29.27H29.5701V45.66H54.5601V29.27Z" fill="url(#paint7_linear_193_1877)"/>
</g>
<path d="M29.92 44.6401V35.0001H45.93C47.51 35.0001 48.8 33.7101 48.8 32.1301V29.6101H54.2101V35.0001C54.2101 37.9601 51.7901 40.3901 48.8201 40.3901H41.04C37.79 40.2801 34.5201 40.8701 31.8501 42.8301C31.1401 43.3601 30.5 43.9701 29.92 44.6401Z" fill="url(#paint8_linear_193_1877)"/>
<mask id="mask4_193_1877" style="mask-type:luminance" maskUnits="userSpaceOnUse" x="29" y="29" width="26" height="16">
<path d="M29.92 44.6401V35.0001H45.93C47.51 35.0001 48.8 33.7101 48.8 32.1301V29.6101H54.2101V35.0001C54.2101 37.9601 51.7901 40.3901 48.8201 40.3901H41.04C37.79 40.2801 34.5201 40.8701 31.8501 42.8301C31.1401 43.3601 30.5 43.9701 29.92 44.6401Z" fill="white"/>
</mask>
<g mask="url(#mask4_193_1877)">
<path d="M54.22 29.6101H29.92V44.6401H54.22V29.6101Z" fill="url(#paint9_linear_193_1877)"/>
</g>
<path d="M45.96 25.3401H54.56V19.6001C54.56 16.4401 51.98 13.8601 48.82 13.8601H41.03C41.06 18.2001 42.83 22.3501 45.96 25.3401Z" fill="url(#paint10_linear_193_1877)"/>
<mask id="mask5_193_1877" style="mask-type:luminance" maskUnits="userSpaceOnUse" x="41" y="13" width="14" height="13">
<path d="M45.96 25.3401H54.56V19.6001C54.56 16.4401 51.98 13.8601 48.82 13.8601H41.03C41.06 18.2001 42.83 22.3501 45.96 25.3401Z" fill="white"/>
</mask>
<g mask="url(#mask5_193_1877)">
<path d="M54.5701 13.8701H41.05V25.3401H54.5701V13.8701Z" fill="url(#paint11_linear_193_1877)"/>
</g>
<path d="M35.31 25.3401H37.69H41.05H45.97C43.63 21.9901 42.45 17.9501 42.64 13.8701H41.05V13.3201C37.58 12.5101 33.9 14.1101 32.19 17.3901C31.04 19.6001 31.02 22.1101 31.94 24.2401C32.88 24.9301 34.05 25.3401 35.31 25.3401Z" fill="url(#paint12_linear_193_1877)"/>
<mask id="mask6_193_1877" style="mask-type:luminance" maskUnits="userSpaceOnUse" x="31" y="13" width="15" height="13">
<path d="M35.31 25.3401H37.69H41.05H45.97C43.63 21.9901 42.45 17.9501 42.64 13.8701H41.05V13.3201C37.58 12.5101 33.9 14.1101 32.19 17.3901C31.04 19.6001 31.02 22.1101 31.94 24.2401C32.88 24.9301 34.05 25.3401 35.31 25.3401Z" fill="white"/>
</mask>
<g mask="url(#mask6_193_1877)">
<path d="M45.97 12.51H31.01V25.34H45.97V12.51Z" fill="url(#paint13_linear_193_1877)"/>
</g>
<path d="M41.0501 13.8701C41.0601 18.2001 42.8401 22.3501 45.9701 25.3401H41.0501H37.6901H35.3101C32.1501 25.3401 29.5701 22.7601 29.5701 19.6001V0.350098H35.3101C38.4701 0.350098 41.0501 2.9301 41.0501 6.0901V13.8701Z" fill="url(#paint14_linear_193_1877)"/>
<mask id="mask7_193_1877" style="mask-type:luminance" maskUnits="userSpaceOnUse" x="29" y="0" width="17" height="26">
<path d="M41.0501 13.8701C41.0601 18.2001 42.8401 22.3501 45.9701 25.3401H41.0501H37.6901H35.3101C32.1501 25.3401 29.5701 22.7601 29.5701 19.6001V0.350098H35.3101C38.4701 0.350098 41.0501 2.9301 41.0501 6.0901V13.8701Z" fill="white"/>
</mask>
<g mask="url(#mask7_193_1877)">
<path d="M45.9601 0.350098H29.5701V25.3401H45.9601V0.350098Z" fill="url(#paint15_linear_193_1877)"/>
</g>
<path d="M45.1301 24.9902H35.31V9.2902C35.31 7.5402 33.8801 6.1102 32.1301 6.1102H29.92V0.700195H35.31C38.27 0.700195 40.7 3.12019 40.7 6.09019V13.8802C40.7 18.0202 42.3001 21.9902 45.1301 24.9902Z" fill="url(#paint16_linear_193_1877)"/>
<mask id="mask8_193_1877" style="mask-type:luminance" maskUnits="userSpaceOnUse" x="29" y="0" width="17" height="25">
<path d="M45.1301 24.9902H35.31V9.2902C35.31 7.5402 33.8801 6.1102 32.1301 6.1102H29.92V0.700195H35.31C38.27 0.700195 40.7 3.12019 40.7 6.09019V13.8802C40.7 18.0202 42.3001 21.9902 45.1301 24.9902Z" fill="white"/>
</mask>
<g mask="url(#mask8_193_1877)">
<path d="M45.12 0.700195H29.92V25.0002H45.12V0.700195Z" fill="url(#paint17_linear_193_1877)"/>
</g>
<path d="M25.65 45.66V54.26H19.91C16.75 54.26 14.17 51.68 14.17 48.52V40.73C18.51 40.75 22.65 42.53 25.65 45.66Z" fill="url(#paint18_linear_193_1877)"/>
<mask id="mask9_193_1877" style="mask-type:luminance" maskUnits="userSpaceOnUse" x="14" y="40" width="12" height="15">
<path d="M25.65 45.66V54.26H19.91C16.75 54.26 14.17 51.68 14.17 48.52V40.73C18.51 40.75 22.65 42.53 25.65 45.66Z" fill="white"/>
</mask>
<g mask="url(#mask9_193_1877)">
<path d="M25.6501 40.74H14.1801V54.26H25.6501V40.74Z" fill="url(#paint19_linear_193_1877)"/>
</g>
<path d="M25.65 35.0001V37.3801V40.7401V45.6602C22.3 43.3202 18.26 42.1401 14.18 42.3301V40.7401H13.63C12.82 37.2701 14.42 33.5901 17.7 31.8801C19.91 30.7301 22.42 30.7101 24.55 31.6301C25.24 32.5701 25.65 33.7401 25.65 35.0001Z" fill="url(#paint20_linear_193_1877)"/>
<mask id="mask10_193_1877" style="mask-type:luminance" maskUnits="userSpaceOnUse" x="13" y="30" width="13" height="16">
<path d="M25.65 35.0001V37.3801V40.7401V45.6602C22.3 43.3202 18.26 42.1401 14.18 42.3301V40.7401H13.63C12.82 37.2701 14.42 33.5901 17.7 31.8801C19.91 30.7301 22.42 30.7101 24.55 31.6301C25.24 32.5701 25.65 33.7401 25.65 35.0001Z" fill="white"/>
</mask>
<g mask="url(#mask10_193_1877)">
<path d="M25.64 30.7002H12.81V45.6602H25.64V30.7002Z" fill="url(#paint21_linear_193_1877)"/>
</g>
<path d="M14.18 40.74C18.51 40.75 22.66 42.53 25.65 45.66V40.74V37.38V35C25.65 31.84 23.07 29.26 19.91 29.26H0.650024V35C0.650024 38.16 3.23003 40.74 6.39003 40.74H14.18Z" fill="url(#paint22_linear_193_1877)"/>
<mask id="mask11_193_1877" style="mask-type:luminance" maskUnits="userSpaceOnUse" x="0" y="29" width="26" height="17">
<path d="M14.18 40.74C18.51 40.75 22.66 42.53 25.65 45.66V40.74V37.38V35C25.65 31.84 23.07 29.26 19.91 29.26H0.650024V35C0.650024 38.16 3.23003 40.74 6.39003 40.74H14.18Z" fill="white"/>
</mask>
<g mask="url(#mask11_193_1877)">
<path d="M25.64 29.27H0.650024V45.66H25.64V29.27Z" fill="url(#paint23_linear_193_1877)"/>
</g>
<path d="M25.3 44.8201V35.0001H9.60001C7.85001 35.0001 6.42 33.5701 6.42 31.8201V29.6101H1V35.0001C1 37.9601 3.42 40.3901 6.39 40.3901H14.18C18.32 40.3901 22.3 41.9901 25.3 44.8201Z" fill="url(#paint24_linear_193_1877)"/>
<mask id="mask12_193_1877" style="mask-type:luminance" maskUnits="userSpaceOnUse" x="1" y="29" width="25" height="16">
<path d="M25.3 44.8201V35.0001H9.60001C7.85001 35.0001 6.42 33.5701 6.42 31.8201V29.6101H1V35.0001C1 37.9601 3.42 40.3901 6.39 40.3901H14.18C18.32 40.3901 22.3 41.9901 25.3 44.8201Z" fill="white"/>
</mask>
<g mask="url(#mask12_193_1877)">
<path d="M25.3 29.6101H1V44.8101H25.3V29.6101Z" fill="url(#paint25_linear_193_1877)"/>
</g>
<path d="M14.18 13.8701H6.39003C3.23003 13.8701 0.650024 16.4501 0.650024 19.6101V25.3501H9.25003C12.72 22.8601 14.36 19.0301 14.18 13.8701Z" fill="url(#paint26_linear_193_1877)"/>
<mask id="mask13_193_1877" style="mask-type:luminance" maskUnits="userSpaceOnUse" x="0" y="13" width="15" height="13">
<path d="M14.18 13.8701H6.39003C3.23003 13.8701 0.650024 16.4501 0.650024 19.6101V25.3501H9.25003C12.72 22.8601 14.36 19.0301 14.18 13.8701Z" fill="white"/>
</mask>
<g mask="url(#mask13_193_1877)">
<path d="M14.35 13.8701H0.650024V25.3401H14.35V13.8701Z" fill="url(#paint27_linear_193_1877)"/>
</g>
<path d="M13.84 14.2102H6.39C3.43 14.2102 1 16.6402 1 19.6002V25.0002H6.42V23.3302C6.42 21.2802 8.09 19.6102 10.14 19.6102H13.1C13.67 17.8902 13.88 16.0502 13.84 14.2102Z" fill="url(#paint28_linear_193_1877)"/>
<mask id="mask14_193_1877" style="mask-type:luminance" maskUnits="userSpaceOnUse" x="1" y="14" width="13" height="12">
<path d="M13.84 14.2102H6.39C3.43 14.2102 1 16.6402 1 19.6002V25.0002H6.42V23.3302C6.42 21.2802 8.09 19.6102 10.14 19.6102H13.1C13.67 17.8902 13.88 16.0502 13.84 14.2102Z" fill="white"/>
</mask>
<g mask="url(#mask14_193_1877)">
<path d="M13.88 14.2102H1V24.9902H13.88V14.2102Z" fill="url(#paint29_linear_193_1877)"/>
</g>
<path d="M14.18 13.3201V13.8701H12.59C12.77 17.9601 11.6 21.9901 9.26001 25.3401H19.92C19.97 25.3401 20.01 25.3401 20.06 25.3401H20.07C20.12 25.3401 20.16 25.3401 20.21 25.3301C20.26 25.3301 20.3 25.3201 20.35 25.3201H20.36C20.41 25.3201 20.45 25.3101 20.5 25.3101C20.54 25.3101 20.59 25.3001 20.63 25.2901H20.65C20.69 25.2801 20.73 25.2801 20.78 25.2701H20.79C20.83 25.2601 20.87 25.2601 20.91 25.2501H20.93C20.97 25.2401 21.01 25.2401 21.05 25.2301H21.07C21.11 25.2201 21.15 25.2101 21.18 25.2001L21.21 25.1901C21.25 25.1801 21.28 25.1701 21.32 25.1601L21.35 25.1501C21.38 25.1401 21.42 25.1301 21.45 25.1201L21.48 25.1101C21.51 25.1001 21.54 25.0901 21.58 25.0801C21.59 25.0801 21.61 25.0701 21.62 25.0701C21.65 25.0601 21.68 25.0501 21.71 25.0401C21.72 25.0401 21.74 25.0301 21.75 25.0301C21.78 25.0201 21.81 25.0101 21.83 25.0001C21.85 24.9901 21.87 24.9901 21.88 24.9801C21.91 24.9701 21.93 24.9601 21.96 24.9501C21.98 24.9401 21.99 24.9401 22.01 24.9301C22.03 24.9201 22.06 24.9101 22.08 24.9001C22.1 24.8901 22.12 24.8801 22.15 24.8701C22.17 24.8601 22.19 24.8501 22.22 24.8401C22.24 24.8301 22.26 24.8201 22.28 24.8101C22.3 24.8001 22.32 24.7901 22.34 24.7801C22.36 24.7701 22.39 24.7601 22.41 24.7401C22.43 24.7301 22.44 24.7201 22.46 24.7201C22.49 24.7101 22.52 24.6901 22.55 24.6701C22.56 24.6601 22.57 24.6601 22.58 24.6501C22.61 24.6401 22.64 24.6201 22.66 24.6001L22.69 24.5901C22.73 24.5701 22.77 24.5501 22.8 24.5301L22.82 24.5201C22.85 24.5001 22.88 24.4801 22.91 24.4701H22.92C22.96 24.4401 23.01 24.4101 23.05 24.3901C23.13 24.3401 23.2 24.2901 23.28 24.2301C24.2 22.1001 24.18 19.5901 23.03 17.3801C21.33 14.1101 17.64 12.5101 14.18 13.3201Z" fill="url(#paint30_linear_193_1877)"/>
<mask id="mask15_193_1877" style="mask-type:luminance" maskUnits="userSpaceOnUse" x="9" y="13" width="15" height="13">
<path d="M14.18 13.3201V13.8701H12.59C12.77 17.9601 11.6 21.9901 9.26001 25.3401H19.92C19.97 25.3401 20.01 25.3401 20.06 25.3401H20.07C20.12 25.3401 20.16 25.3401 20.21 25.3301C20.26 25.3301 20.3 25.3201 20.35 25.3201H20.36C20.41 25.3201 20.45 25.3101 20.5 25.3101C20.54 25.3101 20.59 25.3001 20.63 25.2901H20.65C20.69 25.2801 20.73 25.2801 20.78 25.2701H20.79C20.83 25.2601 20.87 25.2601 20.91 25.2501H20.93C20.97 25.2401 21.01 25.2401 21.05 25.2301H21.07C21.11 25.2201 21.15 25.2101 21.18 25.2001L21.21 25.1901C21.25 25.1801 21.28 25.1701 21.32 25.1601L21.35 25.1501C21.38 25.1401 21.42 25.1301 21.45 25.1201L21.48 25.1101C21.51 25.1001 21.54 25.0901 21.58 25.0801C21.59 25.0801 21.61 25.0701 21.62 25.0701C21.65 25.0601 21.68 25.0501 21.71 25.0401C21.72 25.0401 21.74 25.0301 21.75 25.0301C21.78 25.0201 21.81 25.0101 21.83 25.0001C21.85 24.9901 21.87 24.9901 21.88 24.9801C21.91 24.9701 21.93 24.9601 21.96 24.9501C21.98 24.9401 21.99 24.9401 22.01 24.9301C22.03 24.9201 22.06 24.9101 22.08 24.9001C22.1 24.8901 22.12 24.8801 22.15 24.8701C22.17 24.8601 22.19 24.8501 22.22 24.8401C22.24 24.8301 22.26 24.8201 22.28 24.8101C22.3 24.8001 22.32 24.7901 22.34 24.7801C22.36 24.7701 22.39 24.7601 22.41 24.7401C22.43 24.7301 22.44 24.7201 22.46 24.7201C22.49 24.7101 22.52 24.6901 22.55 24.6701C22.56 24.6601 22.57 24.6601 22.58 24.6501C22.61 24.6401 22.64 24.6201 22.66 24.6001L22.69 24.5901C22.73 24.5701 22.77 24.5501 22.8 24.5301L22.82 24.5201C22.85 24.5001 22.88 24.4801 22.91 24.4701H22.92C22.96 24.4401 23.01 24.4101 23.05 24.3901C23.13 24.3401 23.2 24.2901 23.28 24.2301C24.2 22.1001 24.18 19.5901 23.03 17.3801C21.33 14.1101 17.64 12.5101 14.18 13.3201Z" fill="white"/>
</mask>
<g mask="url(#mask15_193_1877)">
<path d="M24.22 12.5103H9.26001V25.3402H24.22V12.5103Z" fill="url(#paint31_linear_193_1877)"/>
</g>
<path d="M9.26001 25.3401H19.92C23.08 25.3401 25.66 22.7601 25.66 19.6001V17.2201V13.8601V0.350098H19.92C16.76 0.350098 14.18 2.9301 14.18 6.0901V13.8801C14.36 19.0301 12.72 22.8601 9.26001 25.3401Z" fill="url(#paint32_linear_193_1877)"/>
<mask id="mask16_193_1877" style="mask-type:luminance" maskUnits="userSpaceOnUse" x="9" y="0" width="17" height="26">
<path d="M9.26001 25.3401H19.92C23.08 25.3401 25.66 22.7601 25.66 19.6001V17.2201V13.8601V0.350098H19.92C16.76 0.350098 14.18 2.9301 14.18 6.0901V13.8801C14.36 19.0301 12.72 22.8601 9.26001 25.3401Z" fill="white"/>
</mask>
<g mask="url(#mask16_193_1877)">
<path d="M25.65 0.350098H9.26001V25.3401H25.65V0.350098Z" fill="url(#paint33_linear_193_1877)"/>
</g>
<path d="M10.27 24.9902H19.91V8.98019C19.91 7.40019 21.2 6.1102 22.78 6.1102H25.3V0.700195H19.91C16.95 0.700195 14.52 3.12019 14.52 6.09019V13.8702C14.63 17.1202 14.04 20.3902 12.08 23.0602C11.56 23.7702 10.95 24.4202 10.27 24.9902Z" fill="url(#paint34_linear_193_1877)"/>
<mask id="mask17_193_1877" style="mask-type:luminance" maskUnits="userSpaceOnUse" x="10" y="0" width="16" height="25">
<path d="M10.27 24.9902H19.91V8.98019C19.91 7.40019 21.2 6.1102 22.78 6.1102H25.3V0.700195H19.91C16.95 0.700195 14.52 3.12019 14.52 6.09019V13.8702C14.63 17.1202 14.04 20.3902 12.08 23.0602C11.56 23.7702 10.95 24.4202 10.27 24.9902Z" fill="white"/>
</mask>
<g mask="url(#mask17_193_1877)">
<path d="M25.3 0.700195H10.27V25.0002H25.3V0.700195Z" fill="url(#paint35_linear_193_1877)"/>
</g>
<defs>
<linearGradient id="paint0_linear_193_1877" x1="29.5721" y1="47.4926" x2="41.0451" y2="47.4926" gradientUnits="userSpaceOnUse">
<stop stop-color="#B86EAD"/>
<stop offset="1" stop-color="#8E4098"/>
</linearGradient>
<linearGradient id="paint1_linear_193_1877" x1="29.5721" y1="47.4097" x2="41.0451" y2="47.4097" gradientUnits="userSpaceOnUse">
<stop stop-color="#B86EAD"/>
<stop offset="1" stop-color="#8E4098"/>
</linearGradient>
<linearGradient id="paint2_linear_193_1877" x1="29.9169" y1="47.4925" x2="40.7002" y2="47.4925" gradientUnits="userSpaceOnUse">
<stop stop-color="#B86EAD"/>
<stop offset="1" stop-color="#8E4098"/>
</linearGradient>
<linearGradient id="paint3_linear_193_1877" x1="29.9169" y1="47.4768" x2="40.7002" y2="47.4768" gradientUnits="userSpaceOnUse">
<stop stop-color="#B86EAD"/>
<stop offset="1" stop-color="#8E4098"/>
</linearGradient>
<linearGradient id="paint4_linear_193_1877" x1="29.572" y1="38.3121" x2="41.8048" y2="38.3121" gradientUnits="userSpaceOnUse">
<stop stop-color="#B86EAD"/>
<stop offset="1" stop-color="#8E4098"/>
</linearGradient>
<linearGradient id="paint5_linear_193_1877" x1="29.572" y1="38.1796" x2="42.4069" y2="38.1796" gradientUnits="userSpaceOnUse">
<stop stop-color="#B86EAD"/>
<stop offset="1" stop-color="#8E4098"/>
</linearGradient>
<linearGradient id="paint6_linear_193_1877" x1="29.5721" y1="37.4613" x2="54.567" y2="37.4613" gradientUnits="userSpaceOnUse">
<stop stop-color="#B86EAD"/>
<stop offset="1" stop-color="#8E4098"/>
</linearGradient>
<linearGradient id="paint7_linear_193_1877" x1="29.5721" y1="37.4613" x2="54.567" y2="37.4613" gradientUnits="userSpaceOnUse">
<stop stop-color="#B86EAD"/>
<stop offset="1" stop-color="#8E4098"/>
</linearGradient>
<linearGradient id="paint8_linear_193_1877" x1="29.9216" y1="37.1291" x2="54.2173" y2="37.1291" gradientUnits="userSpaceOnUse">
<stop stop-color="#B86EAD"/>
<stop offset="1" stop-color="#8E4098"/>
</linearGradient>
<linearGradient id="paint9_linear_193_1877" x1="29.9216" y1="37.1291" x2="54.2172" y2="37.1291" gradientUnits="userSpaceOnUse">
<stop stop-color="#B86EAD"/>
<stop offset="1" stop-color="#8E4098"/>
</linearGradient>
<linearGradient id="paint10_linear_193_1877" x1="41.045" y1="19.6059" x2="54.5669" y2="19.6059" gradientUnits="userSpaceOnUse">
<stop stop-color="#00B0B1"/>
<stop offset="1" stop-color="#0079BE"/>
</linearGradient>
<linearGradient id="paint11_linear_193_1877" x1="41.045" y1="19.6059" x2="54.567" y2="19.6059" gradientUnits="userSpaceOnUse">
<stop stop-color="#00B0B1"/>
<stop offset="1" stop-color="#0079BE"/>
</linearGradient>
<linearGradient id="paint12_linear_193_1877" x1="31.2733" y1="19.2261" x2="45.9645" y2="19.2261" gradientUnits="userSpaceOnUse">
<stop stop-color="#00B0B1"/>
<stop offset="1" stop-color="#0079BE"/>
</linearGradient>
<linearGradient id="paint13_linear_193_1877" x1="31.0082" y1="18.9249" x2="45.9645" y2="18.9249" gradientUnits="userSpaceOnUse">
<stop stop-color="#00B0B1"/>
<stop offset="1" stop-color="#0079BE"/>
</linearGradient>
<linearGradient id="paint14_linear_193_1877" x1="29.5721" y1="12.845" x2="45.9646" y2="12.845" gradientUnits="userSpaceOnUse">
<stop stop-color="#00B0B1"/>
<stop offset="1" stop-color="#0079BE"/>
</linearGradient>
<linearGradient id="paint15_linear_193_1877" x1="29.5721" y1="12.845" x2="45.9646" y2="12.845" gradientUnits="userSpaceOnUse">
<stop stop-color="#00B0B1"/>
<stop offset="1" stop-color="#0079BE"/>
</linearGradient>
<linearGradient id="paint16_linear_193_1877" x1="29.9216" y1="12.8451" x2="45.1255" y2="12.8451" gradientUnits="userSpaceOnUse">
<stop stop-color="#00B0B1"/>
<stop offset="1" stop-color="#0079BE"/>
</linearGradient>
<linearGradient id="paint17_linear_193_1877" x1="29.9216" y1="12.8451" x2="45.1255" y2="12.8451" gradientUnits="userSpaceOnUse">
<stop stop-color="#00B0B1"/>
<stop offset="1" stop-color="#0079BE"/>
</linearGradient>
<linearGradient id="paint18_linear_193_1877" x1="14.1765" y1="47.499" x2="25.6495" y2="47.499" gradientUnits="userSpaceOnUse">
<stop stop-color="#00B0B1"/>
<stop offset="1" stop-color="#0079BE"/>
</linearGradient>
<linearGradient id="paint19_linear_193_1877" x1="14.1766" y1="47.499" x2="25.6496" y2="47.499" gradientUnits="userSpaceOnUse">
<stop stop-color="#00B0B1"/>
<stop offset="1" stop-color="#0079BE"/>
</linearGradient>
<linearGradient id="paint20_linear_193_1877" x1="13.4167" y1="38.312" x2="25.6495" y2="38.312" gradientUnits="userSpaceOnUse">
<stop stop-color="#00B0B1"/>
<stop offset="1" stop-color="#0079BE"/>
</linearGradient>
<linearGradient id="paint21_linear_193_1877" x1="12.8146" y1="38.1796" x2="25.6495" y2="38.1796" gradientUnits="userSpaceOnUse">
<stop stop-color="#00B0B1"/>
<stop offset="1" stop-color="#0079BE"/>
</linearGradient>
<linearGradient id="paint22_linear_193_1877" x1="0.654624" y1="37.4613" x2="25.6495" y2="37.4613" gradientUnits="userSpaceOnUse">
<stop stop-color="#00B0B1"/>
<stop offset="1" stop-color="#0079BE"/>
</linearGradient>
<linearGradient id="paint23_linear_193_1877" x1="0.654624" y1="37.4613" x2="25.6495" y2="37.4613" gradientUnits="userSpaceOnUse">
<stop stop-color="#00B0B1"/>
<stop offset="1" stop-color="#0079BE"/>
</linearGradient>
<linearGradient id="paint24_linear_193_1877" x1="1.0043" y1="37.2167" x2="25.2999" y2="37.2167" gradientUnits="userSpaceOnUse">
<stop stop-color="#00B0B1"/>
<stop offset="1" stop-color="#0079BE"/>
</linearGradient>
<linearGradient id="paint25_linear_193_1877" x1="1.0043" y1="37.2167" x2="25.2999" y2="37.2167" gradientUnits="userSpaceOnUse">
<stop stop-color="#00B0B1"/>
<stop offset="1" stop-color="#0079BE"/>
</linearGradient>
<linearGradient id="paint26_linear_193_1877" x1="0.654624" y1="19.6059" x2="14.1897" y2="19.6059" gradientUnits="userSpaceOnUse">
<stop stop-color="#B86EAD"/>
<stop offset="1" stop-color="#8E4098"/>
</linearGradient>
<linearGradient id="paint27_linear_193_1877" x1="0.654624" y1="19.6059" x2="14.3552" y2="19.6059" gradientUnits="userSpaceOnUse">
<stop stop-color="#B86EAD"/>
<stop offset="1" stop-color="#8E4098"/>
</linearGradient>
<linearGradient id="paint28_linear_193_1877" x1="0.9995" y1="19.606" x2="13.8447" y2="19.606" gradientUnits="userSpaceOnUse">
<stop stop-color="#B86EAD"/>
<stop offset="1" stop-color="#8E4098"/>
</linearGradient>
<linearGradient id="paint29_linear_193_1877" x1="0.9995" y1="19.606" x2="13.876" y2="19.606" gradientUnits="userSpaceOnUse">
<stop stop-color="#B86EAD"/>
<stop offset="1" stop-color="#8E4098"/>
</linearGradient>
<linearGradient id="paint30_linear_193_1877" x1="9.25701" y1="19.2261" x2="23.9483" y2="19.2261" gradientUnits="userSpaceOnUse">
<stop stop-color="#B86EAD"/>
<stop offset="1" stop-color="#8E4098"/>
</linearGradient>
<linearGradient id="paint31_linear_193_1877" x1="9.25701" y1="18.9252" x2="24.2133" y2="18.9252" gradientUnits="userSpaceOnUse">
<stop stop-color="#B86EAD"/>
<stop offset="1" stop-color="#8E4098"/>
</linearGradient>
<linearGradient id="paint32_linear_193_1877" x1="9.25701" y1="12.845" x2="25.6495" y2="12.845" gradientUnits="userSpaceOnUse">
<stop stop-color="#B86EAD"/>
<stop offset="1" stop-color="#8E4098"/>
</linearGradient>
<linearGradient id="paint33_linear_193_1877" x1="9.25701" y1="12.845" x2="25.6495" y2="12.845" gradientUnits="userSpaceOnUse">
<stop stop-color="#B86EAD"/>
<stop offset="1" stop-color="#8E4098"/>
</linearGradient>
<linearGradient id="paint34_linear_193_1877" x1="10.2713" y1="12.8451" x2="25.2999" y2="12.8451" gradientUnits="userSpaceOnUse">
<stop stop-color="#B86EAD"/>
<stop offset="1" stop-color="#8E4098"/>
</linearGradient>
<linearGradient id="paint35_linear_193_1877" x1="10.2713" y1="12.8451" x2="25.2999" y2="12.8451" gradientUnits="userSpaceOnUse">
<stop stop-color="#B86EAD"/>
<stop offset="1" stop-color="#8E4098"/>
</linearGradient>
</defs>
</svg>
