<svg width="1440" height="691" viewBox="0 0 1440 691" fill="none" xmlns="http://www.w3.org/2000/svg">
<path d="M934.151 634.835C920.769 586.745 602.264 491.372 274.87 585.848C-177.8 686.731 -407.795 421.042 -409.447 420.891C-744.061 895.339 -456.538 57.8947 -447.667 7.48069L-362.124 0H1518V605.58C1507.41 523.292 1465.04 736.808 1131.87 681.823C1007.93 649.579 954.23 641.203 933.199 640.137C908.852 638.903 928.285 647.466 933.199 640.137C934.041 638.88 934.457 637.156 934.151 634.835Z" fill="url(#paint0_linear_138_565)"/>
<path opacity="0.2" d="M131.303 409.177C61.9615 485.714 -70.7347 469.535 -147.272 400.194C-223.81 330.852 -61.5152 343.486 7.82611 266.949C77.1674 190.411 41.7355 75.6987 118.273 145.04C194.81 214.381 200.644 332.639 131.303 409.177Z" fill="#DCCEF3"/>
<path opacity="0.2" d="M1215.68 575.289L1212.77 540.771L1244.12 555.506L1215.68 575.289Z" stroke="#7B4DD9" stroke-width="6"/>
<rect opacity="0.5" x="1195.42" y="319" width="23" height="23" stroke="#FFB573" stroke-width="4"/>
<defs>
<linearGradient id="paint0_linear_138_565" x1="-159.413" y1="-116.97" x2="1433.32" y2="995.856" gradientUnits="userSpaceOnUse">
<stop stop-color="#401D87"/>
<stop offset="0.421875" stop-color="#7B4DD9"/>
<stop offset="1" stop-color="#2AB9F6"/>
</linearGradient>
</defs>
</svg>
