<svg width="181" height="185" viewBox="0 0 181 185" fill="none" xmlns="http://www.w3.org/2000/svg">
<g clip-path="url(#clip0_138_158)">
<path d="M156.186 131.44C156.186 131.44 180.446 132.705 174.796 140.409C169.145 148.112 154.297 135.889 154.297 135.889L156.186 131.44Z" fill="#FFB8B8"/>
<path d="M111.479 58.0644L116.417 59.3096C116.417 59.3096 119.298 68.0265 121.355 75.9131C123.413 83.7997 127.528 107.461 127.528 107.461L159.43 130.014L155.625 138.598L113.125 121.702L103.661 84.2151L111.479 58.0644Z" fill="#6E44C4"/>
<path opacity="0.2" d="M116.125 73.5371L114.285 112.414L118.125 123.973L106.875 115.651L116.125 73.5371Z" fill="black"/>
<path d="M122.795 142.535C122.795 142.535 128.145 157.063 128.968 167.025C129.79 176.987 130.614 184.874 130.614 184.874H105.512L100.575 177.402V184.873H71.3575C71.3575 184.873 63.1275 157.892 66.4195 154.572C69.7115 151.251 100.986 137.138 100.986 137.138L122.795 142.535Z" fill="#2F2E41"/>
<path d="M170.625 184.496H25.375V185H170.625V184.496Z" fill="#3F3D56"/>
<path d="M91.3153 42.2912C99.9514 42.2912 106.952 35.2292 106.952 26.5179C106.952 17.8066 99.9514 10.7446 91.3153 10.7446C82.6793 10.7446 75.6783 17.8066 75.6783 26.5179C75.6783 35.2292 82.6793 42.2912 91.3153 42.2912Z" fill="#FFB8B8"/>
<path d="M79.3818 33.1592L78.1473 51.423L93.7843 72.5924L101.603 52.668C101.603 52.668 94.6076 48.1021 98.7226 38.5551L79.3818 33.1592Z" fill="#FFB8B8"/>
<path d="M125.058 146.063C125.058 149.8 114.77 155.61 114.77 155.61V157.686L110.655 159.761L101.603 141.498L99.135 161.42C99.135 161.42 81.0275 164.328 75.2675 161.42C69.5075 158.513 66.625 159.761 58.395 156.856C50.165 153.951 61.6875 114.931 61.6875 114.931L53.4575 54.7437L71.4375 45.6754L72.385 45.1963L74.8575 44.7373L78.6475 44.0312L91.315 52.6683L92.335 58.0649L92.9625 61.3861L96.2525 57.6488L98.7375 49.4051L116.418 59.3107L111.48 99.1574C111.48 99.1574 125.058 142.328 125.058 146.063Z" fill="#7B4DD9"/>
<path d="M64.5678 158.931C64.5678 158.931 83.4968 174.288 74.4428 177.195C65.3888 180.101 60.4528 161.42 60.4528 161.42L64.5678 158.931Z" fill="#FFB8B8"/>
<path d="M57.5723 55.5739L53.4573 54.7437C53.4573 54.7437 47.2848 58.0644 46.8733 64.7048C46.4618 71.3451 41.1123 117.837 41.1123 117.837L58.3953 164.742L72.3863 159.346L58.8068 115.347L69.0943 77.1591L57.5723 55.5739Z" fill="#6E44C4"/>
<path d="M93.125 68.2414C93.9534 68.2414 94.625 67.5639 94.625 66.7283C94.625 65.8926 93.9534 65.2152 93.125 65.2152C92.2966 65.2152 91.625 65.8926 91.625 66.7283C91.625 67.5639 92.2966 68.2414 93.125 68.2414Z" fill="#2F2E41"/>
<path d="M93.125 78.0763C93.9534 78.0763 94.625 77.3989 94.625 76.5633C94.625 75.7276 93.9534 75.0502 93.125 75.0502C92.2966 75.0502 91.625 75.7276 91.625 76.5633C91.625 77.3989 92.2966 78.0763 93.125 78.0763Z" fill="#2F2E41"/>
<path d="M101.625 142.886C102.453 142.886 103.125 142.209 103.125 141.373C103.125 140.537 102.453 139.86 101.625 139.86C100.797 139.86 100.125 140.537 100.125 141.373C100.125 142.209 100.797 142.886 101.625 142.886Z" fill="#2F2E41"/>
<path d="M78.1133 10.3588L75.2228 9.19144C75.2228 9.19144 81.2665 2.4792 89.6755 3.0635L87.3105 0.437056C87.3105 0.437056 93.0918 -1.89761 98.3473 4.23083C101.11 7.45241 104.307 11.2391 106.299 15.505H109.395L108.103 18.3745L112.625 21.2436L107.983 20.7281C108.26 22.2996 108.302 23.9039 108.108 25.488C107.909 27.0726 107.108 28.5171 105.873 29.5168C105.873 29.5168 102.288 22.0319 102.288 20.8645V23.7827C102.288 23.7827 99.3973 21.1563 99.3973 19.4054L97.8205 21.4481H87.3105L88.8873 18.8216L82.8433 19.6959L85.2083 16.4857L75.8498 29.7427C75.8498 29.7427 70.4926 14.7361 78.1133 10.3588Z" fill="#2F2E41"/>
<path d="M170.069 109.519V106.363C168.487 106.332 166.851 105.769 165.896 104.988L166.551 102.895C167.685 103.752 169.061 104.223 170.478 104.238C172.415 104.238 173.724 102.957 173.724 101.176C173.724 99.4568 172.66 98.3941 170.642 97.4565C167.86 96.2065 166.142 94.7688 166.142 92.0498C166.142 89.4556 167.751 87.4869 170.26 87.0181V83.8608H171.951V86.8922C173.212 86.9096 174.442 87.289 175.496 87.9859L174.814 90.0488C173.803 89.3502 172.604 88.9795 171.378 88.9861C169.278 88.9861 168.487 90.4235 168.487 91.6738C168.487 93.2988 169.496 94.1114 171.869 95.2368C174.678 96.5482 176.096 98.1745 176.096 100.956C176.096 103.425 174.596 105.738 171.787 106.269V109.519H170.069Z" fill="#7B4DD9"/>
<path opacity="0.2" d="M62.5013 127.317L72.5001 158.822L64.5001 126.039L62.5013 127.317Z" fill="black"/>
<path d="M11.5233 65.769H5.17679C4.90021 65.7687 4.63504 65.6577 4.43947 65.4604C4.24389 65.2631 4.13388 64.9957 4.13354 64.7167V55.5137C4.13388 55.2347 4.24389 54.9672 4.43947 54.7699C4.63504 54.5726 4.90021 54.4617 5.17679 54.4613H11.5235C11.8001 54.4617 12.0653 54.5726 12.2609 54.7699C12.4564 54.9672 12.5665 55.2347 12.5668 55.5137V64.7164C12.5665 64.9955 12.4565 65.2631 12.2609 65.4604C12.0652 65.6578 11.8 65.7687 11.5233 65.769ZM5.17654 54.9657C5.03253 54.9659 4.89446 55.0237 4.79263 55.1264C4.69079 55.2291 4.63349 55.3684 4.63329 55.5137V64.7164C4.63343 64.8618 4.69073 65.0012 4.79263 65.1039C4.89452 65.2067 5.03269 65.2645 5.17679 65.2647H11.5235C11.6676 65.2645 11.8056 65.2067 11.9075 65.1039C12.0093 65.0012 12.0666 64.8619 12.0668 64.7167V55.5137C12.0666 55.3684 12.0093 55.2291 11.9075 55.1264C11.8056 55.0237 11.6676 54.9659 11.5235 54.9657H5.17654Z" fill="#3F3D56"/>
<path d="M23.1158 65.769H17.3843C17.0265 65.7683 16.6835 65.6246 16.4304 65.3694C16.1774 65.1141 16.035 64.7681 16.0343 64.4072V45.8216C16.035 45.4607 16.1774 45.1147 16.4304 44.8594C16.6835 44.6042 17.0265 44.4605 17.3843 44.4599H23.1158C23.4736 44.4605 23.8166 44.6042 24.0697 44.8594C24.3227 45.1147 24.4651 45.4607 24.4658 45.8216V64.4072C24.4651 64.7681 24.3227 65.1141 24.0697 65.3694C23.8166 65.6246 23.4736 65.7683 23.1158 65.769ZM17.3843 44.9624C17.159 44.963 16.9431 45.0535 16.7838 45.2142C16.6246 45.3748 16.5348 45.5926 16.5343 45.8199V64.4054C16.5348 64.6327 16.6246 64.8504 16.7838 65.0111C16.9431 65.1718 17.159 65.2623 17.3843 65.2628H23.1158C23.3411 65.2623 23.557 65.1718 23.7163 65.0111C23.8756 64.8504 23.9653 64.6327 23.9658 64.4054V45.8216C23.9653 45.5944 23.8756 45.3766 23.7163 45.2159C23.557 45.0552 23.3411 44.9647 23.1158 44.9642L17.3843 44.9624Z" fill="#3F3D56"/>
<path d="M34.7946 65.769H29.5058C29.0891 65.7682 28.6896 65.6009 28.3949 65.3037C28.1002 65.0064 27.9343 64.6034 27.9336 64.183V36.8413C27.9343 36.4209 28.1002 36.0179 28.3949 35.7207C28.6896 35.4234 29.0891 35.2561 29.5058 35.2554H34.7946C35.2114 35.2561 35.6108 35.4234 35.9055 35.7207C36.2002 36.0179 36.3661 36.4209 36.3668 36.8413V64.183C36.3661 64.6034 36.2002 65.0064 35.9055 65.3037C35.6108 65.6009 35.2114 65.7682 34.7946 65.769ZM29.5058 35.7597C29.2216 35.76 28.949 35.8741 28.748 36.0769C28.547 36.2796 28.4339 36.5546 28.4336 36.8413V64.183C28.4339 64.4698 28.547 64.7447 28.748 64.9475C28.949 65.1502 29.2216 65.2643 29.5058 65.2646H34.7946C35.0789 65.2643 35.3514 65.1502 35.5524 64.9475C35.7534 64.7447 35.8665 64.4698 35.8668 64.183V36.8413C35.8665 36.5546 35.7534 36.2796 35.5524 36.0769C35.3514 35.8741 35.0789 35.76 34.7946 35.7597H29.5058Z" fill="#3F3D56"/>
<path d="M10.7301 56.2139H5.97009V64.0163H10.7301V56.2139Z" fill="#7B4DD9"/>
<path d="M22.63 46.3109H17.87V64.0164H22.63V46.3109Z" fill="#7B4DD9"/>
<path d="M34.53 37.1082H29.77V64.0164H34.53V37.1082Z" fill="#7B4DD9"/>
<path d="M180.75 36.7684H147.5C147.433 36.7684 147.37 36.7419 147.323 36.6946C147.276 36.6473 147.25 36.5831 147.25 36.5163V2.47213C147.25 2.40525 147.276 2.34111 147.323 2.29382C147.37 2.24652 147.433 2.21996 147.5 2.21996C147.566 2.21996 147.63 2.24652 147.677 2.29382C147.723 2.34111 147.75 2.40525 147.75 2.47213V36.2641H180.75C180.816 36.2641 180.88 36.2906 180.927 36.3379C180.973 36.3852 181 36.4494 181 36.5163C181 36.5831 180.973 36.6473 180.927 36.6946C180.88 36.7419 180.816 36.7684 180.75 36.7684Z" fill="#3F3D56"/>
<path d="M39.7497 69.2995H0.249756C0.183452 69.2995 0.119863 69.2729 0.072979 69.2256C0.0260949 69.1783 -0.000244141 69.1142 -0.000244141 69.0473V29.4552C-0.000244141 29.3884 0.0260949 29.3242 0.072979 29.2769C0.119863 29.2296 0.183452 29.2031 0.249756 29.2031C0.31606 29.2031 0.379649 29.2296 0.426533 29.2769C0.473417 29.3242 0.499756 29.3884 0.499756 29.4552V68.7951H39.7497C39.8161 68.7951 39.8796 68.8217 39.9265 68.869C39.9734 68.9163 39.9997 68.9804 39.9997 69.0473C39.9997 69.1142 39.9734 69.1783 39.9265 69.2256C39.8796 69.2729 39.8161 69.2995 39.7497 69.2995Z" fill="#3F3D56"/>
<path d="M158.975 33.6079H152.628C152.351 33.6076 152.086 33.4967 151.89 33.2994C151.695 33.1021 151.585 32.8346 151.584 32.5555V23.3525C151.585 23.0735 151.695 22.806 151.89 22.6087C152.086 22.4114 152.351 22.3005 152.628 22.3002H158.975C159.251 22.3005 159.516 22.4115 159.712 22.6088C159.908 22.8061 160.018 23.0735 160.018 23.3525V32.5553C160.018 32.8342 159.908 33.1017 159.712 33.299C159.517 33.4962 159.252 33.6072 158.975 33.6076L158.975 33.6079ZM152.628 22.8046C152.484 22.8047 152.346 22.8625 152.244 22.9652C152.142 23.0679 152.085 23.2072 152.084 23.3525V32.5555C152.085 32.7009 152.142 32.8402 152.244 32.9429C152.346 33.0456 152.484 33.1034 152.628 33.1035H158.975C159.119 33.1033 159.257 33.0455 159.359 32.9428C159.46 32.8401 159.518 32.7008 159.518 32.5555V23.3525C159.518 23.2073 159.46 23.068 159.359 22.9653C159.257 22.8626 159.119 22.8048 158.975 22.8046H152.628Z" fill="#3F3D56"/>
<path d="M171.972 33.6079H166.131C165.787 33.6075 165.458 33.4696 165.215 33.2245C164.972 32.9794 164.835 32.6472 164.835 32.3006V15.6316C164.835 15.285 164.972 14.9527 165.215 14.7077C165.458 14.4627 165.787 14.3249 166.131 14.3245H171.972C172.316 14.3249 172.645 14.4627 172.888 14.7078C173.131 14.9529 173.268 15.2852 173.268 15.6318V32.3008C173.268 32.6474 173.131 32.9797 172.888 33.2248C172.645 33.4699 172.316 33.6077 171.972 33.6081V33.6079ZM166.131 14.8289C165.92 14.8291 165.717 14.9137 165.568 15.0643C165.419 15.2148 165.335 15.4189 165.335 15.6318V32.3008C165.335 32.5137 165.419 32.7178 165.568 32.8684C165.717 33.0189 165.92 33.1036 166.131 33.1038H171.972C172.183 33.1036 172.386 33.0189 172.535 32.8684C172.684 32.7178 172.768 32.5137 172.768 32.3008V15.6318C172.768 15.4189 172.684 15.2148 172.535 15.0643C172.386 14.9137 172.183 14.8291 171.972 14.8289H166.131Z" fill="#3F3D56"/>
<path d="M158.067 24.1404H153.307V31.9428H158.067V24.1404Z" fill="#7B4DD9"/>
<path d="M171.431 16.4181H166.671V31.5145H171.431V16.4181Z" fill="#7B4DD9"/>
<path d="M155.75 19.6203C156.993 19.6203 158 18.6041 158 17.3507C158 16.0972 156.993 15.0811 155.75 15.0811C154.507 15.0811 153.5 16.0972 153.5 17.3507C153.5 18.6041 154.507 19.6203 155.75 19.6203Z" fill="#7B4DD9"/>
<path d="M169 11.0462C170.243 11.0462 171.25 10.0301 171.25 8.7766C171.25 7.52313 170.243 6.50699 169 6.50699C167.757 6.50699 166.75 7.52313 166.75 8.7766C166.75 10.0301 167.757 11.0462 169 11.0462Z" fill="#7B4DD9"/>
</g>
<defs>
<clipPath id="clip0_138_158">
<rect width="181" height="185" fill="white"/>
</clipPath>
</defs>
</svg>
