<svg width="157" height="195" viewBox="0 0 157 195" fill="none" xmlns="http://www.w3.org/2000/svg">
<ellipse cx="78.5" cy="97.5" rx="78.5" ry="97.5" fill="#7B4DD9"/>
<ellipse cx="78.5" cy="99.5" rx="50.5" ry="62.5" fill="#F1F1FE"/>
<path d="M77.1727 114.659V111.502C75.591 111.471 73.9545 110.908 73 110.127L73.6545 108.034C74.7888 108.891 76.1644 109.362 77.5817 109.378C79.5182 109.378 80.8272 108.096 80.8272 106.315C80.8272 104.596 79.7635 103.533 77.7452 102.596C74.9632 101.346 73.2452 99.908 73.2452 97.189C73.2452 94.5948 74.8545 92.6261 77.3635 92.1573V89H79.0545V92.0314C80.3153 92.0488 81.5452 92.4282 82.6 93.1251L81.918 95.188C80.9064 94.4894 79.7077 94.1187 78.4818 94.1253C76.3818 94.1253 75.5907 95.5627 75.5907 96.813C75.5907 98.438 76.5997 99.2506 78.9727 100.376C81.7817 101.687 83.2 103.314 83.2 106.095C83.2 108.564 81.7 110.877 78.8907 111.408V114.659H77.1727Z" fill="#7B4DD9"/>
</svg>
