<svg width="194" height="181" viewBox="0 0 194 181" fill="none" xmlns="http://www.w3.org/2000/svg"> <path d="M68.4201 106.782L43.801 104.299L33.3735 81.24L25.2723 83.2959C25.2723 83.2959 31.2576 107.665 37.9559 111.441C44.6543 115.217 67.5375 115.894 67.5375 115.894L68.4201 106.782Z" fill="#7B4DD9"/> <path d="M81.0646 118.963C85.3285 114.809 85.3285 108.073 81.0646 103.918C76.8007 99.7639 69.8876 99.7639 65.6237 103.918C61.3598 108.073 61.3598 114.809 65.6237 118.963C69.8876 123.118 76.8007 123.118 81.0646 118.963Z" fill="#263238"/> <path d="M73.3475 122.091C67.3096 122.091 62.4115 117.318 62.4115 111.435C62.4115 105.552 67.3096 100.78 73.3475 100.78C79.3854 100.78 84.2835 105.552 84.2835 111.435C84.2835 114.26 83.1321 116.971 81.0805 118.97C79.0347 120.974 76.2466 122.096 73.3475 122.091ZM73.3475 100.814C67.3213 100.808 62.4349 105.564 62.429 111.429C62.4232 117.301 67.3038 122.062 73.3241 122.068C79.3503 122.073 84.2368 117.318 84.2426 111.452C84.2485 108.633 83.097 105.928 81.0571 103.935C79.0172 101.936 76.2408 100.808 73.3475 100.814Z" fill="#263238"/> <path d="M41.5878 113.27C45.9856 112.241 48.695 107.934 47.6394 103.649C46.5838 99.3639 42.163 96.724 37.7653 97.7525C33.3675 98.781 30.6581 103.088 31.7137 107.373C32.7693 111.658 37.1901 114.298 41.5878 113.27Z" fill="#263238"/> <path d="M28.7326 85.0158C32.4288 85.0158 35.4252 82.0963 35.4252 78.495C35.4252 74.8936 32.4288 71.9741 28.7326 71.9741C25.0364 71.9741 22.0401 74.8936 22.0401 78.495C22.0401 82.0963 25.0364 85.0158 28.7326 85.0158Z" fill="#263238"/> <path d="M39.1601 74.964L33.6483 79.4973L31.6609 77.2022L37.1728 72.6689C37.7748 72.1735 38.6808 72.2475 39.1893 72.8341L39.3238 72.9935C39.844 73.5801 39.768 74.4629 39.1601 74.964C39.1659 74.964 39.1659 74.964 39.1601 74.964Z" fill="#263238"/> <path d="M32.1637 66.6607V73.4947C32.1637 73.6029 32.0702 73.694 31.9591 73.694H29.2938C29.1828 73.694 29.0892 73.6029 29.0892 73.4947V66.6607C29.0892 65.8918 29.7322 65.2654 30.5213 65.2654H30.7317C31.5208 65.2654 32.1637 65.8918 32.1637 66.6607Z" fill="#263238"/> <path d="M27.2014 66.6891L28.7328 73.358C28.7561 73.4662 28.686 73.5744 28.575 73.5972L25.9739 74.1667C25.8629 74.1895 25.7518 74.1212 25.7284 74.013L24.197 67.3441C24.0217 66.5923 24.5127 65.8463 25.2842 65.6754L25.4888 65.6298C26.2603 65.459 27.026 65.9374 27.2014 66.6891Z" fill="#263238"/> <path d="M21.8589 68.3578L25.3659 74.2749C25.4243 74.3717 25.3893 74.4913 25.2899 74.5483L22.9811 75.8468C22.8818 75.9037 22.759 75.8695 22.7006 75.7727L19.1936 69.8556C18.7961 69.1893 19.0299 68.335 19.7196 67.9477L19.9008 67.8452C20.5905 67.4636 21.4673 67.6915 21.8589 68.3578Z" fill="#263238"/> <path d="M161.521 114.746L154.153 117.8L175.417 166.511L182.786 163.457L161.521 114.746Z" fill="#7B4DD9"/> <path d="M162.579 119.408C166.477 114.925 165.907 108.212 161.306 104.414C156.705 100.617 149.815 101.172 145.918 105.655C142.02 110.138 142.59 116.851 147.191 120.649C151.792 124.446 158.681 123.891 162.579 119.408Z" fill="#263238"/> <path d="M154.272 123.207C148.228 123.212 143.33 118.44 143.324 112.551C143.324 111.486 143.488 110.427 143.809 109.408C145.592 103.787 151.717 100.643 157.481 102.386C163.25 104.123 166.476 110.091 164.688 115.706C163.279 120.16 159.053 123.195 154.272 123.207ZM154.272 101.919C148.246 101.924 143.371 106.685 143.377 112.557C143.382 118.429 148.269 123.178 154.295 123.173C159.076 123.167 163.296 120.131 164.705 115.678C166.47 110.074 163.25 104.128 157.498 102.397C156.44 102.078 155.341 101.919 154.237 101.919H154.272Z" fill="#263238"/> <path d="M168.463 150.179C172.986 150.179 176.652 146.606 176.652 142.2C176.652 137.793 172.986 134.221 168.463 134.221C163.941 134.221 160.275 137.793 160.275 142.2C160.275 146.606 163.941 150.179 168.463 150.179Z" fill="#263238"/> <path d="M180.814 173.557C184.51 173.557 187.506 170.637 187.506 167.036C187.506 163.435 184.51 160.515 180.814 160.515C177.118 160.515 174.121 163.435 174.121 167.036C174.121 170.637 177.118 173.557 180.814 173.557Z" fill="#263238"/> <path d="M172.058 173.602L175.805 167.611L178.435 169.171L174.688 175.163C174.279 175.823 173.397 176.028 172.719 175.63L172.537 175.521C171.865 175.123 171.649 174.269 172.058 173.602Z" fill="#263238"/> <path d="M181.393 179.314L179.171 172.833C179.136 172.731 179.195 172.617 179.3 172.583L181.831 171.763C181.936 171.729 182.053 171.786 182.088 171.888L184.309 178.369C184.549 179.104 184.134 179.89 183.38 180.123L183.181 180.186C182.439 180.419 181.644 180.032 181.393 179.314Z" fill="#263238"/> <path d="M186.098 177.765L182.48 171.911C182.421 171.814 182.451 171.694 182.55 171.637L184.835 170.299C184.935 170.242 185.058 170.271 185.116 170.367L188.734 176.222C189.143 176.883 188.921 177.737 188.249 178.136L188.068 178.244C187.384 178.637 186.501 178.426 186.098 177.765Z" fill="#263238"/> <path d="M190.616 174.536L185.367 170.003C185.285 169.929 185.274 169.804 185.35 169.724L187.115 167.782C187.191 167.702 187.32 167.691 187.401 167.765L192.65 172.298C193.241 172.811 193.299 173.693 192.773 174.269L192.633 174.422C192.107 174.992 191.206 175.043 190.616 174.536Z" fill="#263238"/> <path d="M70.1036 100.37C70.1036 100.37 70.8927 175.054 113.906 176.512C156.92 177.97 158.726 100.905 158.726 100.37C158.726 100.37 153.646 89.2358 114.415 89.6686C75.1829 90.1015 70.1036 100.37 70.1036 100.37Z" fill="#7B4DD9"/> <path d="M130.611 87.2255H94.2553C91.8822 87.2255 89.9592 85.3518 89.9592 83.0396V82.4302C89.9592 80.1181 91.8822 78.2444 94.2553 78.2444H130.611C132.984 78.2444 134.907 80.1181 134.907 82.4302V83.0396C134.907 85.3518 132.984 87.2255 130.611 87.2255Z" fill="#263238"/> <path d="M114.005 5.35345H110.867V20.8155H114.005V5.35345Z" fill="#263238"/> <path d="M158.293 67.0878C163.387 67.0878 167.517 63.0643 167.517 58.101C167.517 53.1377 163.387 49.1142 158.293 49.1142C153.199 49.1142 149.07 53.1377 149.07 58.101C149.07 63.0643 153.199 67.0878 158.293 67.0878Z" fill="#7B4DD9"/> <path d="M65.1937 66.4841C70.2877 66.4841 74.4171 62.4606 74.4171 57.4973C74.4171 52.534 70.2877 48.5105 65.1937 48.5105C60.0997 48.5105 55.9703 52.534 55.9703 57.4973C55.9703 62.4606 60.0997 66.4841 65.1937 66.4841Z" fill="#7B4DD9"/> <path d="M110.61 17.4611C110.61 17.4611 73.108 17.0226 67.1812 48.6928C61.2544 80.3629 92.9577 80.9324 102.082 81.5304C106.214 81.8038 115.064 81.8323 122.872 81.6956C140.162 81.4051 152.378 78.1476 156.534 62.5204C157.031 60.6866 157.34 58.8129 157.463 56.9221C158.556 39.7686 146.673 16.6183 110.61 17.4611Z" fill="#7B4DD9"/> <path d="M137.812 65.664L83.331 66.4898C77.6204 66.5866 72.9093 62.1559 72.8099 56.5918C72.8099 56.5861 72.8099 56.5804 72.8099 56.5747C72.7106 51.0107 77.2638 46.4205 82.9803 46.3236C82.9861 46.3236 82.992 46.3236 82.992 46.3236L137.473 45.4979C143.178 45.3953 147.889 49.8204 147.994 55.3845C147.994 55.3958 147.994 55.4072 147.994 55.4129C148.094 60.977 143.546 65.5672 137.836 65.664C137.83 65.664 137.818 65.664 137.812 65.664Z" fill="#263238"/> <path d="M94.6526 55.4756C94.2961 57.2297 92.5543 58.3687 90.754 58.027C88.9537 57.6853 87.7847 55.9824 88.1354 54.2284C88.492 52.4743 90.2338 51.3353 92.0341 51.677C93.8343 52.0187 95.0033 53.7215 94.6526 55.4756Z" fill="white"/> <path d="M132.698 54.8833C132.347 56.6374 130.605 57.7821 128.805 57.4404C127.005 57.0987 125.83 55.4015 126.181 53.6475C126.531 51.8934 128.273 50.7487 130.073 51.0904H130.079C131.874 51.4321 133.048 53.1292 132.698 54.8833Z" fill="white"/> <path d="M127.221 130.029C126.625 137.985 119.517 143.971 111.352 143.39C103.186 142.809 97.0432 135.884 97.6394 127.928C98.2356 119.972 105.337 113.992 113.509 114.567C121.674 115.148 127.811 122.073 127.221 130.029Z" fill="#263238"/> <path d="M123.206 129.745C122.767 135.542 117.589 139.905 111.638 139.478C105.688 139.05 101.211 134.005 101.649 128.207C102.088 122.409 107.266 118.047 113.216 118.474C119.167 118.896 123.638 123.936 123.206 129.733C123.206 129.739 123.206 129.739 123.206 129.745Z" fill="white"/> <path d="M117.998 131.658C117.916 131.083 117.881 130.502 117.898 129.921C117.869 128.833 117.846 127.279 117.846 125.365L117.963 125.576L112.404 122.415H112.714L107.103 125.485C106.951 125.735 107.307 125.149 107.272 125.211V126.02V126.835C107.272 127.37 107.272 127.905 107.243 128.429C107.243 129.477 107.202 130.491 107.184 131.47L107.032 131.208L112.527 134.477H112.281C113.994 133.577 115.408 132.86 116.373 132.37C116.893 132.08 117.431 131.835 117.992 131.63C117.553 131.977 117.086 132.279 116.589 132.535C115.642 133.105 114.251 133.908 112.497 134.893L112.375 134.961L112.252 134.893L106.688 131.732L106.536 131.647V131.465C106.536 130.485 106.547 129.471 106.571 128.423C106.571 127.899 106.571 127.37 106.571 126.829V126.02V125.234C106.536 125.297 106.892 124.716 106.74 124.961L112.369 121.92L112.533 121.834L112.685 121.925L118.173 125.194L118.296 125.268V125.405C118.231 127.376 118.167 128.959 118.109 130.035C118.126 130.576 118.085 131.123 117.998 131.658Z" fill="#FF725E"/> <path d="M112.439 10.0802C115.296 10.0802 117.612 7.8237 117.612 5.04012C117.612 2.25654 115.296 0 112.439 0C109.582 0 107.266 2.25654 107.266 5.04012C107.266 7.8237 109.582 10.0802 112.439 10.0802Z" fill="#7B4DD9"/> <path d="M104.174 53.9835C104.42 54.012 104.297 55.1225 105.022 56.6431C105.431 57.5144 106.033 58.2946 106.775 58.9211C107.646 59.6671 108.733 60.1398 109.891 60.2708C111.054 60.3448 112.211 60.0715 113.21 59.4963C114.058 59.0179 114.789 58.363 115.361 57.5884C116.355 56.2387 116.443 55.1054 116.688 55.1225C116.788 55.1225 116.887 55.4072 116.887 55.9426C116.864 56.7057 116.665 57.4518 116.302 58.1295C115.759 59.1546 114.952 60.0202 113.964 60.6524C111.439 62.3837 107.997 62.0761 105.84 59.9291C104.987 59.1318 104.361 58.1352 104.016 57.036C103.771 56.3014 103.706 55.5211 103.829 54.758C103.929 54.2284 104.081 53.9664 104.174 53.9835Z" fill="white"/> <path d="M154.108 68.7393C154.05 68.7393 154.722 67.7142 155.371 65.9203C156.177 63.5682 156.686 61.1365 156.89 58.6648C157.124 56.2045 157.183 53.7329 157.066 51.2612C157.025 50.3102 156.978 49.5527 156.931 48.9832C156.89 48.7099 156.884 48.4308 156.902 48.1517C156.978 48.4194 157.025 48.6928 157.048 48.9718C157.13 49.5015 157.212 50.2703 157.282 51.2499C157.463 53.7386 157.434 56.2387 157.194 58.7218C156.99 61.2162 156.446 63.6708 155.575 66.0228C155.3 66.7347 154.967 67.4181 154.581 68.0787C154.441 68.3122 154.283 68.5343 154.108 68.7393Z" fill="#263238"/> <path d="M67.2512 47.6335C67.2162 47.9126 67.1577 48.1802 67.0701 48.4479C66.9941 48.7042 66.9122 49.0174 66.8363 49.3933C66.7603 49.7691 66.6434 50.1792 66.5732 50.6519C66.3686 51.751 66.2342 52.8559 66.1641 53.9721C66.0881 55.3332 66.1056 56.7 66.2225 58.0611C66.3511 59.4166 66.5791 60.7663 66.9005 62.0932C67.1694 63.181 67.5026 64.246 67.9059 65.2938C68.0637 65.7438 68.2449 66.1367 68.391 66.4898C68.5371 66.8429 68.6774 67.139 68.7943 67.3782C68.9288 67.6231 69.0398 67.8794 69.1216 68.1471C68.958 67.9193 68.8119 67.6801 68.6891 67.4295C68.5255 67.1447 68.3735 66.8543 68.2391 66.5524C68.0754 66.2107 67.8767 65.8178 67.7072 65.3679C67.2746 64.3257 66.9122 63.255 66.6317 62.1616C66.2868 60.8232 66.053 59.4564 65.9186 58.0839C65.8017 56.7114 65.79 55.3275 65.8835 53.955C65.9653 52.8331 66.1232 51.7169 66.3628 50.612C66.4505 50.1393 66.5732 49.7236 66.6726 49.3534C66.772 48.9832 66.8655 48.67 66.9532 48.4137C67.0291 48.1461 67.1285 47.8841 67.2512 47.6335Z" fill="#263238"/> <path d="M69.905 100.307L70.1271 100.37L70.7817 100.586L73.2717 101.44L75.072 102.067C75.7324 102.283 76.4631 102.488 77.2405 102.722C78.8011 103.172 80.5604 103.758 82.5594 104.214L85.6748 104.994C86.762 105.262 87.9076 105.461 89.0883 105.712C91.4263 106.236 93.9922 106.594 96.6868 107.016C102.514 107.796 108.389 108.206 114.269 108.24C120.149 108.206 126.023 107.796 131.85 107.016C134.527 106.594 137.076 106.241 139.449 105.712C140.618 105.467 141.787 105.267 142.862 105L145.984 104.219C147.977 103.764 149.736 103.177 151.297 102.727C152.074 102.494 152.805 102.289 153.465 102.072L155.265 101.446L157.755 100.592L158.41 100.375C158.486 100.347 158.562 100.324 158.638 100.313L158.422 100.404L157.779 100.649L155.306 101.554L153.465 102.226C152.811 102.448 152.08 102.659 151.303 102.904C149.742 103.371 147.988 103.969 145.989 104.442L142.868 105.239C141.787 105.512 140.635 105.717 139.455 105.974C137.117 106.509 134.545 106.873 131.856 107.306C126.017 108.104 120.131 108.519 114.234 108.553C108.342 108.519 102.456 108.098 96.6167 107.301C93.9338 106.873 91.3562 106.503 89.0181 105.968C87.8491 105.712 86.6801 105.507 85.6047 105.233L82.4834 104.436C80.4844 103.963 78.7309 103.365 77.1703 102.898C76.3929 102.653 75.6681 102.443 75.0077 102.221L73.2132 101.566L70.7408 100.66L70.0979 100.415C70.0277 100.387 69.9634 100.347 69.905 100.307Z" fill="#263238"/> <g opacity="0.3"> <path d="M70.1036 100.37C70.1036 100.37 75.1829 90.1185 114.415 89.6686C153.646 89.2187 158.726 100.37 158.726 100.37C158.726 100.37 119.132 119.385 70.1036 100.37Z" fill="black"/> </g> <path d="M105.858 19.8303C105.811 19.836 105.77 19.836 105.723 19.8303L105.332 19.8701C104.981 19.9043 104.466 19.9157 103.806 19.9897C101.941 20.1663 100.094 20.4624 98.2708 20.8839C88.8428 22.9853 80.5312 28.3672 74.8907 36.0213C72.167 39.7003 70.1037 43.8007 68.7886 48.1518C68.584 48.7668 68.4729 49.2566 68.3736 49.5812L68.2625 49.9571C68.2508 50.0026 68.2391 50.0425 68.2157 50.0824C68.2099 50.0368 68.2099 49.9969 68.2157 49.9514C68.2157 49.8489 68.2625 49.7236 68.2976 49.5698C68.3794 49.2395 68.4671 48.744 68.6541 48.1176C69.1393 46.3464 69.7647 44.6151 70.5245 42.9408C73.0203 37.3653 76.8254 32.4448 81.63 28.5608C86.4522 24.7052 92.1394 22.0058 98.224 20.6788C100.059 20.2745 101.918 20.0068 103.794 19.8758C104.461 19.8189 104.963 19.8246 105.326 19.8075H105.723C105.817 19.8189 105.858 19.8246 105.858 19.8303Z" fill="white"/> <path d="M69.1685 63.6708C68.9347 63.3177 68.7535 62.9361 68.6308 62.5318C67.9352 60.6296 67.6137 58.6136 67.678 56.5975C67.6605 56.1761 67.7131 55.7603 67.83 55.356C67.9235 55.356 67.7949 57.2581 68.169 59.5589C68.5431 61.8597 69.2562 63.6366 69.1685 63.6708Z" fill="white"/> <path d="M59.3312 60.7264C59.3312 60.7264 59.1967 60.6353 59.0156 60.4189C58.7584 60.1113 58.5363 59.7753 58.3551 59.4222C57.075 57.0132 57.4783 54.0803 59.3546 52.0756C59.6234 51.7738 59.9274 51.5061 60.2605 51.2783C60.3774 51.1872 60.506 51.1132 60.6463 51.0619C60.6814 51.1075 60.1553 51.4549 59.5182 52.2009C57.8115 54.1942 57.4316 56.962 58.548 59.3197C58.9571 60.2253 59.3721 60.6922 59.3312 60.7264Z" fill="white"/> <path d="M112.772 1.52639C112.316 1.47514 111.855 1.46944 111.399 1.49792C109.429 1.66877 107.968 3.3602 108.143 5.27943C108.172 5.57557 108.236 5.86602 108.336 6.14507C108.494 6.56081 108.687 6.96516 108.92 7.34673C108.92 7.34673 108.803 7.27839 108.64 7.09615C108.418 6.83418 108.236 6.53234 108.114 6.21342C107.348 4.3853 108.248 2.29522 110.124 1.54917C110.522 1.38971 110.937 1.30428 111.364 1.2872C111.714 1.26442 112.065 1.29859 112.404 1.38402C112.667 1.42388 112.772 1.50931 112.772 1.52639Z" fill="white"/> <path d="M163.717 53.8183C163.653 53.8867 162.747 53.0381 161.379 52.4003C160.012 51.7624 158.767 51.5745 158.778 51.4834C159.731 51.4606 160.672 51.6827 161.508 52.1326C162.385 52.4914 163.15 53.0723 163.717 53.8183Z" fill="white"/> <path d="M83.5473 153.522C83.5181 153.487 83.4947 153.453 83.4771 153.413L83.2843 153.077C83.1089 152.753 82.8751 152.32 82.5712 151.767C82.4192 151.483 82.2555 151.164 82.0685 150.822L81.5191 149.683C81.1216 148.857 80.6774 147.918 80.239 146.836C80.0169 146.306 79.7831 145.748 79.5376 145.173C79.2921 144.597 79.0817 143.971 78.8421 143.339C78.3394 142.08 77.9127 140.696 77.4159 139.261C76.4982 136.357 75.5981 133.139 74.809 129.722C74.0199 126.305 73.4471 123.007 72.9795 120.006C72.5119 117.005 72.208 114.311 72.0209 111.999C71.9099 110.86 71.8397 109.823 71.7813 108.912C71.7228 108.001 71.6702 107.204 71.6527 106.577C71.6352 105.951 71.6176 105.467 71.6001 105.102V104.721C71.5942 104.675 71.5942 104.635 71.6001 104.59C71.6059 104.635 71.6059 104.675 71.6001 104.721L71.6352 105.102C71.6352 105.461 71.6995 105.956 71.7404 106.572C71.7813 107.187 71.8397 107.995 71.9216 108.901C72.0034 109.806 72.0794 110.843 72.208 111.982C72.4184 114.26 72.7925 116.971 73.2308 119.955C73.6692 122.939 74.3063 126.219 75.0779 129.636C75.8494 133.054 76.7554 136.266 77.6497 139.164C78.1465 140.599 78.5615 141.978 79.0525 143.236C79.2863 143.874 79.5084 144.483 79.7305 145.07L80.4085 146.744C80.8294 147.809 81.2619 148.755 81.6477 149.592L82.1737 150.731C82.3432 151.078 82.5069 151.397 82.653 151.688L83.3076 153.02L83.4713 153.368C83.5064 153.413 83.5297 153.465 83.5473 153.522Z" fill="white"/> <path d="M60.6756 107.09C59.2494 107.141 57.8232 107.095 56.4029 106.942C54.9767 106.89 53.5564 106.748 52.1536 106.503C53.5797 106.452 55.0059 106.498 56.4263 106.651C57.8524 106.697 59.2728 106.845 60.6756 107.09Z" fill="white"/> <path d="M38.6867 94.9309C37.8568 93.752 37.1144 92.5219 36.4598 91.2462C35.7175 90.016 35.0687 88.7347 34.5076 87.4191C35.3317 88.598 36.074 89.8338 36.7287 91.1095C37.471 92.3339 38.1256 93.6153 38.6867 94.9309Z" fill="white"/> <path d="M104.297 171.478C104.069 171.472 103.835 171.45 103.613 171.398C102.993 171.29 102.385 171.148 101.783 170.965C100.889 170.703 100.018 170.373 99.1766 169.992C98.1479 169.508 97.16 168.949 96.219 168.317C95.2896 167.668 94.4129 166.95 93.6004 166.17C92.9399 165.527 92.3321 164.838 91.7768 164.109C91.3969 163.625 91.052 163.112 90.7422 162.577C90.6136 162.389 90.5143 162.189 90.4324 161.979C90.4792 161.95 90.9702 162.776 91.9463 163.983C92.5191 164.684 93.1387 165.35 93.7992 165.977C95.4182 167.509 97.2711 168.779 99.2993 169.747C100.129 170.134 100.977 170.476 101.848 170.766C103.344 171.256 104.308 171.421 104.297 171.478Z" fill="white"/> <path d="M113.263 145.133C113.129 145.155 112.988 145.167 112.854 145.173C112.462 145.207 112.077 145.218 111.685 145.207C110.23 145.178 108.792 144.945 107.401 144.529C106.442 144.239 105.507 143.874 104.607 143.436C103.572 142.917 102.596 142.308 101.684 141.607C97.3881 138.39 95.0969 133.247 95.6171 127.996C95.7106 126.874 95.9152 125.764 96.2308 124.682C96.5114 123.742 96.8738 122.825 97.3121 121.948C97.9434 120.672 98.7617 119.488 99.732 118.434C99.995 118.144 100.27 117.871 100.562 117.614C100.661 117.517 100.761 117.432 100.872 117.352C100.872 117.352 100.486 117.757 99.8196 118.491C98.8844 119.562 98.0954 120.752 97.4816 122.022C96.564 123.896 96.0145 125.923 95.8684 127.996C95.3891 133.156 97.6336 138.196 101.83 141.374C102.713 142.069 103.666 142.678 104.671 143.196C105.554 143.646 106.465 144.028 107.412 144.335C108.78 144.768 110.2 145.025 111.638 145.093C112.696 145.133 113.263 145.099 113.263 145.133Z" fill="white"/> <path d="M42.4975 100.284C42.4975 100.33 42.0474 100.119 41.3285 99.9539C39.3821 99.5382 37.3422 100.017 35.7991 101.247C35.2146 101.719 34.934 102.095 34.8931 102.067C35.0509 101.691 35.3023 101.355 35.6179 101.087C37.161 99.709 39.3236 99.2022 41.3402 99.7546C41.761 99.84 42.1585 100.022 42.4975 100.284Z" fill="white"/> <path d="M128.811 43.6584C128.811 43.7381 121.633 43.8064 112.784 43.8064C103.934 43.8064 96.7509 43.7381 96.7509 43.6584C96.7509 43.5786 103.929 43.5103 112.784 43.5103C121.639 43.5103 128.811 43.5672 128.811 43.6584Z" fill="white"/> <path d="M101.456 79.2695C101.369 79.2923 101.281 79.3094 101.187 79.3094L100.404 79.3777C100.065 79.4062 99.6502 79.429 99.165 79.4403C98.6799 79.4517 98.1305 79.4745 97.5226 79.4403C96.301 79.4403 94.8514 79.3549 93.244 79.1898C91.5022 78.9904 89.7779 78.7 88.0712 78.3184C86.3703 77.9198 84.6928 77.43 83.0445 76.8491C81.706 76.3707 80.3909 75.824 79.105 75.2146C78.5205 74.964 78.0704 74.7021 77.6437 74.48C77.217 74.2579 76.8546 74.0585 76.5624 73.9105L75.8902 73.5118C75.8084 73.4662 75.7382 73.415 75.6681 73.358C75.6681 73.358 75.7616 73.358 75.9194 73.4605L76.6208 73.8079C76.9189 73.9674 77.2872 74.1553 77.7197 74.3775C78.1522 74.5996 78.6432 74.8274 79.1985 75.0665C80.2973 75.5677 81.6358 76.103 83.1439 76.6327C86.4229 77.7774 89.8189 78.5576 93.2791 78.9563C94.8689 79.1385 96.3127 79.241 97.5226 79.2695C98.1071 79.3037 98.6916 79.2695 99.165 79.2695C99.6385 79.2695 100.059 79.2695 100.398 79.2695H101.182C101.275 79.2524 101.363 79.2524 101.456 79.2695Z" fill="white"/> <path d="M148.117 104.931C148.076 104.96 148.029 104.983 147.977 104.994L147.556 105.148L145.931 105.717C145.224 105.968 144.359 106.258 143.336 106.549C142.313 106.839 141.161 107.215 139.858 107.534L137.824 108.058C137.117 108.235 136.368 108.383 135.603 108.559C134.071 108.918 132.411 109.203 130.67 109.527C123.083 110.814 115.373 111.276 107.681 110.9C105.928 110.792 104.227 110.706 102.66 110.53C101.877 110.45 101.117 110.393 100.392 110.296L98.3057 110.017C96.9731 109.863 95.7807 109.63 94.7344 109.448C93.6882 109.265 92.7822 109.094 92.0516 108.929L90.3682 108.565L89.9298 108.462C89.8772 108.457 89.8305 108.44 89.7837 108.417C89.8363 108.411 89.8889 108.411 89.9415 108.417L90.3799 108.491L92.0749 108.804C92.8114 108.946 93.7115 109.112 94.7636 109.265C95.8157 109.419 97.0023 109.641 98.3349 109.784L100.416 110.04C101.141 110.131 101.9 110.182 102.684 110.256C104.244 110.421 105.928 110.495 107.693 110.598C111.229 110.74 115.116 110.746 119.196 110.513C123.276 110.279 127.127 109.784 130.617 109.225C132.37 108.912 134.019 108.656 135.55 108.291C136.316 108.121 137.064 107.978 137.771 107.807L139.805 107.301C141.109 106.999 142.26 106.646 143.283 106.361C144.306 106.076 145.183 105.791 145.89 105.581L147.532 105.068L147.965 104.943L148.117 104.931Z" fill="white"/> <path d="M11.5235 36.6022H5.17704C4.90045 36.6018 4.63529 36.4937 4.43971 36.3015C4.24414 36.1093 4.13412 35.8487 4.13379 35.5768V26.6099C4.13412 26.3381 4.24414 26.0775 4.43971 25.8853C4.63529 25.693 4.90045 25.5849 5.17704 25.5846H11.5238C11.8004 25.5849 12.0655 25.693 12.2611 25.8853C12.4567 26.0775 12.5667 26.3381 12.567 26.6099V35.5766C12.5668 35.8485 12.4568 36.1092 12.2611 36.3015C12.0655 36.4938 11.8002 36.6019 11.5235 36.6022ZM5.17679 26.076C5.03277 26.0762 4.89471 26.1325 4.79287 26.2326C4.69103 26.3327 4.63374 26.4684 4.63354 26.6099V35.5766C4.63367 35.7182 4.69097 35.854 4.79287 35.9541C4.89477 36.0543 5.03293 36.1106 5.17704 36.1107H11.5238C11.6678 36.1105 11.8059 36.0542 11.9077 35.9541C12.0095 35.8541 12.0668 35.7184 12.067 35.5768V26.6099C12.0668 26.4684 12.0095 26.3327 11.9077 26.2326C11.8059 26.1325 11.6678 26.0762 11.5238 26.076H5.17679Z" fill="#3F3D56"/> <path d="M23.1162 36.6021H17.3847C17.0268 36.6015 16.6838 36.4615 16.4308 36.2128C16.1778 35.9641 16.0353 35.627 16.0347 35.2753V17.1665C16.0353 16.8149 16.1778 16.4777 16.4308 16.2291C16.6838 15.9804 17.0268 15.8404 17.3847 15.8397H23.1162C23.474 15.8404 23.817 15.9804 24.07 16.2291C24.3231 16.4777 24.4655 16.8149 24.4662 17.1665V35.2753C24.4655 35.627 24.3231 35.9641 24.07 36.2128C23.817 36.4615 23.474 36.6015 23.1162 36.6021ZM17.3847 16.3294C17.1594 16.3299 16.9435 16.4181 16.7842 16.5747C16.6249 16.7312 16.5352 16.9434 16.5347 17.1648V35.2736C16.5352 35.495 16.6249 35.7072 16.7842 35.8637C16.9435 36.0203 17.1594 36.1085 17.3847 36.109H23.1162C23.3414 36.1085 23.5573 36.0203 23.7166 35.8637C23.8759 35.7072 23.9656 35.495 23.9662 35.2736V17.1665C23.9656 16.9451 23.8759 16.733 23.7166 16.5764C23.5573 16.4198 23.3414 16.3317 23.1162 16.3311L17.3847 16.3294Z" fill="#3F3D56"/> <path d="M34.7946 36.6021H29.5058C29.0891 36.6014 28.6896 36.4384 28.3949 36.1487C28.1002 35.8591 27.9343 35.4665 27.9336 35.0569V8.41663C27.9343 8.00702 28.1002 7.61439 28.3949 7.32475C28.6896 7.03512 29.0891 6.87208 29.5058 6.87137H34.7946C35.2114 6.87208 35.6108 7.03512 35.9055 7.32475C36.2002 7.61439 36.3661 8.00702 36.3668 8.41663V35.0569C36.3661 35.4665 36.2002 35.8591 35.9055 36.1487C35.6108 36.4384 35.2114 36.6014 34.7946 36.6021ZM29.5058 7.36279C29.2216 7.36311 28.949 7.47424 28.748 7.67181C28.547 7.86937 28.4339 8.13723 28.4336 8.41663V35.0569C28.4339 35.3363 28.547 35.6041 28.748 35.8017C28.949 35.9992 29.2216 36.1104 29.5058 36.1107H34.7946C35.0789 36.1104 35.3514 35.9992 35.5524 35.8017C35.7534 35.6041 35.8665 35.3363 35.8668 35.0569V8.41663C35.8665 8.13723 35.7534 7.86937 35.5524 7.67181C35.3514 7.47424 35.0789 7.36311 34.7946 7.36279H29.5058Z" fill="#3F3D56"/> <path d="M10.7302 27.2922H5.97021V34.8945H10.7302V27.2922Z" fill="#7B4DD9"/> <path d="M22.6301 17.6433H17.8701V34.8945H22.6301V17.6433Z" fill="#7B4DD9"/> <path d="M34.5305 8.67664H29.7705V34.8945H34.5305V8.67664Z" fill="#7B4DD9"/> <path d="M39.75 40.042H0.25C0.183696 40.042 0.120107 40.0161 0.0732231 39.9701C0.026339 39.924 0 39.8615 0 39.7963V1.22007C0 1.15491 0.026339 1.09241 0.0732231 1.04633C0.120107 1.00025 0.183696 0.974365 0.25 0.974365C0.316304 0.974365 0.379893 1.00025 0.426777 1.04633C0.473661 1.09241 0.5 1.15491 0.5 1.22007V39.5506H39.75C39.8163 39.5506 39.8799 39.5765 39.9268 39.6226C39.9737 39.6687 40 39.7312 40 39.7963C40 39.8615 39.9737 39.924 39.9268 39.9701C39.8799 40.0161 39.8163 40.042 39.75 40.042Z" fill="#3F3D56"/> </svg>