<svg width="574" height="427" viewBox="0 0 574 427" fill="none" xmlns="http://www.w3.org/2000/svg">
<g clip-path="url(#clip0_612_91)">
<path d="M516.334 394.269H478.324V394.556H516.334V394.269Z" fill="#EBEBEB"/>
<path d="M380.129 397.39H370.156V397.677H380.129V397.39Z" fill="#EBEBEB"/>
<path d="M477.176 383.618H455.152V383.905H477.176V383.618Z" fill="#EBEBEB"/>
<path d="M109.774 385.546H60.2065V385.833H109.774V385.546Z" fill="#EBEBEB"/>
<path d="M127.265 385.546H120V385.833H127.265V385.546Z" fill="#EBEBEB"/>
<path d="M258.396 390.39H150.883V390.676H258.396V390.39Z" fill="#EBEBEB"/>
<path d="M273.603 324.617H51.9892C48.3741 324.617 45.436 321.679 45.436 318.064V6.55316C45.436 2.93802 48.3741 0 51.9892 0H273.603C277.218 0 280.156 2.93802 280.156 6.55316V318.064C280.156 321.679 277.218 324.617 273.603 324.617ZM51.9892 0.286916C48.5347 0.286916 45.723 3.09869 45.723 6.55316V318.064C45.723 321.518 48.5347 324.33 51.9892 324.33H273.603C277.058 324.33 279.869 321.518 279.869 318.064V6.55316C279.869 3.09869 277.058 0.286916 273.603 0.286916H51.9892Z" fill="#EBEBEB"/>
<path d="M521.843 324.617H300.229C296.614 324.617 293.676 321.679 293.676 318.064V6.55316C293.676 2.93802 296.614 0 300.229 0H521.843C525.458 0 528.396 2.93802 528.396 6.55316V318.064C528.396 321.679 525.458 324.617 521.843 324.617ZM300.229 0.286916C296.774 0.286916 293.963 3.09869 293.963 6.55316V318.064C293.963 321.518 296.774 324.33 300.229 324.33H521.843C525.297 324.33 528.109 321.518 528.109 318.064V6.55316C528.109 3.09869 525.297 0.286916 521.843 0.286916H300.229Z" fill="#EBEBEB"/>
<path d="M573.832 375.803H0V376.09H573.832V375.803Z" fill="#EBEBEB"/>
<path d="M401.767 369.14H511.001V223.8H401.767V369.14Z" fill="#F5F5F5"/>
<path d="M380.921 369.14H401.763V223.8H380.921V369.14Z" fill="#E6E6E6"/>
<path d="M408.86 269.873H503.347V234.571H408.86V269.873Z" fill="#FAFAFA"/>
<path d="M468.419 234.571L468.006 239.276C467.869 240.826 466.572 242.019 465.011 242.019H447.176C445.615 242.019 444.318 240.826 444.181 239.276L443.768 234.571H468.419Z" fill="#EBEBEB"/>
<path d="M408.86 309.019H503.347V273.717H408.86V309.019Z" fill="#FAFAFA"/>
<path d="M468.419 273.729L468.006 278.435C467.869 279.984 466.572 281.178 465.011 281.178H447.176C445.615 281.178 444.318 279.984 444.181 278.435L443.768 273.729H468.419Z" fill="#EBEBEB"/>
<path d="M408.86 348.176H503.347V312.874H408.86V348.176Z" fill="#FAFAFA"/>
<path d="M468.419 312.876L468.006 317.582C467.869 319.131 466.572 320.325 465.011 320.325H447.176C445.615 320.325 444.318 319.131 444.181 317.582L443.768 312.876H468.419Z" fill="#EBEBEB"/>
<path d="M408.856 376.388H502.195L503.343 369.123H408.856V376.388Z" fill="#E6E6E6"/>
<path d="M389.345 376.388H408.856V369.123H388.198L389.345 376.388Z" fill="#E0E0E0"/>
<path d="M452.731 223.944H490.03L485.899 176.648H448.6L452.731 223.944Z" fill="#FAFAFA"/>
<path d="M452.731 223.944H450.952L446.809 176.648H448.599L452.731 223.944Z" fill="#EBEBEB"/>
<path d="M456.117 219.123H485.807L482.513 181.469H452.823L456.117 219.123Z" fill="#F0F0F0"/>
<path d="M458.286 216.025H483.087L480.344 184.567H455.531L458.286 216.025Z" fill="#E6E6E6"/>
<path d="M442.253 223.944L444.812 194.667H407.685L405.126 223.944H442.253Z" fill="#F0F0F0"/>
<path d="M442.253 223.944L444.812 194.667H446.809L444.25 223.944H442.253Z" fill="#E0E0E0"/>
<path d="M438.729 220.96L440.772 197.651H411.208L409.166 220.96H438.729Z" fill="#EBEBEB"/>
<path d="M436.457 219.043L438.167 199.567H413.47L411.771 219.043H436.457Z" fill="#F5F5F5"/>
<path d="M356.511 356.717C356.511 364.475 355.294 369.491 353.24 372.715C351.702 375.137 348.925 376.503 346.056 376.503H334.82C331.951 376.503 329.185 375.137 327.636 372.715C325.581 369.491 324.365 364.475 324.365 356.717C324.365 345.47 329.265 336.461 330.872 329.265C331.446 326.671 329.529 318.741 329.529 318.741H351.335C351.335 318.741 349.418 326.683 349.992 329.265C351.61 336.449 356.511 345.458 356.511 356.717Z" fill="#EBEBEB"/>
<path d="M393.649 311.166C393.649 301.4 378.328 305.451 374.472 290.29C373.014 284.552 385.466 271.549 385.466 271.549H346.618C346.618 271.549 359.082 284.552 357.613 290.29C353.756 305.451 338.435 301.388 338.435 311.166C338.435 321.931 360.046 344.334 361.078 369.559C361.17 371.809 357.016 376.491 357.016 376.491H375.057C375.057 376.491 370.902 371.82 370.994 369.559C372.039 344.345 393.649 321.931 393.649 311.166Z" fill="#F5F5F5"/>
<path d="M381.909 336.564C384.17 331.813 379.499 315.665 379.499 315.665H396.335C396.335 315.665 391.664 331.813 393.925 336.564C395.52 339.915 399.147 342.061 399.147 346.021V369.858C399.147 376.032 394.097 376.491 387.922 376.491C381.748 376.491 376.698 376.032 376.698 369.858V346.021C376.687 342.05 380.313 339.915 381.909 336.564Z" fill="#F0F0F0"/>
<path d="M189.537 195.769C179.862 191.58 174.353 182.743 177.234 176.063C180.126 169.384 190.34 167.364 200.015 171.553C209.69 175.742 215.21 184.579 212.318 191.258C209.426 197.926 199.212 199.946 189.537 195.769ZM197.238 177.98C192.704 176.017 187.919 176.97 186.564 180.091C185.21 183.225 187.792 187.356 192.326 189.319C196.859 191.281 201.645 190.329 202.999 187.207C204.353 184.085 201.771 179.942 197.238 177.98Z" fill="#E6E6E6"/>
<path d="M200.922 178.358L196.331 176.373L224.105 112.173C224.655 110.899 226.124 110.325 227.398 110.864C228.672 111.415 229.246 112.884 228.707 114.158L200.922 178.358Z" fill="#E6E6E6"/>
<path d="M230.818 120.367L221.993 116.511L223.99 111.92L232.804 115.765L230.818 120.367Z" fill="#E6E6E6"/>
<path d="M226.469 125.509L220.157 122.766L222.142 118.163L228.454 120.906L226.469 125.509Z" fill="#E6E6E6"/>
<path d="M219.597 126.942L217.608 131.534L224.686 134.599L226.674 130.007L219.597 126.942Z" fill="#E6E6E6"/>
<path d="M202.701 171.507L200.176 170.417C198.913 169.877 198.339 168.408 198.879 167.157L198.89 167.123C199.43 165.86 200.899 165.287 202.15 165.826L204.674 166.916C205.937 167.456 206.511 168.925 205.971 170.176L205.96 170.21C205.42 171.472 203.963 172.046 202.701 171.507Z" fill="#E6E6E6"/>
<path d="M399.927 149.437C407.593 154.544 409.567 165.091 404.334 172.941C399.1 180.792 388.611 183.029 380.944 177.934C373.278 172.827 371.304 162.28 376.537 154.43C381.771 146.568 392.26 144.33 399.927 149.437ZM385.983 170.359C389.575 172.746 394.487 171.702 396.943 168.018C399.399 164.334 398.469 159.399 394.877 157C391.285 154.613 386.373 155.658 383.917 159.342C381.472 163.026 382.402 167.961 385.983 170.359Z" fill="#E6E6E6"/>
<path d="M384.135 168.316L388.886 171.484L354.904 223.496C354.032 224.804 352.253 225.16 350.944 224.288C349.636 223.416 349.28 221.648 350.153 220.329L384.135 168.316Z" fill="#E6E6E6"/>
<path d="M350.359 208.99L360.355 215.703L355.363 223.198L345.344 216.472C343.909 215.508 343.519 213.557 344.483 212.123L345.987 209.862C346.951 208.404 348.913 208.026 350.359 208.99Z" fill="#E6E6E6"/>
<path d="M261.139 50.0381L255.86 63.7068C255.39 64.9348 254.001 65.5546 252.773 65.0725C251.545 64.602 250.925 63.2133 251.407 61.9853L256.687 48.3166C258.385 43.8981 256.182 38.9288 251.775 37.2187L246.885 35.3366C242.467 33.638 237.498 35.8415 235.788 40.2486L233.63 45.8262L229.166 44.1047L231.323 38.5271C233.974 31.6526 241.732 28.221 248.595 30.8721L253.485 32.7543C260.359 35.4169 263.791 43.1636 261.139 50.0381Z" fill="#F0F0F0"/>
<path d="M260.302 52.1958C259.946 51.7482 259.475 51.3695 258.902 51.1514L232.276 40.8684C231.679 40.6388 231.059 40.5929 230.474 40.7077C229.407 40.9143 228.466 41.6488 228.052 42.7391L217.769 69.3649C217.115 71.0519 217.953 72.9341 219.64 73.5883L246.266 83.8713C247.953 84.5255 249.835 83.6877 250.489 82.0007L260.772 55.3748C261.197 54.2731 260.99 53.068 260.302 52.1958ZM240.08 72.7734L231.633 69.5141L236.097 61.7214C235.535 60.5852 235.432 59.231 235.925 57.9571C236.855 55.547 239.563 54.3419 241.985 55.2716C244.395 56.2012 245.6 58.9211 244.671 61.3312C244.177 62.6051 243.19 63.5347 242.008 63.9938L240.08 72.7734Z" fill="#E6E6E6"/>
<path d="M79.3654 360.946H291.833V246.605L79.3654 246.605V360.946Z" fill="#E6E6E6"/>
<path d="M274.802 375.782H288.161V365.694H274.802V375.782Z" fill="#E6E6E6"/>
<path d="M63.1392 375.781H76.498L76.498 238.096H63.1392L63.1392 375.781Z" fill="#E6E6E6"/>
<path d="M76.3428 238.094V375.78H83.4698V368.067H288.156V375.78H295.283V238.094H291.725H288.167H83.4698H79.912H76.3428ZM83.4698 250.558H182.249V298.381H83.4698V250.558ZM288.156 355.604H189.376V250.558H288.156V355.604ZM83.4698 355.604V305.497H182.249V355.604H83.4698Z" fill="#F0F0F0"/>
<path d="M189.363 355.604H281.475V255.7H189.363V355.604Z" fill="#F5F5F5"/>
<path d="M193.542 302.662C193.542 305.026 195.459 306.943 197.823 306.943C200.187 306.943 202.104 305.026 202.104 302.662C202.104 300.298 200.187 298.381 197.823 298.381C195.459 298.381 193.542 300.298 193.542 302.662Z" fill="#FAFAFA"/>
<path d="M197.823 306.943C199.544 306.943 201.025 305.91 201.702 304.441C201.954 304.98 202.104 305.589 202.104 306.22C202.104 308.584 200.187 310.501 197.823 310.501C195.459 310.501 193.542 308.584 193.542 306.22C193.542 305.577 193.691 304.98 193.944 304.441C194.621 305.91 196.101 306.943 197.823 306.943Z" fill="#E0E0E0"/>
<path d="M245.761 355.604H223.783L213.282 255.7H235.26L245.761 355.604Z" fill="#FAFAFA"/>
<path d="M218.159 355.604H213.775L203.286 255.7H207.658L218.159 355.604Z" fill="#FAFAFA"/>
<path d="M159.995 298.338H168.694V255.61H159.995V298.338Z" fill="#FAFAFA"/>
<path d="M123.897 298.338H132.597V255.61H123.897V298.338Z" fill="#F5F5F5"/>
<path d="M151.286 298.334H159.985V258.602H151.286V298.334Z" fill="#F5F5F5"/>
<path d="M132.607 298.334H141.306V258.602H132.607V298.334Z" fill="#FAFAFA"/>
<path d="M141.312 298.338H146.936V255.61H141.312V298.338Z" fill="#EBEBEB"/>
<path d="M146.928 298.334H151.278V258.602H146.928V298.334Z" fill="#FAFAFA"/>
<path d="M115.199 298.338H123.898V255.61H115.199V298.338Z" fill="#EBEBEB"/>
<path d="M106.49 298.334H115.189V258.602H106.49V298.334Z" fill="#E6E6E6"/>
<path d="M87.811 298.334H96.5103V258.602H87.811V298.334Z" fill="#E6E6E6"/>
<path d="M96.5166 298.338H102.14V255.61H96.5166V298.338Z" fill="#FAFAFA"/>
<path d="M102.144 298.334H106.494V258.602H102.144V298.334Z" fill="#EBEBEB"/>
<path d="M83.4536 298.328H87.8032V256.611H83.4536V298.328Z" fill="#EBEBEB"/>
<path d="M92.1573 312.876H83.458V355.604H92.1573V312.876Z" fill="#EBEBEB"/>
<path d="M128.24 312.876H119.541V355.604H128.24V312.876Z" fill="#FAFAFA"/>
<path d="M100.857 315.872H92.1572V355.604H100.857V315.872Z" fill="#FAFAFA"/>
<path d="M119.541 315.872H110.841V355.604H119.541V315.872Z" fill="#EBEBEB"/>
<path d="M110.841 312.876H105.218V355.604H110.841V312.876Z" fill="#FAFAFA"/>
<path d="M105.218 315.872H100.868V355.604H105.218V315.872Z" fill="#F5F5F5"/>
<path d="M136.951 312.876H128.251V355.604H136.951V312.876Z" fill="#EBEBEB"/>
<path d="M145.65 315.872H136.951V355.604H145.65V315.872Z" fill="#F5F5F5"/>
<path d="M164.334 315.872H155.635V355.604H164.334V315.872Z" fill="#E6E6E6"/>
<path d="M155.635 312.876H150.011V355.604H155.635V312.876Z" fill="#FAFAFA"/>
<path d="M174.319 312.876H168.695V355.604H174.319V312.876Z" fill="#FAFAFA"/>
<path d="M150.011 315.872H145.662V355.604H150.011V315.872Z" fill="#EBEBEB"/>
<path d="M168.684 313.886H164.334V355.604H168.684V313.886Z" fill="#EBEBEB"/>
<path d="M93.1674 164.506C93.1674 164.506 91.7099 165.183 91.0442 166.537C90.3786 167.892 92.4444 170.405 92.4444 170.405C92.4444 170.405 94.1888 171.622 95.9103 170.83C97.6433 170.049 97.6433 170.049 97.6433 170.049C97.6433 170.049 94.6938 164.919 93.2592 164.873L93.1674 164.506Z" fill="#E6E6E6"/>
<path d="M100.57 164.46C100.777 166.893 99.2732 169.958 97.1041 170.153C94.935 170.336 92.9151 167.582 92.7085 165.149C92.502 162.716 94.2464 162.475 96.427 162.291C98.5846 162.096 100.352 162.027 100.57 164.46Z" fill="#E6E6E6"/>
<path d="M94.2004 163.749C94.2004 163.749 95.8645 165.068 99.2845 164.3C99.2845 164.3 93.8905 167.892 94.2004 163.749Z" fill="#E6E6E6"/>
<path d="M95.6694 163.267C95.6694 163.267 97.586 162.934 97.609 163.737C97.609 163.737 99.2272 163.645 99.0091 162.968C98.7911 162.28 95.6694 163.267 95.6694 163.267Z" fill="#E6E6E6"/>
<g opacity="0.2">
<path d="M94.2004 163.749C94.2004 163.749 95.8645 165.068 99.2845 164.3C99.2845 164.3 93.8905 167.892 94.2004 163.749Z" fill="#FAFAFA"/>
</g>
<g opacity="0.2">
<path d="M95.6694 163.267C95.6694 163.267 97.586 162.934 97.609 163.737C97.609 163.737 99.2272 163.645 99.0091 162.968C98.7911 162.28 95.6694 163.267 95.6694 163.267Z" fill="#FAFAFA"/>
</g>
<path d="M93.4541 170.922C94.1427 172.046 95.5543 172.62 96.8627 172.459C98.171 172.299 99.3416 171.484 100.099 170.405C100.857 169.326 101.212 168.007 101.293 166.698C101.316 166.354 101.339 165.505 100.891 165.378C100.478 165.264 100.225 165.837 100.042 166.101C99.4908 166.87 98.917 167.593 98.2169 168.236C97.5398 168.856 96.7938 169.407 95.9904 169.854C95.7609 169.981 93.5803 171.117 93.4541 170.922Z" fill="#E6E6E6"/>
<path d="M102.774 166.067C103.187 167.054 103.037 168.248 102.395 169.108C101.97 169.671 101.373 170.072 100.777 170.428C100.363 170.681 99.824 170.922 99.4108 170.658C98.9633 170.371 99.0092 169.728 99.1125 169.2C99.2731 168.408 99.4453 167.616 99.6404 166.824C99.8011 166.182 99.9043 165.103 100.283 164.552C100.639 164.036 101.144 164.345 101.683 164.713C102.154 165.057 102.544 165.516 102.774 166.067Z" fill="#E6E6E6"/>
<g opacity="0.2">
<path d="M94.0054 169.567C93.1676 169.533 92.3757 168.959 92.0659 168.179C91.8363 167.605 91.8478 166.136 92.5938 165.941C92.9266 167.26 93.2135 168.443 94.0054 169.567Z" fill="#FAFAFA"/>
</g>
<g opacity="0.2">
<path d="M99.6631 169.51C100.455 169.28 101.109 168.638 101.35 167.846C101.488 167.41 101.316 165.183 100.65 166.124C100.432 166.434 100.478 167.41 100.363 167.8C100.202 168.397 99.973 168.971 99.6631 169.51Z" fill="#FAFAFA"/>
</g>
<g opacity="0.2">
<path d="M96.6332 170.887C97.2415 171.404 98.2285 171.438 98.8597 170.944C98.7794 171.369 97.4251 171.736 97.0005 171.863C95.9102 172.184 95.3364 171.702 94.269 171.254C94.2805 171.254 95.9561 171.507 96.6332 170.887Z" fill="#FAFAFA"/>
</g>
<path d="M94.7397 215.589L94.843 182.479L96.5416 172.402L97.1843 172.517L95.4972 182.536L95.371 216.22L94.7397 215.589Z" fill="#E0E0E0"/>
<path d="M95.4282 182.306L94.9117 182.708C94.3953 182.031 93.9247 181.147 93.3853 180.126C92.5475 178.542 91.595 176.752 90.1489 175.168L90.6309 174.732C92.1344 176.384 93.0984 178.209 93.9592 179.827C94.4871 180.814 94.9347 181.675 95.4282 182.306Z" fill="#E0E0E0"/>
<path d="M95.8301 177.865C96.7138 177.635 97.5057 177.073 98.0107 176.316C98.5845 175.455 98.7911 174.41 98.9747 173.389C97.827 173.733 96.599 173.171 95.4169 173.309C94.4759 173.412 93.5922 173.997 93.1101 174.812C92.4904 175.879 92.2379 177.085 92.7888 177.578C93.2364 177.98 94.648 178.175 95.8301 177.865Z" fill="#E6E6E6"/>
<path d="M91.4229 175.581C90.367 176.247 89.0128 176.419 87.8192 176.029C86.6256 175.638 86.2813 173.86 85.8223 172.689C86.9011 172.471 89.6325 172.62 90.2523 172.689C90.872 172.746 91.5032 173.033 91.836 173.561C92.1688 174.089 92.1115 174.881 91.6065 175.237C91.5835 175.214 91.4229 175.581 91.4229 175.581Z" fill="#E6E6E6"/>
<path d="M85.9944 177.509C86.7175 176.626 88.5078 175.994 89.6325 176.201C90.7572 176.407 91.7098 177.176 92.1115 178.095C91.8131 178.806 91.0212 179.208 90.2523 179.265C89.4833 179.323 88.7259 179.093 87.9914 178.863C87.2569 178.634 86.4994 178.416 85.7305 178.462L85.9944 177.509Z" fill="#E6E6E6"/>
<path d="M108.087 171.817C108.087 171.817 109.28 172.884 109.521 174.388C109.762 175.879 107.042 177.67 107.042 177.67C107.042 177.67 105.022 178.313 103.599 177.062C102.176 175.799 102.176 175.799 102.176 175.799C102.176 175.799 106.503 171.771 107.892 172.138L108.087 171.817Z" fill="#E6E6E6"/>
<path d="M101.018 169.602C100.099 171.863 100.639 175.237 102.659 176.063C104.679 176.878 107.41 174.835 108.328 172.574C109.246 170.313 107.64 169.567 105.62 168.753C103.611 167.926 101.936 167.341 101.018 169.602Z" fill="#E6E6E6"/>
<path d="M107.318 170.795C107.318 170.795 105.344 171.576 102.303 169.831C102.291 169.82 106.388 174.847 107.318 170.795Z" fill="#E6E6E6"/>
<path d="M106.056 169.9C106.056 169.9 104.323 169.017 104.059 169.774C104.059 169.774 102.532 169.212 102.945 168.626C103.37 168.041 106.056 169.9 106.056 169.9Z" fill="#E6E6E6"/>
<g opacity="0.2">
<path d="M107.318 170.795C107.318 170.795 105.344 171.576 102.303 169.831C102.291 169.82 106.388 174.847 107.318 170.795Z" fill="#FAFAFA"/>
</g>
<g opacity="0.2">
<path d="M106.056 169.9C106.056 169.9 104.323 169.017 104.059 169.774C104.059 169.774 102.532 169.212 102.945 168.626C103.37 168.041 106.056 169.9 106.056 169.9Z" fill="#FAFAFA"/>
</g>
<path d="M105.918 177.865C104.931 178.737 103.416 178.863 102.211 178.336C101.006 177.808 100.122 176.671 99.7204 175.42C99.3188 174.17 99.3647 172.804 99.6631 171.518C99.7434 171.186 99.9615 170.371 100.432 170.371C100.857 170.382 100.937 171.002 101.04 171.312C101.339 172.207 101.683 173.068 102.153 173.894C102.613 174.686 103.175 175.432 103.806 176.098C103.99 176.293 105.746 178.026 105.918 177.865Z" fill="#E6E6E6"/>
<path d="M98.4466 170.485C97.7694 171.312 97.5514 172.494 97.9186 173.504C98.1596 174.169 98.6072 174.72 99.0778 175.248C99.3991 175.616 99.8467 175.994 100.317 175.868C100.822 175.73 100.971 175.088 101.029 174.571C101.109 173.768 101.178 172.953 101.212 172.15C101.247 171.484 101.465 170.428 101.27 169.785C101.086 169.189 100.512 169.326 99.8926 169.533C99.3303 169.705 98.8253 170.038 98.4466 170.485Z" fill="#E6E6E6"/>
<g opacity="0.2">
<path d="M105.792 176.419C106.606 176.626 107.524 176.327 108.052 175.662C108.443 175.18 108.867 173.768 108.202 173.378C107.502 174.525 106.882 175.57 105.792 176.419Z" fill="#FAFAFA"/>
</g>
<g opacity="0.2">
<path d="M100.397 174.697C99.7088 174.25 99.2612 173.435 99.2727 172.609C99.2727 172.15 100.088 170.084 100.443 171.163C100.558 171.518 100.237 172.437 100.225 172.85C100.214 173.469 100.271 174.101 100.397 174.697Z" fill="#FAFAFA"/>
</g>
<g opacity="0.2">
<path d="M102.888 176.901C102.154 177.222 101.201 176.958 100.742 176.304C100.696 176.74 101.89 177.486 102.245 177.727C103.198 178.359 103.887 178.06 105.034 177.957C105.034 177.945 103.359 177.693 102.888 176.901Z" fill="#FAFAFA"/>
</g>
<path d="M93.7983 210.642L94.2115 209.288L94.7624 207.463L95.4051 205.329L100.558 188.378L101.201 183.512L101.775 179.196L101.889 178.301L102.211 178.336V178.347L102.544 178.381L102.532 178.462L102.417 179.311L101.809 183.925L101.304 187.678L101.201 188.504L101.155 188.642L95.4051 207.578L94.7509 209.701L94.4525 210.688L94.0508 212.031L93.7983 210.642Z" fill="#E0E0E0"/>
<path d="M100.684 188.171L101.063 188.699C101.763 188.205 102.463 187.494 103.289 186.679C104.552 185.417 105.986 183.982 107.834 182.892L107.501 182.329C105.585 183.466 104.116 184.935 102.83 186.22C102.027 187.023 101.338 187.712 100.684 188.171Z" fill="#E0E0E0"/>
<path d="M101.614 183.81C100.845 183.328 100.248 182.559 99.9843 181.687C99.6859 180.7 99.8006 179.632 99.9154 178.611C100.902 179.277 102.245 179.104 103.335 179.586C104.208 179.965 104.873 180.78 105.091 181.698C105.367 182.903 105.252 184.131 104.586 184.43C104.047 184.682 102.647 184.453 101.614 183.81Z" fill="#E6E6E6"/>
<path d="M106.492 182.926C107.306 183.879 108.557 184.441 109.797 184.418C111.048 184.395 111.909 182.788 112.689 181.813C111.725 181.285 109.062 180.631 108.454 180.505C107.846 180.378 107.157 180.459 106.687 180.872C106.216 181.274 106.044 182.054 106.411 182.547C106.446 182.525 106.492 182.926 106.492 182.926Z" fill="#E6E6E6"/>
<path d="M111.117 186.369C110.681 185.313 109.154 184.177 108.03 184.051C106.893 183.913 105.757 184.372 105.103 185.13C105.172 185.899 105.815 186.518 106.538 186.794C107.261 187.069 108.053 187.081 108.821 187.081C109.59 187.081 110.382 187.092 111.105 187.368L111.117 186.369Z" fill="#E6E6E6"/>
<path d="M84.8354 170.497C84.8354 170.497 83.5156 171.427 83.1024 172.873C82.6893 174.33 85.1797 176.43 85.1797 176.43C85.1797 176.43 87.1078 177.314 88.6686 176.224C90.2294 175.145 90.2294 175.145 90.2294 175.145C90.2294 175.145 86.3962 170.635 84.9846 170.841L84.8354 170.497Z" fill="#E6E6E6"/>
<path d="M92.1114 169.131C92.7541 171.484 91.8245 174.778 89.7243 175.352C87.6241 175.925 85.1451 173.573 84.5024 171.22C83.8597 168.867 85.5353 168.316 87.647 167.743C89.7358 167.157 91.4687 166.779 92.1114 169.131Z" fill="#E6E6E6"/>
<path d="M85.7188 169.567C85.7188 169.567 87.5894 170.566 90.8144 169.2C90.8144 169.2 86.1663 173.699 85.7188 169.567Z" fill="#E6E6E6"/>
<path d="M87.0732 168.833C87.0732 168.833 88.898 168.156 89.0702 168.948C89.0702 168.948 90.654 168.569 90.3097 167.938C89.9654 167.295 87.0732 168.833 87.0732 168.833Z" fill="#E6E6E6"/>
<g opacity="0.2">
<path d="M85.7188 169.567C85.7188 169.567 87.5894 170.566 90.8144 169.2C90.8144 169.2 86.1663 173.699 85.7188 169.567Z" fill="#FAFAFA"/>
</g>
<g opacity="0.2">
<path d="M87.0732 168.833C87.0732 168.833 88.898 168.156 89.0702 168.948C89.0702 168.948 90.654 168.569 90.3097 167.938C89.9654 167.295 87.0732 168.833 87.0732 168.833Z" fill="#FAFAFA"/>
</g>
<path d="M86.27 176.763C87.1537 177.739 88.6457 178.06 89.8966 177.67C91.1591 177.28 92.169 176.27 92.7084 175.076C93.2593 173.883 93.3741 172.517 93.2134 171.208C93.179 170.876 93.0412 170.026 92.5822 169.98C92.1575 169.935 92.0083 170.543 91.8706 170.841C91.4689 171.702 91.0328 172.517 90.459 173.274C89.9081 174.009 89.2654 174.674 88.5653 175.271C88.3817 175.42 86.4307 176.935 86.27 176.763Z" fill="#E6E6E6"/>
<path d="M94.5674 170.302C95.1527 171.197 95.2216 172.402 94.7396 173.355C94.4297 173.986 93.9133 174.479 93.3853 174.95C93.0181 175.271 92.5361 175.604 92.077 175.42C91.595 175.214 91.5146 174.571 91.5146 174.043C91.5261 173.228 91.5606 172.425 91.6179 171.61C91.6638 170.945 91.572 169.866 91.836 169.257C92.0885 168.684 92.6394 168.902 93.2361 169.166C93.7755 169.43 94.2461 169.82 94.5674 170.302Z" fill="#E6E6E6"/>
<g opacity="0.2">
<path d="M86.58 175.329C85.7537 175.443 84.87 175.03 84.4224 174.319C84.101 173.791 83.8371 172.345 84.5371 172.023C85.0995 173.251 85.593 174.365 86.58 175.329Z" fill="#FAFAFA"/>
</g>
<g opacity="0.2">
<path d="M92.1348 174.261C92.8693 173.894 93.4087 173.137 93.5005 172.322C93.5579 171.874 92.984 169.717 92.502 170.749C92.3413 171.094 92.5594 172.046 92.525 172.448C92.4676 173.068 92.3299 173.676 92.1348 174.261Z" fill="#FAFAFA"/>
</g>
<g opacity="0.2">
<path d="M89.4033 176.155C90.1034 176.557 91.0674 176.407 91.6068 175.811C91.6068 176.247 90.3329 176.844 89.9427 177.039C88.9213 177.555 88.2786 177.176 87.1539 176.935C87.1424 176.935 88.8409 176.889 89.4033 176.155Z" fill="#FAFAFA"/>
</g>
<path d="M95.5545 220.466L89.7129 187.873L89.5752 177.67L90.2294 177.658L90.3671 187.827L96.3005 220.971L95.5545 220.466Z" fill="#E0E0E0"/>
<path d="M90.2636 187.609L89.8275 188.091C89.1963 187.517 88.5765 186.736 87.8535 185.818C86.7403 184.418 85.4893 182.823 83.7793 181.515L84.181 180.998C85.9484 182.352 87.2338 183.982 88.37 185.417C89.0586 186.312 89.6668 187.069 90.2636 187.609Z" fill="#E0E0E0"/>
<path d="M89.8504 183.167C90.6768 182.777 91.3539 182.088 91.7211 181.251C92.1343 180.298 92.1458 179.231 92.1458 178.198C91.0784 178.737 89.7701 178.416 88.6339 178.76C87.7273 179.036 86.9583 179.759 86.637 180.654C86.2238 181.813 86.1894 183.052 86.8091 183.431C87.3371 183.752 88.7487 183.684 89.8504 183.167Z" fill="#E6E6E6"/>
<path d="M85.1107 181.71C84.1926 182.559 82.8842 182.972 81.6447 182.8C80.4053 182.628 79.7396 180.941 79.0854 179.873C80.1069 179.46 82.8268 179.127 83.4466 179.07C84.0663 179.024 84.7319 179.185 85.1566 179.644C85.5812 180.103 85.6616 180.883 85.2255 181.342C85.2025 181.319 85.1107 181.71 85.1107 181.71Z" fill="#E6E6E6"/>
<path d="M80.1182 184.59C80.6691 183.592 82.3217 182.651 83.4579 182.651C84.5941 182.651 85.6729 183.236 86.2352 184.074C86.0746 184.831 85.363 185.371 84.617 185.554C83.871 185.749 83.0792 185.658 82.3217 185.566C81.5528 185.474 80.7723 185.394 80.0264 185.577L80.1182 184.59Z" fill="#E6E6E6"/>
<path d="M97.9529 200.474H91.0899C90.5734 200.462 90.1144 200.795 89.9652 201.289C89.4028 203.068 88.1978 207.75 88.1978 215.13C88.1978 223.232 90.3095 233.986 90.9751 237.165C91.0899 237.704 91.5604 238.083 92.0998 238.094H96.8741C97.425 238.094 97.884 237.704 97.9988 237.165C98.6645 233.986 100.776 223.232 100.776 215.13C100.776 207.75 99.5711 203.079 99.0087 201.289C98.8825 200.818 98.4464 200.485 97.9529 200.474Z" fill="#F0F0F0"/>
<path d="M286.916 427C409.811 427 509.437 421.183 509.437 414.008C509.437 406.833 409.811 401.017 286.916 401.017C164.021 401.017 64.3955 406.833 64.3955 414.008C64.3955 421.183 164.021 427 286.916 427Z" fill="#F5F5F5"/>
<path d="M138.615 369.341C138.225 369.318 137.915 368.986 137.927 368.595C138.776 334.866 140.52 279.537 140.612 279.227C140.727 278.837 141.14 278.63 141.519 278.733C141.909 278.848 142.127 279.261 142.012 279.64C141.989 279.709 140.233 335.233 139.396 368.618C139.384 369.02 139.051 369.341 138.65 369.33C138.638 369.341 138.627 369.341 138.615 369.341Z" fill="#263238"/>
<path d="M134.082 256.71C134.369 259.303 137.479 268.312 140.072 268.037C142.666 267.75 143.768 258.293 143.492 255.688C143.206 253.094 140.876 251.212 138.282 251.499C135.677 251.775 133.806 254.116 134.082 256.71Z" fill="#407BFF"/>
<path d="M146.695 285.114C146.408 282.52 143.298 273.511 140.704 273.798C138.11 274.085 137.008 283.542 137.284 286.147C137.571 288.741 139.901 290.623 142.494 290.336C145.099 290.049 146.982 287.719 146.695 285.114Z" fill="#407BFF"/>
<path d="M126.186 277.218C128.78 276.931 137.789 273.821 137.502 271.228C137.215 268.634 127.758 267.532 125.153 267.807C122.559 268.094 120.677 270.424 120.964 273.018C121.251 275.623 123.592 277.505 126.186 277.218Z" fill="#407BFF"/>
<path d="M154.59 264.606C151.997 264.892 142.988 268.003 143.263 270.596C143.55 273.19 153.007 274.292 155.612 274.016C158.206 273.729 160.088 271.4 159.801 268.806C159.525 266.201 157.196 264.33 154.59 264.606Z" fill="#407BFF"/>
<path d="M125.888 265.328C127.931 266.97 136.492 271.136 138.133 269.093C139.774 267.05 133.852 259.579 131.821 257.949C129.79 256.308 126.806 256.641 125.165 258.672C123.523 260.715 123.856 263.687 125.888 265.328Z" fill="#407BFF"/>
<path d="M154.889 276.495C152.857 274.854 144.284 270.688 142.643 272.731C141.002 274.762 146.924 282.234 148.955 283.875C150.987 285.516 153.971 285.183 155.612 283.152C157.253 281.12 156.932 278.136 154.889 276.495Z" fill="#407BFF"/>
<path d="M134.805 285.413C136.446 283.381 140.612 274.808 138.569 273.167C136.538 271.526 129.067 277.448 127.425 279.479C125.784 281.511 126.117 284.495 128.148 286.136C130.191 287.777 133.164 287.455 134.805 285.413Z" fill="#407BFF"/>
<path d="M145.972 256.411C144.33 258.443 140.164 267.016 142.207 268.657C144.239 270.298 151.71 264.376 153.351 262.345C154.992 260.313 154.659 257.329 152.628 255.688C150.597 254.047 147.613 254.368 145.972 256.411Z" fill="#407BFF"/>
<g opacity="0.6">
<path d="M134.082 256.71C134.369 259.303 137.479 268.312 140.072 268.037C142.666 267.75 143.768 258.293 143.492 255.688C143.206 253.094 140.876 251.212 138.282 251.499C135.677 251.775 133.806 254.116 134.082 256.71Z" fill="white"/>
<path d="M146.695 285.114C146.408 282.52 143.298 273.511 140.704 273.798C138.11 274.085 137.008 283.542 137.284 286.147C137.571 288.741 139.901 290.623 142.494 290.336C145.099 290.049 146.982 287.719 146.695 285.114Z" fill="white"/>
<path d="M126.186 277.218C128.78 276.931 137.789 273.821 137.502 271.228C137.215 268.634 127.758 267.532 125.153 267.807C122.559 268.094 120.677 270.424 120.964 273.018C121.251 275.623 123.592 277.505 126.186 277.218Z" fill="white"/>
<path d="M154.59 264.606C151.997 264.892 142.988 268.003 143.263 270.596C143.55 273.19 153.007 274.292 155.612 274.016C158.206 273.729 160.088 271.4 159.801 268.806C159.525 266.201 157.196 264.33 154.59 264.606Z" fill="white"/>
<path d="M125.888 265.328C127.931 266.97 136.492 271.136 138.133 269.093C139.774 267.05 133.852 259.579 131.821 257.949C129.79 256.308 126.806 256.641 125.165 258.672C123.523 260.715 123.856 263.687 125.888 265.328Z" fill="white"/>
<path d="M154.889 276.495C152.857 274.854 144.284 270.688 142.643 272.731C141.002 274.762 146.924 282.234 148.955 283.875C150.987 285.516 153.971 285.183 155.612 283.152C157.253 281.12 156.932 278.136 154.889 276.495Z" fill="white"/>
<path d="M134.805 285.413C136.446 283.381 140.612 274.808 138.569 273.167C136.538 271.526 129.067 277.448 127.425 279.479C125.784 281.511 126.117 284.495 128.148 286.136C130.191 287.777 133.164 287.455 134.805 285.413Z" fill="white"/>
<path d="M145.972 256.411C144.33 258.443 140.164 267.016 142.207 268.657C144.239 270.298 151.71 264.376 153.351 262.345C154.992 260.313 154.659 257.329 152.628 255.688C150.597 254.047 147.613 254.368 145.972 256.411Z" fill="white"/>
</g>
<path d="M134.816 271.514C135.149 274.59 137.915 276.817 140.991 276.484C144.066 276.151 146.293 273.385 145.96 270.309C145.627 267.234 142.861 265.007 139.786 265.34C136.71 265.673 134.483 268.439 134.816 271.514Z" fill="#407BFF"/>
<path d="M135.367 344.632C128.906 344.77 117.842 338.802 113.481 332.972C109.062 327.061 121.457 330.7 120.172 326.051C118.886 321.403 103.634 324.881 100.799 318.224C97.9645 311.568 108.982 313.06 108.535 309.663C108.087 306.254 96.6791 306.977 92.9951 299.908C89.3111 292.827 99.3532 296.775 97.7694 293.837C96.1856 290.899 83.5728 278.573 88.8291 275.979C94.0854 273.385 105.906 286.228 109.866 287.651C113.825 289.074 114.72 280.179 119.873 284.414C125.026 288.649 121.228 307.264 127.287 309.697C131.798 311.511 129.858 303.006 135.057 305.141C144.158 308.871 137.995 344.575 135.367 344.632Z" fill="#407BFF"/>
<g opacity="0.2">
<path d="M135.367 344.632C128.906 344.77 117.842 338.802 113.481 332.972C109.062 327.061 121.457 330.7 120.172 326.051C118.886 321.403 103.634 324.881 100.799 318.224C97.9645 311.568 108.982 313.06 108.535 309.663C108.087 306.254 96.6791 306.977 92.9951 299.908C89.3111 292.827 99.3532 296.775 97.7694 293.837C96.1856 290.899 83.5728 278.573 88.8291 275.979C94.0854 273.385 105.906 286.228 109.866 287.651C113.825 289.074 114.72 280.179 119.873 284.414C125.026 288.649 121.228 307.264 127.287 309.697C131.798 311.511 129.858 303.006 135.057 305.141C144.158 308.871 137.995 344.575 135.367 344.632Z" fill="white"/>
</g>
<path d="M144.663 336.426C144.766 336.61 143.802 337.528 146.993 337.654C154.854 337.976 168.753 337.448 173.974 330.298C181.423 320.095 164.242 321.025 165.906 315.401C167.582 309.778 186.048 314.368 189.652 306.335C193.255 298.301 179.828 299.873 180.447 295.73C181.067 291.599 195.16 296.958 199.808 288.431C204.456 279.904 192.142 284.472 194.139 280.937C196.136 277.402 211.767 262.7 205.432 259.43C199.097 256.159 184.418 271.503 179.575 273.144C174.732 274.785 173.607 259.739 167.249 264.766C160.88 269.804 165.057 292.528 157.632 295.34C152.1 297.44 155.118 289.303 148.29 289.613C139.028 290.049 135.975 321.897 144.663 336.426Z" fill="#407BFF"/>
<g opacity="0.3">
<path d="M144.663 336.426C144.766 336.61 143.802 337.528 146.993 337.654C154.854 337.976 168.753 337.448 173.974 330.298C181.423 320.095 164.242 321.025 165.906 315.401C167.582 309.778 186.048 314.368 189.652 306.335C193.255 298.301 179.828 299.873 180.447 295.73C181.067 291.599 195.16 296.958 199.808 288.431C204.456 279.904 192.142 284.472 194.139 280.937C196.136 277.402 211.767 262.7 205.432 259.43C199.097 256.159 184.418 271.503 179.575 273.144C174.732 274.785 173.607 259.739 167.249 264.766C160.88 269.804 165.057 292.528 157.632 295.34C152.1 297.44 155.118 289.303 148.29 289.613C139.028 290.049 135.975 321.897 144.663 336.426Z" fill="white"/>
</g>
<path d="M138.776 364.246C138.764 364.246 138.753 364.246 138.73 364.246C138.454 364.211 138.248 363.959 138.282 363.672C144.732 310.856 175.157 289.395 175.466 289.188C175.696 289.028 176.017 289.085 176.178 289.326C176.339 289.556 176.281 289.877 176.052 290.038C175.753 290.244 145.696 311.476 139.303 363.81C139.269 364.062 139.028 364.257 138.776 364.246Z" fill="#263238"/>
<path d="M168.535 296.522C168.328 296.511 168.133 296.373 168.064 296.166C167.972 295.902 168.122 295.604 168.397 295.524C168.581 295.466 173.114 294.032 180.539 295.604C180.815 295.661 180.987 295.937 180.93 296.212C180.872 296.488 180.597 296.671 180.321 296.602C173.183 295.087 168.753 296.476 168.707 296.488C168.661 296.522 168.604 296.522 168.535 296.522Z" fill="#263238"/>
<path d="M162.922 302.937C162.647 302.926 162.44 302.708 162.429 302.432C162.268 286.457 171.518 273.982 171.61 273.856C171.782 273.626 172.104 273.58 172.322 273.752C172.551 273.924 172.597 274.246 172.425 274.464C172.333 274.59 163.29 286.801 163.45 302.41C163.45 302.696 163.221 302.926 162.945 302.926C162.934 302.937 162.922 302.937 162.922 302.937Z" fill="#263238"/>
<path d="M153.856 316.457C153.73 316.457 153.604 316.4 153.5 316.296C153.305 316.09 153.317 315.768 153.523 315.573C153.592 315.504 160.432 309.181 169.395 312.394C169.659 312.486 169.797 312.784 169.705 313.048C169.613 313.312 169.315 313.45 169.051 313.358C160.673 310.351 154.281 316.262 154.223 316.319C154.12 316.411 153.994 316.457 153.856 316.457Z" fill="#263238"/>
<path d="M149.116 325.879C148.921 325.868 148.749 325.753 148.668 325.569C148.519 325.237 145.168 317.203 147.016 305.761C147.062 305.485 147.314 305.29 147.601 305.336C147.876 305.382 148.072 305.646 148.026 305.921C146.224 317.054 149.575 325.087 149.609 325.168C149.724 325.432 149.598 325.73 149.334 325.833C149.265 325.879 149.196 325.891 149.116 325.879Z" fill="#263238"/>
<path d="M138.971 383.113C138.707 383.102 138.489 382.884 138.477 382.62L137.811 368.63C135.849 322.126 103.955 290.485 103.634 290.175C103.427 289.98 103.427 289.659 103.622 289.452C103.818 289.246 104.139 289.246 104.345 289.441C104.667 289.762 136.859 321.656 138.833 368.595L139.498 382.585C139.51 382.872 139.28 383.102 139.005 383.113C139.005 383.113 138.982 383.113 138.971 383.113Z" fill="#263238"/>
<path d="M116.798 307.643C116.775 307.643 116.74 307.643 116.717 307.631C116.671 307.62 116.614 307.597 116.568 307.574L116.407 307.505C112.23 305.772 107.559 304.866 103.267 304.969C102.98 304.98 102.75 304.751 102.739 304.464C102.727 304.177 102.957 303.947 103.244 303.936C107.674 303.844 112.494 304.762 116.798 306.553L116.97 306.621C117.004 306.633 117.027 306.644 117.062 306.667C117.257 306.771 117.383 307 117.326 307.23C117.268 307.482 117.039 307.654 116.798 307.643Z" fill="#263238"/>
<path d="M121.308 313.634C121.296 313.634 121.296 313.634 121.285 313.634C120.998 313.611 120.791 313.358 120.826 313.083C122.065 299.357 114.95 288.064 114.881 287.949C114.732 287.708 114.8 287.398 115.041 287.237C115.282 287.088 115.592 287.157 115.753 287.398C115.822 287.513 123.121 299.093 121.859 313.175C121.813 313.439 121.583 313.645 121.308 313.634Z" fill="#263238"/>
<path d="M125.968 321.587C125.841 321.587 125.715 321.53 125.623 321.438C125.566 321.38 120.39 316.273 112.804 318.293C112.528 318.373 112.253 318.201 112.173 317.926C112.104 317.65 112.264 317.375 112.54 317.295C120.711 315.114 126.117 320.485 126.346 320.715C126.541 320.921 126.541 321.243 126.346 321.438C126.243 321.541 126.105 321.587 125.968 321.587Z" fill="#263238"/>
<path d="M131.878 334.693C131.809 334.693 131.728 334.67 131.66 334.636C131.407 334.51 131.315 334.2 131.442 333.947C131.476 333.879 134.988 327.015 134.184 317.111C134.162 316.824 134.368 316.583 134.655 316.56C134.942 316.526 135.183 316.744 135.206 317.031C136.032 327.245 132.497 334.131 132.348 334.418C132.256 334.602 132.061 334.693 131.878 334.693Z" fill="#263238"/>
<path d="M167.742 385.317C167.742 401.625 160.409 414.858 138.19 414.858C116.981 414.858 108.638 401.625 108.638 385.317C108.638 379.165 110.531 373.438 113.745 368.71H162.647C165.849 373.438 167.742 379.154 167.742 385.317Z" fill="#407BFF"/>
<path opacity="0.7" d="M167.742 385.317C167.742 401.625 160.409 414.858 138.19 414.858C116.981 414.858 108.638 401.625 108.638 385.317C108.638 379.165 110.531 373.438 113.745 368.71H162.647C165.849 373.438 167.742 379.154 167.742 385.317Z" fill="white"/>
<path d="M337.528 400.432L348.959 398.767L346.078 372.015L334.636 373.691L337.528 400.432Z" fill="#E8BFBF"/>
<path d="M357.75 399.169C358.749 399.1 359.678 398.687 360.413 398.01C360.723 397.62 360.826 397.092 360.677 396.61C360.608 396.311 360.39 396.059 360.103 395.967C358.577 395.416 354.399 398.504 353.929 398.848C353.837 398.917 353.802 399.043 353.825 399.158C353.86 399.261 353.963 399.341 354.078 399.341C355.306 399.387 356.534 399.33 357.75 399.169ZM359.357 396.484C359.529 396.438 359.713 396.449 359.873 396.495C359.988 396.53 360.08 396.633 360.114 396.759C360.206 397.08 360.149 397.425 359.942 397.677C359.357 398.412 357.486 398.825 354.881 398.825C356.235 397.792 357.762 396.989 359.38 396.461L359.357 396.484Z" fill="#407BFF"/>
<path d="M354.146 399.341L354.238 399.295C355.512 398.458 357.796 395.554 357.36 394.292C357.234 394.005 356.993 393.649 356.224 393.695C355.673 393.706 355.145 393.947 354.778 394.372C353.538 395.795 353.791 398.928 353.791 399.054C353.791 399.146 353.825 399.238 353.905 399.295C353.974 399.353 354.066 399.364 354.146 399.341ZM356.063 394.269L356.212 394.2C356.717 394.177 356.775 394.36 356.786 394.429C357.05 395.187 355.535 397.425 354.273 398.458C354.158 397.138 354.456 395.818 355.145 394.693C355.386 394.441 355.719 394.28 356.075 394.257L356.063 394.269Z" fill="#407BFF"/>
<path d="M347.789 394.028L337.655 396.449C337.196 396.541 336.886 396.966 336.932 397.436L337.265 412.103C337.402 413.136 338.355 413.848 339.376 413.71C339.445 413.699 339.514 413.687 339.583 413.664C343.978 412.574 346.044 411.828 351.633 410.543C355.053 409.751 365.899 408.936 370.34 406.962C374.782 404.988 373.049 400.478 371.029 400.914C364.51 402.314 356.144 399.525 351.392 395.279C350.75 394.946 348.489 393.844 347.789 394.028Z" fill="#263238"/>
<path opacity="0.2" d="M346.078 372.015L347.559 385.81L336.128 387.486L334.636 373.703L346.078 372.015Z" fill="black"/>
<path d="M352.184 380.129L331.033 384.077C331.033 384.077 320.761 369.41 318.822 359.001C316.802 348.156 318.959 311.247 318.822 310.753C312.842 290.554 296.58 238.221 288.741 218.963C284.392 208.29 281.339 201.105 281.339 201.105L283.531 200.612L300.792 193.542L313.37 195.918C313.37 195.918 351.599 273.225 355.616 302.306C358.611 324.02 352.184 380.129 352.184 380.129Z" fill="#407BFF"/>
<path opacity="0.3" d="M352.184 380.129L331.033 384.077C331.033 384.077 320.761 369.41 318.822 359.001C316.802 348.156 318.959 311.247 318.822 310.753C312.842 290.554 296.58 238.221 288.741 218.963C284.392 208.29 281.339 201.105 281.339 201.105L283.531 200.612L300.792 193.542L313.37 195.918C313.37 195.918 351.599 273.225 355.616 302.306C358.611 324.02 352.184 380.129 352.184 380.129Z" fill="white"/>
<path opacity="0.2" d="M313.841 293.274C307.862 273.075 295.788 242.444 287.938 223.186L282.739 204.835L281.741 201.3L283.566 204.64L304.051 250.03C313.095 267.394 313.979 293.756 313.841 293.274Z" fill="black"/>
<path d="M221.006 394.131L231.197 398.423L242.065 375.103L231.886 370.81L221.006 394.131Z" fill="#E8BFBF"/>
<path d="M237.83 403.312C238.634 403.817 239.598 404.035 240.539 403.92C240.998 403.794 241.377 403.45 241.526 402.991C241.641 402.727 241.618 402.406 241.446 402.165C240.573 400.879 235.604 400.891 235.053 400.902C234.938 400.902 234.847 400.982 234.801 401.074C234.766 401.178 234.812 401.292 234.892 401.361C235.822 402.107 236.798 402.75 237.83 403.312ZM240.585 402.153C240.746 402.222 240.883 402.325 240.975 402.463C241.044 402.555 241.055 402.692 241.009 402.796C240.906 403.094 240.665 403.324 240.355 403.416C239.483 403.645 237.819 402.911 235.799 401.442C237.429 401.407 239.058 401.648 240.608 402.165L240.585 402.153Z" fill="#407BFF"/>
<path d="M234.95 401.419L235.042 401.442C236.488 401.51 239.908 400.558 240.287 399.341C240.344 399.054 240.367 398.641 239.747 398.24C239.311 397.93 238.772 397.826 238.255 397.941C236.499 398.343 234.916 400.891 234.847 400.994C234.789 401.063 234.766 401.166 234.801 401.246C234.812 401.315 234.87 401.384 234.95 401.419ZM239.3 398.584L239.46 398.618C239.862 398.882 239.805 399.066 239.782 399.123C239.564 399.858 237.131 400.73 235.57 400.822C236.224 399.743 237.211 398.894 238.37 398.412C238.703 398.354 239.047 398.423 239.334 398.607L239.3 398.584Z" fill="#407BFF"/>
<path d="M233.045 393.718L223.852 389.85C223.45 389.666 222.968 389.816 222.739 390.206L214.705 401.717C214.235 402.589 214.556 403.679 215.428 404.15C215.486 404.184 215.555 404.207 215.612 404.242C219.617 405.883 221.637 406.48 226.687 408.637C229.774 409.969 238.611 415.454 243.156 416.441C247.701 417.428 248.906 412.976 247.104 412.149C241.285 409.544 236.396 402.67 235.122 396.702C234.812 396.093 233.688 393.97 233.045 393.718Z" fill="#263238"/>
<path opacity="0.2" d="M242.513 375.378L236.614 387.256L226.538 382.735L232.414 370.845L242.513 375.378Z" fill="black"/>
<path d="M244.637 388.324L224.346 377.513C224.346 377.513 220.455 363.064 224.346 353.848C231.829 336.117 251.316 310.042 251.442 309.548C256.641 289.131 265.754 233.24 268.875 212.674C270.608 201.277 271.618 198.821 271.618 198.821L273.764 199.521L304.809 199.579C304.809 199.579 310.662 246.599 288.213 319.395C282.624 337.505 273.271 352.563 257.869 372.945C252.028 380.68 244.637 388.324 244.637 388.324Z" fill="#407BFF"/>
<path opacity="0.3" d="M244.637 388.324L224.346 377.513C224.346 377.513 220.455 363.064 224.346 353.848C231.829 336.117 251.316 310.042 251.442 309.548C256.641 289.131 265.754 233.24 268.875 212.674C270.608 201.277 271.618 198.821 271.618 198.821L273.764 199.521L304.809 199.579C304.809 199.579 310.662 246.599 288.213 319.395C282.624 337.505 273.271 352.563 257.869 372.945C252.028 380.68 244.637 388.324 244.637 388.324Z" fill="white"/>
<path d="M332.318 161.166C332.547 157.678 334.854 153.19 336.851 151.113C337.494 150.447 339.915 149.437 341.281 148.542C348.018 144.124 361.514 138.603 361.514 138.603L365.68 142.23C365.68 142.23 357.463 150.172 352.574 153.982C351.61 154.728 350.497 155.635 349.326 156.599C347.203 158.378 337.184 164.977 335.279 166.629L332.318 161.166Z" fill="#E8BFBF"/>
<path d="M373.381 136.561L365.68 142.253L361.365 139.074C361.365 139.074 363.133 136.825 364.934 135.092C365.726 134.323 366.162 133.278 366.174 132.177C366.185 130.478 366.449 128.515 367.368 127.069C367.39 127.035 367.402 127.001 367.425 126.978C369.089 124.464 373.003 125.222 373.783 128.125L374.896 132.234C375.332 133.841 374.736 135.562 373.381 136.561Z" fill="#E8BFBF"/>
<path d="M334.774 162.704L332.742 164.564C332.111 164.059 331.101 163.244 329.839 162.199C319.946 153.982 295.145 134.07 305.038 128.378C313.508 123.5 322.517 138.42 327.004 142.896C327.922 143.825 330.424 146.706 332.444 150.333C334.556 154.131 336.117 158.734 334.774 162.704Z" fill="#263238"/>
<path d="M332.432 148.554C328.92 151.124 325.925 154.384 323.664 158.102C325.294 163.496 329.391 168.179 334.555 170.428C337.39 163.864 338.698 156.794 338.148 149.667C336.357 149.277 334.223 148.932 332.432 148.554Z" fill="#263238"/>
<path d="M277.976 127.219C274.441 128.355 270.39 127.448 268.117 130.386C265.845 133.324 265.168 137.215 265.168 140.933C265.168 146.098 266.35 151.193 267.532 156.22C268.955 162.326 270.378 168.431 271.813 174.537C272.788 178.714 271.767 198.11 272.8 198.443C272.8 198.443 305.244 197.811 313.381 196.664C313.381 196.664 314.093 176.717 314.736 169.923C314.885 168.42 317.169 162.016 317.433 160.409C318.695 152.834 316.216 147.486 313.588 140.268C313.588 140.268 307.838 128.699 305.038 128.389C300.045 127.827 287.834 124.051 277.976 127.219Z" fill="#263238"/>
<path d="M276.61 136.79C276.495 136.113 270.734 124.487 265.214 132.613C257.536 143.929 257.019 158.137 257.019 158.137C257.019 158.137 252.303 171.955 255.585 174.973C258.879 177.991 262.425 179.931 264.72 178.221C267.016 176.511 268.508 173.091 268.508 173.091C268.508 173.091 278.63 148.634 276.61 136.79Z" fill="#263238"/>
<path d="M276.232 122.903C273.81 124.797 274.131 129.17 276.794 130.696C276.128 133.037 276.909 135.746 278.733 137.364C280.558 138.982 283.336 139.441 285.585 138.5C284.609 140.245 285.711 142.54 287.387 143.619C289.062 144.698 291.14 144.893 293.114 145.157C295.088 145.421 297.176 145.845 298.622 147.234C300.665 144.296 302.708 141.346 304.762 138.408C305.554 137.261 306.381 136.033 306.45 134.644C306.507 133.255 305.451 131.717 304.062 131.821C305.474 130.352 305.508 127.758 304.12 126.255C302.743 124.751 300.16 124.556 298.565 125.841C298.852 124.659 298.163 123.408 297.165 122.72C296.166 122.031 294.927 121.79 293.722 121.675L276.232 122.903Z" fill="#263238"/>
<path d="M279.916 107.926C281.511 113.779 283.45 124.579 279.571 128.848C279.571 128.848 290.531 133.232 298.313 142.046C301.939 138.523 301.561 134.564 300.447 131.672C299.587 129.434 297.739 127.77 295.524 126.828C291.255 125.015 291.22 120.815 291.932 116.798L279.916 107.926Z" fill="#E8BFBF"/>
<path opacity="0.2" d="M282.303 117.9L286.331 118.99C288.053 119.46 289.866 119.564 291.633 119.3C291.622 120.172 291.461 122.008 292.012 122.984C289.694 124.097 285.78 123.34 284.059 121.297C283.336 120.505 282.693 118.898 282.303 117.9Z" fill="black"/>
<path d="M272.1 102.946C276.369 111.943 277.976 115.845 284.552 118.714C294.445 123.041 304.544 115.811 303.041 105.723C301.698 96.6449 294.938 83.4468 284.437 83.4009C276.931 83.332 270.791 89.3458 270.711 96.8515C270.7 98.9517 271.17 101.04 272.1 102.946Z" fill="#E8BFBF"/>
<path d="M276.782 85.7536C273.672 84.3076 269.816 85.4897 267.222 87.762C264.594 90.0803 262.987 93.3167 261.45 96.4728C260.612 98.1828 259.774 99.9273 259.384 101.787C258.994 103.657 259.108 105.7 260.095 107.33C261.059 108.925 262.861 109.981 264.72 110.084C265.788 110.141 267.039 110.922 267.394 111.932C267.716 112.873 267.567 113.894 267.417 114.87C267.268 115.822 267.131 116.809 267.429 117.716C267.922 119.231 269.541 120.149 271.136 120.31C272.72 120.459 274.292 120 275.83 119.552C276.794 119.265 277.769 119.426 278.527 120.103C278.71 120.275 278.871 120.47 278.986 120.7C279.456 121.607 280.834 121.457 281.235 120.516C282.624 117.211 280.604 111.943 277.597 107.915C276.002 105.78 276.082 106.32 275.463 103.726C274.935 101.568 275.727 99.319 276.702 97.3221C277.987 94.6595 279.652 92.0543 279.135 88.8753C278.894 87.5325 278.022 86.3275 276.782 85.7536Z" fill="#263238"/>
<path d="M272.364 112.15C273.775 113.653 275.738 114.537 277.804 114.606C280.547 114.663 281.235 112.047 279.915 109.82C278.722 107.812 275.853 105.367 273.374 106.331C270.895 107.307 270.642 110.279 272.364 112.15Z" fill="#E8BFBF"/>
<path d="M289.246 101.339C289.567 102.131 290.187 102.544 290.681 102.337C291.174 102.131 291.3 101.385 291.025 100.616C290.749 99.8469 290.084 99.4223 289.59 99.6174C289.097 99.824 288.948 100.593 289.246 101.339Z" fill="#263238"/>
<path d="M297.647 97.7237C297.957 98.5156 298.588 98.9288 299.081 98.7337C299.564 98.5386 299.701 97.7811 299.426 97.0122C299.15 96.2433 298.485 95.8186 297.991 96.0022C297.498 96.1859 297.349 96.9778 297.647 97.7237Z" fill="#263238"/>
<path d="M297.773 96.1515L299.369 94.9005C299.369 94.9005 299.024 96.6794 297.773 96.1515Z" fill="#263238"/>
<path d="M295.466 99.4108C297.417 101.339 298.886 101.683 300.998 103.014C300.941 104.885 299.173 105.321 299.173 105.321L295.466 99.4108Z" fill="#ED847E"/>
<path d="M298.278 108.994C298.645 108.856 298.99 108.695 299.334 108.5C299.449 108.443 299.483 108.305 299.426 108.19C299.426 108.19 299.426 108.179 299.414 108.179C299.345 108.064 299.208 108.03 299.093 108.076C297.314 109.109 295.145 109.223 293.263 108.386C293.148 108.328 292.999 108.363 292.941 108.489C292.884 108.604 292.918 108.753 293.045 108.81C294.697 109.568 296.58 109.637 298.278 108.994Z" fill="#263238"/>
<path d="M288.936 95.0956C288.925 95.3137 288.776 95.4973 288.569 95.5547C286.365 96.2089 285.39 98.9977 285.39 99.0206C285.298 99.2846 285.023 99.4223 284.759 99.3305C284.495 99.2387 284.357 98.9632 284.449 98.6993C284.529 98.596 285.597 95.394 288.282 94.5906C288.546 94.5218 288.821 94.671 288.902 94.9235C288.925 94.9809 288.936 95.0382 288.936 95.0956Z" fill="#263238"/>
<path d="M299.093 93.7413C298.909 93.8561 298.68 93.8332 298.508 93.6954C296.717 92.2609 293.86 93.0527 293.848 93.0527C293.584 93.1331 293.309 92.9839 293.228 92.7199C293.148 92.456 293.297 92.1805 293.561 92.1002C293.699 92.1117 296.935 91.1591 299.127 92.9035C299.334 93.0757 299.368 93.3856 299.208 93.6036C299.173 93.661 299.139 93.7069 299.093 93.7413Z" fill="#263238"/>
<path d="M289.396 99.7551L290.991 98.5156C290.991 98.5156 290.624 100.295 289.396 99.7551Z" fill="#263238"/>
<path d="M277.471 84.2501C274.969 84.4452 272.582 85.8798 271.228 87.9915C270.321 89.4146 270 91.5722 271.343 92.5821C271.974 93.0527 272.812 93.1445 273.592 93.2134C277.081 93.5232 281.396 90.8262 281.396 90.8262C280.053 85.1223 292.012 80.7038 297.911 89.5408C299.644 92.1345 299.173 94.0167 302.054 95.2218C303.408 95.7841 305.199 95.6349 306.071 96.817C307.517 98.7795 304.74 102.108 306.507 103.795C307.712 104.954 310.444 104.506 310.604 106.17C310.685 106.951 310.168 108.076 310.926 108.305C311.339 108.431 311.717 108.053 311.993 107.708C312.647 106.882 313.313 106.021 313.531 105C313.749 103.978 313.393 102.739 312.429 102.303C311.695 101.97 309.755 102.337 309.893 103.141C310.053 104.093 309.227 99.3993 309.594 97.6319C309.916 96.094 311.385 94.7512 310.937 93.2363C310.455 91.6181 308.538 90.9754 306.874 90.7344C305.21 90.4934 303.317 90.2868 302.295 88.9555C301.159 87.4636 301.675 85.3289 301.308 83.4926C300.838 81.1514 298.887 79.3266 296.695 78.3741C290.05 75.4819 279.755 75.8836 277.471 84.2501Z" fill="#263238"/>
<path d="M296.373 114.87L273.431 126.392C265.891 130.18 262.471 139.097 265.558 146.959L276.622 175.18C279.709 183.041 288.271 187.264 296.385 184.923L321.059 177.808C330.31 175.145 335.256 165.103 331.744 156.14L318.948 123.5C315.424 114.56 304.969 110.555 296.373 114.87ZM292.574 163.347C287.456 165.356 281.683 162.831 279.675 157.712C277.666 152.594 280.191 146.821 285.31 144.824C290.428 142.815 296.201 145.34 298.209 150.459C300.218 155.566 297.693 161.339 292.574 163.347Z" fill="#407BFF"/>
<path d="M296.373 114.87L273.431 126.392C265.891 130.18 262.471 139.097 265.558 146.959L276.622 175.18C279.709 183.041 288.271 187.264 296.385 184.923L321.059 177.808C330.31 175.145 335.256 165.103 331.744 156.14L318.948 123.5C315.424 114.56 304.969 110.555 296.373 114.87ZM292.574 163.347C287.456 165.356 281.683 162.831 279.675 157.712C277.666 152.594 280.191 146.821 285.31 144.824C290.428 142.815 296.201 145.34 298.209 150.459C300.218 155.566 297.693 161.339 292.574 163.347Z" fill="#407BFF"/>
<path opacity="0.1" d="M331.733 156.163L318.925 123.523C315.413 114.56 304.958 110.555 296.362 114.87L289.694 118.221L285.218 120.47L273.42 126.404C265.868 130.191 262.46 139.109 265.535 146.97L276.599 175.191C279.686 183.053 288.248 187.276 296.362 184.935L321.048 177.819C323.068 177.234 324.881 176.293 326.453 175.088C327.67 174.158 328.737 173.079 329.621 171.874C332.869 167.513 333.879 161.637 331.733 156.163ZM292.574 163.347C287.467 165.356 281.683 162.831 279.686 157.712C277.678 152.605 280.203 146.821 285.321 144.824C290.428 142.815 296.212 145.34 298.209 150.447C300.206 155.566 297.693 161.339 292.574 163.347Z" fill="white"/>
<path d="M296.603 117.016L275.084 127.827C268.003 131.385 264.812 139.74 267.693 147.108L278.068 173.573C280.96 180.941 288.994 184.912 296.603 182.708L319.751 176.029C328.427 173.527 333.064 164.116 329.77 155.715L317.766 125.107C314.483 116.729 304.671 112.965 296.603 117.016ZM279.675 157.712C277.666 152.594 280.191 146.821 285.31 144.824C290.428 142.815 296.201 145.34 298.209 150.459C300.218 155.577 297.693 161.35 292.574 163.347C287.456 165.344 281.683 162.819 279.675 157.712Z" fill="#407BFF"/>
<path opacity="0.1" d="M296.603 117.016L275.084 127.827C268.003 131.385 264.812 139.74 267.693 147.108L278.068 173.573C280.96 180.941 288.994 184.912 296.603 182.708L319.751 176.029C328.427 173.527 333.064 164.116 329.77 155.715L317.766 125.107C314.483 116.729 304.671 112.965 296.603 117.016ZM279.675 157.712C277.666 152.594 280.191 146.821 285.31 144.824C290.428 142.815 296.201 145.34 298.209 150.459C300.218 155.577 297.693 161.35 292.574 163.347C287.456 165.344 281.683 162.819 279.675 157.712Z" fill="#407BFF"/>
<path d="M403.542 106.813L402.888 108.018L402.52 108.684L401.487 110.578L401.924 115.432C401.946 115.639 401.924 115.845 401.855 116.04C401.717 116.465 401.396 116.809 400.971 116.982L391.904 120.528C391.48 120.7 391.009 120.654 390.619 120.436C390.493 120.367 390.378 120.275 390.275 120.172L385.145 114.962L385.133 114.95L377.846 117.808L378.901 120.505L371.614 123.363L373.358 127.804L367.987 129.904C367.551 130.076 367.058 130.042 366.656 129.835C366.518 129.767 366.403 129.675 366.289 129.571L363.19 126.656L355.902 129.514L357.647 133.956L349.98 136.962L351.725 141.415C352.012 142.138 351.656 142.965 350.921 143.252L329.919 151.469L320.807 128.229L396.771 98.4927L397.964 99.1009L401.82 101.075C403.875 102.142 404.678 104.747 403.542 106.813Z" fill="#407BFF"/>
<g opacity="0.1">
<path d="M403.542 106.813L402.888 108.018L402.52 108.684L401.487 110.578L401.924 115.432C401.946 115.639 401.924 115.845 401.855 116.04C401.717 116.465 401.396 116.809 400.971 116.982L391.904 120.528C391.48 120.7 391.009 120.654 390.619 120.436C390.493 120.367 390.378 120.275 390.275 120.172L385.145 114.962L385.133 114.95L377.846 117.808L378.901 120.505L371.614 123.363L373.358 127.804L367.987 129.904C367.551 130.076 367.058 130.042 366.656 129.835C366.518 129.767 366.403 129.675 366.289 129.571L363.19 126.656L355.902 129.514L357.647 133.956L349.98 136.962L351.725 141.415C352.012 142.138 351.656 142.965 350.921 143.252L329.919 151.469L320.807 128.229L396.771 98.4927L397.964 99.1009L401.82 101.075C403.875 102.142 404.678 104.747 403.542 106.813Z" fill="white"/>
</g>
<path d="M403.244 104.162L322.035 135.952L319.671 129.985L397.092 99.6863L400.948 101.66C402.417 102.406 403.255 103.106 403.244 104.162Z" fill="#407BFF"/>
<path opacity="0.1" d="M403.244 104.162L322.035 135.952L319.671 129.985L397.092 99.6863L400.948 101.66C402.417 102.406 403.255 103.106 403.244 104.162Z" fill="black"/>
<path d="M401.637 108.649L400.857 110.417C400.845 110.451 400.834 110.474 400.845 110.509L401.281 115.317C401.293 115.49 401.281 115.662 401.235 115.834C401.224 115.891 401.178 115.937 401.121 115.96L391.262 119.839C391.205 119.862 391.147 119.862 391.101 119.828C391.01 119.77 390.918 119.701 390.837 119.61L385.191 113.94C385.134 113.883 385.065 113.871 384.996 113.894L376.985 117.05C376.893 117.085 376.847 117.2 376.882 117.291L377.834 119.701C377.869 119.793 377.823 119.908 377.731 119.942L370.903 122.628C370.811 122.662 370.765 122.777 370.799 122.869L372.44 127.035C372.475 127.127 372.429 127.242 372.337 127.276L367.333 129.25C367.287 129.273 367.219 129.273 367.173 129.239C367.069 129.181 366.966 129.101 366.874 129.02L363.213 125.646C363.156 125.6 363.087 125.589 363.018 125.612L355.065 128.745C354.973 128.779 354.927 128.894 354.961 128.986L356.649 133.255C356.683 133.347 356.637 133.462 356.545 133.496L326.006 145.512C325.914 145.547 325.799 145.501 325.765 145.409L322.712 137.766C322.678 137.674 322.724 137.559 322.815 137.525L402.394 106.205C402.544 106.148 402.704 106.297 402.635 106.457L401.637 108.649Z" fill="#407BFF"/>
<path opacity="0.1" d="M401.637 108.649L400.857 110.417C400.845 110.451 400.834 110.474 400.845 110.509L401.281 115.317C401.293 115.49 401.281 115.662 401.235 115.834C401.224 115.891 401.178 115.937 401.121 115.96L391.262 119.839C391.205 119.862 391.147 119.862 391.101 119.828C391.01 119.77 390.918 119.701 390.837 119.61L385.191 113.94C385.134 113.883 385.065 113.871 384.996 113.894L376.985 117.05C376.893 117.085 376.847 117.2 376.882 117.291L377.834 119.701C377.869 119.793 377.823 119.908 377.731 119.942L370.903 122.628C370.811 122.662 370.765 122.777 370.799 122.869L372.44 127.035C372.475 127.127 372.429 127.242 372.337 127.276L367.333 129.25C367.287 129.273 367.219 129.273 367.173 129.239C367.069 129.181 366.966 129.101 366.874 129.02L363.213 125.646C363.156 125.6 363.087 125.589 363.018 125.612L355.065 128.745C354.973 128.779 354.927 128.894 354.961 128.986L356.649 133.255C356.683 133.347 356.637 133.462 356.545 133.496L326.006 145.512C325.914 145.547 325.799 145.501 325.765 145.409L322.712 137.766C322.678 137.674 322.724 137.559 322.815 137.525L402.394 106.205C402.544 106.148 402.704 106.297 402.635 106.457L401.637 108.649Z" fill="black"/>
<path opacity="0.3" d="M284.702 142.333C278.286 144.847 275.119 152.089 277.632 158.504C280.145 164.92 287.387 168.087 293.814 165.574C300.229 163.06 303.397 155.819 300.884 149.403C298.37 142.988 291.128 139.82 284.702 142.333ZM292.575 163.347C287.456 165.356 281.683 162.831 279.675 157.712C277.666 152.594 280.191 146.821 285.31 144.824C290.428 142.815 296.201 145.34 298.21 150.459C300.218 155.566 297.693 161.339 292.575 163.347Z" fill="white"/>
<path opacity="0.1" d="M329.621 171.863C328.725 173.068 327.67 174.158 326.453 175.076L285.218 120.459L285.183 120.413C285.183 120.413 288.81 118.588 289.636 118.049C289.636 118.095 289.659 118.152 289.693 118.221C291.507 122.077 323.917 164.151 329.621 171.863Z" fill="white"/>
<path opacity="0.1" d="M323.664 176.798C323.4 176.924 311.396 180.574 311.396 180.574L298.003 162.842C301.468 159.445 302.765 154.189 300.883 149.392C298.37 142.976 291.128 139.809 284.701 142.322C284.139 142.54 283.611 142.792 283.094 143.091L271.25 127.402C271.25 127.402 281.66 122.444 282.819 121.721C283.129 123.913 323.664 176.339 323.664 176.798Z" fill="white"/>
<path d="M274.51 90.654C273.167 92.2493 272.617 94.4872 273.076 96.5186C273.523 98.55 274.969 100.34 276.863 101.224C277.838 101.683 278.917 101.901 279.893 102.372C280.857 102.854 281.763 103.692 281.867 104.77C281.982 105.964 281.109 107.066 281.19 108.259C281.27 109.35 282.119 110.21 282.98 110.887C283.841 111.564 284.805 112.196 285.275 113.183C285.746 114.17 285.447 115.627 284.392 115.914C284.174 116.258 284.082 117.073 284.369 117.36C284.656 117.647 285.149 117.716 285.493 117.498C287.112 116.499 288.225 114.629 288.236 112.724C288.248 110.819 287.054 108.971 285.321 108.19C285.011 107.559 285.252 106.756 285.516 106.102C286.044 104.793 286.572 103.473 287.089 102.165C287.295 101.649 287.112 100.708 286.756 100.283C286.4 99.8583 285.872 99.6173 285.356 99.3992L281.97 97.9532C280.696 97.4023 276.897 92.3296 281.396 90.8492C280.811 89.5408 279.79 89.1391 278.389 88.8752C276.989 88.6112 275.428 89.5523 274.51 90.654Z" fill="#263238"/>
<path d="M280.65 85.1912C280.535 86.5225 280.421 87.8653 280.317 89.1966C281.442 87.3603 283.519 83.7911 283.439 83.9288C282.555 84.3993 281.534 84.7092 280.65 85.1912Z" fill="#263238"/>
<path d="M282.165 87.3832C283.737 85.9372 285.298 84.4796 286.87 83.0336C285.665 82.586 284.196 82.9188 283.313 83.8599C283.336 83.7566 282.601 85.9831 282.165 87.3832Z" fill="#263238"/>
<path d="M272.605 195.964C266.488 203.561 268.519 209.38 260.072 222.831C270.723 230.727 282.406 232.035 296.935 230.91C298.657 227.869 299.517 224.701 301.239 221.66C303.695 224.713 305.68 227.284 308.136 230.336C315.745 229.143 324.789 227.008 330.803 223.129C325.489 217.035 322.184 209.426 318.787 202.701C317.192 199.556 317.857 198.225 313.622 194.093C300.137 194.713 286.767 195.046 273.282 195.665C273.649 195.677 272.249 195.941 272.605 195.964Z" fill="#263238"/>
<path d="M274.281 194.69L273.431 198.236C273.305 198.512 273.638 198.775 274.097 198.753L311.258 197.111C311.614 197.123 311.901 196.905 311.912 196.687L312.108 193.163C312.108 192.922 311.798 192.727 311.407 192.75L274.889 194.357C274.659 194.357 274.418 194.483 274.281 194.69Z" fill="#407BFF"/>
<path d="M274.281 194.69L273.431 198.236C273.305 198.512 273.638 198.775 274.097 198.753L311.258 197.111C311.614 197.123 311.901 196.905 311.912 196.687L312.108 193.163C312.108 192.922 311.798 192.727 311.407 192.75L274.889 194.357C274.659 194.357 274.418 194.483 274.281 194.69Z" fill="#407BFF"/>
<path d="M282.475 198.764L281.396 198.81C281.19 198.81 281.017 198.718 281.029 198.592L281.316 194.013C281.316 193.886 281.499 193.772 281.717 193.76L282.796 193.703C283.003 193.703 283.175 193.795 283.164 193.932L282.877 198.5C282.865 198.626 282.682 198.753 282.475 198.764Z" fill="#263238"/>
<path d="M309.307 197.605L308.229 197.651C308.022 197.651 307.85 197.559 307.861 197.433L308.148 192.865C308.148 192.727 308.332 192.613 308.539 192.601L309.617 192.555C309.824 192.555 309.996 192.647 309.985 192.773L309.698 197.341C309.698 197.479 309.526 197.593 309.307 197.605Z" fill="#263238"/>
<path d="M287.272 176.476C287.341 176.809 290.233 181.411 292.494 181.09C292.517 181.09 292.528 181.09 292.551 181.079C293.205 180.987 293.871 181.251 294.273 181.779C295.179 182.961 295.73 183.638 296.339 184.418C297.337 185.681 299.07 186.082 300.516 185.405C300.952 185.21 301.377 184.981 301.801 184.763C303.202 184.017 303.913 182.41 303.534 180.872C303.121 179.185 302.467 177.555 301.606 176.04C301.308 175.524 300.975 175.007 300.459 174.709C299.942 174.411 294.961 172.907 293.033 172.965C291.025 173.022 289.12 175.662 287.272 176.476Z" fill="#E8BFBF"/>
<path d="M293.09 172.815C293.09 172.815 262.586 163.577 255.998 169.728C252.13 173.343 253.955 176.763 256.124 178.955C257.731 180.597 261.243 180.195 263.527 180.08L287.559 177.727L293.09 172.815Z" fill="#E8BFBF"/>
<path d="M275.554 168.592C275.394 166.939 274.108 165.574 272.628 164.828C271.147 164.093 269.46 163.864 267.819 163.657C263.986 163.175 260.153 162.681 256.319 162.199C254.368 164.655 252.968 168.041 253.037 171.186C253.094 174.319 254.277 177.429 256.319 179.816C258.156 176.27 260.577 172.62 264.158 170.853C267.727 169.085 271.629 167.88 275.554 168.592Z" fill="#263238"/>
<path opacity="0.1" d="M267.693 112.873C267.658 112.804 267.658 112.77 267.693 112.758C267.934 112.689 267.899 112.735 267.693 112.873Z" fill="white"/>
<path d="M343.484 63.4772L351.989 79.2347L386.671 49.7856C386.981 49.5216 386.625 49.0511 386.292 49.2806L353.779 70.7419L348.764 60.9638L343.484 63.4772Z" fill="#407BFF"/>
<path d="M398.205 63.5576C398.205 77.605 383.457 88.9899 365.278 88.9899C358.301 88.9899 351.828 87.3257 346.503 84.4451L327.165 92.846L339.364 79.2577C334.969 74.9539 332.34 69.5025 332.34 63.5691C332.34 49.5217 347.088 38.1368 365.267 38.1368C383.457 38.1254 398.205 49.5102 398.205 63.5576Z" stroke="#407BFF" stroke-width="1.3" stroke-miterlimit="10"/>
</g>
<defs>
<clipPath id="clip0_612_91">
<rect width="573.832" height="427" fill="white"/>
</clipPath>
</defs>
</svg>
