<svg width="500" height="373" viewBox="0 0 500 373" fill="none" xmlns="http://www.w3.org/2000/svg">
<g clip-path="url(#clip0_612_705)">
<path d="M500 327.45H0V327.7H500V327.45Z" fill="#EBEBEB"/>
<path d="M449.9 343.54H416.78V343.79H449.9V343.54Z" fill="#EBEBEB"/>
<path d="M331.22 346.26H322.53V346.51H331.22V346.26Z" fill="#EBEBEB"/>
<path d="M415.78 334.26H396.59V334.51H415.78V334.26Z" fill="#EBEBEB"/>
<path d="M95.65 335.94H52.46V336.19H95.65V335.94Z" fill="#EBEBEB"/>
<path d="M110.89 335.94H104.56V336.19H110.89V335.94Z" fill="#EBEBEB"/>
<path d="M225.15 340.16H131.47V340.41H225.15V340.16Z" fill="#EBEBEB"/>
<path d="M237.01 282.85H43.92C40.77 282.85 38.21 280.29 38.21 277.14V5.71C38.21 2.56 40.77 0 43.92 0H237.02C240.17 0 242.73 2.56 242.73 5.71V277.14C242.72 280.29 240.16 282.85 237.01 282.85ZM43.92 0.25C40.91 0.25 38.46 2.7 38.46 5.71V277.14C38.46 280.15 40.91 282.6 43.92 282.6H237.02C240.03 282.6 242.48 280.15 242.48 277.14V5.71C242.48 2.7 240.03 0.25 237.02 0.25H43.92Z" fill="#EBEBEB"/>
<path d="M453.31 282.85H260.21C257.06 282.85 254.5 280.29 254.5 277.14V5.71C254.5 2.56 257.06 0 260.21 0H453.31C456.46 0 459.02 2.56 459.02 5.71V277.14C459.02 280.29 456.46 282.85 453.31 282.85ZM260.21 0.25C257.2 0.25 254.75 2.7 254.75 5.71V277.14C254.75 280.15 257.2 282.6 260.21 282.6H453.31C456.32 282.6 458.77 280.15 458.77 277.14V5.71C458.77 2.7 456.32 0.25 453.31 0.25H260.21Z" fill="#EBEBEB"/>
<path d="M248.86 47.72H79.3398V237.64H248.86V47.72Z" fill="#EBEBEB"/>
<path d="M248.86 50.78H82.6699V234.27H248.86V50.78Z" fill="#FAFAFA"/>
<path d="M88.8099 148.18V135.28H92.4899V126.69H97.3999V113.8H98.6299V126.69H103.54V135.28H107.22V148.18H113.98V151.86H117.05V165.98H117.66V145.72H119.5V158.61H121.34V127.92H122.57V140.81H127.48V136.51H129.33V118.71H133.01V100.91H134.24V103.36H159.41V95.99H163.7V67.75H165.55V95.99H171.68V103.36H174.14V140.2H187.03V129.15H182.74V127.3H187.03V124.23H199.31V95.99H202.38V91.7H217.11V95.99H218.96V135.28H225.71V153.09H229.39V138.97H232.46V135.28H239.21V122.39H242.9V113.8H247.2V100.91H248.86V234.27H82.6699V148.18H88.8099Z" fill="#F0F0F0"/>
<path d="M150.01 105.29H148.27V107.03H150.01V105.29Z" fill="#FAFAFA"/>
<path d="M150.01 108.2H148.27V109.94H150.01V108.2Z" fill="#FAFAFA"/>
<path d="M150.01 119.87H148.27V121.61H150.01V119.87Z" fill="#FAFAFA"/>
<path d="M150.01 122.78H148.27V124.52H150.01V122.78Z" fill="#FAFAFA"/>
<path d="M150.01 125.7H148.27V127.44H150.01V125.7Z" fill="#FAFAFA"/>
<path d="M150.01 134.45H148.27V136.19H150.01V134.45Z" fill="#FAFAFA"/>
<path d="M150.01 137.36H148.27V139.1H150.01V137.36Z" fill="#FAFAFA"/>
<path d="M152.77 116.95H151.03V118.69H152.77V116.95Z" fill="#FAFAFA"/>
<path d="M152.77 119.87H151.03V121.61H152.77V119.87Z" fill="#FAFAFA"/>
<path d="M152.77 122.78H151.03V124.52H152.77V122.78Z" fill="#FAFAFA"/>
<path d="M152.77 125.7H151.03V127.44H152.77V125.7Z" fill="#FAFAFA"/>
<path d="M152.77 128.61H151.03V130.35H152.77V128.61Z" fill="#FAFAFA"/>
<path d="M152.77 134.45H151.03V136.19H152.77V134.45Z" fill="#FAFAFA"/>
<path d="M152.77 137.36H151.03V139.1H152.77V137.36Z" fill="#FAFAFA"/>
<path d="M155.53 105.29H153.79V107.03H155.53V105.29Z" fill="#FAFAFA"/>
<path d="M155.53 108.2H153.79V109.94H155.53V108.2Z" fill="#FAFAFA"/>
<path d="M155.53 111.12H153.79V112.86H155.53V111.12Z" fill="#FAFAFA"/>
<path d="M155.53 114.03H153.79V115.77H155.53V114.03Z" fill="#FAFAFA"/>
<path d="M155.53 116.95H153.79V118.69H155.53V116.95Z" fill="#FAFAFA"/>
<path d="M155.53 119.87H153.79V121.61H155.53V119.87Z" fill="#FAFAFA"/>
<path d="M155.53 122.78H153.79V124.52H155.53V122.78Z" fill="#FAFAFA"/>
<path d="M155.53 125.7H153.79V127.44H155.53V125.7Z" fill="#FAFAFA"/>
<path d="M155.53 128.61H153.79V130.35H155.53V128.61Z" fill="#FAFAFA"/>
<path d="M155.53 131.53H153.79V133.27H155.53V131.53Z" fill="#FAFAFA"/>
<path d="M155.53 137.36H153.79V139.1H155.53V137.36Z" fill="#FAFAFA"/>
<path d="M158.29 105.29H156.55V107.03H158.29V105.29Z" fill="#FAFAFA"/>
<path d="M158.29 108.2H156.55V109.94H158.29V108.2Z" fill="#FAFAFA"/>
<path d="M158.29 111.12H156.55V112.86H158.29V111.12Z" fill="#FAFAFA"/>
<path d="M158.29 114.03H156.55V115.77H158.29V114.03Z" fill="#FAFAFA"/>
<path d="M158.29 116.95H156.55V118.69H158.29V116.95Z" fill="#FAFAFA"/>
<path d="M158.29 119.87H156.55V121.61H158.29V119.87Z" fill="#FAFAFA"/>
<path d="M158.29 122.78H156.55V124.52H158.29V122.78Z" fill="#FAFAFA"/>
<path d="M158.29 149.03H156.55V150.77H158.29V149.03Z" fill="#FAFAFA"/>
<path d="M161.06 105.29H159.32V107.03H161.06V105.29Z" fill="#FAFAFA"/>
<path d="M161.06 108.2H159.32V109.94H161.06V108.2Z" fill="#FAFAFA"/>
<path d="M161.06 111.12H159.32V112.86H161.06V111.12Z" fill="#FAFAFA"/>
<path d="M161.06 114.03H159.32V115.77H161.06V114.03Z" fill="#FAFAFA"/>
<path d="M161.06 116.95H159.32V118.69H161.06V116.95Z" fill="#FAFAFA"/>
<path d="M161.06 119.87H159.32V121.61H161.06V119.87Z" fill="#FAFAFA"/>
<path d="M161.06 122.78H159.32V124.52H161.06V122.78Z" fill="#FAFAFA"/>
<path d="M161.06 125.7H159.32V127.44H161.06V125.7Z" fill="#FAFAFA"/>
<path d="M161.06 143.19H159.32V144.93H161.06V143.19Z" fill="#FAFAFA"/>
<path d="M161.06 146.11H159.32V147.85H161.06V146.11Z" fill="#FAFAFA"/>
<path d="M161.06 149.03H159.32V150.77H161.06V149.03Z" fill="#FAFAFA"/>
<path d="M161.06 151.94H159.32V153.68H161.06V151.94Z" fill="#FAFAFA"/>
<path d="M161.06 163.61H159.32V165.35H161.06V163.61Z" fill="#FAFAFA"/>
<path d="M163.82 105.29H162.08V107.03H163.82V105.29Z" fill="#FAFAFA"/>
<path d="M163.82 108.2H162.08V109.94H163.82V108.2Z" fill="#FAFAFA"/>
<path d="M163.82 111.12H162.08V112.86H163.82V111.12Z" fill="#FAFAFA"/>
<path d="M163.82 114.03H162.08V115.77H163.82V114.03Z" fill="#FAFAFA"/>
<path d="M163.82 116.95H162.08V118.69H163.82V116.95Z" fill="#FAFAFA"/>
<path d="M163.82 119.87H162.08V121.61H163.82V119.87Z" fill="#FAFAFA"/>
<path d="M163.82 122.78H162.08V124.52H163.82V122.78Z" fill="#FAFAFA"/>
<path d="M163.82 125.7H162.08V127.44H163.82V125.7Z" fill="#FAFAFA"/>
<path d="M163.82 128.61H162.08V130.35H163.82V128.61Z" fill="#FAFAFA"/>
<path d="M163.82 131.53H162.08V133.27H163.82V131.53Z" fill="#FAFAFA"/>
<path d="M163.82 140.28H162.08V142.02H163.82V140.28Z" fill="#FAFAFA"/>
<path d="M163.82 143.19H162.08V144.93H163.82V143.19Z" fill="#FAFAFA"/>
<path d="M163.82 146.11H162.08V147.85H163.82V146.11Z" fill="#FAFAFA"/>
<path d="M163.82 149.03H162.08V150.77H163.82V149.03Z" fill="#FAFAFA"/>
<path d="M163.82 151.94H162.08V153.68H163.82V151.94Z" fill="#FAFAFA"/>
<path d="M163.82 163.61H162.08V165.35H163.82V163.61Z" fill="#FAFAFA"/>
<path d="M166.58 105.29H164.84V107.03H166.58V105.29Z" fill="#FAFAFA"/>
<path d="M166.58 108.2H164.84V109.94H166.58V108.2Z" fill="#FAFAFA"/>
<path d="M166.58 111.12H164.84V112.86H166.58V111.12Z" fill="#FAFAFA"/>
<path d="M166.58 114.03H164.84V115.77H166.58V114.03Z" fill="#FAFAFA"/>
<path d="M166.58 116.95H164.84V118.69H166.58V116.95Z" fill="#FAFAFA"/>
<path d="M166.58 119.87H164.84V121.61H166.58V119.87Z" fill="#FAFAFA"/>
<path d="M166.58 122.78H164.84V124.52H166.58V122.78Z" fill="#FAFAFA"/>
<path d="M166.58 125.7H164.84V127.44H166.58V125.7Z" fill="#FAFAFA"/>
<path d="M166.58 128.61H164.84V130.35H166.58V128.61Z" fill="#FAFAFA"/>
<path d="M166.58 131.53H164.84V133.27H166.58V131.53Z" fill="#FAFAFA"/>
<path d="M166.58 134.45H164.84V136.19H166.58V134.45Z" fill="#FAFAFA"/>
<path d="M166.58 137.36H164.84V139.1H166.58V137.36Z" fill="#FAFAFA"/>
<path d="M166.58 140.28H164.84V142.02H166.58V140.28Z" fill="#FAFAFA"/>
<path d="M166.58 143.19H164.84V144.93H166.58V143.19Z" fill="#FAFAFA"/>
<path d="M166.58 146.11H164.84V147.85H166.58V146.11Z" fill="#FAFAFA"/>
<path d="M166.58 149.03H164.84V150.77H166.58V149.03Z" fill="#FAFAFA"/>
<path d="M166.58 151.94H164.84V153.68H166.58V151.94Z" fill="#FAFAFA"/>
<path d="M166.58 154.86H164.84V156.6H166.58V154.86Z" fill="#FAFAFA"/>
<path d="M169.35 105.29H167.61V107.03H169.35V105.29Z" fill="#FAFAFA"/>
<path d="M169.35 108.2H167.61V109.94H169.35V108.2Z" fill="#FAFAFA"/>
<path d="M169.35 111.12H167.61V112.86H169.35V111.12Z" fill="#FAFAFA"/>
<path d="M169.35 114.03H167.61V115.77H169.35V114.03Z" fill="#FAFAFA"/>
<path d="M169.35 116.95H167.61V118.69H169.35V116.95Z" fill="#FAFAFA"/>
<path d="M169.35 119.87H167.61V121.61H169.35V119.87Z" fill="#FAFAFA"/>
<path d="M169.35 122.78H167.61V124.52H169.35V122.78Z" fill="#FAFAFA"/>
<path d="M169.35 125.7H167.61V127.44H169.35V125.7Z" fill="#FAFAFA"/>
<path d="M169.35 128.61H167.61V130.35H169.35V128.61Z" fill="#FAFAFA"/>
<path d="M169.35 131.53H167.61V133.27H169.35V131.53Z" fill="#FAFAFA"/>
<path d="M169.35 140.28H167.61V142.02H169.35V140.28Z" fill="#FAFAFA"/>
<path d="M169.35 143.19H167.61V144.93H169.35V143.19Z" fill="#FAFAFA"/>
<path d="M169.35 146.11H167.61V147.85H169.35V146.11Z" fill="#FAFAFA"/>
<path d="M169.35 149.03H167.61V150.77H169.35V149.03Z" fill="#FAFAFA"/>
<path d="M172.11 105.29H170.37V107.03H172.11V105.29Z" fill="#FAFAFA"/>
<path d="M172.11 108.2H170.37V109.94H172.11V108.2Z" fill="#FAFAFA"/>
<path d="M172.11 111.12H170.37V112.86H172.11V111.12Z" fill="#FAFAFA"/>
<path d="M172.11 114.03H170.37V115.77H172.11V114.03Z" fill="#FAFAFA"/>
<path d="M172.11 116.95H170.37V118.69H172.11V116.95Z" fill="#FAFAFA"/>
<path d="M172.11 119.87H170.37V121.61H172.11V119.87Z" fill="#FAFAFA"/>
<path d="M172.11 122.78H170.37V124.52H172.11V122.78Z" fill="#FAFAFA"/>
<path d="M172.11 125.7H170.37V127.44H172.11V125.7Z" fill="#FAFAFA"/>
<path d="M172.11 128.61H170.37V130.35H172.11V128.61Z" fill="#FAFAFA"/>
<path d="M172.11 131.53H170.37V133.27H172.11V131.53Z" fill="#FAFAFA"/>
<path d="M172.11 140.28H170.37V142.02H172.11V140.28Z" fill="#FAFAFA"/>
<path d="M172.11 143.19H170.37V144.93H172.11V143.19Z" fill="#FAFAFA"/>
<path d="M172.11 146.11H170.37V147.85H172.11V146.11Z" fill="#FAFAFA"/>
<path d="M203.21 97.71H201.47V99.45H203.21V97.71Z" fill="#FAFAFA"/>
<path d="M203.21 100.63H201.47V102.37H203.21V100.63Z" fill="#FAFAFA"/>
<path d="M203.21 103.55H201.47V105.29H203.21V103.55Z" fill="#FAFAFA"/>
<path d="M203.21 106.46H201.47V108.2H203.21V106.46Z" fill="#FAFAFA"/>
<path d="M203.21 109.38H201.47V111.12H203.21V109.38Z" fill="#FAFAFA"/>
<path d="M203.21 112.29H201.47V114.03H203.21V112.29Z" fill="#FAFAFA"/>
<path d="M203.21 115.21H201.47V116.95H203.21V115.21Z" fill="#FAFAFA"/>
<path d="M203.21 118.13H201.47V119.87H203.21V118.13Z" fill="#FAFAFA"/>
<path d="M203.21 126.87H201.47V128.61H203.21V126.87Z" fill="#FAFAFA"/>
<path d="M203.21 129.79H201.47V131.53H203.21V129.79Z" fill="#FAFAFA"/>
<path d="M205.98 97.71H204.24V99.45H205.98V97.71Z" fill="#FAFAFA"/>
<path d="M205.98 100.63H204.24V102.37H205.98V100.63Z" fill="#FAFAFA"/>
<path d="M205.98 103.55H204.24V105.29H205.98V103.55Z" fill="#FAFAFA"/>
<path d="M205.98 106.46H204.24V108.2H205.98V106.46Z" fill="#FAFAFA"/>
<path d="M205.98 109.38H204.24V111.12H205.98V109.38Z" fill="#FAFAFA"/>
<path d="M205.98 112.29H204.24V114.03H205.98V112.29Z" fill="#FAFAFA"/>
<path d="M205.98 115.21H204.24V116.95H205.98V115.21Z" fill="#FAFAFA"/>
<path d="M205.98 118.13H204.24V119.87H205.98V118.13Z" fill="#FAFAFA"/>
<path d="M205.98 129.79H204.24V131.53H205.98V129.79Z" fill="#FAFAFA"/>
<path d="M208.74 97.71H207V99.45H208.74V97.71Z" fill="#FAFAFA"/>
<path d="M208.74 100.63H207V102.37H208.74V100.63Z" fill="#FAFAFA"/>
<path d="M208.74 103.55H207V105.29H208.74V103.55Z" fill="#FAFAFA"/>
<path d="M208.74 106.46H207V108.2H208.74V106.46Z" fill="#FAFAFA"/>
<path d="M208.74 109.38H207V111.12H208.74V109.38Z" fill="#FAFAFA"/>
<path d="M208.74 112.29H207V114.03H208.74V112.29Z" fill="#FAFAFA"/>
<path d="M208.74 115.21H207V116.95H208.74V115.21Z" fill="#FAFAFA"/>
<path d="M208.74 118.13H207V119.87H208.74V118.13Z" fill="#FAFAFA"/>
<path d="M211.5 97.71H209.76V99.45H211.5V97.71Z" fill="#FAFAFA"/>
<path d="M211.5 100.63H209.76V102.37H211.5V100.63Z" fill="#FAFAFA"/>
<path d="M211.5 103.55H209.76V105.29H211.5V103.55Z" fill="#FAFAFA"/>
<path d="M211.5 106.46H209.76V108.2H211.5V106.46Z" fill="#FAFAFA"/>
<path d="M211.5 109.38H209.76V111.12H211.5V109.38Z" fill="#FAFAFA"/>
<path d="M211.5 112.29H209.76V114.03H211.5V112.29Z" fill="#FAFAFA"/>
<path d="M211.5 118.13H209.76V119.87H211.5V118.13Z" fill="#FAFAFA"/>
<path d="M211.5 121.04H209.76V122.78H211.5V121.04Z" fill="#FAFAFA"/>
<path d="M211.5 129.79H209.76V131.53H211.5V129.79Z" fill="#FAFAFA"/>
<path d="M211.5 132.71H209.76V134.45H211.5V132.71Z" fill="#FAFAFA"/>
<path d="M211.5 135.62H209.76V137.36H211.5V135.62Z" fill="#FAFAFA"/>
<path d="M211.5 138.54H209.76V140.28H211.5V138.54Z" fill="#FAFAFA"/>
<path d="M211.5 141.46H209.76V143.2H211.5V141.46Z" fill="#FAFAFA"/>
<path d="M211.5 144.37H209.76V146.11H211.5V144.37Z" fill="#FAFAFA"/>
<path d="M211.5 147.29H209.76V149.03H211.5V147.29Z" fill="#FAFAFA"/>
<path d="M214.26 97.71H212.52V99.45H214.26V97.71Z" fill="#FAFAFA"/>
<path d="M214.26 100.63H212.52V102.37H214.26V100.63Z" fill="#FAFAFA"/>
<path d="M214.26 103.55H212.52V105.29H214.26V103.55Z" fill="#FAFAFA"/>
<path d="M214.26 106.46H212.52V108.2H214.26V106.46Z" fill="#FAFAFA"/>
<path d="M214.26 109.38H212.52V111.12H214.26V109.38Z" fill="#FAFAFA"/>
<path d="M214.26 112.29H212.52V114.03H214.26V112.29Z" fill="#FAFAFA"/>
<path d="M214.26 121.04H212.52V122.78H214.26V121.04Z" fill="#FAFAFA"/>
<path d="M214.26 123.96H212.52V125.7H214.26V123.96Z" fill="#FAFAFA"/>
<path d="M214.26 126.87H212.52V128.61H214.26V126.87Z" fill="#FAFAFA"/>
<path d="M214.26 129.79H212.52V131.53H214.26V129.79Z" fill="#FAFAFA"/>
<path d="M214.26 132.71H212.52V134.45H214.26V132.71Z" fill="#FAFAFA"/>
<path d="M214.26 135.62H212.52V137.36H214.26V135.62Z" fill="#FAFAFA"/>
<path d="M214.26 138.54H212.52V140.28H214.26V138.54Z" fill="#FAFAFA"/>
<path d="M214.26 141.46H212.52V143.2H214.26V141.46Z" fill="#FAFAFA"/>
<path d="M214.26 144.37H212.52V146.11H214.26V144.37Z" fill="#FAFAFA"/>
<path d="M214.26 147.29H212.52V149.03H214.26V147.29Z" fill="#FAFAFA"/>
<path d="M214.26 150.2H212.52V151.94H214.26V150.2Z" fill="#FAFAFA"/>
<path d="M214.26 156.04H212.52V157.78H214.26V156.04Z" fill="#FAFAFA"/>
<path d="M217.03 97.71H215.29V99.45H217.03V97.71Z" fill="#FAFAFA"/>
<path d="M217.03 100.63H215.29V102.37H217.03V100.63Z" fill="#FAFAFA"/>
<path d="M217.03 103.55H215.29V105.29H217.03V103.55Z" fill="#FAFAFA"/>
<path d="M217.03 106.46H215.29V108.2H217.03V106.46Z" fill="#FAFAFA"/>
<path d="M217.03 109.38H215.29V111.12H217.03V109.38Z" fill="#FAFAFA"/>
<path d="M217.03 112.29H215.29V114.03H217.03V112.29Z" fill="#FAFAFA"/>
<path d="M217.03 121.04H215.29V122.78H217.03V121.04Z" fill="#FAFAFA"/>
<path d="M217.03 123.96H215.29V125.7H217.03V123.96Z" fill="#FAFAFA"/>
<path d="M217.03 126.87H215.29V128.61H217.03V126.87Z" fill="#FAFAFA"/>
<path d="M217.03 129.79H215.29V131.53H217.03V129.79Z" fill="#FAFAFA"/>
<path d="M217.03 138.54H215.29V140.28H217.03V138.54Z" fill="#FAFAFA"/>
<path d="M217.03 141.46H215.29V143.2H217.03V141.46Z" fill="#FAFAFA"/>
<path d="M217.03 144.37H215.29V146.11H217.03V144.37Z" fill="#FAFAFA"/>
<path d="M217.03 147.29H215.29V149.03H217.03V147.29Z" fill="#FAFAFA"/>
<path d="M217.03 150.2H215.29V151.94H217.03V150.2Z" fill="#FAFAFA"/>
<path d="M217.03 156.04H215.29V157.78H217.03V156.04Z" fill="#FAFAFA"/>
<path d="M217.03 158.95H215.29V160.69H217.03V158.95Z" fill="#FAFAFA"/>
<path d="M242.09 124.83H240.35V126.57H242.09V124.83Z" fill="#FAFAFA"/>
<path d="M242.09 127.74H240.35V129.48H242.09V127.74Z" fill="#FAFAFA"/>
<path d="M242.09 130.66H240.35V132.4H242.09V130.66Z" fill="#FAFAFA"/>
<path d="M242.09 133.58H240.35V135.32H242.09V133.58Z" fill="#FAFAFA"/>
<path d="M242.09 136.49H240.35V138.23H242.09V136.49Z" fill="#FAFAFA"/>
<path d="M242.09 139.41H240.35V141.15H242.09V139.41Z" fill="#FAFAFA"/>
<path d="M242.09 142.32H240.35V144.06H242.09V142.32Z" fill="#FAFAFA"/>
<path d="M242.09 151.07H240.35V152.81H242.09V151.07Z" fill="#FAFAFA"/>
<path d="M242.09 153.99H240.35V155.73H242.09V153.99Z" fill="#FAFAFA"/>
<path d="M242.09 156.91H240.35V158.65H242.09V156.91Z" fill="#FAFAFA"/>
<path d="M244.86 124.83H243.12V126.57H244.86V124.83Z" fill="#FAFAFA"/>
<path d="M244.86 127.74H243.12V129.48H244.86V127.74Z" fill="#FAFAFA"/>
<path d="M244.86 130.66H243.12V132.4H244.86V130.66Z" fill="#FAFAFA"/>
<path d="M244.86 133.58H243.12V135.32H244.86V133.58Z" fill="#FAFAFA"/>
<path d="M244.86 136.49H243.12V138.23H244.86V136.49Z" fill="#FAFAFA"/>
<path d="M244.86 139.41H243.12V141.15H244.86V139.41Z" fill="#FAFAFA"/>
<path d="M244.86 142.32H243.12V144.06H244.86V142.32Z" fill="#FAFAFA"/>
<path d="M248.38 124.83H245.88V126.57H248.38V124.83Z" fill="#FAFAFA"/>
<path d="M248.38 127.74H245.88V129.48H248.38V127.74Z" fill="#FAFAFA"/>
<path d="M248.38 130.66H245.88V132.4H248.38V130.66Z" fill="#FAFAFA"/>
<path d="M248.38 133.58H245.88V135.32H248.38V133.58Z" fill="#FAFAFA"/>
<path d="M248.38 136.49H245.88V138.23H248.38V136.49Z" fill="#FAFAFA"/>
<path d="M248.38 139.41H245.88V141.15H248.38V139.41Z" fill="#FAFAFA"/>
<path d="M248.38 142.32H245.88V144.06H248.38V142.32Z" fill="#FAFAFA"/>
<path d="M95.6799 128.61H93.9399V130.35H95.6799V128.61Z" fill="#FAFAFA"/>
<path d="M95.6799 131.53H93.9399V133.27H95.6799V131.53Z" fill="#FAFAFA"/>
<path d="M95.6799 134.45H93.9399V136.19H95.6799V134.45Z" fill="#FAFAFA"/>
<path d="M95.6799 137.36H93.9399V139.1H95.6799V137.36Z" fill="#FAFAFA"/>
<path d="M95.6799 140.28H93.9399V142.02H95.6799V140.28Z" fill="#FAFAFA"/>
<path d="M95.6799 143.19H93.9399V144.93H95.6799V143.19Z" fill="#FAFAFA"/>
<path d="M95.6799 146.11H93.9399V147.85H95.6799V146.11Z" fill="#FAFAFA"/>
<path d="M95.6799 149.03H93.9399V150.77H95.6799V149.03Z" fill="#FAFAFA"/>
<path d="M95.6799 151.94H93.9399V153.68H95.6799V151.94Z" fill="#FAFAFA"/>
<path d="M95.6799 154.86H93.9399V156.6H95.6799V154.86Z" fill="#FAFAFA"/>
<path d="M95.6799 157.77H93.9399V159.51H95.6799V157.77Z" fill="#FAFAFA"/>
<path d="M95.6799 160.69H93.9399V162.43H95.6799V160.69Z" fill="#FAFAFA"/>
<path d="M95.6799 163.61H93.9399V165.35H95.6799V163.61Z" fill="#FAFAFA"/>
<path d="M95.6799 166.52H93.9399V168.26H95.6799V166.52Z" fill="#FAFAFA"/>
<path d="M95.6799 169.44H93.9399V171.18H95.6799V169.44Z" fill="#FAFAFA"/>
<path d="M95.6799 172.36H93.9399V174.1H95.6799V172.36Z" fill="#FAFAFA"/>
<path d="M95.6799 175.27H93.9399V177.01H95.6799V175.27Z" fill="#FAFAFA"/>
<path d="M95.6799 178.19H93.9399V179.93H95.6799V178.19Z" fill="#FAFAFA"/>
<path d="M95.6799 181.1H93.9399V182.84H95.6799V181.1Z" fill="#FAFAFA"/>
<path d="M95.6799 184.02H93.9399V185.76H95.6799V184.02Z" fill="#FAFAFA"/>
<path d="M98.4402 128.61H96.7002V130.35H98.4402V128.61Z" fill="#FAFAFA"/>
<path d="M98.4402 131.53H96.7002V133.27H98.4402V131.53Z" fill="#FAFAFA"/>
<path d="M98.4402 134.45H96.7002V136.19H98.4402V134.45Z" fill="#FAFAFA"/>
<path d="M98.4402 137.36H96.7002V139.1H98.4402V137.36Z" fill="#FAFAFA"/>
<path d="M98.4402 140.28H96.7002V142.02H98.4402V140.28Z" fill="#FAFAFA"/>
<path d="M98.4402 143.19H96.7002V144.93H98.4402V143.19Z" fill="#FAFAFA"/>
<path d="M98.4402 146.11H96.7002V147.85H98.4402V146.11Z" fill="#FAFAFA"/>
<path d="M98.4402 149.03H96.7002V150.77H98.4402V149.03Z" fill="#FAFAFA"/>
<path d="M98.4402 151.94H96.7002V153.68H98.4402V151.94Z" fill="#FAFAFA"/>
<path d="M98.4402 154.86H96.7002V156.6H98.4402V154.86Z" fill="#FAFAFA"/>
<path d="M98.4402 157.77H96.7002V159.51H98.4402V157.77Z" fill="#FAFAFA"/>
<path d="M98.4402 160.69H96.7002V162.43H98.4402V160.69Z" fill="#FAFAFA"/>
<path d="M98.4402 163.61H96.7002V165.35H98.4402V163.61Z" fill="#FAFAFA"/>
<path d="M98.4402 166.52H96.7002V168.26H98.4402V166.52Z" fill="#FAFAFA"/>
<path d="M98.4402 169.44H96.7002V171.18H98.4402V169.44Z" fill="#FAFAFA"/>
<path d="M98.4402 172.36H96.7002V174.1H98.4402V172.36Z" fill="#FAFAFA"/>
<path d="M98.4402 175.27H96.7002V177.01H98.4402V175.27Z" fill="#FAFAFA"/>
<path d="M98.4402 178.19H96.7002V179.93H98.4402V178.19Z" fill="#FAFAFA"/>
<path d="M101.2 128.61H99.46V130.35H101.2V128.61Z" fill="#FAFAFA"/>
<path d="M101.2 131.53H99.46V133.27H101.2V131.53Z" fill="#FAFAFA"/>
<path d="M101.2 134.45H99.46V136.19H101.2V134.45Z" fill="#FAFAFA"/>
<path d="M101.2 137.36H99.46V139.1H101.2V137.36Z" fill="#FAFAFA"/>
<path d="M101.2 140.28H99.46V142.02H101.2V140.28Z" fill="#FAFAFA"/>
<path d="M101.2 143.19H99.46V144.93H101.2V143.19Z" fill="#FAFAFA"/>
<path d="M101.2 146.11H99.46V147.85H101.2V146.11Z" fill="#FAFAFA"/>
<path d="M101.2 149.03H99.46V150.77H101.2V149.03Z" fill="#FAFAFA"/>
<path d="M101.2 151.94H99.46V153.68H101.2V151.94Z" fill="#FAFAFA"/>
<path d="M101.2 154.86H99.46V156.6H101.2V154.86Z" fill="#FAFAFA"/>
<path d="M101.2 157.77H99.46V159.51H101.2V157.77Z" fill="#FAFAFA"/>
<path d="M101.2 160.69H99.46V162.43H101.2V160.69Z" fill="#FAFAFA"/>
<path d="M101.2 163.61H99.46V165.35H101.2V163.61Z" fill="#FAFAFA"/>
<path d="M101.2 166.52H99.46V168.26H101.2V166.52Z" fill="#FAFAFA"/>
<path d="M101.2 169.44H99.46V171.18H101.2V169.44Z" fill="#FAFAFA"/>
<path d="M101.2 172.36H99.46V174.1H101.2V172.36Z" fill="#FAFAFA"/>
<path d="M101.2 175.27H99.46V177.01H101.2V175.27Z" fill="#FAFAFA"/>
<path d="M101.2 178.19H99.46V179.93H101.2V178.19Z" fill="#FAFAFA"/>
<path d="M85.3401 149.9H83.6001V151.64H85.3401V149.9Z" fill="#FAFAFA"/>
<path d="M85.3401 152.81H83.6001V154.55H85.3401V152.81Z" fill="#FAFAFA"/>
<path d="M85.3401 155.73H83.6001V157.47H85.3401V155.73Z" fill="#FAFAFA"/>
<path d="M85.3401 158.64H83.6001V160.38H85.3401V158.64Z" fill="#FAFAFA"/>
<path d="M85.3401 161.56H83.6001V163.3H85.3401V161.56Z" fill="#FAFAFA"/>
<path d="M85.3401 164.48H83.6001V166.22H85.3401V164.48Z" fill="#FAFAFA"/>
<path d="M85.3401 167.39H83.6001V169.13H85.3401V167.39Z" fill="#FAFAFA"/>
<path d="M85.3401 170.31H83.6001V172.05H85.3401V170.31Z" fill="#FAFAFA"/>
<path d="M85.3401 173.22H83.6001V174.96H85.3401V173.22Z" fill="#FAFAFA"/>
<path d="M85.3401 176.14H83.6001V177.88H85.3401V176.14Z" fill="#FAFAFA"/>
<path d="M85.3401 179.06H83.6001V180.8H85.3401V179.06Z" fill="#FAFAFA"/>
<path d="M85.3401 181.97H83.6001V183.71H85.3401V181.97Z" fill="#FAFAFA"/>
<path d="M85.3401 184.89H83.6001V186.63H85.3401V184.89Z" fill="#FAFAFA"/>
<path d="M88.0999 149.9H86.3599V151.64H88.0999V149.9Z" fill="#FAFAFA"/>
<path d="M88.0999 152.81H86.3599V154.55H88.0999V152.81Z" fill="#FAFAFA"/>
<path d="M88.0999 155.73H86.3599V157.47H88.0999V155.73Z" fill="#FAFAFA"/>
<path d="M88.0999 158.64H86.3599V160.38H88.0999V158.64Z" fill="#FAFAFA"/>
<path d="M88.0999 161.56H86.3599V163.3H88.0999V161.56Z" fill="#FAFAFA"/>
<path d="M88.0999 164.48H86.3599V166.22H88.0999V164.48Z" fill="#FAFAFA"/>
<path d="M88.0999 167.39H86.3599V169.13H88.0999V167.39Z" fill="#FAFAFA"/>
<path d="M88.0999 170.31H86.3599V172.05H88.0999V170.31Z" fill="#FAFAFA"/>
<path d="M88.0999 173.22H86.3599V174.96H88.0999V173.22Z" fill="#FAFAFA"/>
<path d="M88.0999 176.14H86.3599V177.88H88.0999V176.14Z" fill="#FAFAFA"/>
<path d="M88.0999 179.06H86.3599V180.8H88.0999V179.06Z" fill="#FAFAFA"/>
<path d="M88.0999 181.97H86.3599V183.71H88.0999V181.97Z" fill="#FAFAFA"/>
<path d="M88.0999 184.89H86.3599V186.63H88.0999V184.89Z" fill="#FAFAFA"/>
<path d="M90.8699 149.9H89.1299V151.64H90.8699V149.9Z" fill="#FAFAFA"/>
<path d="M90.8699 152.81H89.1299V154.55H90.8699V152.81Z" fill="#FAFAFA"/>
<path d="M90.8699 155.73H89.1299V157.47H90.8699V155.73Z" fill="#FAFAFA"/>
<path d="M90.8699 158.64H89.1299V160.38H90.8699V158.64Z" fill="#FAFAFA"/>
<path d="M90.8699 161.56H89.1299V163.3H90.8699V161.56Z" fill="#FAFAFA"/>
<path d="M90.8699 164.48H89.1299V166.22H90.8699V164.48Z" fill="#FAFAFA"/>
<path d="M90.8699 167.39H89.1299V169.13H90.8699V167.39Z" fill="#FAFAFA"/>
<path d="M90.8699 170.31H89.1299V172.05H90.8699V170.31Z" fill="#FAFAFA"/>
<path d="M90.8699 173.22H89.1299V174.96H90.8699V173.22Z" fill="#FAFAFA"/>
<path d="M90.8699 176.14H89.1299V177.88H90.8699V176.14Z" fill="#FAFAFA"/>
<path d="M90.8699 179.06H89.1299V180.8H90.8699V179.06Z" fill="#FAFAFA"/>
<path d="M90.8699 181.97H89.1299V183.71H90.8699V181.97Z" fill="#FAFAFA"/>
<path d="M90.8699 184.89H89.1299V186.63H90.8699V184.89Z" fill="#FAFAFA"/>
<path d="M90.8699 187.81H89.1299V189.55H90.8699V187.81Z" fill="#FAFAFA"/>
<path d="M106.22 150.77H104.48V152.51H106.22V150.77Z" fill="#FAFAFA"/>
<path d="M106.22 153.68H104.48V155.42H106.22V153.68Z" fill="#FAFAFA"/>
<path d="M106.22 156.6H104.48V158.34H106.22V156.6Z" fill="#FAFAFA"/>
<path d="M106.22 159.51H104.48V161.25H106.22V159.51Z" fill="#FAFAFA"/>
<path d="M106.22 162.43H104.48V164.17H106.22V162.43Z" fill="#FAFAFA"/>
<path d="M106.22 165.35H104.48V167.09H106.22V165.35Z" fill="#FAFAFA"/>
<path d="M106.22 168.26H104.48V170H106.22V168.26Z" fill="#FAFAFA"/>
<path d="M106.22 171.18H104.48V172.92H106.22V171.18Z" fill="#FAFAFA"/>
<path d="M106.22 174.09H104.48V175.83H106.22V174.09Z" fill="#FAFAFA"/>
<path d="M106.22 177.01H104.48V178.75H106.22V177.01Z" fill="#FAFAFA"/>
<path d="M106.22 185.76H104.48V187.5H106.22V185.76Z" fill="#FAFAFA"/>
<path d="M108.98 150.77H107.24V152.51H108.98V150.77Z" fill="#FAFAFA"/>
<path d="M108.98 153.68H107.24V155.42H108.98V153.68Z" fill="#FAFAFA"/>
<path d="M108.98 156.6H107.24V158.34H108.98V156.6Z" fill="#FAFAFA"/>
<path d="M108.98 159.51H107.24V161.25H108.98V159.51Z" fill="#FAFAFA"/>
<path d="M108.98 162.43H107.24V164.17H108.98V162.43Z" fill="#FAFAFA"/>
<path d="M108.98 165.35H107.24V167.09H108.98V165.35Z" fill="#FAFAFA"/>
<path d="M108.98 168.26H107.24V170H108.98V168.26Z" fill="#FAFAFA"/>
<path d="M108.98 171.18H107.24V172.92H108.98V171.18Z" fill="#FAFAFA"/>
<path d="M108.98 174.09H107.24V175.83H108.98V174.09Z" fill="#FAFAFA"/>
<path d="M108.98 182.84H107.24V184.58H108.98V182.84Z" fill="#FAFAFA"/>
<path d="M108.98 185.76H107.24V187.5H108.98V185.76Z" fill="#FAFAFA"/>
<path d="M111.74 150.77H110V152.51H111.74V150.77Z" fill="#FAFAFA"/>
<path d="M111.74 153.68H110V155.42H111.74V153.68Z" fill="#FAFAFA"/>
<path d="M111.74 156.6H110V158.34H111.74V156.6Z" fill="#FAFAFA"/>
<path d="M111.74 159.51H110V161.25H111.74V159.51Z" fill="#FAFAFA"/>
<path d="M111.74 162.43H110V164.17H111.74V162.43Z" fill="#FAFAFA"/>
<path d="M111.74 165.35H110V167.09H111.74V165.35Z" fill="#FAFAFA"/>
<path d="M111.74 168.26H110V170H111.74V168.26Z" fill="#FAFAFA"/>
<path d="M111.74 171.18H110V172.92H111.74V171.18Z" fill="#FAFAFA"/>
<path d="M111.74 179.93H110V181.67H111.74V179.93Z" fill="#FAFAFA"/>
<path d="M111.74 182.84H110V184.58H111.74V182.84Z" fill="#FAFAFA"/>
<path d="M111.74 185.76H110V187.5H111.74V185.76Z" fill="#FAFAFA"/>
<path d="M137.42 106.46H135.68V108.2H137.42V106.46Z" fill="#FAFAFA"/>
<path d="M137.42 109.38H135.68V111.12H137.42V109.38Z" fill="#FAFAFA"/>
<path d="M137.42 112.29H135.68V114.03H137.42V112.29Z" fill="#FAFAFA"/>
<path d="M137.42 115.21H135.68V116.95H137.42V115.21Z" fill="#FAFAFA"/>
<path d="M137.42 118.13H135.68V119.87H137.42V118.13Z" fill="#FAFAFA"/>
<path d="M137.42 121.04H135.68V122.78H137.42V121.04Z" fill="#FAFAFA"/>
<path d="M137.42 123.96H135.68V125.7H137.42V123.96Z" fill="#FAFAFA"/>
<path d="M137.42 126.87H135.68V128.61H137.42V126.87Z" fill="#FAFAFA"/>
<path d="M137.42 129.79H135.68V131.53H137.42V129.79Z" fill="#FAFAFA"/>
<path d="M137.42 132.71H135.68V134.45H137.42V132.71Z" fill="#FAFAFA"/>
<path d="M137.42 135.62H135.68V137.36H137.42V135.62Z" fill="#FAFAFA"/>
<path d="M137.42 138.54H135.68V140.28H137.42V138.54Z" fill="#FAFAFA"/>
<path d="M137.42 141.46H135.68V143.2H137.42V141.46Z" fill="#FAFAFA"/>
<path d="M137.42 144.37H135.68V146.11H137.42V144.37Z" fill="#FAFAFA"/>
<path d="M137.42 147.29H135.68V149.03H137.42V147.29Z" fill="#FAFAFA"/>
<path d="M137.42 150.2H135.68V151.94H137.42V150.2Z" fill="#FAFAFA"/>
<path d="M137.42 153.12H135.68V154.86H137.42V153.12Z" fill="#FAFAFA"/>
<path d="M137.42 158.95H135.68V160.69H137.42V158.95Z" fill="#FAFAFA"/>
<path d="M137.42 161.87H135.68V163.61H137.42V161.87Z" fill="#FAFAFA"/>
<path d="M137.42 164.78H135.68V166.52H137.42V164.78Z" fill="#FAFAFA"/>
<path d="M137.42 167.7H135.68V169.44H137.42V167.7Z" fill="#FAFAFA"/>
<path d="M137.42 170.62H135.68V172.36H137.42V170.62Z" fill="#FAFAFA"/>
<path d="M140.18 106.46H138.44V108.2H140.18V106.46Z" fill="#FAFAFA"/>
<path d="M140.18 109.38H138.44V111.12H140.18V109.38Z" fill="#FAFAFA"/>
<path d="M140.18 112.29H138.44V114.03H140.18V112.29Z" fill="#FAFAFA"/>
<path d="M140.18 115.21H138.44V116.95H140.18V115.21Z" fill="#FAFAFA"/>
<path d="M140.18 118.13H138.44V119.87H140.18V118.13Z" fill="#FAFAFA"/>
<path d="M140.18 121.04H138.44V122.78H140.18V121.04Z" fill="#FAFAFA"/>
<path d="M140.18 123.96H138.44V125.7H140.18V123.96Z" fill="#FAFAFA"/>
<path d="M140.18 126.87H138.44V128.61H140.18V126.87Z" fill="#FAFAFA"/>
<path d="M140.18 129.79H138.44V131.53H140.18V129.79Z" fill="#FAFAFA"/>
<path d="M140.18 132.71H138.44V134.45H140.18V132.71Z" fill="#FAFAFA"/>
<path d="M140.18 135.62H138.44V137.36H140.18V135.62Z" fill="#FAFAFA"/>
<path d="M140.18 138.54H138.44V140.28H140.18V138.54Z" fill="#FAFAFA"/>
<path d="M140.18 141.46H138.44V143.2H140.18V141.46Z" fill="#FAFAFA"/>
<path d="M140.18 144.37H138.44V146.11H140.18V144.37Z" fill="#FAFAFA"/>
<path d="M140.18 147.29H138.44V149.03H140.18V147.29Z" fill="#FAFAFA"/>
<path d="M140.18 150.2H138.44V151.94H140.18V150.2Z" fill="#FAFAFA"/>
<path d="M140.18 167.7H138.44V169.44H140.18V167.7Z" fill="#FAFAFA"/>
<path d="M140.18 170.62H138.44V172.36H140.18V170.62Z" fill="#FAFAFA"/>
<path d="M142.95 106.46H141.21V108.2H142.95V106.46Z" fill="#FAFAFA"/>
<path d="M142.95 109.38H141.21V111.12H142.95V109.38Z" fill="#FAFAFA"/>
<path d="M142.95 112.29H141.21V114.03H142.95V112.29Z" fill="#FAFAFA"/>
<path d="M142.95 115.21H141.21V116.95H142.95V115.21Z" fill="#FAFAFA"/>
<path d="M142.95 118.13H141.21V119.87H142.95V118.13Z" fill="#FAFAFA"/>
<path d="M142.95 121.04H141.21V122.78H142.95V121.04Z" fill="#FAFAFA"/>
<path d="M142.95 123.96H141.21V125.7H142.95V123.96Z" fill="#FAFAFA"/>
<path d="M142.95 126.87H141.21V128.61H142.95V126.87Z" fill="#FAFAFA"/>
<path d="M142.95 129.79H141.21V131.53H142.95V129.79Z" fill="#FAFAFA"/>
<path d="M142.95 132.71H141.21V134.45H142.95V132.71Z" fill="#FAFAFA"/>
<path d="M142.95 135.62H141.21V137.36H142.95V135.62Z" fill="#FAFAFA"/>
<path d="M142.95 138.54H141.21V140.28H142.95V138.54Z" fill="#FAFAFA"/>
<path d="M142.95 141.46H141.21V143.2H142.95V141.46Z" fill="#FAFAFA"/>
<path d="M142.95 144.37H141.21V146.11H142.95V144.37Z" fill="#FAFAFA"/>
<path d="M142.95 147.29H141.21V149.03H142.95V147.29Z" fill="#FAFAFA"/>
<path d="M142.95 150.2H141.21V151.94H142.95V150.2Z" fill="#FAFAFA"/>
<path d="M142.95 156.04H141.21V157.78H142.95V156.04Z" fill="#FAFAFA"/>
<path d="M142.95 158.95H141.21V160.69H142.95V158.95Z" fill="#FAFAFA"/>
<path d="M142.95 161.87H141.21V163.61H142.95V161.87Z" fill="#FAFAFA"/>
<path d="M142.95 164.78H141.21V166.52H142.95V164.78Z" fill="#FAFAFA"/>
<path d="M142.95 170.62H141.21V172.36H142.95V170.62Z" fill="#FAFAFA"/>
<path d="M127.39 143.19H125.65V144.93H127.39V143.19Z" fill="#FAFAFA"/>
<path d="M127.39 146.11H125.65V147.85H127.39V146.11Z" fill="#FAFAFA"/>
<path d="M127.39 149.03H125.65V150.77H127.39V149.03Z" fill="#FAFAFA"/>
<path d="M127.39 151.94H125.65V153.68H127.39V151.94Z" fill="#FAFAFA"/>
<path d="M127.39 154.86H125.65V156.6H127.39V154.86Z" fill="#FAFAFA"/>
<path d="M127.39 157.77H125.65V159.51H127.39V157.77Z" fill="#FAFAFA"/>
<path d="M127.39 160.69H125.65V162.43H127.39V160.69Z" fill="#FAFAFA"/>
<path d="M127.39 166.52H125.65V168.26H127.39V166.52Z" fill="#FAFAFA"/>
<path d="M127.39 169.44H125.65V171.18H127.39V169.44Z" fill="#FAFAFA"/>
<path d="M127.39 172.36H125.65V174.1H127.39V172.36Z" fill="#FAFAFA"/>
<path d="M127.39 175.27H125.65V177.01H127.39V175.27Z" fill="#FAFAFA"/>
<path d="M127.39 178.19H125.65V179.93H127.39V178.19Z" fill="#FAFAFA"/>
<path d="M127.39 181.1H125.65V182.84H127.39V181.1Z" fill="#FAFAFA"/>
<path d="M127.39 184.02H125.65V185.76H127.39V184.02Z" fill="#FAFAFA"/>
<path d="M127.39 186.94H125.65V188.68H127.39V186.94Z" fill="#FAFAFA"/>
<path d="M130.16 143.19H128.42V144.93H130.16V143.19Z" fill="#FAFAFA"/>
<path d="M130.16 146.11H128.42V147.85H130.16V146.11Z" fill="#FAFAFA"/>
<path d="M130.16 149.03H128.42V150.77H130.16V149.03Z" fill="#FAFAFA"/>
<path d="M130.16 151.94H128.42V153.68H130.16V151.94Z" fill="#FAFAFA"/>
<path d="M130.16 154.86H128.42V156.6H130.16V154.86Z" fill="#FAFAFA"/>
<path d="M130.16 157.77H128.42V159.51H130.16V157.77Z" fill="#FAFAFA"/>
<path d="M130.16 166.52H128.42V168.26H130.16V166.52Z" fill="#FAFAFA"/>
<path d="M130.16 169.44H128.42V171.18H130.16V169.44Z" fill="#FAFAFA"/>
<path d="M130.16 172.36H128.42V174.1H130.16V172.36Z" fill="#FAFAFA"/>
<path d="M130.16 175.27H128.42V177.01H130.16V175.27Z" fill="#FAFAFA"/>
<path d="M130.16 178.19H128.42V179.93H130.16V178.19Z" fill="#FAFAFA"/>
<path d="M130.16 181.1H128.42V182.84H130.16V181.1Z" fill="#FAFAFA"/>
<path d="M130.16 184.02H128.42V185.76H130.16V184.02Z" fill="#FAFAFA"/>
<path d="M130.16 186.94H128.42V188.68H130.16V186.94Z" fill="#FAFAFA"/>
<path d="M132.92 143.19H131.18V144.93H132.92V143.19Z" fill="#FAFAFA"/>
<path d="M132.92 146.11H131.18V147.85H132.92V146.11Z" fill="#FAFAFA"/>
<path d="M132.92 149.03H131.18V150.77H132.92V149.03Z" fill="#FAFAFA"/>
<path d="M132.92 151.94H131.18V153.68H132.92V151.94Z" fill="#FAFAFA"/>
<path d="M132.92 154.86H131.18V156.6H132.92V154.86Z" fill="#FAFAFA"/>
<path d="M132.92 157.77H131.18V159.51H132.92V157.77Z" fill="#FAFAFA"/>
<path d="M132.92 163.61H131.18V165.35H132.92V163.61Z" fill="#FAFAFA"/>
<path d="M132.92 166.52H131.18V168.26H132.92V166.52Z" fill="#FAFAFA"/>
<path d="M132.92 169.44H131.18V171.18H132.92V169.44Z" fill="#FAFAFA"/>
<path d="M132.92 172.36H131.18V174.1H132.92V172.36Z" fill="#FAFAFA"/>
<path d="M132.92 175.27H131.18V177.01H132.92V175.27Z" fill="#FAFAFA"/>
<path d="M132.92 178.19H131.18V179.93H132.92V178.19Z" fill="#FAFAFA"/>
<path d="M132.92 181.1H131.18V182.84H132.92V181.1Z" fill="#FAFAFA"/>
<path d="M132.92 184.02H131.18V185.76H132.92V184.02Z" fill="#FAFAFA"/>
<path d="M132.92 186.94H131.18V188.68H132.92V186.94Z" fill="#FAFAFA"/>
<path d="M191.14 126.87H189.4V128.61H191.14V126.87Z" fill="#FAFAFA"/>
<path d="M191.14 129.79H189.4V131.53H191.14V129.79Z" fill="#FAFAFA"/>
<path d="M191.14 132.71H189.4V134.45H191.14V132.71Z" fill="#FAFAFA"/>
<path d="M191.14 135.62H189.4V137.36H191.14V135.62Z" fill="#FAFAFA"/>
<path d="M191.14 138.54H189.4V140.28H191.14V138.54Z" fill="#FAFAFA"/>
<path d="M191.14 141.46H189.4V143.2H191.14V141.46Z" fill="#FAFAFA"/>
<path d="M191.14 144.37H189.4V146.11H191.14V144.37Z" fill="#FAFAFA"/>
<path d="M191.14 147.29H189.4V149.03H191.14V147.29Z" fill="#FAFAFA"/>
<path d="M191.14 150.2H189.4V151.94H191.14V150.2Z" fill="#FAFAFA"/>
<path d="M191.14 153.12H189.4V154.86H191.14V153.12Z" fill="#FAFAFA"/>
<path d="M191.14 156.04H189.4V157.78H191.14V156.04Z" fill="#FAFAFA"/>
<path d="M191.14 158.95H189.4V160.69H191.14V158.95Z" fill="#FAFAFA"/>
<path d="M191.14 161.87H189.4V163.61H191.14V161.87Z" fill="#FAFAFA"/>
<path d="M191.14 167.7H189.4V169.44H191.14V167.7Z" fill="#FAFAFA"/>
<path d="M191.14 170.62H189.4V172.36H191.14V170.62Z" fill="#FAFAFA"/>
<path d="M191.14 173.53H189.4V175.27H191.14V173.53Z" fill="#FAFAFA"/>
<path d="M191.14 176.45H189.4V178.19H191.14V176.45Z" fill="#FAFAFA"/>
<path d="M191.14 182.28H189.4V184.02H191.14V182.28Z" fill="#FAFAFA"/>
<path d="M191.14 185.2H189.4V186.94H191.14V185.2Z" fill="#FAFAFA"/>
<path d="M191.14 188.11H189.4V189.85H191.14V188.11Z" fill="#FAFAFA"/>
<path d="M193.9 126.87H192.16V128.61H193.9V126.87Z" fill="#FAFAFA"/>
<path d="M193.9 129.79H192.16V131.53H193.9V129.79Z" fill="#FAFAFA"/>
<path d="M193.9 132.71H192.16V134.45H193.9V132.71Z" fill="#FAFAFA"/>
<path d="M193.9 135.62H192.16V137.36H193.9V135.62Z" fill="#FAFAFA"/>
<path d="M193.9 138.54H192.16V140.28H193.9V138.54Z" fill="#FAFAFA"/>
<path d="M193.9 141.46H192.16V143.2H193.9V141.46Z" fill="#FAFAFA"/>
<path d="M193.9 144.37H192.16V146.11H193.9V144.37Z" fill="#FAFAFA"/>
<path d="M193.9 147.29H192.16V149.03H193.9V147.29Z" fill="#FAFAFA"/>
<path d="M193.9 150.2H192.16V151.94H193.9V150.2Z" fill="#FAFAFA"/>
<path d="M193.9 153.12H192.16V154.86H193.9V153.12Z" fill="#FAFAFA"/>
<path d="M193.9 156.04H192.16V157.78H193.9V156.04Z" fill="#FAFAFA"/>
<path d="M193.9 158.95H192.16V160.69H193.9V158.95Z" fill="#FAFAFA"/>
<path d="M193.9 161.87H192.16V163.61H193.9V161.87Z" fill="#FAFAFA"/>
<path d="M193.9 170.62H192.16V172.36H193.9V170.62Z" fill="#FAFAFA"/>
<path d="M193.9 173.53H192.16V175.27H193.9V173.53Z" fill="#FAFAFA"/>
<path d="M193.9 179.36H192.16V181.1H193.9V179.36Z" fill="#FAFAFA"/>
<path d="M193.9 182.28H192.16V184.02H193.9V182.28Z" fill="#FAFAFA"/>
<path d="M193.9 185.2H192.16V186.94H193.9V185.2Z" fill="#FAFAFA"/>
<path d="M193.9 188.11H192.16V189.85H193.9V188.11Z" fill="#FAFAFA"/>
<path d="M196.66 126.87H194.92V128.61H196.66V126.87Z" fill="#FAFAFA"/>
<path d="M196.66 129.79H194.92V131.53H196.66V129.79Z" fill="#FAFAFA"/>
<path d="M196.66 132.71H194.92V134.45H196.66V132.71Z" fill="#FAFAFA"/>
<path d="M196.66 135.62H194.92V137.36H196.66V135.62Z" fill="#FAFAFA"/>
<path d="M196.66 138.54H194.92V140.28H196.66V138.54Z" fill="#FAFAFA"/>
<path d="M196.66 141.46H194.92V143.2H196.66V141.46Z" fill="#FAFAFA"/>
<path d="M196.66 144.37H194.92V146.11H196.66V144.37Z" fill="#FAFAFA"/>
<path d="M196.66 147.29H194.92V149.03H196.66V147.29Z" fill="#FAFAFA"/>
<path d="M196.66 150.2H194.92V151.94H196.66V150.2Z" fill="#FAFAFA"/>
<path d="M196.66 153.12H194.92V154.86H196.66V153.12Z" fill="#FAFAFA"/>
<path d="M196.66 156.04H194.92V157.78H196.66V156.04Z" fill="#FAFAFA"/>
<path d="M196.66 158.95H194.92V160.69H196.66V158.95Z" fill="#FAFAFA"/>
<path d="M196.66 161.87H194.92V163.61H196.66V161.87Z" fill="#FAFAFA"/>
<path d="M196.66 164.78H194.92V166.52H196.66V164.78Z" fill="#FAFAFA"/>
<path d="M196.66 170.62H194.92V172.36H196.66V170.62Z" fill="#FAFAFA"/>
<path d="M196.66 176.45H194.92V178.19H196.66V176.45Z" fill="#FAFAFA"/>
<path d="M196.66 179.36H194.92V181.1H196.66V179.36Z" fill="#FAFAFA"/>
<path d="M196.66 182.28H194.92V184.02H196.66V182.28Z" fill="#FAFAFA"/>
<path d="M196.66 185.2H194.92V186.94H196.66V185.2Z" fill="#FAFAFA"/>
<path d="M196.66 188.11H194.92V189.85H196.66V188.11Z" fill="#FAFAFA"/>
<path d="M179.88 143.5H178.14V145.24H179.88V143.5Z" fill="#FAFAFA"/>
<path d="M179.88 146.42H178.14V148.16H179.88V146.42Z" fill="#FAFAFA"/>
<path d="M179.88 149.33H178.14V151.07H179.88V149.33Z" fill="#FAFAFA"/>
<path d="M179.88 152.25H178.14V153.99H179.88V152.25Z" fill="#FAFAFA"/>
<path d="M179.88 155.17H178.14V156.91H179.88V155.17Z" fill="#FAFAFA"/>
<path d="M179.88 158.08H178.14V159.82H179.88V158.08Z" fill="#FAFAFA"/>
<path d="M179.88 166.83H178.14V168.57H179.88V166.83Z" fill="#FAFAFA"/>
<path d="M179.88 169.75H178.14V171.49H179.88V169.75Z" fill="#FAFAFA"/>
<path d="M179.88 172.66H178.14V174.4H179.88V172.66Z" fill="#FAFAFA"/>
<path d="M179.88 175.58H178.14V177.32H179.88V175.58Z" fill="#FAFAFA"/>
<path d="M179.88 178.49H178.14V180.23H179.88V178.49Z" fill="#FAFAFA"/>
<path d="M179.88 181.41H178.14V183.15H179.88V181.41Z" fill="#FAFAFA"/>
<path d="M179.88 184.33H178.14V186.07H179.88V184.33Z" fill="#FAFAFA"/>
<path d="M182.65 143.5H180.91V145.24H182.65V143.5Z" fill="#FAFAFA"/>
<path d="M182.65 146.42H180.91V148.16H182.65V146.42Z" fill="#FAFAFA"/>
<path d="M182.65 149.33H180.91V151.07H182.65V149.33Z" fill="#FAFAFA"/>
<path d="M182.65 152.25H180.91V153.99H182.65V152.25Z" fill="#FAFAFA"/>
<path d="M182.65 155.17H180.91V156.91H182.65V155.17Z" fill="#FAFAFA"/>
<path d="M182.65 158.08H180.91V159.82H182.65V158.08Z" fill="#FAFAFA"/>
<path d="M182.65 166.83H180.91V168.57H182.65V166.83Z" fill="#FAFAFA"/>
<path d="M182.65 169.75H180.91V171.49H182.65V169.75Z" fill="#FAFAFA"/>
<path d="M182.65 172.66H180.91V174.4H182.65V172.66Z" fill="#FAFAFA"/>
<path d="M182.65 175.58H180.91V177.32H182.65V175.58Z" fill="#FAFAFA"/>
<path d="M182.65 178.49H180.91V180.23H182.65V178.49Z" fill="#FAFAFA"/>
<path d="M182.65 181.41H180.91V183.15H182.65V181.41Z" fill="#FAFAFA"/>
<path d="M182.65 187.24H180.91V188.98H182.65V187.24Z" fill="#FAFAFA"/>
<path d="M248.85 48.1499H245.4V237.64H248.85V48.1499Z" fill="#EBEBEB"/>
<path d="M193.4 48.1499H190.48V237.64H193.4V48.1499Z" fill="#EBEBEB"/>
<path d="M138.48 48.1499H135.56V237.64H138.48V48.1499Z" fill="#EBEBEB"/>
<path d="M344.9 55.6501C352.726 55.6501 359.07 49.3059 359.07 41.4801C359.07 33.6542 352.726 27.3101 344.9 27.3101C337.074 27.3101 330.73 33.6542 330.73 41.4801C330.73 49.3059 337.074 55.6501 344.9 55.6501Z" fill="#E0E0E0"/>
<path d="M356.94 41.4802C356.94 48.1302 351.55 53.5302 344.89 53.5302C338.24 53.5302 332.84 48.1402 332.84 41.4802C332.84 34.8302 338.23 29.4302 344.89 29.4302C351.55 29.4402 356.94 34.8302 356.94 41.4802Z" fill="#F0F0F0"/>
<path d="M344.33 33.22V41.64L338.75 38.48" fill="#F0F0F0"/>
<path d="M344.33 33.22V41.64L338.75 38.48" stroke="#E0E0E0" stroke-width="2" stroke-miterlimit="10" stroke-linecap="round" stroke-linejoin="round"/>
<path d="M415.62 64.3501H352.98V147.03H415.62V64.3501Z" fill="#F5F5F5"/>
<path d="M374.29 73.1501V109.5L388.77 108.68L390.43 73.1501H374.29Z" fill="#EBEBEB"/>
<path d="M386.01 80.1802H408.29L408.1 112L396.56 112.18L386.01 80.1802Z" fill="#E0E0E0"/>
<path d="M364.32 75.49H370.18L368.13 103.88L360.8 105.69L364.32 75.49Z" fill="#E6E6E6"/>
<path d="M281.361 157.121H343.801V81.1408L281.361 81.1408V157.121Z" fill="#E6E6E6"/>
<path d="M295.65 138.3L328.46 106.04L292.96 100.19L295.65 138.3Z" fill="#E0E0E0"/>
<path d="M327.67 130.65L329.29 105.92L304.59 111.99L302.79 130.91L327.67 130.65Z" fill="#F0F0F0"/>
<path d="M302.396 102.899C306.289 99.0059 306.289 92.6933 302.396 88.7998C298.502 84.9063 292.19 84.9063 288.296 88.7998C284.403 92.6933 284.403 99.0059 288.296 102.899C292.19 106.793 298.502 106.793 302.396 102.899Z" fill="#FAFAFA"/>
<path d="M324.44 139.47C324.44 136.8 326.61 134.63 329.28 134.63C331.95 134.63 334.12 136.8 334.12 139.47C334.12 142.14 331.95 144.31 329.28 144.31C326.61 144.31 324.44 142.14 324.44 139.47Z" fill="#E0E0E0"/>
<path d="M328.13 147.97L314.16 139.47L325.9 129.79L328.13 147.97Z" fill="#F5F5F5"/>
<path d="M311.64 90.8H308.89V151.47H311.64V90.8Z" fill="#E0E0E0"/>
<path d="M337.94 90.8H334.39V148.79H337.94V90.8Z" fill="#EBEBEB"/>
<path d="M305.78 130.91H287.63V149.06H305.78V130.91Z" fill="#EBEBEB"/>
<path d="M411.39 258.43H345.77V318.06H411.39V258.43Z" fill="#E6E6E6"/>
<path d="M421.42 253.17H413.17V327.22H421.42V253.17Z" fill="#E6E6E6"/>
<path d="M361.6 263.99H356.22V285.38H361.6V263.99Z" fill="#FAFAFA"/>
<path d="M383.89 263.99H378.51V285.38H383.89V263.99Z" fill="#F5F5F5"/>
<path d="M366.97 265.84H361.59V285.38H366.97V265.84Z" fill="#F5F5F5"/>
<path d="M378.51 265.84H373.13V285.38H378.51V265.84Z" fill="#FAFAFA"/>
<path d="M373.13 263.99H369.66V285.38H373.13V263.99Z" fill="#EBEBEB"/>
<path d="M369.66 265.84H366.97V285.38H369.66V265.84Z" fill="#FAFAFA"/>
<path d="M389.27 263.99H383.89V285.38H389.27V263.99Z" fill="#EBEBEB"/>
<path d="M394.65 265.84H389.27V285.38H394.65V265.84Z" fill="#E6E6E6"/>
<path d="M406.19 265.84H400.81V285.38H406.19V265.84Z" fill="#E6E6E6"/>
<path d="M400.8 263.99H397.33V285.38H400.8V263.99Z" fill="#FAFAFA"/>
<path d="M397.33 265.84H394.64V285.38H397.33V265.84Z" fill="#EBEBEB"/>
<path d="M408.87 264.61H406.18V285.38H408.87V264.61Z" fill="#FAFAFA"/>
<path d="M403.495 314.757H408.875V294.367H403.495V314.757Z" fill="#FAFAFA"/>
<path d="M381.198 314.757H386.578V294.367H381.198V314.757Z" fill="#FAFAFA"/>
<path d="M398.112 314.752H403.492V296.212H398.112V314.752Z" fill="#F0F0F0"/>
<path d="M386.571 314.752H391.951V296.212H386.571V314.752Z" fill="#EBEBEB"/>
<path d="M391.963 314.757H395.433V294.367H391.963V314.757Z" fill="#FAFAFA"/>
<path d="M395.426 314.752H398.116V296.212H395.426V314.752Z" fill="#F5F5F5"/>
<path d="M375.824 314.757H381.204V294.367H375.824V314.757Z" fill="#EBEBEB"/>
<path d="M370.44 314.752H375.82V296.212H370.44V314.752Z" fill="#F5F5F5"/>
<path d="M358.899 314.752H364.279V296.212H358.899V314.752Z" fill="#E6E6E6"/>
<path d="M364.291 314.757H367.761V294.367H364.291V314.757Z" fill="#FAFAFA"/>
<path d="M352.751 314.757H356.221V294.367H352.751V314.757Z" fill="#FAFAFA"/>
<path d="M367.754 314.752H370.444V296.212H367.754V314.752Z" fill="#EBEBEB"/>
<path d="M356.214 314.753H358.904V294.983H356.214V314.753Z" fill="#F0F0F0"/>
<path d="M411.06 253.17H408.86H343.69V322.45H408.86V327.22H413.26V253.17H411.06ZM408.86 314.75H347.84V289.8H408.86V314.75ZM408.86 285.41H347.84V260.87H408.86V285.41Z" fill="#F0F0F0"/>
<path d="M280.046 318.052H345.666V258.422H280.046V318.052Z" fill="#E6E6E6"/>
<path d="M282.568 327.219H290.818V321.589H282.568V327.219Z" fill="#E6E6E6"/>
<path d="M338.07 285.379H343.45V263.989H338.07V285.379Z" fill="#FAFAFA"/>
<path d="M315.782 285.379H321.162V263.989H315.782V285.379Z" fill="#F5F5F5"/>
<path d="M332.696 285.384H338.076V265.844H332.696V285.384Z" fill="#F5F5F5"/>
<path d="M321.156 285.384H326.536V265.844H321.156V285.384Z" fill="#FAFAFA"/>
<path d="M326.538 285.379H330.008V263.989H326.538V285.379Z" fill="#EBEBEB"/>
<path d="M330.011 285.384H332.701V265.844H330.011V285.384Z" fill="#FAFAFA"/>
<path d="M313.948 285.379H319.328V263.989H313.948V285.379Z" fill="#EBEBEB"/>
<path d="M308.574 285.384H313.954V265.844H308.574V285.384Z" fill="#E6E6E6"/>
<path d="M297.034 285.384H302.414V265.844H297.034V285.384Z" fill="#E6E6E6"/>
<path d="M302.416 285.379H305.886V263.989H302.416V285.379Z" fill="#FAFAFA"/>
<path d="M305.878 285.384H308.568V265.844H305.878V285.384Z" fill="#EBEBEB"/>
<path d="M294.338 285.384H297.028V264.614H294.338V285.384Z" fill="#F5F5F5"/>
<path d="M297.2 294.36H291.82V314.75H297.2V294.36Z" fill="#FAFAFA"/>
<path d="M319.49 294.36H314.11V314.75H319.49V294.36Z" fill="#FAFAFA"/>
<path d="M302.58 296.22H297.2V314.76H302.58V296.22Z" fill="#F5F5F5"/>
<path d="M314.12 296.22H308.74V314.76H314.12V296.22Z" fill="#EBEBEB"/>
<path d="M308.73 294.36H305.26V314.75H308.73V294.36Z" fill="#FAFAFA"/>
<path d="M305.26 296.22H302.57V314.76H305.26V296.22Z" fill="#F5F5F5"/>
<path d="M321.33 294.36H315.95V314.75H321.33V294.36Z" fill="#EBEBEB"/>
<path d="M326.7 296.22H321.32V314.76H326.7V296.22Z" fill="#F5F5F5"/>
<path d="M338.24 296.22H332.86V314.76H338.24V296.22Z" fill="#E6E6E6"/>
<path d="M332.86 294.36H329.39V314.75H332.86V294.36Z" fill="#FAFAFA"/>
<path d="M343.69 294.36H340.22V314.75H343.69V294.36Z" fill="#FAFAFA"/>
<path d="M329.39 296.22H326.7V314.76H329.39V296.22Z" fill="#EBEBEB"/>
<path d="M340.93 294.99H338.24V314.76H340.93V294.99Z" fill="#EBEBEB"/>
<path d="M278.17 253.17V327.22H282.57V322.45H347.74V253.17H282.57H280.37H278.17ZM282.57 289.81H343.59V314.76H282.57V289.81ZM282.57 260.87H343.59V285.41H282.57V260.87Z" fill="#F0F0F0"/>
<path d="M250 372.61C357.082 372.61 443.89 367.542 443.89 361.29C443.89 355.038 357.082 349.97 250 349.97C142.917 349.97 56.1099 355.038 56.1099 361.29C56.1099 367.542 142.917 372.61 250 372.61Z" fill="#F5F5F5"/>
<path d="M382.05 317.67C382.05 317.67 374.3 308.44 369.33 312.75C364.37 317.05 366.88 326.18 372.6 326.48C378.32 326.77 382.04 323.59 382.04 323.59V317.67H382.05Z" fill="#407BFF"/>
<path opacity="0.2" d="M382.05 317.67C382.05 317.67 374.3 308.44 369.33 312.75C364.37 317.05 366.88 326.18 372.6 326.48C378.32 326.77 382.04 323.59 382.04 323.59V317.67H382.05Z" fill="white"/>
<path d="M413.68 294.27C413.68 294.27 420.19 287.45 424.22 288.61C428.25 289.77 427.83 306.06 415.33 299.47L413.68 294.27Z" fill="#407BFF"/>
<path opacity="0.3" d="M413.68 294.27C413.68 294.27 420.19 287.45 424.22 288.61C428.25 289.77 427.83 306.06 415.33 299.47L413.68 294.27Z" fill="white"/>
<path d="M390.42 345.16C390.42 345.16 369.02 315.89 386.39 309.96C403.76 304.03 406.86 333.51 401.9 341.72C396.94 349.93 390.42 345.16 390.42 345.16Z" fill="#407BFF"/>
<path d="M400.34 285.23C400.34 285.23 413.61 254.41 393.95 253.48C374.29 252.55 372.15 284.04 394.77 288.61L400.34 285.23Z" fill="#407BFF"/>
<path opacity="0.3" d="M390.42 345.16C390.42 345.16 369.02 315.89 386.39 309.96C403.76 304.03 406.86 333.51 401.9 341.72C396.94 349.93 390.42 345.16 390.42 345.16Z" fill="white"/>
<path opacity="0.3" d="M400.34 285.23C400.34 285.23 413.61 254.41 393.95 253.48C374.29 252.55 372.15 284.04 394.77 288.61L400.34 285.23Z" fill="white"/>
<path d="M395.63 310.46C395.63 310.46 389.18 283.25 401.58 281.08C413.98 278.91 426.23 303.5 400.57 315.86C400.57 315.85 396.17 313.12 395.63 310.46Z" fill="#407BFF"/>
<path opacity="0.2" d="M395.63 310.46C395.63 310.46 389.18 283.25 401.58 281.08C413.98 278.91 426.23 303.5 400.57 315.86C400.57 315.85 396.17 313.12 395.63 310.46Z" fill="white"/>
<path d="M375.02 341.01H410.94L407.94 364H378.02L375.02 341.01Z" fill="#263238"/>
<path d="M393.7 283.02C391.81 281.66 390.18 279.97 388.73 278.14C387.28 276.3 386.09 274.25 385.21 272.06C384.33 269.87 383.91 267.49 383.93 265.13C383.89 262.75 384.62 260.46 385.54 258.35C385.42 258.92 385.29 259.48 385.15 260.04L384.95 260.87C384.91 261.15 384.89 261.44 384.86 261.72C384.8 262.29 384.72 262.85 384.67 263.41L384.7 265.11C384.86 267.36 385.28 269.59 386.14 271.69C386.96 273.79 388.08 275.78 389.35 277.68C389.98 278.63 390.67 279.55 391.41 280.42C392.12 281.34 392.9 282.19 393.7 283.02Z" fill="#407BFF"/>
<path d="M388.99 256.58C390.11 256.76 391.17 257.2 392.21 257.68C393.21 258.23 394.19 258.84 395.05 259.62C396.81 261.12 398.14 263.09 399.05 265.21C399.94 267.35 400.31 269.65 400.42 271.93C400.44 273.07 400.35 274.21 400.31 275.34C400.11 276.46 399.95 277.58 399.73 278.68C399.73 277.55 399.79 276.43 399.82 275.31C399.76 274.19 399.76 273.08 399.65 271.98C399.44 270.89 399.43 269.77 399.1 268.72C398.96 268.19 398.87 267.65 398.69 267.13L398.12 265.59C396.47 261.56 393.22 258.19 388.99 256.58Z" fill="#407BFF"/>
<path d="M404.03 283.02C406.92 284.05 409.27 286.44 410.55 289.28C411.2 290.7 411.62 292.23 411.77 293.78C411.85 294.16 411.83 294.56 411.83 294.96C411.82 295.36 411.85 295.76 411.8 296.15C411.67 296.93 411.6 297.72 411.33 298.46C410.92 299.98 410.19 301.37 409.45 302.72C408.62 304.02 407.77 305.31 406.75 306.46C404.78 308.81 402.56 310.93 400.1 312.73C401.19 311.67 402.26 310.6 403.26 309.46C404.28 308.34 405.26 307.19 406.15 305.98C407.94 303.58 409.56 301 410.37 298.17C410.63 297.48 410.69 296.75 410.83 296.03C410.89 295.67 410.85 295.31 410.87 294.95C410.88 294.59 410.89 294.23 410.83 293.86C410.74 292.38 410.35 290.94 409.84 289.56C409.31 288.18 408.53 286.9 407.54 285.79C406.57 284.68 405.38 283.72 404.03 283.02Z" fill="#407BFF"/>
<path d="M400.34 285.23C401.07 287.23 401.52 289.32 401.72 291.46C401.84 292.53 401.81 293.62 401.7 294.71C401.58 295.79 401.29 296.9 400.68 297.9C399.5 299.58 399.1 301.59 398.87 303.67C398.75 304.7 398.72 305.75 398.72 306.8C398.69 307.85 398.74 308.91 398.79 309.97C398.28 307.91 398.05 305.77 398.1 303.62C398.12 302.54 398.25 301.46 398.5 300.39C398.65 299.86 398.8 299.33 399.04 298.82C399.21 298.31 399.62 297.79 399.83 297.37C400.35 296.57 400.62 295.58 400.76 294.58C400.92 293.58 400.96 292.54 400.95 291.5C400.94 290.46 400.87 289.41 400.75 288.37C400.67 287.32 400.51 286.28 400.34 285.23Z" fill="#407BFF"/>
<path d="M391.62 312.75C392.17 312.91 392.6 313.33 392.96 313.76C393.33 314.19 393.62 314.68 393.91 315.17C394.44 316.17 394.87 317.21 395.26 318.26C396.03 320.37 396.57 322.55 397.04 324.73C397.49 326.92 397.86 329.12 398.09 331.34C398.33 333.55 398.54 335.78 398.44 338.02C398.28 336.92 398.11 335.82 397.91 334.73C397.73 333.64 397.54 332.54 397.33 331.46C396.91 329.28 396.52 327.11 396.06 324.95C395.62 322.78 395.11 320.64 394.53 318.51C394.24 317.45 393.9 316.4 393.47 315.39C393.26 314.89 393.04 314.38 392.74 313.93C392.44 313.47 392.12 313.01 391.62 312.75Z" fill="#407BFF"/>
<path d="M385.54 313.69C384.96 315.69 384.66 317.73 384.53 319.76C384.42 321.79 384.56 323.83 384.97 325.81C385.36 327.79 386.02 329.72 386.99 331.51C387.89 333.34 389.14 334.97 390.42 336.61C390.03 336.27 389.65 335.92 389.27 335.55C388.9 335.18 388.48 334.85 388.17 334.43C387.51 333.62 386.81 332.82 386.31 331.89C385.71 331.01 385.32 330.03 384.88 329.06C384.68 328.57 384.55 328.05 384.38 327.55C384.2 327.05 384.09 326.53 383.99 326.01C383.57 323.93 383.48 321.79 383.75 319.7C384.02 317.6 384.6 315.55 385.54 313.69Z" fill="#407BFF"/>
<path d="M418.73 297.59C419.89 297.25 420.94 296.99 421.91 296.57C422.4 296.38 422.85 296.11 423.3 295.82C423.76 295.53 424.14 295.15 424.61 294.75C424.51 295.34 424.25 295.94 423.82 296.4C423.41 296.87 422.88 297.24 422.3 297.49C421.72 297.72 421.12 297.87 420.51 297.88C419.91 297.9 419.3 297.83 418.73 297.59Z" fill="#407BFF"/>
<path d="M417.4 293.09C417.68 292.53 418.1 292.08 418.58 291.69C419.06 291.3 419.62 290.99 420.24 290.81C420.86 290.64 421.54 290.6 422.18 290.79C422.82 290.97 423.35 291.41 423.68 291.92C423.08 291.73 422.57 291.57 422.04 291.56C421.52 291.56 421.02 291.62 420.51 291.77C420 291.9 419.5 292.13 418.99 292.35L417.4 293.09Z" fill="#407BFF"/>
<path d="M378.51 319.05C377.17 318.02 375.93 316.97 374.57 316.21C373.9 315.81 373.19 315.52 372.46 315.43C371.73 315.33 370.97 315.49 370.19 315.86C370.69 315.17 371.55 314.68 372.48 314.65C373.41 314.59 374.3 314.91 375.06 315.34C375.82 315.78 376.49 316.33 377.07 316.96C377.64 317.58 378.15 318.27 378.51 319.05Z" fill="#407BFF"/>
<path d="M378.51 323.59C377.57 323.95 376.59 324.14 375.6 324.23C374.6 324.33 373.59 324.29 372.59 324.14C371.59 323.98 370.57 323.63 369.72 322.98C368.86 322.35 368.3 321.32 368.32 320.31C368.73 321.24 369.37 321.9 370.15 322.33C370.94 322.75 371.83 323.02 372.75 323.16C374.6 323.47 376.52 323.49 378.51 323.59Z" fill="#407BFF"/>
<path d="M315.65 344C316.46 342.63 315.32 340.58 313.72 340.55C314.42 338.59 313.73 336.22 312.09 334.93C311.88 334.77 311.65 334.62 311.38 334.62C311.1 334.62 310.85 334.79 310.62 334.95C309.12 336.03 307.62 337.1 306.12 338.18C305.78 338.43 305.42 338.69 305.23 339.06C304.31 340.84 307.62 343.12 306.26 344.59C305.87 345.01 305.24 345.1 304.75 345.4C303.68 346.07 303.55 347.54 303.05 348.7C302.55 349.86 300.81 350.76 300.15 349.69C300.64 348.58 299.15 347.62 297.95 347.48C296.76 347.34 295.48 347.27 294.81 346.14C293.1 347.64 289.26 343.46 289.35 341.77C287.94 341.88 286.98 343.2 286.67 344.52C286.35 345.89 286.55 347.32 286.53 348.72C286.49 351.45 285.61 354.12 285.65 356.85C285.69 358.97 286.51 361.33 288.45 362.18C289.39 362.59 290.44 362.59 291.46 362.58C298.84 362.53 306.21 362.49 313.59 362.44C314.12 362.44 314.68 362.43 315.15 362.18C316.15 361.66 316.36 360.35 316.45 359.23C316.85 354.42 317.24 349.62 317.64 344.81C316.99 344.54 316.32 344.27 315.65 344Z" fill="#407BFF"/>
<path opacity="0.3" d="M315.65 344C316.46 342.63 315.32 340.58 313.72 340.55C314.42 338.59 313.73 336.22 312.09 334.93C311.88 334.77 311.65 334.62 311.38 334.62C311.1 334.62 310.85 334.79 310.62 334.95C309.12 336.03 307.62 337.1 306.12 338.18C305.78 338.43 305.42 338.69 305.23 339.06C304.31 340.84 307.62 343.12 306.26 344.59C305.87 345.01 305.24 345.1 304.75 345.4C303.68 346.07 303.55 347.54 303.05 348.7C302.55 349.86 300.81 350.76 300.15 349.69C300.64 348.58 299.15 347.62 297.95 347.48C296.76 347.34 295.48 347.27 294.81 346.14C293.1 347.64 289.26 343.46 289.35 341.77C287.94 341.88 286.98 343.2 286.67 344.52C286.35 345.89 286.55 347.32 286.53 348.72C286.49 351.45 285.61 354.12 285.65 356.85C285.69 358.97 286.51 361.33 288.45 362.18C289.39 362.59 290.44 362.59 291.46 362.58C298.84 362.53 306.21 362.49 313.59 362.44C314.12 362.44 314.68 362.43 315.15 362.18C316.15 361.66 316.36 360.35 316.45 359.23C316.85 354.42 317.24 349.62 317.64 344.81C316.99 344.54 316.32 344.27 315.65 344Z" fill="white"/>
<path d="M316.95 320.61H314.47H307.63H305.14H298.31H295.82H288.99H286.5H282.64L282.92 324.08L283.12 326.56L283.64 333.01L283.94 336.71L284.34 341.64L284.51 343.75L284.57 344.38L284.77 346.86L285.04 350.26L285.21 352.37L285.39 354.52L285.59 357L285.74 358.88L285.91 360.99L285.98 361.91H290.5H294.32H299.83H303.65H309.16H312.98H317.51L317.58 360.99L317.75 358.88L317.9 356.98L318.1 354.5L318.28 352.36L318.45 350.25L318.72 346.84L318.92 344.36L318.97 343.73L319.14 341.62L319.54 336.69L319.84 333L320.36 326.55L320.56 324.07L320.84 320.6H316.95V320.61ZM319.01 322.88L318.35 322.22H319.07L319.01 322.88ZM318.84 324.99L318.78 325.83L315.71 328.9L312.18 325.37L315.33 322.22H316.07L318.84 324.99ZM317.95 335.98L315.7 338.23L312.17 334.7L315.7 331.18L318.14 333.62L317.95 335.98ZM285.28 333.62L287.72 331.18L291.25 334.7L287.72 338.23L285.48 335.98L285.28 333.62ZM314.57 330.04L311.04 333.57L307.51 330.04L311.04 326.51L314.57 330.04ZM309.02 322.22H313.05L311.03 324.24L309.02 322.22ZM309.9 334.7L306.38 338.23L302.85 334.7L306.38 331.18L309.9 334.7ZM298.19 339.36L301.72 335.84L305.24 339.36L301.72 342.89L298.19 339.36ZM300.57 344.03L297.04 347.56L293.52 344.04L297.05 340.51L300.57 344.03ZM306.38 340.51L309.9 344.04L306.38 347.56L302.85 344.03L306.38 340.51ZM301.72 333.56L298.19 330.03L301.72 326.5L305.24 330.03L301.72 333.56ZM300.57 334.7L297.05 338.23L293.52 334.7L297.05 331.18L300.57 334.7ZM292.38 333.56L288.86 330.03L292.38 326.5L295.91 330.03L292.38 333.56ZM292.38 335.85L295.91 339.37L292.38 342.9L288.86 339.37L292.38 335.85ZM295.91 348.7L292.38 352.22L288.86 348.7L292.38 345.17L295.91 348.7ZM297.04 349.84L300.57 353.37L297.05 356.9L293.52 353.37L297.04 349.84ZM298.19 348.7L301.72 345.17L305.24 348.7L301.72 352.22L298.19 348.7ZM306.38 349.84L309.9 353.37L306.38 356.9L302.85 353.37L306.38 349.84ZM311.04 354.5L314.57 358.03L312.29 360.31H309.81L307.53 358.03L311.04 354.5ZM307.52 348.7L311.05 345.17L314.58 348.7L311.05 352.22L307.52 348.7ZM307.52 339.36L311.05 335.84L314.58 339.36L311.05 342.89L307.52 339.36ZM309.9 325.38L306.38 328.91L302.85 325.38L306 322.23H306.74L309.9 325.38ZM301.72 324.24L299.7 322.22H303.73L301.72 324.24ZM300.57 325.38L297.05 328.91L293.52 325.38L296.67 322.23H297.41L300.57 325.38ZM294.4 322.22L292.38 324.24L290.37 322.22H294.4ZM288.09 322.22L291.24 325.37L287.71 328.9L284.64 325.83L284.58 324.99L287.34 322.22H288.09ZM285.07 322.22L284.42 322.87L284.36 322.22H285.07ZM284.86 328.31L286.59 330.04L285.12 331.51L284.86 328.31ZM285.81 340.13L285.67 338.46L286.57 339.36L285.81 340.13ZM285.98 342.25L287.71 340.51L291.24 344.04L287.71 347.56L286.29 346.14L285.98 342.25ZM286.51 348.77L286.5 348.62L286.58 348.7L286.51 348.77ZM287.12 356.28L286.68 350.88L287.72 349.84L291.25 353.37L287.72 356.89L287.12 356.28ZM287.44 360.31L287.38 359.5L287.72 359.16L288.87 360.31H287.44ZM288.86 358.02L292.38 354.49L295.91 358.02L293.63 360.3H291.15L288.86 358.02ZM295.91 360.31L297.06 359.16L298.21 360.31H295.91ZM300.47 360.31L298.19 358.03L301.72 354.5L305.24 358.03L302.97 360.31H300.47ZM305.23 360.31L306.38 359.16L307.53 360.31H305.23ZM315.98 360.31H314.56L315.71 359.16L316.05 359.5L315.98 360.31ZM316.31 356.28L315.7 356.88L312.17 353.36L315.7 349.83L316.74 350.87L316.31 356.28ZM316.93 348.61L316.91 348.77L316.84 348.7L316.93 348.61ZM317.13 346.13L315.7 347.55L312.17 344.03L315.7 340.5L317.44 342.24L317.13 346.13ZM317.62 340.14L316.85 339.37L317.76 338.47L317.62 340.14ZM318.58 328.3L318.32 331.51L316.84 330.03L318.58 328.3Z" fill="#407BFF"/>
<g opacity="0.6">
<path d="M316.95 320.61H314.47H307.63H305.14H298.31H295.82H288.99H286.5H282.64L282.92 324.08L283.12 326.56L283.64 333.01L283.94 336.71L284.34 341.64L284.51 343.75L284.57 344.38L284.77 346.86L285.04 350.26L285.21 352.37L285.39 354.52L285.59 357L285.74 358.88L285.91 360.99L285.98 361.91H290.5H294.32H299.83H303.65H309.16H312.98H317.51L317.58 360.99L317.75 358.88L317.9 356.98L318.1 354.5L318.28 352.36L318.45 350.25L318.72 346.84L318.92 344.36L318.97 343.73L319.14 341.62L319.54 336.69L319.84 333L320.36 326.55L320.56 324.07L320.84 320.6H316.95V320.61ZM319.01 322.88L318.35 322.22H319.07L319.01 322.88ZM318.84 324.99L318.78 325.83L315.71 328.9L312.18 325.37L315.33 322.22H316.07L318.84 324.99ZM317.95 335.98L315.7 338.23L312.17 334.7L315.7 331.18L318.14 333.62L317.95 335.98ZM285.28 333.62L287.72 331.18L291.25 334.7L287.72 338.23L285.48 335.98L285.28 333.62ZM314.57 330.04L311.04 333.57L307.51 330.04L311.04 326.51L314.57 330.04ZM309.02 322.22H313.05L311.03 324.24L309.02 322.22ZM309.9 334.7L306.38 338.23L302.85 334.7L306.38 331.18L309.9 334.7ZM298.19 339.36L301.72 335.84L305.24 339.36L301.72 342.89L298.19 339.36ZM300.57 344.03L297.04 347.56L293.52 344.04L297.05 340.51L300.57 344.03ZM306.38 340.51L309.9 344.04L306.38 347.56L302.85 344.03L306.38 340.51ZM301.72 333.56L298.19 330.03L301.72 326.5L305.24 330.03L301.72 333.56ZM300.57 334.7L297.05 338.23L293.52 334.7L297.05 331.18L300.57 334.7ZM292.38 333.56L288.86 330.03L292.38 326.5L295.91 330.03L292.38 333.56ZM292.38 335.85L295.91 339.37L292.38 342.9L288.86 339.37L292.38 335.85ZM295.91 348.7L292.38 352.22L288.86 348.7L292.38 345.17L295.91 348.7ZM297.04 349.84L300.57 353.37L297.05 356.9L293.52 353.37L297.04 349.84ZM298.19 348.7L301.72 345.17L305.24 348.7L301.72 352.22L298.19 348.7ZM306.38 349.84L309.9 353.37L306.38 356.9L302.85 353.37L306.38 349.84ZM311.04 354.5L314.57 358.03L312.29 360.31H309.81L307.53 358.03L311.04 354.5ZM307.52 348.7L311.05 345.17L314.58 348.7L311.05 352.22L307.52 348.7ZM307.52 339.36L311.05 335.84L314.58 339.36L311.05 342.89L307.52 339.36ZM309.9 325.38L306.38 328.91L302.85 325.38L306 322.23H306.74L309.9 325.38ZM301.72 324.24L299.7 322.22H303.73L301.72 324.24ZM300.57 325.38L297.05 328.91L293.52 325.38L296.67 322.23H297.41L300.57 325.38ZM294.4 322.22L292.38 324.24L290.37 322.22H294.4ZM288.09 322.22L291.24 325.37L287.71 328.9L284.64 325.83L284.58 324.99L287.34 322.22H288.09ZM285.07 322.22L284.42 322.87L284.36 322.22H285.07ZM284.86 328.31L286.59 330.04L285.12 331.51L284.86 328.31ZM285.81 340.13L285.67 338.46L286.57 339.36L285.81 340.13ZM285.98 342.25L287.71 340.51L291.24 344.04L287.71 347.56L286.29 346.14L285.98 342.25ZM286.51 348.77L286.5 348.62L286.58 348.7L286.51 348.77ZM287.12 356.28L286.68 350.88L287.72 349.84L291.25 353.37L287.72 356.89L287.12 356.28ZM287.44 360.31L287.38 359.5L287.72 359.16L288.87 360.31H287.44ZM288.86 358.02L292.38 354.49L295.91 358.02L293.63 360.3H291.15L288.86 358.02ZM295.91 360.31L297.06 359.16L298.21 360.31H295.91ZM300.47 360.31L298.19 358.03L301.72 354.5L305.24 358.03L302.97 360.31H300.47ZM305.23 360.31L306.38 359.16L307.53 360.31H305.23ZM315.98 360.31H314.56L315.71 359.16L316.05 359.5L315.98 360.31ZM316.31 356.28L315.7 356.88L312.17 353.36L315.7 349.83L316.74 350.87L316.31 356.28ZM316.93 348.61L316.91 348.77L316.84 348.7L316.93 348.61ZM317.13 346.13L315.7 347.55L312.17 344.03L315.7 340.5L317.44 342.24L317.13 346.13ZM317.62 340.14L316.85 339.37L317.76 338.47L317.62 340.14ZM318.58 328.3L318.32 331.51L316.84 330.03L318.58 328.3Z" fill="white"/>
</g>
<path d="M282.06 323.66H321.37C322.28 323.66 323.01 322.92 323.01 322.02V320.82C323.01 319.91 322.27 319.18 321.37 319.18H282.06C281.15 319.18 280.42 319.92 280.42 320.82V322.02C280.41 322.92 281.15 323.66 282.06 323.66Z" fill="#407BFF"/>
<path d="M318.3 364H285.13C284.22 364 283.49 363.26 283.49 362.36V361.16C283.49 360.25 284.23 359.52 285.13 359.52H318.3C319.21 359.52 319.94 360.26 319.94 361.16V362.36C319.94 363.26 319.2 364 318.3 364Z" fill="#407BFF"/>
<path d="M181.28 93.3101H152.55C147.66 93.3101 143.7 97.2701 143.7 102.16V127.16C143.7 132.05 147.66 136.01 152.55 136.01H160.94L153.91 149.91L166.89 136.01H181.28C186.17 136.01 190.13 132.05 190.13 127.16V102.16C190.12 97.2701 186.16 93.3101 181.28 93.3101Z" fill="#407BFF"/>
<path opacity="0.7" d="M181.28 93.3101H152.55C147.66 93.3101 143.7 97.2701 143.7 102.16V127.16C143.7 132.05 147.66 136.01 152.55 136.01H160.94L153.91 149.91L166.89 136.01H181.28C186.17 136.01 190.13 132.05 190.13 127.16V102.16C190.12 97.2701 186.16 93.3101 181.28 93.3101Z" fill="white"/>
<path d="M176.993 124.635C182.562 119.066 182.562 110.037 176.993 104.468C171.424 98.8992 162.395 98.8992 156.826 104.468C151.258 110.037 151.258 119.066 156.826 124.635C162.395 130.203 171.424 130.203 176.993 124.635Z" fill="#407BFF"/>
<path d="M165.42 120.92C165.04 120.92 164.67 120.75 164.42 120.46L158.83 113.87C158.36 113.32 158.43 112.49 158.98 112.02C159.53 111.55 160.36 111.62 160.83 112.17L165.43 117.58L173.02 108.64C173.49 108.09 174.32 108.02 174.87 108.49C175.42 108.96 175.49 109.79 175.02 110.34L166.43 120.46C166.17 120.75 165.8 120.92 165.42 120.92Z" fill="white"/>
<path d="M204.99 362.17H263.19C263.82 362.17 264.33 361.66 264.33 361.03V357.32C264.33 356.69 263.82 356.18 263.19 356.18H207.99V237.35H262.25C263.4 237.35 264.34 236.42 264.34 235.26V231.35H205C203.34 231.35 202 232.69 202 234.35V359.17C201.99 360.82 203.34 362.17 204.99 362.17Z" fill="#263238"/>
<g opacity="0.3">
<path d="M201.99 234.35V359.16C201.99 360.82 203.33 362.16 204.99 362.16H263.19C263.82 362.16 264.33 361.65 264.33 361.02V357.31C264.33 356.68 263.82 356.16 263.19 356.16H207.99V237.35H262.25C263.4 237.35 264.33 236.41 264.33 235.26V231.35H204.99C203.33 231.35 201.99 232.69 201.99 234.35Z" fill="white"/>
</g>
<path opacity="0.2" d="M201.99 234.35V266.18C203.99 266.69 205.99 267.18 207.99 267.65V237.35H262.25C263.4 237.35 264.33 236.41 264.33 235.26V231.35H204.99C203.33 231.35 201.99 232.69 201.99 234.35Z" fill="black"/>
<path d="M96.7498 345.42L120.62 343.34V312H129V343.33L152.95 345.42C155.06 345.63 156.67 347.4 156.67 349.52V352.7H125.63H124.07H93.0298V349.52C93.0298 347.4 94.6398 345.63 96.7498 345.42Z" fill="#263238"/>
<path opacity="0.1" d="M96.7498 345.42L120.62 343.34V312H129V343.33L152.95 345.42C155.06 345.63 156.67 347.4 156.67 349.52V352.7H125.63H124.07H93.0298V349.52C93.0298 347.4 94.6398 345.63 96.7498 345.42Z" fill="white"/>
<path d="M148.95 356.64C148.95 359.67 151.41 362.13 154.44 362.13C157.47 362.13 159.93 359.67 159.93 356.64C159.93 353.61 157.47 351.15 154.44 351.15C151.4 351.16 148.95 353.61 148.95 356.64Z" fill="#263238"/>
<path d="M100.75 356.64C100.75 359.67 98.29 362.13 95.26 362.13C92.23 362.13 89.77 359.67 89.77 356.64C89.77 353.61 92.23 351.15 95.26 351.15C98.3 351.16 100.75 353.61 100.75 356.64Z" fill="#263238"/>
<path d="M122.88 318.39H126.73C128.78 318.39 130.44 316.73 130.44 314.68V287.71H119.16V314.68C119.17 316.73 120.83 318.39 122.88 318.39Z" fill="#263238"/>
<path opacity="0.2" d="M122.88 318.39H126.73C128.78 318.39 130.44 316.73 130.44 314.68V287.71H119.16V314.68C119.17 316.73 120.83 318.39 122.88 318.39Z" fill="white"/>
<path d="M100.06 225.71C100.06 225.71 102.64 277.54 113.81 286.46H101.87C101.87 286.46 91.2202 268.8 90.4302 225.71H100.06Z" fill="#263238"/>
<path opacity="0.1" d="M100.06 225.71C100.06 225.71 102.64 277.54 113.81 286.46H101.87C101.87 286.46 91.2202 268.8 90.4302 225.71H100.06Z" fill="white"/>
<path d="M152.01 282.16H99.0901C96.6101 282.16 94.6001 284.17 94.6001 286.65V290.75H156.51V286.65C156.5 284.17 154.49 282.16 152.01 282.16Z" fill="#407BFF"/>
<path d="M157.05 286.46H94.04C93.04 286.46 92.23 287.27 92.23 288.27V288.95C92.23 289.95 93.04 290.76 94.04 290.76H157.05C158.05 290.76 158.86 289.95 158.86 288.95V288.27C158.86 287.27 158.05 286.46 157.05 286.46Z" fill="#263238"/>
<path opacity="0.6" d="M157.05 286.46H94.04C93.04 286.46 92.23 287.27 92.23 288.27V288.95C92.23 289.95 93.04 290.76 94.04 290.76H157.05C158.05 290.76 158.86 289.95 158.86 288.95V288.27C158.86 287.27 158.05 286.46 157.05 286.46Z" fill="white"/>
<path d="M88.33 237.05H107.45C113.05 237.05 117.1 232.02 116.49 225.81L115.67 217.52C115.06 211.31 110.02 206.28 104.42 206.28H85.3C79.7 206.28 75.65 211.31 76.26 217.52L77.08 225.81C77.69 232.02 82.73 237.05 88.33 237.05Z" fill="#407BFF"/>
<path d="M151.46 192.34L152.38 195.16C152.7 196.12 153.04 197.08 153.39 198.04C154.08 199.95 154.82 201.83 155.59 203.64C156.37 205.45 157.22 207.2 158.12 208.77C159.02 210.32 160.04 211.74 160.85 212.47C161.36 213.03 162.88 213.72 164.61 214.18C166.36 214.62 168.31 214.99 170.31 215.22C174.31 215.72 178.58 215.92 182.73 216.09L183.47 221.68C179.05 222.87 174.67 223.56 170.04 223.81C167.73 223.9 165.36 223.91 162.86 223.58C161.6 223.41 160.31 223.17 158.94 222.76C158.26 222.56 157.55 222.29 156.82 221.95C156.12 221.64 155.27 221.14 154.64 220.68C152.01 218.78 150.4 216.69 148.96 214.62C147.53 212.55 146.38 210.46 145.35 208.35C144.31 206.25 143.42 204.12 142.62 201.98C142.23 200.91 141.85 199.83 141.49 198.74C141.12 197.64 140.81 196.6 140.49 195.37L151.46 192.34Z" fill="#B65B52"/>
<path d="M146.55 187.07C149.7 188.15 152.57 192.68 160.48 210.85C160.48 210.85 161.77 213.08 168.19 214.46L167.6 224.67C167.6 224.67 158.42 224.27 156.29 222.79C154.16 221.31 141.39 200.32 141.39 200.32L146.55 187.07Z" fill="#263238"/>
<path opacity="0.2" d="M168.2 214.46L167.61 224.66C167.61 224.66 160.25 224.34 157.18 223.21C156.82 223.08 156.52 222.94 156.3 222.79C155.07 221.93 150.27 214.54 146.45 208.46C143.66 204.04 141.4 200.31 141.4 200.31L146.55 187.07C149.7 188.15 152.57 192.68 160.49 210.84C160.49 210.84 161.77 213.07 168.2 214.46Z" fill="white"/>
<path opacity="0.2" d="M157.18 223.21C156.82 223.08 156.52 222.94 156.3 222.79C155.07 221.93 150.27 214.54 146.45 208.46C148.09 202.76 149.97 198.3 149.97 198.3C149.97 198.3 157.32 212.97 157.18 223.21Z" fill="black"/>
<path d="M180.54 216.6L187.71 214.01L186.83 223.61C186.83 223.61 180.25 224.45 179.44 220.99L180.54 216.6Z" fill="#B55B52"/>
<path d="M193.65 215.96L192.55 223.86L186.83 223.62L187.71 214.01L193.65 215.96Z" fill="#B55B52"/>
<path d="M168.25 214.01L171.91 215.11L170.57 225.04L166.91 225.67L168.25 214.01Z" fill="#263238"/>
<path d="M151.74 250.14C151.74 250.14 200.13 269.22 211.38 277.21C222.63 285.19 251.01 338.99 251.01 338.99L239.28 348.03C239.28 348.03 205.44 298.89 201.31 295.56C197.18 292.23 143.28 275.7 143.28 275.7L151.74 250.14Z" fill="#407BFF"/>
<path opacity="0.4" d="M251.02 338.99L239.29 348.03C239.29 348.03 231.39 336.56 222.76 324.33C213.53 311.24 203.46 297.28 201.32 295.56C198.3 293.12 168.67 283.62 152.96 278.7C147.18 276.88 143.29 275.69 143.29 275.69L151.75 250.14C151.75 250.14 200.13 269.23 211.39 277.21C222.64 285.19 251.02 338.99 251.02 338.99Z" fill="white"/>
<path d="M253.15 358.24L258.8 352.56L249.56 338.27L243.92 343.95L253.15 358.24Z" fill="#B55B52"/>
<path opacity="0.2" d="M243.92 343.95L249.56 338.28L254.84 346.44L249 351.83L243.92 343.95Z" fill="black"/>
<path d="M259.78 351.94C259.8 351.95 259.82 351.97 259.84 351.96C259.86 351.95 259.88 351.93 259.89 351.91C260.56 351.67 261.2 351.35 261.8 350.97C262.28 350.72 262.64 350.31 262.83 349.81C262.9 349.43 262.75 349.04 262.44 348.82C262.27 348.65 262.03 348.57 261.79 348.62C261.24 348.75 260.7 349.53 260.29 350.28C260.31 349.49 260.18 348.68 259.83 348.33C259.59 348.1 259.24 348.05 258.96 348.23C258.7 348.36 258.53 348.58 258.47 348.86C258.24 349.94 259.7 351.68 259.77 351.78C259.78 351.79 259.69 351.89 259.7 351.9C259.73 351.92 259.75 351.94 259.78 351.94ZM259.83 351.2C259.8 351.26 259.78 351.32 259.76 351.37C259.32 350.75 258.67 349.66 258.81 349.02C258.83 348.87 258.92 348.74 259.05 348.66L259.13 348.61C259.37 348.49 259.5 348.56 259.57 348.64C259.93 349.04 260.02 350.32 259.83 351.2ZM260.17 351.44C260.61 350.43 261.34 349.13 261.89 349.01C262.01 348.98 262.13 349.02 262.21 349.11C262.4 349.26 262.5 349.5 262.47 349.74C262.36 350.26 261.51 350.88 260.17 351.44Z" fill="#407BFF"/>
<path d="M258.69 351.43L251.23 356.43C250.96 356.59 250.88 356.94 251.04 357.21V357.22L254.64 363.37C255.07 364.01 255.94 364.19 256.59 363.77C259.16 361.98 260.3 361 263.57 358.77C265.58 357.41 269.68 354.92 272.14 352.64C274.6 350.35 272.27 347.99 271.03 348.74C268.08 350.51 262.95 351.27 260.09 351.05C259.59 351.01 259.1 351.15 258.69 351.43Z" fill="#263238"/>
<path d="M239.82 351.96L254.47 342.2L251.09 335.32L235.22 346.33L239.82 351.96Z" fill="#407BFF"/>
<path opacity="0.2" d="M239.82 351.96L254.47 342.2L251.09 335.32L235.22 346.33L239.82 351.96Z" fill="white"/>
<path opacity="0.2" d="M222.76 324.33C213.53 311.24 203.46 297.28 201.32 295.56C198.3 293.12 168.67 283.62 152.96 278.7L151.13 259.65L156.87 258.63L157.52 260.09C157.52 260.09 193.38 268.22 203.51 273.3C210.05 276.58 218.82 308.66 222.76 324.33Z" fill="black"/>
<path d="M220.61 353.83C220.63 353.84 220.64 353.87 220.66 353.87C220.68 353.87 220.7 353.86 220.72 353.84C221.43 353.83 222.14 353.75 222.83 353.59C223.36 353.52 223.85 353.25 224.19 352.83C224.38 352.5 224.37 352.08 224.15 351.76C224.05 351.54 223.84 351.38 223.6 351.35C223.04 351.29 222.27 351.85 221.63 352.42C221.91 351.68 222.06 350.88 221.84 350.43C221.69 350.14 221.38 349.97 221.06 350.04C220.77 350.08 220.54 350.23 220.38 350.47C219.81 351.42 220.6 353.54 220.64 353.66L220.76 353.59L220.64 353.67C220.64 353.68 220.53 353.75 220.54 353.76C220.56 353.8 220.59 353.82 220.61 353.83ZM220.91 353.15C220.86 353.2 220.82 353.24 220.78 353.29C220.57 352.56 220.32 351.31 220.66 350.75C220.73 350.62 220.86 350.52 221 350.49L221.09 350.47C221.36 350.43 221.46 350.54 221.5 350.64C221.72 351.15 221.37 352.38 220.91 353.15ZM221.14 353.49C221.89 352.69 223.01 351.7 223.57 351.77C223.69 351.78 223.79 351.86 223.84 351.97C223.97 352.17 223.98 352.43 223.88 352.65C223.6 353.1 222.6 353.41 221.14 353.49Z" fill="#407BFF"/>
<path d="M212.27 357.58L219.48 354.09L215.19 336.9L207.99 340.4L212.27 357.58Z" fill="#B55B52"/>
<path opacity="0.2" d="M207.99 340.4L215.19 336.91L217.64 346.74L210.34 349.87L207.99 340.4Z" fill="black"/>
<path d="M219.75 352.99L211.05 355.24C210.74 355.3 210.55 355.61 210.61 355.91V355.92L211.97 362.92C212.16 363.67 212.92 364.12 213.68 363.94C216.7 363.11 218.1 362.56 221.92 361.54C224.27 360.93 228.96 359.94 232.04 358.59C235.12 357.25 233.71 354.24 232.29 354.54C228.92 355.23 223.83 354.24 221.2 353.09C220.74 352.9 220.23 352.86 219.75 352.99Z" fill="#263238"/>
<path d="M218.7 340.17C218.7 340.17 206.51 278.96 204.02 275.31C199.95 269.35 151.13 259.65 151.13 259.65L156.86 258.62L150.23 241.05L106.76 242.76C106.76 242.76 107.67 271.48 112.09 279.18C116.51 286.88 181.91 290.42 186.15 292.16C190.39 293.9 203.38 341.93 203.38 341.93L218.7 340.17Z" fill="#407BFF"/>
<path opacity="0.4" d="M218.7 340.17C218.7 340.17 206.51 278.96 204.02 275.31C199.95 269.35 151.13 259.65 151.13 259.65L156.86 258.62L150.23 241.05L106.76 242.76C106.76 242.76 107.67 271.48 112.09 279.18C116.51 286.88 181.91 290.42 186.15 292.16C190.39 293.9 203.38 341.93 203.38 341.93L218.7 340.17Z" fill="white"/>
<path d="M203.63 347.37L220.69 343.02L219.78 335.41L201.16 340.54L203.63 347.37Z" fill="#407BFF"/>
<path opacity="0.2" d="M203.63 347.37L220.69 343.02L219.78 335.41L201.16 340.54L203.63 347.37Z" fill="white"/>
<path d="M120.52 243.43L107.92 243.21L107.65 247.03L121.07 247.35L120.52 243.43Z" fill="#263238"/>
<path d="M122.46 243.36L123.01 247.32L151.13 246.92L150.22 243.31L122.46 243.36Z" fill="#263238"/>
<path d="M135.99 244.08L136.36 246.7C136.45 247.34 137.05 247.84 137.71 247.82L142.21 247.68C142.86 247.66 143.32 247.13 143.23 246.49L142.86 243.87C142.77 243.23 142.17 242.73 141.51 242.75L137.01 242.89C136.35 242.9 135.9 243.44 135.99 244.08Z" fill="white"/>
<path d="M107.86 242.66H149.16C150.19 242.66 151.06 241.89 151.19 240.88C156.29 200.92 146.55 187.07 146.55 187.07C142.84 186.01 139.06 185.24 135.23 184.77C129.64 184.33 124.03 184.2 118.42 184.41C114.59 184.51 110.77 184.89 107 185.54C104.95 186.4 102.92 195.32 104.95 223.08C105.48 230.35 105.57 236.63 105.51 240.31C105.5 241.6 106.55 242.66 107.86 242.66Z" fill="#263238"/>
<path d="M140.76 201.22H148.72L149.32 210.71L145.05 213.48L140.76 211.36V201.22Z" fill="#263238"/>
<path opacity="0.2" d="M151.19 240.88C151.06 241.9 150.19 242.66 149.16 242.66H107.86C106.56 242.66 105.5 241.6 105.52 240.3C105.57 236.62 105.49 230.34 104.96 223.07C104.67 219.08 104.46 215.47 104.33 212.23C103.99 204.38 104.09 198.63 104.43 194.51C104.93 188.49 105.96 185.98 107 185.53C110.78 184.88 114.6 184.5 118.43 184.4C124.03 184.2 129.64 184.32 135.23 184.76C139.06 185.24 142.84 186.01 146.55 187.07C146.55 187.07 156.29 200.92 151.19 240.88Z" fill="white"/>
<path d="M118.8 183.99L132.14 188.54L132.68 184.72C131.38 182.44 131.05 181 132.15 178.35L123.24 168.12C123.48 173.36 122.53 180.52 118.8 183.99Z" fill="#B55B52"/>
<path d="M127.24 190.52L129.86 191.6L132.15 193.04C132.15 193.04 135.19 210.5 134.34 225.23L136.9 227.33L139.6 225.16C139.6 225.16 136.24 198.1 135.03 192.82L135.55 191.56L136.78 188.94L134.5 187.75L130.9 188.54H128.38L127.24 190.52Z" fill="white"/>
<path opacity="0.2" d="M126.87 172.29L132.14 178.35C131.74 179.28 131.42 180.24 131.19 181.22C128.96 180.55 126.21 177.58 126.32 175.16C126.33 174.18 126.51 173.2 126.87 172.29Z" fill="black"/>
<path d="M119.63 181.57C119.63 181.57 124.81 185.18 131.65 187.82C131.65 187.82 132.46 184.79 131.65 182.15L137.54 185.09C137.54 185.09 138.03 189.66 136.67 192.04L132.35 188.88L127.49 192.84C127.49 192.84 118.29 189.29 116.85 184.47L119.63 181.57Z" fill="#263238"/>
<path opacity="0.2" d="M149.64 217.09L135.98 228.08C116.4 232.44 107.79 220.23 104.33 212.23C103.99 204.38 104.09 198.63 104.43 194.51C109.13 194.29 114.98 194.29 116.56 195.5C119.31 197.61 128.89 212.4 130.32 213.48C131.76 214.57 149.64 217.09 149.64 217.09Z" fill="black"/>
<path d="M157.4 216.52L164.57 213.93L163.69 223.53C163.69 223.53 157.11 224.37 156.3 220.91L157.4 216.52Z" fill="#B55B52"/>
<path d="M170.51 215.88L169.41 223.79L163.69 223.54L164.57 213.94L170.51 215.88Z" fill="#B55B52"/>
<path d="M115.69 197.15L117.31 200.23C117.87 201.28 118.45 202.31 119.05 203.34C120.21 205.4 121.43 207.41 122.69 209.32C123.96 211.21 125.28 213.03 126.64 214.45C127.3 215.17 127.97 215.77 128.51 216.16C128.68 216.29 128.71 216.29 128.76 216.33C128.8 216.38 128.99 216.43 129.1 216.49C129.25 216.55 129.45 216.6 129.62 216.66L130.26 216.82C132.11 217.23 134.45 217.36 136.78 217.4C139.13 217.44 141.55 217.36 143.98 217.25C148.84 217 153.82 216.62 158.72 216.18L159.91 221.7C154.99 223.29 150.07 224.57 144.97 225.53C142.43 226.03 139.84 226.39 137.18 226.67C134.5 226.91 131.8 227.06 128.68 226.72C128.27 226.66 127.89 226.61 127.47 226.53C127.04 226.43 126.63 226.36 126.17 226.23C125.69 226.08 125.27 225.98 124.74 225.75C124.22 225.53 123.68 225.29 123.32 225.08C121.69 224.19 120.42 223.2 119.26 222.19C117 220.13 115.18 218.01 113.55 215.81C111.91 213.62 110.45 211.38 109.1 209.11C108.44 207.96 107.8 206.81 107.18 205.65C106.55 204.47 105.98 203.35 105.38 202.03L115.69 197.15Z" fill="#B65B52"/>
<path d="M107 185.53C94.1001 190.18 110.83 222.32 117.86 225.92C124.89 229.52 136.79 227.99 136.79 227.99L137.63 216.82C137.63 216.82 131.47 216.07 129.63 215.63C126.71 214.93 120.78 201.99 116.8 194.95C112.82 187.91 107 185.53 107 185.53Z" fill="#263238"/>
<path opacity="0.2" d="M107 185.53C94.1001 190.18 110.83 222.32 117.86 225.92C124.89 229.52 136.79 227.99 136.79 227.99L137.63 216.82C137.63 216.82 131.47 216.07 129.63 215.63C126.71 214.93 120.78 201.99 116.8 194.95C112.82 187.91 107 185.53 107 185.53Z" fill="white"/>
<path d="M135.98 216.04L134.93 229.01L138.63 228.32L139.6 216.73L135.98 216.04Z" fill="#263238"/>
<path d="M146.18 157.58C146.69 160.57 145.4 166.4 141.65 163.94C137.9 161.48 145.29 152.44 146.18 157.58Z" fill="#263238"/>
<path d="M124.97 158.65C123.53 165.97 122.31 170.18 125 174.79C129.04 181.73 138.83 180.68 142.44 173.92C145.69 167.84 147.5 156.9 141.17 152.25C134.93 147.68 126.42 151.34 124.97 158.65Z" fill="#B55B52"/>
<path d="M121.48 150.58L129.77 150.2L129.99 154.96C129.83 154.87 129.66 154.78 129.51 154.69C129.51 154.69 128.98 161.64 125.02 164.01C119.64 159.91 118.06 153.21 121.48 150.58Z" fill="#263238"/>
<path d="M120.62 163.93C120.71 165.93 121.72 167.7 122.97 168.79C124.84 170.42 126.86 169 127.25 166.68C127.6 164.59 127.05 161.22 124.74 160.49C122.46 159.76 120.52 161.63 120.62 163.93Z" fill="#B55B52"/>
<path d="M135.42 163.42C135.27 164.01 135.45 164.56 135.84 164.66C136.23 164.76 136.66 164.36 136.82 163.77C136.97 163.18 136.79 162.63 136.4 162.53C136.01 162.44 135.57 162.83 135.42 163.42Z" fill="#263238"/>
<path d="M142.07 165.09C141.92 165.68 142.1 166.23 142.49 166.33C142.87 166.43 143.31 166.03 143.47 165.44C143.62 164.85 143.44 164.3 143.05 164.2C142.66 164.11 142.23 164.51 142.07 165.09Z" fill="#263238"/>
<path d="M139.88 164.85C139.88 164.85 140.4 168.45 141.47 170.41C140.2 171.07 138.55 170.18 138.55 170.18L139.88 164.85Z" fill="#A02724"/>
<path d="M134.81 171.63C135.04 171.72 135.29 171.81 135.56 171.87C135.66 171.89 135.75 171.84 135.78 171.74C135.81 171.64 135.75 171.55 135.65 171.52C133.06 170.87 132.33 168.77 132.32 168.75C132.29 168.66 132.19 168.61 132.09 168.64C132 168.67 131.95 168.77 131.98 168.87C132.01 168.96 132.65 170.77 134.81 171.63Z" fill="#263238"/>
<path d="M133.93 160.76C134.05 160.81 134.18 160.79 134.29 160.71C135.54 159.72 136.79 160.11 136.81 160.12C137 160.18 137.2 160.08 137.26 159.89C137.32 159.7 137.22 159.5 137.04 159.44C136.97 159.42 135.4 158.92 133.85 160.15C133.69 160.27 133.67 160.5 133.79 160.65C133.82 160.71 133.87 160.74 133.93 160.76Z" fill="#263238"/>
<path d="M145.54 163.53C145.6 163.56 145.67 163.56 145.75 163.55C145.94 163.51 146.07 163.32 146.03 163.13C145.64 161.2 144.12 160.6 144.05 160.57C143.87 160.5 143.66 160.59 143.59 160.77C143.52 160.95 143.61 161.16 143.79 161.23C143.85 161.25 145.02 161.73 145.33 163.28C145.35 163.4 145.43 163.49 145.54 163.53Z" fill="#263238"/>
<path d="M126.94 156.47C126.94 156.47 127.12 156.64 127.44 156.82C128.08 157.19 129.27 157.63 130.64 156.95C132.7 155.94 133.35 150.08 139.22 153.06C139.22 153.06 141.23 152.45 142.74 154.3C144.25 156.15 143.21 162.9 146.43 161.97C149.65 161.04 149.09 160.04 149.09 160.04C149.09 160.04 148.19 160.61 147.65 160.16C147.65 160.16 149.34 158.76 148.53 156.79C148.53 156.79 147.75 157.71 147.22 157.53C147.22 157.53 148.2 154.08 146.33 149.42C144.47 144.76 133.02 145.8 133.02 145.8C133.02 145.8 131.58 143.39 126.41 145.07C121.24 146.75 118.88 152.98 119.7 155.69" fill="#263238"/>
<path d="M195.2 222.78L194.46 220H164.13L150.17 221.39L149.64 222.78H195.2Z" fill="#263238"/>
<path opacity="0.5" d="M195.2 222.78L194.46 220H164.13L150.17 221.39L149.64 222.78H195.2Z" fill="white"/>
<path opacity="0.2" d="M164.13 220V222.78H195.2L194.46 220H164.13Z" fill="black"/>
<path d="M174.39 206.64C174.26 208.11 175.33 209.31 176.8 209.31H223.26C224.73 209.31 226.03 208.11 226.17 206.64L228.93 176.9C228.96 176.59 228.94 176.3 228.87 176.03C228.61 174.98 227.69 174.23 226.52 174.23H180.06C178.59 174.23 177.29 175.43 177.15 176.9L174.39 206.64Z" fill="#263238"/>
<path opacity="0.5" d="M174.39 206.64C174.26 208.11 175.33 209.31 176.8 209.31H223.26C224.73 209.31 226.03 208.11 226.17 206.64L228.93 176.9C228.96 176.59 228.94 176.3 228.87 176.03C228.61 174.98 227.69 174.23 226.52 174.23H180.06C178.59 174.23 177.29 175.43 177.15 176.9L174.39 206.64Z" fill="white"/>
<path opacity="0.1" d="M176.97 209.31H223.26C224.73 209.31 226.03 208.11 226.17 206.64L228.93 176.9C228.96 176.59 228.94 176.3 228.87 176.03H182.58C181.11 176.03 179.81 177.23 179.67 178.7L176.91 208.44C176.88 208.75 176.9 209.04 176.97 209.31Z" fill="black"/>
<path d="M208.88 191.07H199.27L201.83 218.59L186.64 220.87V222.78H218.64V220.87L212.09 218.59L208.88 191.07Z" fill="#263238"/>
<path opacity="0.5" d="M208.88 191.07H199.27L201.83 218.59L186.64 220.87V222.78H218.64V220.87L212.09 218.59L208.88 191.07Z" fill="white"/>
<path opacity="0.2" d="M199.27 191.07L206.39 222.35L212.09 222.18L208.88 191.07H199.27Z" fill="white"/>
<path d="M119.94 362.17H178.14C178.77 362.17 179.28 361.66 179.28 361.03V357.32C179.28 356.69 178.77 356.18 178.14 356.18H122.94V237.35H177.2C178.35 237.35 179.29 236.42 179.29 235.26V231.35H119.95C118.29 231.35 116.95 232.69 116.95 234.35V359.17C116.94 360.82 118.28 362.17 119.94 362.17Z" fill="#263238"/>
<g opacity="0.4">
<path d="M119.94 362.17H178.14C178.77 362.17 179.28 361.66 179.28 361.03V357.32C179.28 356.69 178.77 356.18 178.14 356.18H122.94V237.35H177.2C178.35 237.35 179.29 236.42 179.29 235.26V231.35H119.95C118.29 231.35 116.95 232.69 116.95 234.35V359.17C116.94 360.82 118.28 362.17 119.94 362.17Z" fill="white"/>
</g>
<path d="M112.49 232.34H265.91C266.98 232.34 267.85 231.47 267.85 230.4V225.67H110.55V230.39C110.54 231.47 111.41 232.34 112.49 232.34Z" fill="#407BFF"/>
<path opacity="0.2" d="M110.554 229.007L267.854 229.007V225.677L110.554 225.677V229.007Z" fill="black"/>
<path d="M107.25 226.54H271.15C272.19 226.54 273.03 225.7 273.03 224.66C273.03 223.62 272.19 222.78 271.15 222.78H107.25C106.21 222.78 105.37 223.62 105.37 224.66C105.37 225.7 106.21 226.54 107.25 226.54Z" fill="#407BFF"/>
</g>
<defs>
<clipPath id="clip0_612_705">
<rect width="500" height="372.61" fill="white"/>
</clipPath>
</defs>
</svg>
